<?xml version="1.0" encoding="UTF-8"?>
<svg id="Layer_1" xmlns="http://www.w3.org/2000/svg" version="1.1" viewBox="0 0 633.89 112.5">
  <!-- Generator: Adobe Illustrator 29.8.1, SVG Export Plug-In . SVG Version: 2.1.1 Build 2)  -->
  <defs>
    <style>
      .st0 {
        fill: none;
      }

      .st1 {
        fill: #002532;
      }
    </style>
  </defs>
  <rect class="st0" x="143.3" y="8.81" width="347.64" height="94.88"/>
  <g>
    <g>
      <polygon class="st1" points="161.92 112.5 157.98 112.5 157.98 43.03 147.66 28.99 137.34 43.03 137.34 112.5 133.4 112.5 133.4 41.73 147.66 22.35 161.92 41.73 161.92 112.5"/>
      <polygon class="st1" points="9.91 59.81 16.87 59.81 16.87 57.2 3.48 57.2 3.48 66.78 9.91 66.78 9.91 59.81"/>
      <polygon class="st1" points="28.36 59.81 35.32 59.81 35.32 57.2 21.93 57.2 21.93 66.78 28.36 66.78 28.36 59.81"/>
      <polygon class="st1" points="46.81 59.81 53.77 59.81 53.77 57.2 40.38 57.2 40.38 66.78 46.81 66.78 46.81 59.81"/>
      <polygon class="st1" points="65.27 59.81 72.23 59.81 72.23 57.2 58.84 57.2 58.84 66.78 65.27 66.78 65.27 59.81"/>
      <polygon class="st1" points="83.72 59.81 90.68 59.81 90.68 57.2 77.29 57.2 77.29 66.78 83.72 66.78 83.72 59.81"/>
      <polygon class="st1" points="102.17 59.81 109.13 59.81 109.13 57.2 95.75 57.2 95.75 66.78 102.17 66.78 102.17 59.81"/>
      <polygon class="st1" points="54.47 1.01 52.72 0 50.94 1.03 36.36 8.92 36.36 14.35 52.72 5.5 69.09 14.35 69.09 8.92 54.47 1.01"/>
      <path class="st1" d="M110.86,42.07c-16.13-15.54-37.31-24.09-59.75-24.09-17.62,0-34.55,5.28-48.98,15.27l-2.13,1.48v5.84l4.86-3.39c13.62-9.43,29.62-14.42,46.26-14.42,21.51,0,41.78,8.31,57.09,23.4.45.44,1.05.69,1.68.69h8.48v65.64h4.78V42.07h-12.28Z"/>
      <g>
        <rect class="st1" x="142.08" y="50.46" width="4.28" height="16.32"/>
        <rect class="st1" x="149.38" y="50.46" width="4.28" height="16.32"/>
      </g>
    </g>
    <g>
      <path class="st1" d="M205.1,70.96c3.27,0,6.65,0,9.49,1.81,3.33,2.12,5.08,5.14,5.08,9.07,0,4.72-3.14,7.86-7.5,8.95v.12c5.14,1.03,8.65,4.96,8.65,10.34,0,3.63-2.18,6.83-5.08,8.95-3.02,2.24-7.07,2.24-10.64,2.24h-18.56v-41.48h18.56ZM196.21,87.41h6.59c1.69,0,3.69.12,5.14-.97,1.15-.85,1.75-2.36,1.75-3.75,0-1.51-.73-2.96-2.06-3.75-1.39-.79-3.93-.61-5.56-.61h-5.87v9.07ZM196.21,104.77h6.71c1.75,0,3.99.12,5.5-.91,1.39-.91,2.18-2.6,2.18-4.29,0-1.57-.97-3.2-2.36-3.99-1.39-.79-3.33-.79-4.9-.79h-7.13v9.98Z"/>
      <path class="st1" d="M238.97,79.01v8.4h15.72v7.8h-15.72v9.19h19.95v8.04h-29.63v-41.48h29.63v8.04h-19.95Z"/>
      <path class="st1" d="M277.25,112.45h-9.67v-41.48h17.48c3.69,0,7.44.06,10.64,2.12,3.39,2.24,5.26,6.29,5.26,10.34,0,4.72-2.72,9.07-7.2,10.7l7.68,18.32h-10.76l-6.35-16.39h-7.07v16.39ZM277.25,88.92h5.32c2,0,4.17.18,5.93-.85,1.57-.97,2.42-2.9,2.42-4.72,0-1.63-.97-3.39-2.36-4.23-1.63-1.03-4.41-.79-6.23-.79h-5.08v10.58Z"/>
      <path class="st1" d="M319.95,90.5l13-19.53h9.31l-9.98,14.81,12.46,26.67h-10.7l-8.22-17.96-5.87,8.4v9.55h-9.43v-41.48h9.43v19.53Z"/>
      <path class="st1" d="M361.74,79.01v8.4h15.72v7.8h-15.72v9.19h19.96v8.04h-29.63v-41.48h29.63v8.04h-19.96Z"/>
      <path class="st1" d="M416.29,104.22v8.22h-26.36v-41.48h9.67v33.26h16.69Z"/>
      <path class="st1" d="M433.11,79.01v8.4h15.72v7.8h-15.72v9.19h19.95v8.04h-29.63v-41.48h29.63v8.04h-19.95Z"/>
      <path class="st1" d="M480.82,94.97v17.48h-9.67v-17.48l-13.12-24.01h11.25l7.98,15.78,7.86-15.78h8.71l-13,24.01Z"/>
      <path class="st1" d="M548.13,104.22v8.22h-26.37v-41.48h9.67v33.26h16.69Z"/>
      <path class="st1" d="M591.86,112.45h-10.46l-2.54-8.53h-13.42l-2.6,8.53h-8.53l13.3-41.48h11.25l13,41.48ZM576.62,96.3l-4.41-14.57-4.41,14.57h8.83Z"/>
      <path class="st1" d="M618.17,70.96c3.27,0,6.65,0,9.49,1.81,3.32,2.12,5.08,5.14,5.08,9.07,0,4.72-3.14,7.86-7.5,8.95v.12c5.14,1.03,8.65,4.96,8.65,10.34,0,3.63-2.18,6.83-5.08,8.95-3.02,2.24-7.07,2.24-10.64,2.24h-18.56v-41.48h18.56ZM609.28,87.41h6.59c1.69,0,3.69.12,5.14-.97,1.15-.85,1.75-2.36,1.75-3.75,0-1.51-.72-2.96-2.06-3.75-1.39-.79-3.93-.61-5.56-.61h-5.87v9.07ZM609.28,104.77h6.71c1.75,0,3.99.12,5.5-.91,1.39-.91,2.18-2.6,2.18-4.29,0-1.57-.97-3.2-2.36-3.99-1.39-.79-3.32-.79-4.9-.79h-7.14v9.98Z"/>
    </g>
  </g>
</svg>