<?xml version="1.0" encoding="UTF-8"?>
<svg id="Layer_1" xmlns="http://www.w3.org/2000/svg" version="1.1" viewBox="0 0 570.72 143.04">
  <!-- Generator: Adobe Illustrator 29.8.1, SVG Export Plug-In . SVG Version: 2.1.1 Build 2)  -->
  <defs>
    <style>
      .st0 {
        fill: #16607b;
      }

      .st1 {
        fill: #010101;
      }

      .st2 {
        fill: #17607c;
      }

      .st3 {
        fill: #18617c;
      }

      .st4 {
        fill: #030303;
      }

      .st5 {
        fill: #145e7a;
      }

      .st6 {
        fill: #125d79;
      }

      .st7 {
        fill: #01acdb;
      }

      .st8 {
        fill: #4c8599;
      }

      .st9 {
        fill: #020202;
      }

      .st10 {
        fill: #155f7a;
      }

      .st11 {
        fill: #135e79;
      }

      .st12 {
        fill: #115c78;
      }

      .st13 {
        fill: #040404;
      }

      .st14 {
        fill: #01addb;
      }

      .st15 {
        fill: #105c78;
      }

      .st16 {
        fill: #165f7b;
      }

      .st17 {
        fill: #b1d23b;
      }
    </style>
  </defs>
  <path class="st15" d="M22.07,46.24c.01,12.05-.72,25.38-.01,37.27.4,6.77,3.27,11.66,8.9,15.31,10.02,6.48,21.39,11.7,31.49,18.16l.64.19v25.64L7.84,110.89c-2.91-2.08-5.12-4.82-6.52-8.11l-1.32-4.55c0-.32,0-.64,0-.96.48-21,.14-42.18.24-63.25l21.83,12.22Z"/>
  <path class="st14" d="M64.53,0c2.72.53,5.42,1.2,7.84,2.59l53.82,31.19-22.07,12.46c-.59-.08-1.08-.42-1.6-.68-10.13-5.07-19.95-12.19-30.06-17.42-4.55-2.35-8.45-3.23-13.59-2.06-6.12,1.38-11.79,7.01-17.37,9.25-.25.1-.43.19-.71.13V10.06c5.9-2.79,11.12-7.02,17.27-9.22l3.6-.84h2.88Z"/>
  <path class="st8" d="M.24,34.02c-.1,21.07.24,42.25-.24,63.25v-63.49h.24v.24Z"/>
  <path class="st17" d="M126.19,33.78v63.38c-.42,5.77-3.5,11.08-8.42,14.11l-54.68,31.53v-25.64l1.12-.44c10.04-6.47,21.57-11.63,31.49-18.15,4.85-3.19,7.96-8.26,8.43-14.11v-38.23s22.06-12.46,22.06-12.46Z"/>
  <path class="st13" d="M179.08,14.86c4.07.34,7.75,2.2,9.06,6.28.93,2.88,1.1,13.77.12,16.55-.7,1.99-2.2,3.59-4.11,4.47l-.15.5c2.55.61,4.44,2.79,5.11,5.32.91,3.44.73,14.85-.74,18.09-1.22,2.67-4.91,5.11-7.84,5.11h-31.07V14.86h29.63ZM157.37,38.81h20.99c1.12,0,2.28-1.5,2.46-2.57.29-1.7.29-10.48-.11-12-.26-1-1.63-2.2-2.59-2.2h-20.75v16.77ZM157.37,63.97h21.71c1.31,0,2.34-1.85,2.5-3.02.34-2.47.28-9.16.02-11.72-.15-1.45-.57-2.48-1.98-3.05-.19-.08-1.41-.43-1.49-.43h-20.75v18.21Z"/>
  <path class="st9" d="M525.62,51.27h-26.87v10.18c0,.1.35,1.29.43,1.49.58,1.41,2.09,1.87,3.52,1.99,2.8.24,9.49.32,12.18-.07,1.47-.21,3.3-1.27,3.3-2.93v-4.67h7.44v5.39c0,3.2-2.64,6.74-5.63,7.8-3.33,1.18-15.5,1.02-19.45.72-6.46-.48-8.88-4.32-9.24-10.42-.39-6.63-.45-16.42.01-23.01.39-5.54,2.86-9.42,8.76-9.94,3.96-.35,14.97-.46,18.59.35s6.95,4.13,6.95,8.15v14.97ZM518.18,45.76v-8.98c0-1.34-1.82-2.51-3.06-2.69-2.73-.4-9.57-.32-12.42-.07-1.51.13-2.91.51-3.52,1.99-.07.18-.43,1.41-.43,1.49v8.27h19.43Z"/>
  <path class="st4" d="M440.93,71.16h-7.44v-5.99c-4.34,5.62-10.84,6.77-17.64,6.24-8.76-.69-10.48-8.47-9.44-15.91.96-6.89,4.8-8.61,11.16-9.46,3.63-.49,7.81-.75,11.49-.99,1.48-.1,3.01.21,4.44-.24v-7.07c0-.19-.48-1.76-.62-2.02-.74-1.36-2.63-1.6-4.05-1.7-2.31-.17-9.91-.27-11.78.47-2.03.8-2.01,3.71-2.02,5.53h-7.44c.2-3.03.13-6.33,2.06-8.84,1.12-1.45,3.11-2.59,4.89-3.02,3.29-.8,13.72-.65,17.41-.36,5.57.44,8.99,4.39,8.99,9.95v33.42ZM433.5,49.84c-4.88.89-10.11,1.04-14.96,1.95-1.83.34-3.46.54-4.28,2.43-.86,2-.88,7.26.32,9.11,1.75,2.67,9.24,1.59,11.96.76,2.47-.75,4.9-2.29,6.95-3.84v-10.42Z"/>
  <path class="st13" d="M369.92,12.46v21.08c4.44-4.85,9.87-6.68,16.43-6.23,5.31.37,10.44,3.22,10.44,9.22v34.62h-7.68v-34.38c0-.21-.6-1.34-.83-1.56-1.48-1.41-5.95-1.17-7.92-.95-3.8.43-7.4,1.91-10.44,4.19v32.71h-7.44V12.46h7.44Z"/>
  <path class="st13" d="M282.79,27.86c4.29-.49,13.82-.47,18.14-.04,6.25.63,8.23,4.94,8.56,10.62.38,6.56.39,15.74-.01,22.29-.37,5.9-2.64,9.89-9,10.42-3.87.32-15.87.48-19.26-.4-5.19-1.36-6.5-5.37-6.78-10.24-.37-6.53-.37-15.53,0-22.06.32-5.58,2.21-9.89,8.35-10.59ZM285.91,34.33c-2.96.34-3.78,1.45-4.03,4.37-.48,5.65-.44,15.65-.01,21.33.15,2.02.62,4.14,3,4.43,3.07.37,10.52.28,13.69,0,2.1-.19,3.05-1.13,3.24-3.23-.52-7.58.66-16.02,0-23.5-.12-1.37-.63-2.55-1.99-3.04-2.06-.74-11.41-.63-13.9-.35Z"/>
  <path class="st4" d="M238.17,27.86c3.74-.42,16.13-.53,19.54.24,4.18.94,6.47,4.03,6.91,8.19-.62,8.54.8,18.19-.01,26.6-.48,4.92-3.95,7.84-8.76,8.26-3.79.34-15.94.47-19.26-.4-4.9-1.28-6.48-5.05-6.78-9.76-.42-6.62-.42-16.4,0-23.02.35-5.4,2.54-9.45,8.35-10.11ZM241.29,34.33c-2.51.27-3.72,1.04-4,3.67.41,7.27-.65,15.33-.04,22.5.16,1.91.85,3.69,3,3.95,3.09.37,10.51.28,13.69,0,2.25-.2,3.05-1.3,3.24-3.48-.52-7.51.66-15.86,0-23.26-.12-1.37-.63-2.55-1.99-3.04-2.09-.75-11.36-.62-13.9-.35Z"/>
  <path class="st1" d="M327.46,12.46v37.38l17.87-22.04h8.76l-13.64,16.61,14.84,26.76h-8.16l-11.28-21.08c-.42-.08-.59.22-.84.47-2.63,2.72-4.88,6.24-7.55,8.99v11.62h-7.2V12.46h7.2Z"/>
  <path class="st4" d="M570.48,71.16h-7.44v-33.18c0-.12-.34-1.51-.42-1.73-.42-1.14-1.5-1.67-2.63-1.92-2.48-.56-6.89-.09-9.37.59s-4.95,2.05-7.01,3.54v32.71h-7.44V27.79h7.44v5.75c4.95-5.66,12.91-7.5,20.1-5.58,3.68.99,6.77,4.35,6.77,8.33v34.86Z"/>
  <polygon class="st9" points="454.97 27.79 466.48 64.45 478 27.79 485.32 27.79 470.81 70.92 461.95 71.18 447.41 27.79 454.97 27.79"/>
  <polygon class="st16" points="154.38 91.05 170.09 116.44 170.09 91.41 170.45 91.05 174.65 91.05 174.65 124.35 170.21 124.35 154.02 98.47 154.02 124.35 149.46 124.35 149.46 91.05 154.38 91.05"/>
  <path class="st9" d="M207.51,27.79v6.23c2.3-2.08,4.7-4.31,7.68-5.39.59-.21,2.75-.84,3.23-.84h5.64v6.95c-5.92-.36-11.77.85-16.55,4.43v31.99h-7.44V27.79h7.44Z"/>
  <path class="st6" d="M395.11,89.61v12.46c2.38-1.94,4.37-3.33,7.56-3.59,4.22-.34,8.51.5,8.99,5.39.37,3.78.3,11.02.01,14.86-.52,6.92-8.35,6.63-13.28,4.62l-3.28-2.35v3.35h-4.32v-34.74h4.32ZM406.8,119.73c.27-.32.51-1.29.55-1.73.31-3.11.28-9.57,0-12.71-.14-1.64-.58-2.49-2.31-2.72-3.5-.47-6.99.53-9.88,2.42.24,1.98-.58,11.98.17,13.03,1.41,1.96,9.87,3.56,11.46,1.71Z"/>
  <path class="st0" d="M481.96,124.35h-4.56v-3.35c-2.91,3.25-7.54,4.24-11.72,3.2-3.41-.85-4.35-3.93-4.37-7.15-.02-3.51,1.15-6.35,4.77-7.24s7.68-.66,11.32-1.03v-4.67c0-.68-.88-1.44-1.57-1.54-1.35-.21-6.03-.19-7.41,0-1.82.25-1.76,1.8-1.82,3.34h-4.32c-.18-2.72.39-5.66,3.19-6.76,1.76-.69,8.93-.63,11.09-.44,1.87.16,3.78,1.04,4.63,2.8.34.7.76,2.83.76,3.55v19.29ZM477.4,111.89c-.51-.01-1.02-.01-1.53.03-1.65.14-7.32.76-8.55,1.29-1.89.81-1.86,5.23-.83,6.58,1.13,1.48,5.18.79,6.78.31,1.49-.44,2.72-1.41,4.13-1.98v-6.23Z"/>
  <path class="st5" d="M384.08,124.35h-4.32v-3.35c-2.99,4.01-13.08,5.41-15.32.33-1.16-2.62-1.15-7.87.93-10.03,2.51-2.61,10.86-2.04,14.39-2.52v-4.43c0-.55-.73-1.6-1.37-1.75-.99-.23-6.75-.21-7.85-.04-1.65.26-1.64,1.99-1.57,3.34h-4.32c-.4-3.49.86-6.7,4.7-7.16,2.08-.25,9.36-.27,11.18.28,1.59.48,3.55,2.42,3.55,4.13v21.2ZM379.76,111.89c-2.34.16-4.73.38-7.04.75-4.24.69-4.92.89-4.48,5.61.27,2.98,3.86,2.62,6.07,2.2,1.91-.36,3.99-1.44,5.46-2.69v-5.87Z"/>
  <path class="st5" d="M309.23,124.35h-4.32v-3.35c-3.31,4.22-13.84,5.59-15.67-.52-1.26-4.22-.49-9.51,4.35-10.67,3.55-.85,7.68-.7,11.32-1.03v-4.43c0-.55-.73-1.6-1.37-1.75-.98-.23-6.76-.21-7.85-.04-1.54.24-1.69,2.05-1.57,3.34h-4.32c-.34-3.48.86-6.7,4.7-7.16,2.08-.25,9.36-.27,11.18.28,1.59.48,3.55,2.42,3.55,4.13v21.2ZM304.91,111.89c-1.15-.03-2.3.15-3.44.27-1.64.18-5.04.48-6.45.99-1.13.4-1.53,1.04-1.63,2.2-.08.91-.09,2.84.17,3.69.74,2.41,5.16,1.63,7.04,1.12,1.52-.41,3.13-1.36,4.32-2.4v-5.87Z"/>
  <path class="st10" d="M201.76,124.35h-4.32v-3.35l-2.75,2.16c-5.34,2.42-12.84,2.53-13.33-4.91-.32-4.91.72-7.9,5.92-8.73,3.33-.53,6.81-.46,10.17-.75v-3.71c0-.96-.56-2.23-1.61-2.47s-6.15-.2-7.39-.06c-1.92.22-1.89,1.76-1.79,3.36h-4.56c.04-2.54.36-5.32,2.9-6.57,1.83-.9,9.09-.83,11.38-.63,2.1.18,4.04,1,4.86,3.05.1.26.53,1.73.53,1.87v20.73ZM197.44,111.89c-2.39.14-4.9.37-7.28.75-3.22.51-4.48.3-4.49,4.16,0,4.27,2.52,4.31,6.11,3.69,2-.35,4.13-1.41,5.66-2.73v-5.87Z"/>
  <path class="st0" d="M240.8,98.78c2.3-.32,8.9-.34,11.19-.04,2.97.39,4.46,2.51,4.71,5.36.32,3.77.36,11.37-.01,15.1-.22,2.17-1.48,4.1-3.6,4.79s-11.32.6-13.38-.05c-2.67-.83-3.46-3.11-3.66-5.69-.27-3.68-.28-9.75,0-13.44.23-3.09,1.39-5.58,4.75-6.04ZM242.72,102.61c-1.09.17-1.85.58-2.09,1.75.29,4.47-.43,9.49-.02,13.89.11,1.22.51,1.88,1.81,2.03,1.15.13,7.96.13,8.7-.19.67-.28.95-.93,1.03-1.61.37-3.13.3-10.71,0-13.91-.13-1.38-.67-1.82-2.07-2-1.53-.21-5.83-.19-7.35.04Z"/>
  <path class="st0" d="M422.16,98.78c2.4-.32,8.52-.32,10.95-.04s3.95,1.56,4.59,3.8c.74,2.62.63,13.11.35,16.17-.22,2.44-1.19,4.46-3.64,5.23-2.13.66-9.18.64-11.58.41s-4.4-1.43-5.09-3.78-.57-13.85-.28-16.67,1.75-4.72,4.71-5.12ZM423.84,102.61c-.84.14-1.76.56-1.84,1.52l.11,15.2c.45.6.93.88,1.67.97,1.14.14,7.96.13,8.7-.19.67-.28.95-.93,1.03-1.61.36-3.08.3-10.53,0-13.67-.07-.77-.25-1.49-.99-1.89-.99-.54-7.35-.54-8.68-.32Z"/>
  <path class="st6" d="M508.52,98.77c2.21-.34,8.91-.3,11.19-.03,2.7.32,4.47,2.19,4.71,4.88.34,3.75.41,12.38,0,16.06-.18,1.63-1.22,3.31-2.72,3.99-2.13.97-9.72.9-12.27.67-3.01-.27-5.13-2.05-5.41-5.14-.34-3.68-.39-12.19.04-15.8.29-2.41,2.07-4.27,4.47-4.64ZM510.45,102.61c-1.28.2-1.89.66-2.08,2-.39,2.76-.31,10.54-.03,13.41.12,1.24.48,2.11,1.81,2.27,1.16.14,8.19.13,8.94-.19s.94-1.12,1.02-1.86c.34-3.02.3-10.11,0-13.19-.07-.8-.21-1.7-.99-2.13-1.01-.56-7.3-.52-8.68-.31Z"/>
  <path class="st3" d="M283.32,124.35h-4.56v-20.49c0-1.59-4.1-1.41-5.15-1.31-2.15.2-4.42,1.21-6.12,2.51v19.29h-4.56v-25.64h4.56l.12,3.12c1.11-.69,1.97-1.77,3.16-2.36,2.89-1.43,9.2-1.76,11.35,1.04.42.54,1.2,2.26,1.2,2.87v20.96Z"/>
  <path class="st11" d="M551.77,98.71l6.48,20.13,7.31-20.13h4.2l-12.11,33.06h-3.96c.43-2.73,2.16-5.22,2.35-7.96l-8.83-25.1h4.56Z"/>
  <polygon class="st11" points="344.26 91.05 344.26 120.04 360.09 120.04 360.09 124.35 339.7 124.35 339.7 91.05 344.26 91.05"/>
  <path class="st2" d="M213.99,92.48v6.23h6v3.83h-6v16.16c0,.71,1.2,1.81,1.8,1.81h4.2v3.83h-5.64c-1.02,0-2.94-1.1-3.6-1.91-.51-.62-1.31-2.5-1.31-3.24v-16.65h-3.48l-.36-.36v-3.47h3.84v-6.23h4.56Z"/>
  <path class="st11" d="M493.95,92.48v6.23h6.24v3.47l-.36.36h-5.88c.35,4.88-.47,10.41,0,15.21.05.48.25,1.52.5,1.9.14.21,1.17.86,1.3.86h4.44v3.83h-5.64c-.9,0-2.8-.91-3.45-1.58-.47-.48-1.46-2.25-1.46-2.85v-17.37h-3.84v-3.83h3.84v-6.23h4.32Z"/>
  <path class="st3" d="M448.85,98.71v3.35c1.02-.68,1.88-1.59,2.96-2.2.53-.29,2.45-1.16,2.92-1.16h3.72v4.07c-3.51-.09-6.57.67-9.6,2.4v19.17h-4.56v-25.64h4.56Z"/>
  <rect class="st12" x="316.19" y="89.61" width="4.32" height="34.74"/>
  <path class="st6" d="M535.21,98.71v3.59c1-.78,1.93-1.72,3.05-2.35.58-.33,2.54-1.25,3.07-1.25h3.72v4.07c-3.54-.05-7.01.49-9.84,2.76v18.81h-4.32v-25.64h4.32Z"/>
  <rect class="st15" x="225.27" y="98.71" width="4.32" height="25.64"/>
  <rect class="st16" x="225.03" y="90.33" width="4.8" height="5.03"/>
  <path class="st17" d="M63.09,95.6v-25.64l22.07-12.7c.09.16.32.28.25.57-.95,8.16,2.55,20-3.49,26.5-2.14,2.31-14.42,9.3-17.71,10.82-.37.17-.7.42-1.12.44Z"/>
  <path class="st7" d="M85.16,57.26l-22.07,12.7-22.07-12.7,16.1-9.43c10.13-5.03,18.95,5.22,27.65,9,.2.09.28.26.39.44Z"/>
  <path class="st12" d="M63.09,69.96v25.64l-.64-.19c-5.6-4.23-16.67-7.53-20.03-13.79s-.85-16.81-1.65-23.79c-.07-.3.15-.41.25-.57l22.07,12.7Z"/>
  <path class="st7" d="M.24,33.78l21.83-12.7c0,8.38,0,16.77,0,25.16L.24,34.02v-.24Z"/>
</svg>