<?xml version="1.0" encoding="UTF-8"?>
<svg id="Layer_1" xmlns="http://www.w3.org/2000/svg" version="1.1" viewBox="0 0 192.77 173.32">
  <!-- Generator: Adobe Illustrator 30.1.0, SVG Export Plug-In . SVG Version: 2.1.1 Build 136)  -->
  <defs>
    <style>
      .st0 {
        fill: #005898;
      }
    </style>
  </defs>
  <path class="st0" d="M0,17.01c.82-1.36,1.04-3.36,2.43-4.32-1.73,6.23,2.41,12.77,6.1,17.52,15.42,19.86,51.16,39.2,74.36,48.75,24.43,10.06,66.28,24.17,92.43,21.16,27.63-3.18,13.11-22.76.71-33.85-7.02-6.29-14.95-11.66-22.95-16.6v32.94h15.93v15.66c-12.53,0-24.85-2.59-36.96-5.43l-.02-54.65-.43-.65-6.86-3.27v56.42c-10.36-2.63-20.53-6.26-30.5-10.13l-.48-.6-3.84-10.6v9.45l-20.25-8.64V22.95h21.87l12.96,35.37V25.78c-6.94-3.27-14.41-5.65-21.75-7.94l-.65-.97,7.7,2.29c4.92,1.63,9.73,3.83,14.71,5.13v-1.35h20.25v10.12c2.27,1.38,4.78,2.62,7.29,3.37v-13.5h21.06v25.65c14.52,9.23,30.68,19.74,38.54,35.57l1.14,4.12v2.7c-2.45,7.56-10.28,10.22-17.46,11.29-10.72,1.61-19.05-.4-29.37-1.05-4.53-.28-9.35.23-13.92.01l-.04-2.66-7.25-1.65v4.32h-23.35l-4.86-13.22-6.61-2.44v15.66h-20.11l-.4-.4v-24.43l-7.02-3.24v28.08h-21.33v-39.96c-4.24-2.21-8.31-4.88-12.24-7.61C19.35,47.09,5.77,36.34,1.3,25.56c-.47-1.14-.59-2.45-1.3-3.42v-5.13Z"/>
  <path class="st0" d="M53.73,0c11.66,2.63,9.86,19.94-2.31,19.45-4.79-.19-8.21-3.75-9.28-8.26-8.69-.97-17.9-1.98-26.53-.03-3.61.82-8.48,2.66-9.4,6.66-.4-.12-.51-1.4-.53-1.76C4.65,2.19,26.85,3.21,36.04,3.78c2.42.15,4.88.54,7.29.82l.41-.15c1.46-2.42,3.69-3.47,6.21-4.46h3.78,0Z"/>
  <polygon class="st0" points="123.65 173.32 126.58 162.93 122.3 148.76 124.33 149.02 127.56 159.56 130.56 148.74 132.29 148.76 125.81 172.38 125 173.32 123.65 173.32"/>
  <polygon class="st0" points="97.19 109.61 108.8 129.05 108.8 110.42 110.69 110.42 110.69 136.61 99.08 116.9 99.08 135.53 97.19 135.53 97.19 109.61"/>
  <path class="st0" d="M62.63,137.15v13.23c.55-.36.7-1.06,1.36-1.47,3.9-2.43,5.97,3.32,6.19,6.2.37,4.69-1.85,13.54-7.55,7.96v1.35h-1.89v-27.27h1.89ZM64.99,150.96c-1.99.35-2.71,4.37-2.64,6.04.08,2.21,1.59,6.98,4.47,4.72,2.5-1.95,2.12-11.47-1.83-10.76h0Z"/>
  <path class="st0" d="M55.35,108.26v27.27h-1.62v-1.89c-.6.49-.92,1.27-1.63,1.74-3.98,2.62-6.01-3.78-6.19-6.74-.3-4.89,2.65-13.24,7.82-6.88v-13.5h1.62ZM52.28,122.66c-4.57-4.38-6.62,10.13-1.91,10.7,3.93.48,4.23-8.47,1.91-10.7h0Z"/>
  <path class="st0" d="M71.27,108.26v12.96c.57-.34.67-1.09,1.37-1.46.98-.52,2.26-.37,3.09.37,2.35,2.08,1.17,12.25,1.48,15.4h-1.89v-11.48c0-1.53-2.22-2.99-3.3-1.14-.15.26-.75,2.28-.75,2.49v10.12h-1.62v-27.27h1.62Z"/>
  <path class="st0" d="M163.61,135.53h-1.62l-.13-1.89c-4.17,5.76-7.44-.31-7.71-4.98-.28-4.98,2.55-13.25,7.84-6.9v-1.89h1.62v15.66h0ZM158.41,122.08c-3.38.69-3.27,11.31.48,11.31,4.29,0,4.11-12.25-.48-11.31Z"/>
  <path class="st0" d="M58.04,164.42h-1.62v-1.89c-.53.26-.61,1-1.1,1.46-2.53,2.36-5.02-.08-5.92-2.66s-.97-5.43-.41-7.99c.93-4.22,4.3-7.12,7.44-2.69v-1.89h1.62v15.66ZM51.93,151.55c-2.32,2.24-2.12,11.21,1.91,10.7,2.99-.38,2.96-7.14,2.02-9.28-.68-1.56-2.45-2.85-3.93-1.42h0Z"/>
  <path class="st0" d="M97.73,164.42h-1.62v-1.62c-3.95,5.02-7.22.07-7.57-4.44-.16-2.11-.09-4.65.69-6.62.87-2.21,2.75-4.28,5.25-2.83.7.41,1.04,1.3,1.63,1.74v-1.89h1.62v15.66h0ZM92.8,150.96c-4.54.88-2.72,14.61,1.83,10.76,2.52-2.13,2-11.5-1.83-10.76Z"/>
  <path class="st0" d="M66.68,135.53h-1.62v-1.89c-.53.26-.61,1-1.1,1.46-1.71,1.59-3.73.77-4.95-.93-2.22-3.1-2.25-10.06.12-13.07,1.92-2.43,4.38-1.88,5.8.67l.13-1.9h1.62v15.66h0ZM61.48,122.08c-3.17.71-3.05,10.21-.21,11.17,5.01,1.69,5.28-12.3.21-11.17Z"/>
  <path class="st0" d="M121.76,135.53h-1.62v-1.62c-.86.7-1.03,1.67-2.31,1.87-5.83.94-5.97-9.48-4.49-13.12,1.39-3.41,4.8-4.58,6.66-.9l.13-1.9h1.62v15.66h0ZM116.55,122.08c-3.05.92-3.15,9.78-.19,11.15s4.1-3.91,4.05-5.92-1.18-6.04-3.87-5.23h0Z"/>
  <path class="st0" d="M83.08,119.66c7.64-1.59,7.44,15.11,2.09,16.12-7.63,1.44-7.6-14.98-2.09-16.12ZM85.77,132.74c2.18-1.98,2.2-9.59-.99-10.6-4.3-1.37-5.33,9.38-1.56,11.02.82.35,1.9.17,2.55-.42Z"/>
  <path class="st0" d="M108.45,148.54c4.89-1.12,6.33,5.92,5.99,9.49-.29,3.02-2.46,8.09-6.24,6.57-5.12-2.06-4.64-14.95.26-16.07h0ZM107.81,161.62c.26.25.79.57,1.14.62,4.88.76,4.85-10.9.77-11.33-3.9-.4-4.32,8.39-1.91,10.7Z"/>
  <path class="st0" d="M137.08,119.67c5.68-1.47,6.74,7.11,5.88,11.01-1.83,8.33-8.97,6.02-9.59-1.77-.2-2.52.77-8.49,3.71-9.24h0ZM136.69,122.65c-2.55,2.32-2.05,11.21,1.92,10.71,4.12-.52,3.82-11.76-.49-11.33-.33.03-1.18.39-1.43.62h0Z"/>
  <path class="st0" d="M73.8,163.78c-3.28-3.03-3.17-14.03,1.46-15.23,5.83-1.51,6.66,8,5.61,11.82-.86,3.13-4,6.25-7.07,3.41ZM75.8,150.97c-3.68.9-3.57,11.49.73,11.3s3.93-12.45-.73-11.3Z"/>
  <path class="st0" d="M152.54,135.53h-1.89v-11.74c0-1.64-2.44-2.63-3.45-.48-.13.29-.6,2.15-.6,2.37v9.85h-1.62v-15.66h1.62l.13,1.62c.92-2.58,3.9-2.82,5.04-.19.22.52.76,2.31.76,2.75v11.47Z"/>
  <path class="st0" d="M43.74,139.58v22.14h3.91c.74.64.31,1.81.4,2.7h-5.94v-24.84h1.62Z"/>
  <rect class="st0" x="166.31" y="108.26" width="1.62" height="27.27"/>
  <polygon class="st0" points="102.32 143.36 102.32 148.76 104.21 148.75 103.96 151.34 102.32 151.46 102.32 164.42 100.7 164.42 100.7 151.46 99.74 151.21 99.62 148.75 100.7 148.76 100.7 143.36 102.32 143.36"/>
  <polygon class="st0" points="126.35 114.2 126.35 119.87 128.24 119.87 127.99 122.45 126.35 122.57 126.35 135.53 124.73 135.53 124.75 122.72 123.9 122.42 123.9 120.02 124.75 119.72 124.73 114.2 126.35 114.2"/>
  <rect class="st0" x="42.12" y="110.69" width="1.62" height="24.84"/>
  <path class="st0" d="M116.36,148.76h1.62v1.35c1.08-1.18,1.48-2.18,3.35-1.38l.18.43-.56,2.17-.37.09c-.53-.52-.94-.63-1.51-.09-1.53,1.43-.93,10.72-1.09,13.08h-1.62v-15.66h0Z"/>
  <path class="st0" d="M82.88,148.76h1.62v1.35c1.08-1.18,1.48-2.18,3.35-1.38.59.42-.33,2.12-.39,2.73-.33.24-.91-1.02-1.88-.12-1.6,1.49-.92,10.67-1.09,13.08h-1.62v-15.66h0Z"/>
  <rect class="st0" x="129.59" y="119.87" width="1.89" height="15.66"/>
  <path class="st0" d="M129.9,112.36l1.31.09c2.29,4.78-3.63,4.72-1.31-.09Z"/>
  <path class="st0" d="M62.36,22.95v43.2c-.32.06-.52-.04-.8-.15-2.11-.85-5.37-2.92-7.48-4.13-4.43-2.52-8.75-5.26-13.05-8.01v-30.91h21.33Z"/>
</svg>