<?xml version="1.0" encoding="UTF-8"?>
<svg id="Layer_1" xmlns="http://www.w3.org/2000/svg" version="1.1" viewBox="0 0 714 642">
  <!-- Generator: Adobe Illustrator 29.8.1, SVG Export Plug-In . SVG Version: 2.1.1 Build 2)  -->
  <defs>
    <style>
      .st0 {
        fill: #005898;
      }
    </style>
  </defs>
  <path class="st0" d="M0,63c3.03-5.05,3.84-12.46,8.99-16-6.41,23.08,8.94,47.3,22.61,64.9,57.12,73.55,189.51,145.2,275.42,180.58,90.48,37.27,245.51,89.54,342.36,78.39,102.36-11.79,48.55-84.3,2.64-125.39-26.02-23.28-55.38-43.18-85.01-61.49v122h59v58c-46.4,0-92.04-9.58-136.9-20.1l-.09-202.41-1.61-2.39-25.4-12.1v209c-38.37-9.76-76.05-23.18-112.99-37.51l-1.79-2.21-14.22-39.28v35l-75-32V85h81l48,131v-120.5c-25.71-12.1-53.36-20.91-80.58-29.42l-2.42-3.58,28.52,8.48c18.23,6.02,36.03,14.2,54.48,19.02v-5h75v37.5c8.4,5.11,17.69,9.72,27,12.5v-50h78v95c53.77,34.18,113.64,73.11,142.76,131.74l4.24,15.26v10c-9.09,28.02-38.09,37.84-64.67,41.83-39.7,5.97-70.58-1.5-108.79-3.88-16.78-1.04-34.65.86-51.55.05l-.13-9.87-26.87-6.13v16h-86.5l-18.02-48.98-24.48-9.02v58h-74.5l-1.5-1.5v-90.5l-26-12v104h-79v-148c-15.7-8.2-30.78-18.06-45.32-28.18C71.69,174.44,21.38,134.62,4.82,94.68c-1.75-4.21-2.17-9.09-4.82-12.68v-19Z"/>
  <path class="st0" d="M199,0c43.2,9.73,36.51,73.87-8.55,72.04-17.74-.72-30.42-13.88-34.39-30.61-32.18-3.61-66.31-7.32-98.25-.12-13.39,3.02-31.42,9.86-34.83,24.68-1.49-.45-1.88-5.17-1.98-6.51C17.23,8.13,99.46,11.89,133.49,14.01c8.96.56,18.06,2,26.99,3.05l1.52-.55c5.41-8.96,13.68-12.85,23.01-16.51h14Z"/>
  <polygon class="st0" points="458 642 468.87 603.5 453 551.01 460.52 551.98 472.5 591.01 483.61 550.94 490 551 465.99 638.49 463 642 458 642"/>
  <polygon class="st0" points="360 406 403 478 403 409 410 409 410 506 367 433 367 502 360 502 360 406"/>
  <path class="st0" d="M232,508v49c2.05-1.33,2.61-3.93,5.05-5.45,14.43-8.99,22.1,12.31,22.94,22.97,1.36,17.39-6.84,50.17-27.98,29.48v5.01s-7.01,0-7.01,0v-101h7ZM240.74,559.15c-7.37,1.31-10.02,16.2-9.79,22.37.3,8.17,5.9,25.85,16.56,17.49,9.25-7.24,7.87-42.48-6.78-39.87Z"/>
  <path class="st0" d="M205,401v101h-6.01s0-6.99,0-6.99c-2.21,1.81-3.42,4.72-6.03,6.45-14.73,9.7-22.26-13.99-22.94-24.96-1.12-18.13,9.81-49.04,28.98-25.49v-50h6ZM193.65,454.35c-16.92-16.23-24.52,37.52-7.06,39.64,14.56,1.76,15.65-31.39,7.06-39.64Z"/>
  <path class="st0" d="M264,401v48c2.11-1.26,2.48-4.02,5.08-5.41,3.62-1.94,8.37-1.36,11.45,1.38,8.69,7.71,4.34,45.36,5.47,57.04h-7.01v-42.51c0-5.67-8.22-11.09-12.22-4.22-.56.95-2.78,8.46-2.78,9.22v37.5h-6v-101h6Z"/>
  <path class="st0" d="M606,502h-6.01s-.49-7.01-.49-7.01c-15.46,21.32-27.57-1.16-28.54-18.44-1.05-18.44,9.43-49.09,29.03-25.55v-7s6.01,0,6.01,0v58ZM586.74,452.18c-12.52,2.56-12.1,41.88,1.76,41.88,15.9,0,15.24-45.36-1.76-41.88Z"/>
  <path class="st0" d="M215,609h-6.01s0-6.99,0-6.99c-1.95.95-2.26,3.69-4.09,5.4-9.36,8.74-18.61-.3-21.94-9.87s-3.6-20.13-1.52-29.59c3.44-15.64,15.93-26.36,27.55-9.95v-7s6.01,0,6.01,0v58ZM192.35,561.34c-8.6,8.3-7.84,41.54,7.06,39.63,11.09-1.42,10.95-26.44,7.49-34.38-2.52-5.79-9.06-10.55-14.56-5.25Z"/>
  <path class="st0" d="M362,609h-6.01s0-6,0-6c-14.63,18.59-26.75.26-28.03-16.46-.6-7.83-.32-17.22,2.56-24.53,3.22-8.18,10.19-15.86,19.44-10.47,2.59,1.51,3.85,4.81,6.04,6.45v-7s6.01,0,6.01,0v58ZM343.74,559.15c-16.81,3.26-10.07,54.12,6.77,39.87,9.34-7.9,7.39-42.61-6.77-39.87Z"/>
  <path class="st0" d="M247,502h-6.01s0-6.99,0-6.99c-1.96.95-2.25,3.69-4.09,5.39-6.34,5.88-13.82,2.86-18.33-3.46-8.21-11.5-8.35-37.26.46-48.41,7.13-9.01,16.23-6.97,21.47,2.48l.49-7.02h6.01v58.01ZM227.72,452.19c-11.76,2.63-11.3,37.82-.79,41.37,18.57,6.27,19.55-45.57.79-41.37Z"/>
  <path class="st0" d="M451,502h-6.01s0-6,0-6c-3.17,2.58-3.83,6.18-8.54,6.94-21.61,3.48-22.13-35.11-16.62-48.61,5.16-12.64,17.77-16.98,24.67-3.32l.49-7.02h6.01v58.01ZM431.71,452.19c-11.29,3.4-11.65,36.24-.7,41.29s15.19-14.47,15.01-21.92-4.38-22.36-14.32-19.37Z"/>
  <path class="st0" d="M307.73,443.23c28.29-5.88,27.56,55.96,7.73,59.71-28.27,5.35-28.15-55.47-7.73-59.71ZM317.69,491.69c8.06-7.33,8.16-35.51-3.65-39.26-15.94-5.06-19.74,34.76-5.79,40.81,3.02,1.31,7.04.63,9.44-1.55Z"/>
  <path class="st0" d="M401.71,550.21c18.12-4.13,23.43,21.94,22.17,35.16-1.06,11.17-9.13,29.98-23.12,24.35-18.98-7.63-17.19-55.38.95-59.52ZM399.35,598.66c.96.93,2.92,2.1,4.22,2.3,18.06,2.8,17.96-40.39,2.84-41.95-14.45-1.5-16,31.06-7.06,39.65Z"/>
  <path class="st0" d="M507.74,443.25c21.04-5.43,24.98,26.32,21.79,40.79-6.79,30.87-33.23,22.29-35.52-6.55-.74-9.35,2.84-31.43,13.73-34.24ZM506.31,454.31c-9.43,8.58-7.58,41.54,7.1,39.67,15.27-1.94,14.15-43.55-1.81-41.97-1.23.12-4.37,1.46-5.29,2.3Z"/>
  <path class="st0" d="M273.35,606.65c-12.15-11.24-11.74-51.97,5.39-56.4,21.6-5.58,24.68,29.64,20.78,43.77-3.2,11.58-14.81,23.15-26.17,12.63ZM280.76,559.21c-13.64,3.35-13.23,42.55,2.72,41.86s14.56-46.11-2.72-41.86Z"/>
  <path class="st0" d="M565,502h-7v-43.5c0-6.09-9.05-9.75-12.77-1.77-.49,1.06-2.23,7.97-2.23,8.77v36.5h-6v-58h6.01s.49,6.01.49,6.01c3.42-9.56,14.45-10.44,18.68-.69.83,1.91,2.82,8.54,2.82,10.18v42.5Z"/>
  <path class="st0" d="M162,517v82h14.5c2.74,2.38,1.13,6.71,1.5,10h-22v-92h6Z"/>
  <rect class="st0" x="616" y="401" width="6" height="101"/>
  <polygon class="st0" points="379 531 379 551 386.01 550.99 385.07 560.56 379 561 379 609 373 609 373 561 369.45 560.08 368.99 550.99 373 551 373 531 379 531"/>
  <polygon class="st0" points="468 423 468 444 475.01 443.99 474.07 453.56 468 454 468 502 461.99 502.01 462.07 454.55 458.93 453.45 458.93 444.55 462.07 443.45 461.99 422.99 468 423"/>
  <rect class="st0" x="156" y="410" width="6" height="92"/>
  <path class="st0" d="M431,551h6.01s0,5,0,5c4-4.37,5.5-8.06,12.41-5.11l.67,1.6-2.07,8.03-1.37.35c-1.97-1.91-3.47-2.33-5.61-.33-5.67,5.31-3.45,39.72-4.04,48.46h-6.01v-58.01Z"/>
  <path class="st0" d="M307,551h6.01s0,5,0,5c4-4.37,5.5-8.06,12.41-5.11,2.19,1.54-1.21,7.87-1.43,10.11-1.22.9-3.38-3.78-6.95-.46-5.91,5.51-3.4,39.54-4.04,48.46h-6.01v-58.01Z"/>
  <rect class="st0" x="480" y="444" width="7" height="58"/>
  <path class="st0" d="M481.16,416.17l4.86.32c8.49,17.69-13.43,17.47-4.86-.32Z"/>
  <path class="st0" d="M231,85v160c-1.18.22-1.92-.14-2.95-.55-7.83-3.14-19.89-10.83-27.72-15.28-16.42-9.34-32.42-19.49-48.33-29.67v-114.5h79Z"/>
</svg>