<?xml version="1.0" encoding="UTF-8"?>
<svg id="Layer_1" xmlns="http://www.w3.org/2000/svg" xmlns:xlink="http://www.w3.org/1999/xlink" version="1.1" viewBox="0 0 853.02 152.19">
  <!-- Generator: Adobe Illustrator 30.1.0, SVG Export Plug-In . SVG Version: 2.1.1 Build 136)  -->
  <defs>
    <style>
      .st0 {
        fill: url(#radial-gradient);
      }

      .st1 {
        fill: #c41230;
      }

      .st2 {
        fill: #f7f7f7;
      }
    </style>
    <radialGradient id="radial-gradient" cx="37.02" cy="4.2" fx="37.02" fy="4.2" r="16.29" gradientTransform="translate(-9.96 135.17) rotate(2.92) scale(1 -1)" gradientUnits="userSpaceOnUse">
      <stop offset="0" stop-color="#fff"/>
      <stop offset="1" stop-color="#c41230"/>
    </radialGradient>
  </defs>
  <g>
    <path class="st1" d="M306.7,14.4c-14.18-23.12-108.11-17.83-209.78,11.8-22.97,6.7-44.36,14.07-63.56,21.73v5.4c21.83-9.23,47.11-17.97,74.45-25.34C196.95,3.96,280.56-5.14,288.77,18.66c3.72,10.79-10.58,26.52-39.98,43.06,3.64.07,6.45.66,8.51,1.84l.91.52-1.9,3.82c38.27-20.18,58.59-40.14,50.38-53.51h.01Z"/>
    <path class="st1" d="M185.12,98.15c5.89-2.05,11.62-4.14,17.19-6.25h-20.05c.34,2.64,1.31,4.66,2.86,6.25Z"/>
    <path class="st1" d="M72.63,120.21l-.83,3.98h-7.48l-1.11,5.3c2.94-.49,5.9-1,8.89-1.54l1.67-7.96c-.38.07-.77.15-1.15.22h.01Z"/>
    <path class="st1" d="M118.04,109.97v-.05c-.06.01-.13.03-.19.05h.19Z"/>
    <path class="st1" d="M50.06,124.19c-5.74.9-11.33,1.69-16.7,2.34v7.12c7.08-.78,14.44-1.76,22-2.92l1.37-6.54h-6.68.01Z"/>
    <path class="st1" d="M171.97,102.57c-1.32-2.17-2.27-4.63-2.87-7.34-4.97,1.62-10.11,3.2-15.35,4.78v8.25c6.18-1.86,12.28-3.75,18.21-5.68h.01Z"/>
    <path class="st1" d="M120.27,109.35v2.86h-11.36c-9.38,2.29-18.56,4.37-27.48,6.23l-1.49,7.08c.38-.2.76-.38,1.12-.53,1.12-.44,2.33-.67,3.59-.67,1.12,0,2.1.24,2.95.65,17.03-3.48,34.77-7.76,52.82-12.82v-8.25c-6.79,1.91-13.51,3.72-20.16,5.45h.01Z"/>
    <path class="st1" d="M216.05,77.73c.61,2.16.91,4.46.91,6.91,0,.45-.04.97-.1,1.52,2.26-.92,4.48-1.86,6.68-2.79v-8.96c-2.44,1.11-4.93,2.21-7.49,3.31h0Z"/>
    <path class="st1" d="M239.75,76.14c2.07-.97,4.09-1.94,6.08-2.91-.09,0-.18-.02-.27-.02-2.17,0-4.07.97-5.81,2.93Z"/>
    <path class="st0" d="M17.75,134.53c-1.42-7.27,3.3-14.29,10.55-15.72,7.26-1.4,14.28,3.32,15.69,10.54,1.42,7.26-3.3,14.29-10.55,15.71-7.23,1.42-14.28-3.31-15.69-10.54h0Z"/>
  </g>
  <path class="st2" d="M0,96.09h10.25c.97,3.77,4.14,5.65,9.48,5.65,3.78,0,6.45-1.23,8-3.67,1.55-2.45,2.33-6.16,2.33-11.14v-40.64h11.51v40.31c0,8.61-1.83,15-5.49,19.16-3.66,4.16-9.53,6.24-17.62,6.24-5.37,0-9.71-1.4-13.02-4.21C2.13,104.99.32,101.09,0,96.1h0Z"/>
  <path class="st2" d="M95.88,90.79h-33.88c.21,3.77,1.51,6.7,3.9,8.79,2.39,2.09,5.61,3.14,9.66,3.14,5.05,0,8.89-1.3,11.52-3.91l4.3,8.44c-3.9,3.16-9.72,4.74-17.46,4.74-7.24,0-12.96-2.12-17.17-6.35-4.21-4.24-6.32-10.15-6.32-17.73s2.31-13.51,6.93-18.15c4.62-4.63,10.17-6.95,16.64-6.95,6.88,0,12.4,2.05,16.57,6.15s6.25,9.33,6.25,15.67c0,1.36-.31,3.41-.93,6.15h-.01ZM62.35,82.49h23.37c-.77-6.93-4.62-10.39-11.55-10.39-6.34,0-10.28,3.46-11.82,10.39Z"/>
  <path class="st2" d="M132.05,54.38c-2.43-.8-4.3-1.19-5.61-1.19-2.11,0-3.89.9-5.36,2.71-1.47,1.81-2.2,4.03-2.2,6.67,0,.39.02.77.07,1.16h9.84v9.14h-9.63v38.23h-11.09v-38.23h-6.91v-9.14h6.91c.24-5.82,1.96-10.52,5.18-14.1,3.21-3.58,7.37-5.36,12.46-5.36,2.64,0,5.85.58,9.64,1.72l-3.29,8.4h-.01Z"/>
  <path class="st2" d="M165.53,54.38c-2.43-.8-4.3-1.19-5.61-1.19-2.11,0-3.89.9-5.36,2.71-1.47,1.81-2.2,4.03-2.2,6.67,0,.39.02.77.07,1.16h9.83v9.14h-9.63v38.23h-11.09v-38.23h-6.91v-9.14h6.91c.24-5.82,1.96-10.52,5.17-14.1,3.21-3.58,7.37-5.36,12.46-5.36,2.64,0,5.85.58,9.64,1.72l-3.29,8.4h0Z"/>
  <path class="st2" d="M214.92,90.79h-33.88c.2,3.77,1.5,6.7,3.9,8.79,2.39,2.09,5.61,3.14,9.66,3.14,5.05,0,8.89-1.3,11.52-3.91l4.3,8.44c-3.9,3.16-9.72,4.74-17.46,4.74-7.24,0-12.96-2.12-17.17-6.35-4.21-4.24-6.32-10.15-6.32-17.73s2.31-13.51,6.93-18.15c4.62-4.63,10.17-6.95,16.64-6.95,6.88,0,12.41,2.05,16.57,6.15s6.25,9.33,6.25,15.67c0,1.36-.31,3.41-.93,6.15h0ZM181.39,82.49h23.37c-.77-6.93-4.62-10.39-11.55-10.39-6.34,0-10.28,3.46-11.82,10.39h0Z"/>
  <path class="st2" d="M252.06,73.98c-1.98-1.26-4.14-1.88-6.5-1.88-2.56,0-4.84,1.17-6.83,3.49-1.99,2.33-2.98,5.17-2.98,8.53v26.97h-11.09v-47.37h11.09v4.32c3.09-3.49,7.2-5.23,12.33-5.23,3.77,0,6.66.57,8.66,1.72l-4.69,9.44h.01Z"/>
  <path class="st2" d="M260.44,108.05l3.93-8.82c3.3,2.65,7.02,3.98,11.17,3.98s6.45-1.54,6.45-4.61c0-1.8-.65-3.28-1.95-4.43-1.3-1.15-3.82-2.51-7.56-4.08-8.17-3.4-12.25-8.15-12.25-14.26,0-4.1,1.56-7.3,4.69-9.58,3.12-2.29,7.12-3.43,11.98-3.43s9.55,1.11,13.88,3.33l-3.18,8.6c-2.42-2.09-5.78-3.14-10.08-3.14-3.86,0-5.79,1.54-5.79,4.61,0,1.21.63,2.31,1.9,3.28,1.27.98,3.98,2.28,8.14,3.92s7.15,3.62,8.98,5.96c1.83,2.33,2.74,5.15,2.74,8.45,0,4.4-1.63,7.86-4.88,10.39-3.26,2.52-7.69,3.78-13.29,3.78-3.15,0-5.68-.26-7.58-.78s-4.34-1.57-7.32-3.17h.02Z"/>
  <path class="st2" d="M299.24,87.29c0-7.23,2.09-13.11,6.26-17.66,4.18-4.54,9.69-6.82,16.53-6.82,7.2,0,12.8,2.18,16.78,6.55s5.97,10.34,5.97,17.93-2.03,13.56-6.09,18.02c-4.06,4.46-9.61,6.68-16.67,6.68s-12.8-2.25-16.8-6.75-6-10.48-6-17.95h.02ZM310.75,87.29c0,10.47,3.76,15.7,11.29,15.7,3.45,0,6.19-1.36,8.21-4.08s3.03-6.6,3.03-11.62c0-10.32-3.75-15.48-11.24-15.48-3.45,0-6.2,1.36-8.23,4.08-2.04,2.72-3.06,6.52-3.06,11.4Z"/>
  <path class="st2" d="M384.13,111.09v-27.37c0-4.04-.77-6.98-2.32-8.84-1.54-1.86-4.07-2.79-7.57-2.79-1.62,0-3.35.46-5.19,1.37s-3.27,2.05-4.31,3.4v34.22h-11.09v-47.37h7.97l2.04,4.42c3.01-3.55,7.45-5.33,13.32-5.33s10.09,1.69,13.35,5.07,4.89,8.09,4.89,14.14v29.07h-11.09Z"/>
  <path class="st2" d="M435.05,111.09V46.28h11.51v54.55h29.3v10.25h-40.81Z"/>
  <path class="st2" d="M510.79,106.32c-1,1.67-2.75,3.03-5.24,4.08-2.49,1.06-5.09,1.59-7.8,1.59-5.1,0-9.11-1.28-12.02-3.83-2.92-2.55-4.38-6.17-4.38-10.86,0-5.49,2.06-9.78,6.17-12.88,4.12-3.1,9.97-4.65,17.55-4.65,1.29,0,2.83.23,4.6.7,0-5.58-3.53-8.37-10.59-8.37-4.17,0-7.65.67-10.46,2.02l-2.39-8.58c3.81-1.81,8.34-2.72,13.59-2.72,7.23,0,12.53,1.65,15.89,4.94s5.04,9.53,5.04,18.7v10.14c0,6.32,1.27,10.28,3.81,11.91-.92,1.59-1.93,2.57-3.05,2.93-1.12.37-2.41.55-3.85.55-1.6,0-3.03-.6-4.3-1.79-1.27-1.19-2.13-2.49-2.57-3.88h0ZM509.74,88.84c-1.88-.42-3.29-.63-4.23-.63-8.71,0-13.07,2.87-13.07,8.61,0,4.26,2.46,6.39,7.37,6.39,6.62,0,9.93-3.32,9.93-9.95v-4.42h0Z"/>
  <path class="st2" d="M540.57,108.5l-2.48,3.5h-6.24V46.08l11.09-2.65v22.09c2.95-1.8,6.16-2.7,9.64-2.7,6.93,0,12.52,2.19,16.77,6.57,4.25,4.38,6.37,10,6.37,16.84,0,7.93-2.14,14.21-6.42,18.83-4.28,4.62-10.08,6.93-17.4,6.93-4.4,0-8.17-1.17-11.34-3.5h0ZM542.94,74.96v24.8c1.62,1.92,3.82,2.89,6.59,2.89,5.34,0,9.12-1.27,11.34-3.82,2.22-2.54,3.34-6.61,3.34-12.2,0-9.64-4.6-14.47-13.8-14.47-3.27,0-5.76.93-7.47,2.8h0Z"/>
  <g>
    <path class="st2" d="M92.49,136.82c0-3.47.98-6.23,2.94-8.29s4.53-3.1,7.71-3.1c2.76,0,4.92.76,6.47,2.28s2.33,3.57,2.33,6.14c0,3.03-.97,5.65-2.91,7.86s-4.54,3.31-7.79,3.31c-1.76,0-3.33-.35-4.69-1.06-1.36-.71-2.38-1.7-3.05-3-.67-1.29-1-2.68-1-4.16v.02ZM106.9,133.2c0-1.2-.35-2.16-1.05-2.88-.7-.72-1.6-1.08-2.71-1.08s-2.06.34-2.91,1.01c-.85.68-1.5,1.66-1.97,2.94-.47,1.29-.71,2.47-.71,3.55,0,1.34.36,2.4,1.09,3.19.73.78,1.64,1.18,2.75,1.18,1.39,0,2.55-.59,3.49-1.78,1.34-1.68,2.01-3.72,2.01-6.13h.01Z"/>
    <path class="st2" d="M117.55,125.87h4.76l-.48,2.28c1.86-1.81,3.81-2.72,5.85-2.72,1.41,0,2.5.3,3.26.88.76.58,1.25,1.4,1.46,2.43.65-.94,1.57-1.73,2.78-2.36,1.21-.64,2.47-.95,3.77-.95,1.49,0,2.66.4,3.49,1.2.84.8,1.25,1.86,1.25,3.17,0,.65-.16,1.76-.49,3.35l-2.4,11.44h-5.06l2.4-11.44c.29-1.43.44-2.25.44-2.43,0-.51-.16-.92-.47-1.23-.31-.3-.78-.45-1.4-.45-1.26,0-2.38.67-3.37,1.99-.72.95-1.33,2.64-1.83,5.06l-1.78,8.5h-5.06l2.36-11.31c.27-1.31.41-2.15.41-2.54,0-.49-.17-.9-.5-1.22-.33-.31-.8-.48-1.38-.48-.55,0-1.12.17-1.71.49-.59.33-1.1.78-1.54,1.36s-.82,1.32-1.14,2.22c-.14.42-.37,1.38-.69,2.87l-1.8,8.6h-5.06l3.91-18.72h.02Z"/>
    <path class="st2" d="M153.04,131.17l-4.94-.42c.56-1.67,1.55-2.97,2.95-3.91s3.26-1.41,5.58-1.41,4.19.49,5.34,1.46,1.73,2.15,1.73,3.55c0,.56-.05,1.16-.15,1.8-.1.64-.45,2.3-1.05,5.01-.49,2.23-.74,3.8-.74,4.69,0,.8.14,1.69.42,2.66h-4.92c-.2-.68-.32-1.39-.37-2.11-.74.82-1.59,1.46-2.56,1.9-.96.44-1.93.66-2.91.66-1.55,0-2.83-.51-3.84-1.52-1.01-1.02-1.52-2.32-1.52-3.92,0-1.79.55-3.21,1.67-4.28,1.11-1.07,3.09-1.72,5.95-1.94,2.41-.2,4.02-.44,4.83-.72.21-.71.32-1.27.32-1.69,0-.54-.22-.99-.65-1.36s-1.08-.55-1.94-.55-1.62.19-2.14.56-.88.89-1.07,1.57v-.03ZM157.85,135.87c-.31.08-.71.16-1.22.23-2.54.31-4.2.75-4.97,1.34-.55.42-.83.99-.83,1.71,0,.59.21,1.09.64,1.49.42.41.98.61,1.67.61.76,0,1.48-.18,2.16-.55.68-.37,1.18-.85,1.52-1.43.33-.58.63-1.49.89-2.72l.14-.67h0Z"/>
    <path class="st2" d="M165.32,139.35l4.9-.77c.43,1.03.97,1.77,1.62,2.19.65.43,1.53.64,2.64.64s2.07-.26,2.77-.77c.48-.35.72-.78.72-1.29,0-.34-.12-.65-.37-.92-.26-.26-.96-.58-2.1-.95-3.06-1.01-4.95-1.81-5.68-2.4-1.14-.92-1.71-2.11-1.71-3.6s.55-2.76,1.66-3.82c1.54-1.49,3.83-2.24,6.86-2.24,2.41,0,4.23.44,5.46,1.33,1.23.88,2.02,2.07,2.34,3.58l-4.67.81c-.25-.68-.65-1.19-1.2-1.53-.75-.46-1.66-.69-2.71-.69s-1.82.17-2.28.53c-.47.35-.7.76-.7,1.22s.23.86.71,1.16c.29.19,1.24.52,2.84.99,2.47.72,4.12,1.43,4.95,2.12,1.17.97,1.76,2.15,1.76,3.52,0,1.77-.75,3.31-2.24,4.62-1.49,1.3-3.6,1.95-6.31,1.95s-4.79-.5-6.27-1.49c-1.47-.99-2.48-2.39-3.01-4.19h.02Z"/>
    <path class="st2" d="M211.06,118.75h5.22l-3.26,15.65c-.87,4.15-2.01,6.96-3.42,8.43-1.41,1.47-3.58,2.2-6.5,2.2-2.48,0-4.34-.57-5.57-1.71-1.23-1.14-1.85-2.69-1.85-4.65,0-.41.03-.87.09-1.38l4.92-.53c-.07.52-.11.95-.11,1.29,0,.82.24,1.45.71,1.89s1.19.65,2.17.65c1.36,0,2.32-.4,2.87-1.19.41-.61.91-2.33,1.5-5.17l3.24-15.48h0Z"/>
    <path class="st2" d="M234.38,136.8h-12.69c0,.2-.02.35-.02.46,0,1.25.36,2.25,1.07,3.02.71.76,1.58,1.14,2.6,1.14,1.68,0,2.99-.87,3.93-2.61l4.53.76c-.88,1.82-2.06,3.19-3.53,4.1s-3.13,1.36-4.96,1.36c-2.52,0-4.56-.79-6.13-2.39-1.57-1.59-2.36-3.7-2.36-6.32s.71-4.84,2.13-6.84c1.94-2.7,4.71-4.05,8.3-4.05,2.29,0,4.11.71,5.46,2.13,1.35,1.41,2.03,3.4,2.03,5.95,0,1.23-.12,2.32-.35,3.3h0ZM230.12,133.72c0-.23.02-.4.02-.51,0-1.39-.31-2.42-.93-3.12-.62-.69-1.46-1.04-2.5-1.04s-1.98.4-2.81,1.18c-.83.79-1.39,1.95-1.68,3.49h7.92-.02Z"/>
    <path class="st2" d="M249.28,125.87l-.78,3.71h-3.58l-3.14,15.01h-5.06l3.14-15.01h-2.82l.78-3.71h2.82l.41-1.92c.33-1.57.64-2.64.93-3.19.4-.75,1-1.35,1.79-1.79s1.83-.66,3.11-.66c1.55,0,3.18.28,4.9.85l-.99,3.61c-1.21-.41-2.19-.62-2.94-.62-.58,0-1,.18-1.29.55-.19.24-.38.85-.58,1.85l-.28,1.32h3.58Z"/>
    <path class="st2" d="M260.65,125.87l-.78,3.71h-3.58l-3.14,15.01h-5.06l3.14-15.01h-2.82l.78-3.71h2.82l.41-1.92c.33-1.57.64-2.64.93-3.19.4-.75,1-1.35,1.79-1.79s1.83-.66,3.11-.66c1.55,0,3.18.28,4.9.85l-.99,3.61c-1.21-.41-2.19-.62-2.94-.62-.58,0-1,.18-1.29.55-.19.24-.38.85-.58,1.85l-.28,1.32s3.58,0,3.58,0Z"/>
    <path class="st2" d="M277.85,136.8h-12.69c-.01.2-.02.35-.02.46,0,1.25.36,2.25,1.07,3.02.71.76,1.58,1.14,2.6,1.14,1.68,0,2.99-.87,3.93-2.61l4.53.76c-.88,1.82-2.06,3.19-3.53,4.1s-3.13,1.36-4.96,1.36c-2.52,0-4.56-.79-6.13-2.39-1.58-1.59-2.36-3.7-2.36-6.32s.71-4.84,2.13-6.84c1.94-2.7,4.71-4.05,8.3-4.05,2.29,0,4.11.71,5.46,2.13,1.35,1.41,2.03,3.4,2.03,5.95,0,1.23-.12,2.32-.35,3.3h-.01ZM273.59,133.72c.01-.23.02-.4.02-.51,0-1.39-.31-2.42-.93-3.12-.62-.69-1.46-1.04-2.5-1.04s-1.98.4-2.81,1.18c-.83.79-1.39,1.95-1.68,3.49h7.92-.02Z"/>
    <path class="st2" d="M283.33,125.87h4.72l-.76,3.63c1.76-2.71,3.67-4.07,5.73-4.07.73,0,1.51.18,2.35.55l-1.94,4.14c-.46-.17-.95-.25-1.46-.25-.87,0-1.75.33-2.65.99s-1.6,1.53-2.11,2.63c-.51,1.1-1,2.84-1.5,5.23l-1.23,5.87h-5.06l3.91-18.72h0Z"/>
    <path class="st2" d="M293.1,139.35l4.9-.77c.43,1.03.97,1.77,1.62,2.19.65.43,1.53.64,2.64.64s2.07-.26,2.77-.77c.48-.35.72-.78.72-1.29,0-.34-.12-.65-.37-.92-.26-.26-.96-.58-2.1-.95-3.06-1.01-4.95-1.81-5.68-2.4-1.14-.92-1.71-2.11-1.71-3.6s.55-2.76,1.66-3.82c1.54-1.49,3.82-2.24,6.86-2.24,2.41,0,4.23.44,5.47,1.33,1.23.88,2.01,2.07,2.34,3.58l-4.67.81c-.25-.68-.65-1.19-1.2-1.53-.75-.46-1.66-.69-2.72-.69s-1.82.17-2.28.53-.7.76-.7,1.22.24.86.7,1.16c.29.19,1.24.52,2.84.99,2.47.72,4.12,1.43,4.95,2.12,1.18.97,1.76,2.15,1.76,3.52,0,1.77-.75,3.31-2.24,4.62-1.49,1.3-3.6,1.95-6.31,1.95s-4.79-.5-6.26-1.49c-1.48-.99-2.48-2.39-3.01-4.19h.02Z"/>
    <path class="st2" d="M314.57,136.82c0-3.47.98-6.23,2.93-8.29,1.96-2.06,4.53-3.1,7.71-3.1,2.76,0,4.92.76,6.47,2.28s2.33,3.57,2.33,6.14c0,3.03-.97,5.65-2.91,7.86s-4.54,3.31-7.79,3.31c-1.76,0-3.32-.35-4.69-1.06-1.36-.71-2.38-1.7-3.05-3-.67-1.29-1-2.68-1-4.16v.02ZM328.99,133.2c0-1.2-.35-2.16-1.05-2.88-.7-.72-1.6-1.08-2.71-1.08s-2.06.34-2.91,1.01c-.85.68-1.5,1.66-1.98,2.94-.47,1.29-.7,2.47-.7,3.55,0,1.34.36,2.4,1.09,3.19.73.78,1.65,1.18,2.75,1.18,1.39,0,2.55-.59,3.49-1.78,1.34-1.68,2.01-3.72,2.01-6.13h.01Z"/>
    <path class="st2" d="M339.87,125.87h4.79l-.49,2.43c1.2-1.03,2.32-1.77,3.36-2.21,1.04-.44,2.14-.66,3.29-.66,1.54,0,2.75.44,3.64,1.33.89.88,1.33,2.05,1.33,3.51,0,.66-.19,1.91-.58,3.74l-2.2,10.59h-5.06l2.22-10.63c.33-1.59.49-2.53.49-2.84,0-.65-.19-1.15-.57-1.52-.38-.37-.91-.56-1.59-.56-.74,0-1.56.31-2.47.94-.91.62-1.62,1.44-2.13,2.47-.38.73-.8,2.21-1.27,4.46l-1.6,7.69h-5.06l3.92-18.72-.02-.02Z"/>
    <path class="st2" d="M388.66,144.59h-4.95l-6.98-17.36-3.63,17.36h-4.95l5.39-25.84h4.97l7,17.29,3.61-17.29h4.94l-5.4,25.84h0Z"/>
    <path class="st2" d="M401.17,131.17l-4.94-.42c.56-1.67,1.55-2.97,2.95-3.91,1.4-.94,3.26-1.41,5.58-1.41s4.19.49,5.34,1.46,1.73,2.15,1.73,3.55c0,.56-.05,1.16-.15,1.8s-.45,2.3-1.05,5.01c-.49,2.23-.74,3.8-.74,4.69,0,.8.14,1.69.42,2.66h-4.92c-.2-.68-.33-1.39-.37-2.11-.74.82-1.59,1.46-2.56,1.9-.96.44-1.93.66-2.91.66-1.55,0-2.83-.51-3.84-1.52-1.01-1.02-1.52-2.32-1.52-3.92,0-1.79.56-3.21,1.67-4.28,1.11-1.07,3.09-1.72,5.95-1.94,2.41-.2,4.02-.44,4.83-.72.21-.71.32-1.27.32-1.69,0-.54-.22-.99-.65-1.36s-1.08-.55-1.94-.55c-.91,0-1.62.19-2.14.56s-.88.89-1.07,1.57v-.03ZM405.98,135.87c-.31.08-.71.16-1.22.23-2.54.31-4.2.75-4.97,1.34-.55.42-.83.99-.83,1.71,0,.59.21,1.09.63,1.49.42.41.98.61,1.67.61.77,0,1.48-.18,2.16-.55s1.18-.85,1.52-1.43c.34-.58.63-1.49.89-2.72l.14-.67h0Z"/>
    <path class="st2" d="M415.38,129.63l.78-3.76h2.47l.62-3,5.8-3.49-1.36,6.48h3.08l-.78,3.76h-3.1l-1.64,7.84c-.29,1.42-.44,2.23-.44,2.43,0,.39.12.69.37.91s.69.33,1.34.33c.22,0,.78-.04,1.68-.12l-.79,3.75c-.87.17-1.76.26-2.68.26-1.79,0-3.08-.34-3.9-1.03-.81-.69-1.22-1.64-1.22-2.86,0-.58.22-1.91.65-3.98l1.57-7.53h-2.45,0Z"/>
    <path class="st2" d="M430.04,125.87h5.06l-3.92,18.72h-5.06l3.91-18.72h.01ZM431.52,118.75h5.06l-.95,4.58h-5.06l.95-4.58Z"/>
    <path class="st2" d="M436.9,136.82c0-3.47.98-6.23,2.93-8.29,1.96-2.06,4.53-3.1,7.71-3.1,2.76,0,4.92.76,6.47,2.28s2.33,3.57,2.33,6.14c0,3.03-.97,5.65-2.91,7.86s-4.54,3.31-7.8,3.31c-1.76,0-3.32-.35-4.69-1.06-1.36-.71-2.38-1.7-3.05-3-.67-1.29-1.01-2.68-1.01-4.16l.02.02ZM451.32,133.2c0-1.2-.35-2.16-1.05-2.88-.7-.72-1.6-1.08-2.71-1.08s-2.06.34-2.91,1.01c-.85.68-1.5,1.66-1.98,2.94-.47,1.29-.7,2.47-.7,3.55,0,1.34.36,2.4,1.09,3.19.73.78,1.65,1.18,2.75,1.18,1.39,0,2.55-.59,3.49-1.78,1.34-1.68,2.01-3.72,2.01-6.13h.01Z"/>
    <path class="st2" d="M462.2,125.87h4.8l-.49,2.43c1.19-1.03,2.32-1.77,3.36-2.21,1.04-.44,2.14-.66,3.29-.66,1.54,0,2.75.44,3.64,1.33.89.88,1.33,2.05,1.33,3.51,0,.66-.2,1.91-.58,3.74l-2.21,10.59h-5.06l2.22-10.63c.33-1.59.49-2.53.49-2.84,0-.65-.19-1.15-.57-1.52-.38-.37-.92-.56-1.6-.56-.74,0-1.56.31-2.47.94-.91.62-1.62,1.44-2.13,2.47-.38.73-.8,2.21-1.27,4.46l-1.6,7.69h-5.06l3.92-18.72v-.02Z"/>
    <path class="st2" d="M487.4,131.17l-4.94-.42c.56-1.67,1.55-2.97,2.95-3.91,1.4-.94,3.26-1.41,5.58-1.41s4.19.49,5.34,1.46,1.73,2.15,1.73,3.55c0,.56-.05,1.16-.15,1.8s-.45,2.3-1.05,5.01c-.49,2.23-.74,3.8-.74,4.69,0,.8.14,1.69.42,2.66h-4.92c-.2-.68-.32-1.39-.37-2.11-.74.82-1.59,1.46-2.55,1.9-.96.44-1.93.66-2.91.66-1.55,0-2.83-.51-3.85-1.52-1.01-1.02-1.51-2.32-1.51-3.92,0-1.79.55-3.21,1.67-4.28,1.11-1.07,3.09-1.72,5.95-1.94,2.41-.2,4.02-.44,4.83-.72.21-.71.32-1.27.32-1.69,0-.54-.22-.99-.65-1.36s-1.08-.55-1.94-.55c-.91,0-1.62.19-2.14.56-.52.37-.88.89-1.06,1.57v-.03ZM492.22,135.87c-.31.08-.71.16-1.22.23-2.54.31-4.2.75-4.97,1.34-.55.42-.83.99-.83,1.71,0,.59.21,1.09.64,1.49.42.41.98.61,1.67.61.76,0,1.48-.18,2.16-.55.68-.37,1.18-.85,1.52-1.43.34-.58.63-1.49.89-2.72l.14-.67h0Z"/>
    <path class="st2" d="M500.3,144.59l5.41-25.84h5.04l-5.39,25.84h-5.06Z"/>
    <path class="st2" d="M536.02,138.88h-10.24l-3.1,5.71h-5.47l14.61-25.84h5.9l4.2,25.84h-5.04l-.86-5.71h0ZM535.37,134.58l-1.5-10.4-6.24,10.4h7.74Z"/>
    <path class="st2" d="M557.82,137.54l4.92.79c-.81,2.18-2.01,3.85-3.6,4.99-1.59,1.14-3.43,1.71-5.52,1.71-2.39,0-4.28-.71-5.68-2.13-1.4-1.42-2.1-3.38-2.1-5.87,0-2.04.42-3.95,1.27-5.76.85-1.81,2.12-3.23,3.82-4.28,1.7-1.04,3.57-1.56,5.61-1.56,2.21,0,3.97.58,5.29,1.73,1.31,1.15,2.05,2.67,2.22,4.55l-4.81.51c-.12-1.05-.44-1.81-.96-2.31-.52-.49-1.21-.74-2.05-.74-.98,0-1.89.36-2.73,1.09-.85.73-1.5,1.82-1.95,3.27s-.68,2.81-.68,4.08c0,1.11.27,1.96.81,2.55.54.6,1.22.9,2.03.9s1.59-.3,2.35-.89c.75-.58,1.34-1.46,1.76-2.64h0Z"/>
    <path class="st2" d="M577.9,137.54l4.92.79c-.81,2.18-2.01,3.85-3.6,4.99-1.59,1.14-3.43,1.71-5.52,1.71-2.39,0-4.28-.71-5.68-2.13-1.4-1.42-2.1-3.38-2.1-5.87,0-2.04.42-3.95,1.27-5.76.85-1.81,2.12-3.23,3.82-4.28,1.7-1.04,3.57-1.56,5.61-1.56,2.21,0,3.97.58,5.29,1.73,1.31,1.15,2.05,2.67,2.22,4.55l-4.81.51c-.12-1.05-.44-1.81-.96-2.31-.52-.49-1.21-.74-2.05-.74-.98,0-1.89.36-2.73,1.09-.85.73-1.5,1.82-1.95,3.27s-.68,2.81-.68,4.08c0,1.11.27,1.96.81,2.55.54.6,1.22.9,2.03.9s1.59-.3,2.35-.89c.75-.58,1.34-1.46,1.76-2.64h0Z"/>
    <path class="st2" d="M603.51,136.8h-12.69c0,.2-.02.35-.02.46,0,1.25.36,2.25,1.07,3.02.71.76,1.58,1.14,2.6,1.14,1.68,0,2.99-.87,3.93-2.61l4.53.76c-.88,1.82-2.06,3.19-3.54,4.1-1.47.91-3.13,1.36-4.96,1.36-2.52,0-4.56-.79-6.13-2.39-1.57-1.59-2.36-3.7-2.36-6.32s.71-4.84,2.14-6.84c1.94-2.7,4.7-4.05,8.3-4.05,2.29,0,4.11.71,5.46,2.13,1.35,1.41,2.03,3.4,2.03,5.95,0,1.23-.12,2.32-.35,3.3h-.01ZM599.25,133.72c.01-.23.02-.4.02-.51,0-1.39-.31-2.42-.93-3.12-.62-.69-1.46-1.04-2.5-1.04s-1.98.4-2.81,1.18c-.83.79-1.39,1.95-1.68,3.49h7.91-.01Z"/>
    <path class="st2" d="M605.33,144.59l5.41-25.84h5.04l-5.39,25.84h-5.06,0Z"/>
    <path class="st2" d="M633.62,136.8h-12.69c-.01.2-.02.35-.02.46,0,1.25.35,2.25,1.06,3.02.71.76,1.58,1.14,2.6,1.14,1.68,0,2.99-.87,3.93-2.61l4.53.76c-.88,1.82-2.06,3.19-3.53,4.1-1.48.91-3.13,1.36-4.96,1.36-2.52,0-4.56-.79-6.13-2.39-1.58-1.59-2.36-3.7-2.36-6.32s.71-4.84,2.13-6.84c1.94-2.7,4.71-4.05,8.3-4.05,2.29,0,4.12.71,5.47,2.13,1.35,1.41,2.03,3.4,2.03,5.95,0,1.23-.12,2.32-.35,3.3h0ZM629.35,133.72c.01-.23.02-.4.02-.51,0-1.39-.31-2.42-.93-3.12-.62-.69-1.46-1.04-2.5-1.04s-1.98.4-2.81,1.18c-.83.79-1.39,1.95-1.68,3.49h7.91-.01Z"/>
    <path class="st2" d="M639.1,125.87h4.73l-.76,3.63c1.76-2.71,3.67-4.07,5.73-4.07.73,0,1.51.18,2.35.55l-1.94,4.14c-.46-.17-.95-.25-1.46-.25-.87,0-1.75.33-2.65.99s-1.6,1.53-2.11,2.63-1.01,2.84-1.5,5.23l-1.23,5.87h-5.06l3.91-18.72h0Z"/>
    <path class="st2" d="M656.66,131.17l-4.94-.42c.57-1.67,1.55-2.97,2.95-3.91s3.27-1.41,5.58-1.41,4.19.49,5.34,1.46,1.73,2.15,1.73,3.55c0,.56-.05,1.16-.15,1.8-.1.64-.45,2.3-1.05,5.01-.49,2.23-.74,3.8-.74,4.69,0,.8.14,1.69.42,2.66h-4.92c-.2-.68-.33-1.39-.37-2.11-.74.82-1.6,1.46-2.56,1.9-.96.44-1.93.66-2.91.66-1.55,0-2.83-.51-3.84-1.52-1.01-1.02-1.52-2.32-1.52-3.92,0-1.79.56-3.21,1.67-4.28,1.11-1.07,3.1-1.72,5.95-1.94,2.41-.2,4.02-.44,4.83-.72.21-.71.31-1.27.31-1.69,0-.54-.21-.99-.65-1.36s-1.08-.55-1.94-.55c-.91,0-1.62.19-2.14.56s-.88.89-1.07,1.57l.02-.03ZM661.47,135.87c-.31.08-.71.16-1.22.23-2.54.31-4.19.75-4.97,1.34-.55.42-.83.99-.83,1.71,0,.59.21,1.09.63,1.49.42.41.98.61,1.67.61.77,0,1.49-.18,2.16-.55.68-.37,1.18-.85,1.51-1.43.34-.58.63-1.49.89-2.72l.14-.67h.02Z"/>
    <path class="st2" d="M670.86,129.63l.78-3.76h2.47l.61-3,5.8-3.49-1.36,6.48h3.09l-.78,3.76h-3.1l-1.64,7.84c-.29,1.42-.44,2.23-.44,2.43,0,.39.12.69.37.91s.69.33,1.34.33c.23,0,.78-.04,1.67-.12l-.79,3.75c-.87.17-1.76.26-2.68.26-1.79,0-3.09-.34-3.9-1.03s-1.22-1.64-1.22-2.86c0-.58.22-1.91.65-3.98l1.57-7.53h-2.45,0Z"/>
    <path class="st2" d="M682.36,136.82c0-3.47.98-6.23,2.93-8.29,1.96-2.06,4.53-3.1,7.71-3.1,2.76,0,4.92.76,6.47,2.28s2.33,3.57,2.33,6.14c0,3.03-.97,5.65-2.91,7.86s-4.54,3.31-7.8,3.31c-1.76,0-3.32-.35-4.69-1.06-1.36-.71-2.38-1.7-3.05-3-.67-1.29-1.01-2.68-1.01-4.16l.02.02ZM696.77,133.2c0-1.2-.35-2.16-1.05-2.88s-1.6-1.08-2.71-1.08-2.06.34-2.91,1.01c-.85.68-1.5,1.66-1.97,2.94-.47,1.29-.7,2.47-.7,3.55,0,1.34.36,2.4,1.09,3.19.73.78,1.65,1.18,2.75,1.18,1.39,0,2.55-.59,3.49-1.78,1.34-1.68,2.01-3.72,2.01-6.13h0Z"/>
    <path class="st2" d="M707.3,125.87h4.73l-.76,3.63c1.76-2.71,3.67-4.07,5.73-4.07.73,0,1.51.18,2.35.55l-1.94,4.14c-.46-.17-.95-.25-1.46-.25-.87,0-1.75.33-2.65.99s-1.6,1.53-2.11,2.63-1.01,2.84-1.5,5.23l-1.23,5.87h-5.06l3.91-18.72h0Z"/>
    <path class="st2" d="M727.71,144.59l5.41-25.84h18.08l-.92,4.32h-12.76l-1.3,6.2h12.51l-.9,4.32h-12.52l-2.29,11h-5.32.01Z"/>
    <path class="st2" d="M756.93,131.17l-4.94-.42c.57-1.67,1.55-2.97,2.95-3.91s3.27-1.41,5.58-1.41,4.19.49,5.34,1.46,1.73,2.15,1.73,3.55c0,.56-.05,1.16-.15,1.8-.1.64-.45,2.3-1.05,5.01-.49,2.23-.74,3.8-.74,4.69,0,.8.14,1.69.42,2.66h-4.92c-.2-.68-.33-1.39-.37-2.11-.74.82-1.6,1.46-2.56,1.9-.96.44-1.93.66-2.91.66-1.55,0-2.83-.51-3.84-1.52-1.01-1.02-1.52-2.32-1.52-3.92,0-1.79.56-3.21,1.67-4.28,1.11-1.07,3.1-1.72,5.95-1.94,2.41-.2,4.02-.44,4.83-.72.21-.71.31-1.27.31-1.69,0-.54-.21-.99-.65-1.36s-1.08-.55-1.94-.55c-.91,0-1.62.19-2.14.56s-.88.89-1.07,1.57l.02-.03ZM761.75,135.87c-.31.08-.71.16-1.22.23-2.54.31-4.19.75-4.97,1.34-.55.42-.83.99-.83,1.71,0,.59.21,1.09.63,1.49.42.41.98.61,1.67.61.77,0,1.49-.18,2.16-.55s1.18-.85,1.51-1.43c.34-.58.63-1.49.89-2.72l.14-.67h.02Z"/>
    <path class="st2" d="M782.57,137.54l4.92.79c-.81,2.18-2.01,3.85-3.6,4.99-1.59,1.14-3.43,1.71-5.52,1.71-2.39,0-4.28-.71-5.68-2.13-1.4-1.42-2.1-3.38-2.1-5.87,0-2.04.42-3.95,1.27-5.76.85-1.81,2.12-3.23,3.82-4.28,1.7-1.04,3.57-1.56,5.61-1.56,2.21,0,3.97.58,5.29,1.73,1.31,1.15,2.05,2.67,2.22,4.55l-4.81.51c-.12-1.05-.44-1.81-.96-2.31-.52-.49-1.21-.74-2.05-.74-.98,0-1.89.36-2.73,1.09-.85.73-1.5,1.82-1.95,3.27s-.68,2.81-.68,4.08c0,1.11.27,1.96.81,2.55.54.6,1.22.9,2.03.9s1.59-.3,2.35-.89c.75-.58,1.34-1.46,1.76-2.64h0Z"/>
    <path class="st2" d="M793.87,125.87h5.06l-3.91,18.72h-5.06l3.92-18.72h-.01ZM795.34,118.75h5.06l-.95,4.58h-5.06l.95-4.58Z"/>
    <path class="st2" d="M799.95,144.59l5.41-25.84h5.04l-5.39,25.84h-5.06,0Z"/>
    <path class="st2" d="M813.93,125.87h5.06l-3.91,18.72h-5.06l3.92-18.72h-.01ZM815.4,118.75h5.06l-.95,4.58h-5.06l.95-4.58Z"/>
    <path class="st2" d="M821.31,129.63l.78-3.76h2.47l.61-3,5.8-3.49-1.36,6.48h3.09l-.78,3.76h-3.1l-1.64,7.84c-.29,1.42-.44,2.23-.44,2.43,0,.39.12.69.37.91s.69.33,1.34.33c.23,0,.78-.04,1.67-.12l-.79,3.75c-.87.17-1.76.26-2.68.26-1.79,0-3.09-.34-3.9-1.03s-1.22-1.64-1.22-2.86c0-.58.22-1.91.65-3.98l1.57-7.53h-2.45,0Z"/>
    <path class="st2" d="M833.63,125.87h5.04l1.27,9.33c.32,2.4.49,4.08.53,5.04.66-1.92,1.57-3.94,2.72-6.06l4.48-8.31h5.36l-11.56,20.56c-.95,1.7-1.7,2.89-2.25,3.58-.54.68-1.2,1.22-1.98,1.6-.77.39-1.69.58-2.77.58s-2.28-.19-3.61-.57l.44-3.77c.61.18,1.2.27,1.78.27,1.55,0,2.83-1.18,3.83-3.53l-3.26-18.72h-.02Z"/>
    <path class="st2" d="M58.92,144.59h-5.32l4.51-21.52h-7.58l.9-4.32h20.36l-.9,4.32h-7.48l-4.49,21.52Z"/>
    <path class="st2" d="M74.82,144.59h-5.06l5.41-25.84h5.06l-1.94,9.2c1.14-.89,2.2-1.54,3.19-1.93.99-.39,2.04-.59,3.17-.59,1.52,0,2.72.44,3.6,1.31.88.87,1.32,2.01,1.32,3.42,0,.75-.17,1.91-.49,3.49l-2.29,10.95h-5.06l2.34-11.16c.25-1.21.37-1.99.37-2.33,0-.62-.19-1.12-.58-1.5s-.92-.57-1.59-.57c-.85,0-1.66.3-2.43.88-1.01.78-1.78,1.73-2.31,2.86-.29.62-.68,2.09-1.16,4.39,0,0-1.55,7.42-1.55,7.42Z"/>
  </g>
</svg>