<?xml version="1.0" encoding="UTF-8"?>
<svg id="Layer_1" xmlns="http://www.w3.org/2000/svg" version="1.1" viewBox="0 0 215.57 57.04">
  <!-- Generator: Adobe Illustrator 29.8.1, SVG Export Plug-In . SVG Version: 2.1.1 Build 2)  -->
  <defs>
    <style>
      .st0 {
        fill: #6a737b;
      }

      .st1, .st2 {
        fill: #0079c1;
      }

      .st2 {
        fill-rule: evenodd;
      }
    </style>
  </defs>
  <g>
    <path class="st2" d="M34.85,42.05c-1.15.74-2.59,1.5-3.97,2.06h13.06s0-13.06,0-13.06c-.43,1.17-1.33,2.88-2.04,3.95l-2.6-2.6c-.83,1.42-1.87,2.75-3.08,3.96-1.22,1.22-2.55,2.25-3.97,3.08l2.6,2.61Z"/>
    <path class="st2" d="M35.05,28.15c-.69,1.5-1.66,2.91-2.9,4.15-1.24,1.24-2.65,2.21-4.16,2.9l3.55,3.55c1.43-.82,2.77-1.84,3.99-3.06,1.22-1.22,2.24-2.56,3.06-3.99l-3.55-3.55Z"/>
    <path class="st2" d="M43.26,27.11c.74-3.21.73-6.7,0-9.96h-1.76c.83,3.26.83,6.76,0,9.95h1.77Z"/>
    <path class="st2" d="M40.51,27.11c.85-3.05.88-6.69,0-9.96h-5.02c1.18,3.21,1.19,6.8,0,9.96h5.03Z"/>
    <path class="st2" d="M41.9,9.25c.67,1.02,1.5,2.6,2.05,3.96V.16s-13.06-.01-13.06-.01c1.31.54,2.58,1.19,3.97,2.06l-2.6,2.6c1.41.84,2.7,1.82,3.96,3.08,1.27,1.27,2.24,2.55,3.08,3.96l2.6-2.6Z"/>
    <path class="st2" d="M28,9.06c1.5.69,2.91,1.66,4.15,2.9,1.23,1.24,2.1,2.51,2.89,4.15l3.55-3.55c-.82-1.43-1.83-2.77-3.05-3.99-1.22-1.22-2.56-2.24-3.99-3.07l-3.55,3.56Z"/>
    <path class="st2" d="M26.95.85c-3.27-.73-6.68-.73-9.96,0l.02,1.76c3.26-.83,6.69-.83,9.95,0V.85Z"/>
    <path class="st2" d="M26.96,3.61c-3.26-.87-6.7-.87-9.96,0v5.04c3.21-1.18,6.75-1.19,9.95,0V3.61Z"/>
    <path class="st2" d="M4.66,11.87c.84-1.41,1.86-2.75,3.08-3.97,1.22-1.22,2.55-2.24,3.97-3.08l-2.61-2.6c1.26-.82,2.58-1.5,3.95-2.05H0s0,13.05,0,13.05c.56-1.36,1.25-2.69,2.06-3.96l2.6,2.6Z"/>
    <path class="st2" d="M12.41,5.51c-1.43.8-2.78,1.83-4,3.05-1.22,1.22-2.23,2.57-3.05,4l3.55,3.55c.69-1.51,1.66-2.91,2.89-4.15,1.24-1.24,2.65-2.2,4.15-2.9l-3.55-3.55Z"/>
    <path class="st2" d="M3.46,17.15c-.87,3.26-.88,6.72.01,9.95h5.02c-1.18-3.2-1.18-6.74,0-9.95H3.46Z"/>
    <path class="st2" d="M.7,17.15c-.73,3.28-.74,6.67,0,9.95h1.76c-.82-3.23-.82-6.65,0-9.95H.7Z"/>
    <path class="st2" d="M2.06,35c-.82-1.27-1.5-2.59-2.05-3.96v13.07s13.06,0,13.06,0c-1.37-.55-2.69-1.24-3.96-2.06l2.61-2.6c-1.42-.84-2.76-1.86-3.97-3.07-1.22-1.22-2.23-2.56-3.08-3.98l-2.61,2.61Z"/>
    <path class="st2" d="M5.36,31.7c.83,1.43,1.83,2.78,3.06,4,1.22,1.22,2.56,2.23,3.99,3.05l3.56-3.56c-1.5-.69-2.92-1.65-4.15-2.88-1.24-1.24-2.2-2.66-2.89-4.16l-3.55,3.55Z"/>
    <path class="st2" d="M17,35.63c3.21,1.17,6.74,1.17,9.95,0v5.02c-3.29.91-6.7.87-9.95,0v-5.01Z"/>
    <path class="st2" d="M17.01,41.64c3.26.81,6.67.85,9.94,0v1.76c-3.27.76-6.68.73-9.95,0v-1.76Z"/>
  </g>
  <path class="st1" d="M54.2,0h6.71l22.06,30.6V0h7.12v44.26h-6.06l-22.71-31.49v31.49h-7.12V0Z"/>
  <path class="st1" d="M110.62,21.94h6.23c5.36,0,8.77-2.91,8.77-7.4v-.13c0-4.74-3.29-7.33-8.83-7.33h-10.9v37.18h-7.49V0h18.99c5.36,0,9.56,1.64,12.3,4.42,2.25,2.4,3.53,5.69,3.53,9.55v.12c0,7.27-4.2,11.63-10.17,13.41l11.51,16.76h-8.83l-15.12-22.32Z"/>
  <path class="st1" d="M141.01,0h33.7v6.96h-25.27v11.51h20.62v6.95h-20.62v11.89h25.61v6.95h-34.03V0Z"/>
  <path class="st1" d="M183.8,0h8.43v37.18h23.35v7.08h-31.78V0Z"/>
  <g>
    <path class="st0" d="M5.52,56.93h-.7l-3.82-4.81v4.81H.12v-6.3h.8l3.72,4.7v-4.7h.88v6.3h0Z"/>
    <path class="st0" d="M13.04,56.93h-.97l-.72-1.61h-3.21l-.73,1.61h-.93l2.89-6.34h.78l2.89,6.34h0ZM8.5,54.5h2.49l-1.24-2.76-1.25,2.76h0Z"/>
    <path class="st0" d="M15.73,56.93h-.9v-5.46h-2.06v-.84h5.03v.84h-2.06v5.46h0Z"/>
    <path class="st0" d="M19.84,56.93h-.9v-6.3h.9v6.3h0Z"/>
    <path class="st0" d="M24.39,57.04c-1.84,0-3.22-1.39-3.22-3.24s1.42-3.27,3.24-3.27,3.23,1.39,3.23,3.23-1.43,3.27-3.24,3.27h0ZM24.39,51.37c-1.31,0-2.3,1.03-2.3,2.4s1,2.43,2.32,2.43,2.3-1.03,2.3-2.4-1-2.43-2.32-2.43h0Z"/>
    <path class="st0" d="M34.3,56.93h-.7l-3.82-4.81v4.81h-.88v-6.3h.8l3.72,4.7v-4.7h.88v6.3h0Z"/>
    <path class="st0" d="M41.81,56.93h-.97l-.72-1.61h-3.21l-.73,1.61h-.93l2.89-6.34h.78l2.89,6.34h0ZM37.28,54.5h2.49l-1.24-2.76-1.25,2.76h0Z"/>
    <path class="st0" d="M47.12,56.93h-4.35v-6.3h.9v5.46h3.46v.84h0Z"/>
    <path class="st0" d="M51.73,56.93h-.9v-6.3h2.74c.76,0,1.4.23,1.82.64.32.32.5.78.5,1.28,0,.94-.59,1.62-1.59,1.86l1.91,2.53h-1.1l-2.4-3.19h0s.8,0,.8,0c.9,0,1.48-.45,1.48-1.15s-.54-1.12-1.47-1.12h-1.79v5.46Z"/>
    <path class="st0" d="M131.6,56.93h-.9v-6.3h2.74c.76,0,1.4.23,1.82.64.33.32.51.78.51,1.28,0,.94-.59,1.62-1.59,1.86l1.91,2.53h-1.11l-2.4-3.19h0s.8,0,.8,0c.9,0,1.48-.45,1.48-1.15s-.53-1.12-1.47-1.12h-1.79v5.46Z"/>
    <path class="st0" d="M179.64,56.93h-.89v-6.3h2.74c.76,0,1.4.23,1.82.64.33.32.5.78.5,1.28,0,.94-.59,1.62-1.59,1.86l1.91,2.53h-1.11l-2.4-3.19h0s.8,0,.8,0c.9,0,1.48-.45,1.48-1.15s-.53-1.12-1.47-1.12h-1.79v5.46Z"/>
    <path class="st0" d="M204.85,56.93h-.89v-6.3h2.74c.76,0,1.4.23,1.82.64.32.32.5.78.5,1.28,0,.94-.59,1.62-1.59,1.86l1.91,2.53h-1.1l-2.4-3.19h0s.8,0,.8,0c.9,0,1.48-.45,1.48-1.15s-.54-1.12-1.47-1.12h-1.8v5.46Z"/>
    <path class="st0" d="M61.86,56.93h-4.69v-6.3h4.64v.83h-3.75v1.88h3.35v.83h-3.35v1.93h3.79v.83h0Z"/>
    <path class="st0" d="M68.45,56.93h-.7l-3.82-4.81v4.81h-.88v-6.3h.8l3.72,4.7v-4.7h.88v6.3h0Z"/>
    <path class="st0" d="M74.68,56.93h-4.69v-6.3h4.64v.83h-3.75v1.88h3.15v.83h-3.15v1.93h3.79v.83h0Z"/>
    <path class="st0" d="M82.31,56.97h-.73l-1.61-4.73-1.62,4.73h-.72l-2.27-6.34h.97l1.68,4.86,1.61-4.88h.72l1.61,4.88,1.68-4.86h.94l-2.26,6.34h0Z"/>
    <path class="st0" d="M90.78,56.93h-.97l-.72-1.61h-3.21l-.73,1.61h-.93l2.89-6.34h.78l2.89,6.34h0ZM86.24,54.5h2.49l-1.24-2.76-1.25,2.76h0Z"/>
    <path class="st0" d="M94.56,56.93h-2.83v-6.3h2.72c.71,0,1.29.2,1.67.57.28.29.43.64.43,1.05,0,.75-.4,1.17-.81,1.41.77.29,1.15.79,1.15,1.49,0,1.1-.89,1.78-2.33,1.78h0ZM92.61,56.11h1.96c.88,0,1.41-.37,1.41-.99,0-.84-.96-.96-1.53-.96h-1.84v1.95h0ZM92.61,53.35h1.72c.82,0,1.31-.37,1.31-.99,0-.58-.47-.91-1.26-.91h-1.77v1.9h0Z"/>
    <path class="st0" d="M102.42,56.93h-4.35v-6.3h.9v5.46h3.46v.84h0Z"/>
    <path class="st0" d="M108.18,56.93h-4.69v-6.3h4.64v.83h-3.75v1.88h3.15v.83h-3.15v1.93h3.79v.83h0Z"/>
    <path class="st0" d="M116.7,56.93h-4.69v-6.3h4.64v.83h-3.75v1.88h3.15v.83h-3.15v1.93h3.79v.83h0Z"/>
    <path class="st0" d="M123.29,56.93h-.7l-3.82-4.81v4.81h-.88v-6.3h.8l.03.04,3.69,4.66v-4.7h.88v6.3h0Z"/>
    <path class="st0" d="M129.51,56.93h-4.68v-6.3h4.64v.83h-3.75v1.88h3.15v.83h-3.15v1.93h3.79v.83h0Z"/>
    <path class="st0" d="M140,57.04c-1.9,0-3.23-1.33-3.23-3.24s1.4-3.27,3.18-3.27c.97,0,1.65.24,2.36.83l.08.06-.58.68-.08-.07c-.4-.35-.9-.67-1.8-.67-1.25,0-2.23,1.05-2.23,2.4,0,1.47.94,2.45,2.33,2.45.6,0,1.22-.21,1.67-.56v-1.37h-1.87v-.82h2.74v2.58l-.04.03c-.4.36-1.27.96-2.53.96h0Z"/>
    <path class="st0" d="M146.49,56.93h-.9v-2.48l-2.64-3.82h1.09l2.02,2.97,2.04-2.97h1.06l-2.65,3.81v2.49h0Z"/>
    <path class="st0" d="M156.94,56.93h-4.36v-6.3h.9v5.46h3.46v.84h0Z"/>
    <path class="st0" d="M164,56.93h-.97l-.72-1.61h-3.21l-.73,1.61h-.93l2.89-6.34h.78l2.89,6.34h0ZM159.46,54.5h2.48l-1.24-2.76-1.25,2.76h0Z"/>
    <path class="st0" d="M167.78,56.93h-2.83v-6.3h2.72c.71,0,1.29.2,1.68.57.28.29.42.64.42,1.05,0,.75-.4,1.17-.81,1.41.77.29,1.16.79,1.16,1.49,0,1.1-.89,1.78-2.33,1.78h0ZM165.83,56.11h1.96c.88,0,1.41-.37,1.41-.99,0-.84-.96-.96-1.53-.96h-1.84v1.95h0ZM165.83,53.35h1.71c.82,0,1.31-.37,1.31-.99,0-.58-.47-.91-1.26-.91h-1.77v1.9h0Z"/>
    <path class="st0" d="M174.24,57.04c-1.84,0-3.22-1.39-3.22-3.24s1.42-3.27,3.24-3.27,3.23,1.39,3.23,3.23-1.42,3.27-3.25,3.27h0ZM174.24,51.37c-1.31,0-2.3,1.03-2.3,2.4s1,2.43,2.32,2.43,2.3-1.03,2.3-2.4-1-2.43-2.32-2.43h0Z"/>
    <path class="st0" d="M191.07,56.93h-.97l-.72-1.61h-3.21l-.73,1.61h-.93l2.89-6.34h.78l2.89,6.34h0ZM186.53,54.5h2.49l-1.24-2.76-1.25,2.76h0Z"/>
    <path class="st0" d="M193.76,56.93h-.9v-5.46h-2.06v-.84h5.03v.84h-2.06v5.46h0Z"/>
    <path class="st0" d="M199.45,57.04c-1.84,0-3.23-1.39-3.23-3.24s1.42-3.27,3.24-3.27,3.23,1.39,3.23,3.23-1.43,3.27-3.24,3.27h0ZM199.45,51.37c-1.31,0-2.3,1.03-2.3,2.4s1,2.43,2.32,2.43,2.3-1.03,2.3-2.4-1-2.43-2.32-2.43h0Z"/>
    <path class="st0" d="M212.91,56.93h-.9v-2.48l-2.65-3.82h1.09l2.02,2.97,2.03-2.97h1.06l-2.65,3.81v2.49h0Z"/>
  </g>
</svg>