<?xml version="1.0" encoding="UTF-8"?>
<svg id="Layer_1" xmlns="http://www.w3.org/2000/svg" version="1.1" viewBox="0 0 242.3 72">
  <!-- Generator: Adobe Illustrator 29.8.1, SVG Export Plug-In . SVG Version: 2.1.1 Build 2)  -->
  <defs>
    <style>
      .st0 {
        fill: #a90533;
      }
    </style>
  </defs>
  <rect class="st0" x="59.06" y="33.44" width="15.29" height="5.09"/>
  <polygon class="st0" points="74.34 43.62 59.06 43.62 59.06 70.74 108.99 70.74 108.99 56.85 74.34 56.85 74.34 43.62"/>
  <rect class="st0" x="59.06" y="1.25" width="15.29" height="27.1"/>
  <polygon class="st0" points="155.95 .76 141.85 .76 130.11 28.35 167.69 28.35 155.95 .76"/>
  <polygon class="st0" points="123.61 43.62 112.06 70.74 127.66 70.74 134.02 55.16 163.4 55.16 169.75 70.74 185.73 70.74 174.19 43.62 123.61 43.62"/>
  <polygon class="st0" points="169.86 33.44 127.95 33.44 125.78 38.53 172.02 38.53 169.86 33.44"/>
  <path class="st0" d="M205.18,35.97c0,5.27,4.27,9.54,9.54,9.54s9.54-4.27,9.54-9.54-4.27-9.54-9.54-9.54-9.54,4.27-9.54,9.54Z"/>
  <path class="st0" d="M192.93,38.53c-.1-.84-.15-1.68-.15-2.53s.07-1.72.17-2.56h-14.17c-.05.85-.1,1.7-.1,2.56s.03,1.7.1,2.53h14.16Z"/>
  <path class="st0" d="M214.67,14.12c7.06,0,13.31,3.36,17.31,8.54l9.36-10.83c-6.58-7.26-16.1-11.83-26.67-11.83-17.26,0-31.67,12.14-35.19,28.35h14.7c3.11-8.31,11.1-14.23,20.49-14.23Z"/>
  <path class="st0" d="M232.27,48.96c-3.98,5.4-10.38,8.92-17.6,8.92-9.4,0-17.39-5.93-20.5-14.26h-14.68c3.5,16.22,17.91,28.38,35.19,28.38,11.1,0,21.02-5.03,27.63-12.93l-10.03-10.11Z"/>
  <path class="st0" d="M29.93,28.35c-9.47-2.56-11.96-4.18-11.96-8.45,0-3.45,3.09-6.14,8.93-6.14s11.92,2.58,18.08,6.85l7.94-11.52C45.86,3.44,37.23.26,27.11.26,12.91.26,2.78,8.62,2.78,21.29c0,2.77.35,5.06.99,7.05h26.15Z"/>
  <path class="st0" d="M29.4,43.62c8.52,2.47,10.41,4.44,10.41,7.97,0,4.17-3.77,6.64-10.02,6.64-7.94,0-14.5-3.28-20.75-8.43L0,60.61c8.33,7.45,18.96,11.13,29.49,11.13,14.98,0,25.52-7.75,25.52-21.65,0-2.48-.32-4.59-.92-6.47h-24.68Z"/>
  <path class="st0" d="M6.56,33.44c1.75,2.11,4.09,3.73,6.93,5.09h37.83c-1.64-2.01-3.82-3.67-6.5-5.09H6.56Z"/>
</svg>