<?xml version="1.0" encoding="UTF-8"?>
<svg id="Layer_2" xmlns="http://www.w3.org/2000/svg" version="1.1" viewBox="0 0 613 288">
  <!-- Generator: Adobe Illustrator 30.1.0, SVG Export Plug-In . SVG Version: 2.1.1 Build 136)  -->
  <defs>
    <style>
      .st0 {
        fill: #0079c2;
      }
    </style>
  </defs>
  <path class="st0" d="M43.55,104.07v-46.97h8.56l24.55,37.55h.13v-37.55h6.57v46.97h-8.29l-24.81-38.34h-.13v38.34h-6.57Z"/>
  <path class="st0" d="M115.73,57.1l20.17,46.97h-7.43l-4.78-11.54h-22.29l-4.71,11.54h-7.3l20.37-46.97h5.97ZM103.72,86.76h17.58l-8.76-21.96-8.82,21.96Z"/>
  <path class="st0" d="M146.51,104.07v-41.2h-15.06v-5.77h36.69v5.77h-15.06v41.2h-6.57Z"/>
  <path class="st0" d="M174.38,104.07v-46.97h6.57v46.97h-6.57Z"/>
  <path class="st0" d="M189.97,80.52c0-14.66,10.55-24.61,24.81-24.61s24.94,9.95,24.94,24.61-10.61,24.74-24.94,24.74-24.81-10.28-24.81-24.74ZM232.62,80.52c0-10.28-6.9-18.84-17.85-18.84s-17.71,8.56-17.71,18.84,6.97,18.84,17.71,18.84,17.85-8.36,17.85-18.84Z"/>
  <path class="st0" d="M248.68,104.07v-46.97h8.56l24.55,37.55h.13v-37.55h6.57v46.97h-8.29l-24.81-38.34h-.13v38.34h-6.57Z"/>
  <path class="st0" d="M320.86,57.1l20.17,46.97h-7.43l-4.78-11.54h-22.29l-4.71,11.54h-7.3l20.37-46.97h5.97ZM308.85,86.76h17.58l-8.76-21.96-8.82,21.96Z"/>
  <path class="st0" d="M347.07,104.07v-46.97h6.57v41.13h20.96v5.84h-27.53Z"/>
  <path class="st0" d="M43.55,174.65v-46.97h6.57v41.13h20.96v5.84h-27.53Z"/>
  <path class="st0" d="M98.41,127.68l20.17,46.97h-7.43l-4.78-11.54h-22.29l-4.71,11.54h-7.3l20.37-46.97h5.97ZM86.41,157.34h17.58l-8.76-21.96-8.82,21.96Z"/>
  <path class="st0" d="M123.29,174.65v-46.97h16.19c7.1,0,14.73,2.92,14.73,11.87,0,5.17-3.32,8.89-8.23,10.22v.13c6.04.73,10.42,4.84,10.42,11.41,0,9.02-7.83,13.33-17.65,13.33h-15.46ZM129.86,147.52h8.56c5.04,0,9.22-2.19,9.22-7.3s-4.05-7.03-10.28-7.03h-7.5v14.33ZM129.86,169.08h8.23c5.57,0,11.68-1.73,11.68-8.09,0-5.51-3.91-7.89-11.08-7.89h-8.82v15.99Z"/>
  <path class="st0" d="M162.17,151.1c0-14.66,10.55-24.61,24.81-24.61s24.94,9.95,24.94,24.61-10.61,24.74-24.94,24.74-24.81-10.28-24.81-24.74ZM204.83,151.1c0-10.28-6.9-18.84-17.85-18.84s-17.71,8.56-17.71,18.84,6.97,18.84,17.71,18.84,17.85-8.36,17.85-18.84Z"/>
  <path class="st0" d="M220.89,174.65v-46.97h15.06c9.09,0,16.72,3.45,16.72,13,0,6.9-4.71,11.28-11.41,12.4l13.14,21.56h-7.96l-11.94-20.9h-7.03v20.9h-6.57ZM227.45,148.25h7.56c6.17,0,11.01-1.92,11.01-7.56s-4.84-7.43-10.55-7.43h-8.03v14.99Z"/>
  <path class="st0" d="M282.58,127.68l20.17,46.97h-7.43l-4.78-11.54h-22.29l-4.71,11.54h-7.3l20.37-46.97h5.97ZM270.58,157.34h17.58l-8.76-21.96-8.82,21.96Z"/>
  <path class="st0" d="M312.04,174.65v-41.2h-15.06v-5.77h36.69v5.77h-15.06v41.2h-6.57Z"/>
  <path class="st0" d="M336.85,151.1c0-14.66,10.55-24.61,24.81-24.61s24.94,9.95,24.94,24.61-10.61,24.74-24.94,24.74-24.81-10.28-24.81-24.74ZM379.51,151.1c0-10.28-6.9-18.84-17.85-18.84s-17.71,8.56-17.71,18.84,6.97,18.84,17.71,18.84,17.85-8.36,17.85-18.84Z"/>
  <path class="st0" d="M395.57,174.65v-46.97h15.06c9.09,0,16.72,3.45,16.72,13,0,6.9-4.71,11.28-11.41,12.4l13.14,21.56h-7.96l-11.94-20.9h-7.03v20.9h-6.57ZM402.13,148.25h7.56c6.17,0,11.01-1.92,11.01-7.56s-4.84-7.43-10.55-7.43h-8.03v14.99Z"/>
  <path class="st0" d="M462.77,127.68h7.63l-17.58,26.67v20.3h-6.63v-20.3l-17.58-26.67h8.09l13,21.23,13.07-21.23Z"/>
  <path class="st0" d="M38.51,221.68c0-14.66,10.55-24.61,24.81-24.61s24.94,9.95,24.94,24.61-10.61,24.74-24.94,24.74-24.81-10.28-24.81-24.74ZM81.16,221.68c0-10.28-6.9-18.84-17.85-18.84s-17.71,8.56-17.71,18.84,6.97,18.84,17.71,18.84,17.85-8.36,17.85-18.84Z"/>
  <path class="st0" d="M97.22,245.23v-46.97h29.32v5.77h-22.75v14.6h21.3v5.64h-21.3v20.96h-6.57Z"/>
  <path class="st0" d="M165.09,245.23v-41.2h-15.06v-5.77h36.69v5.77h-15.06v41.2h-6.57Z"/>
  <path class="st0" d="M192.95,245.23v-46.97h6.57v19.64h23.75v-19.64h6.63v46.97h-6.63v-21.49h-23.75v21.49h-6.57Z"/>
  <path class="st0" d="M241.32,245.23v-46.97h30.12v5.77h-23.55v14.06h22.16v5.64h-22.16v15.66h24.55v5.84h-31.11Z"/>
  <path class="st0" d="M300.43,245.23v-46.97h15.06c9.09,0,16.72,3.45,16.72,13,0,6.9-4.71,11.28-11.41,12.4l13.14,21.56h-7.96l-11.94-20.9h-7.03v20.9h-6.57ZM307,218.83h7.56c6.17,0,11.01-1.92,11.01-7.56s-4.84-7.43-10.55-7.43h-8.03v14.99Z"/>
  <path class="st0" d="M338.78,221.68c0-14.66,10.55-24.61,24.81-24.61s24.94,9.95,24.94,24.61-10.61,24.74-24.94,24.74-24.81-10.28-24.81-24.74ZM381.43,221.68c0-10.28-6.9-18.84-17.85-18.84s-17.71,8.56-17.71,18.84,6.97,18.84,17.71,18.84,17.85-8.36,17.85-18.84Z"/>
  <path class="st0" d="M393.78,221.68c0-14.66,10.75-24.61,25.01-24.61,6.43,0,13.4,2.52,16.85,7.3l-5.17,3.98c-2.26-3.18-6.83-5.51-11.68-5.51-10.88,0-17.84,8.56-17.84,18.84s6.83,18.91,17.65,18.91c5.24,0,9.82-2.19,12.6-6.23l5.24,3.58c-3.65,4.98-9.69,8.49-17.91,8.49-14.4,0-24.75-10.28-24.75-24.74Z"/>
  <path class="st0" d="M443.14,245.23v-46.97h6.57v20.7h.13l20.96-20.7h9.09l-22.82,21.49,24.21,25.47h-9.42l-22.03-24.28h-.13v24.28h-6.57Z"/>
  <path class="st0" d="M486.86,245.23v-46.97h6.57v46.97h-6.57Z"/>
  <path class="st0" d="M504.83,245.23v-46.97h30.12v5.77h-23.55v14.06h22.16v5.64h-22.16v15.66h24.55v5.84h-31.11Z"/>
  <path class="st0" d="M542.78,239.59l5.11-4.31c2.19,3.25,6.17,5.51,10.48,5.51s9.42-2.46,9.42-8.03-5.17-7.23-11.15-9.09c-5.97-1.86-12.21-4.58-12.21-13.2,0-9.35,8.36-13.4,16.12-13.4,5.44,0,10.55,2.12,13.47,5.37l-4.64,4.51c-1.86-2.59-5.24-4.38-9.16-4.38-4.25,0-9.15,2.32-9.15,7.63s4.25,6.5,9.62,8.23c6.3,1.99,13.8,4.38,13.8,13.73s-7.89,14.26-16.25,14.26c-5.9,0-11.88-2.32-15.46-6.83Z"/>
</svg>