<?xml version="1.0" encoding="UTF-8"?>
<svg id="Layer_2" xmlns="http://www.w3.org/2000/svg" version="1.1" viewBox="0 0 613 288">
  <!-- Generator: Adobe Illustrator 30.1.0, SVG Export Plug-In . SVG Version: 2.1.1 Build 136)  -->
  <defs>
    <style>
      .st0 {
        fill: #fff;
      }
    </style>
  </defs>
  <path class="st0" d="M106.49,117.8v-33.27h6.06l17.39,26.6h.09v-26.6h4.65v33.27h-5.88l-17.58-27.16h-.09v27.16h-4.65Z"/>
  <path class="st0" d="M157.62,84.53l14.29,33.27h-5.26l-3.38-8.18h-15.79l-3.34,8.18h-5.17l14.43-33.27h4.23ZM149.11,105.54h12.45l-6.2-15.56-6.25,15.56Z"/>
  <path class="st0" d="M179.43,117.8v-29.19h-10.67v-4.09h25.99v4.09h-10.67v29.19h-4.65Z"/>
  <path class="st0" d="M199.17,117.8v-33.27h4.65v33.27h-4.65Z"/>
  <path class="st0" d="M210.21,101.12c0-10.39,7.47-17.44,17.58-17.44s17.67,7.05,17.67,17.44-7.52,17.53-17.67,17.53-17.58-7.28-17.58-17.53ZM240.43,101.12c0-7.28-4.89-13.35-12.64-13.35s-12.55,6.06-12.55,13.35,4.93,13.35,12.55,13.35,12.64-5.92,12.64-13.35Z"/>
  <path class="st0" d="M251.81,117.8v-33.27h6.06l17.39,26.6h.09v-26.6h4.65v33.27h-5.88l-17.58-27.16h-.09v27.16h-4.65Z"/>
  <path class="st0" d="M302.94,84.53l14.29,33.27h-5.26l-3.38-8.18h-15.79l-3.34,8.18h-5.17l14.43-33.27h4.23ZM294.44,105.54h12.45l-6.2-15.56-6.25,15.56Z"/>
  <path class="st0" d="M321.51,117.8v-33.27h4.65v29.14h14.85v4.14h-19.5Z"/>
  <path class="st0" d="M106.49,167.8v-33.27h4.65v29.14h14.85v4.14h-19.5Z"/>
  <path class="st0" d="M145.35,134.53l14.29,33.27h-5.26l-3.38-8.18h-15.79l-3.34,8.18h-5.17l14.43-33.27h4.23ZM136.85,155.54h12.45l-6.2-15.56-6.25,15.56Z"/>
  <path class="st0" d="M162.98,167.8v-33.27h11.47c5.03,0,10.43,2.07,10.43,8.41,0,3.67-2.35,6.3-5.83,7.24v.09c4.28.52,7.38,3.43,7.38,8.08,0,6.39-5.55,9.45-12.5,9.45h-10.95ZM167.63,148.58h6.06c3.57,0,6.53-1.55,6.53-5.17s-2.87-4.98-7.28-4.98h-5.31v10.15ZM167.63,163.86h5.83c3.95,0,8.27-1.22,8.27-5.73,0-3.9-2.77-5.59-7.85-5.59h-6.25v11.33Z"/>
  <path class="st0" d="M190.52,151.12c0-10.39,7.47-17.44,17.58-17.44s17.67,7.05,17.67,17.44-7.52,17.53-17.67,17.53-17.58-7.28-17.58-17.53ZM220.74,151.12c0-7.29-4.89-13.35-12.64-13.35s-12.55,6.06-12.55,13.35,4.93,13.35,12.55,13.35,12.64-5.92,12.64-13.35Z"/>
  <path class="st0" d="M232.12,167.8v-33.27h10.67c6.44,0,11.84,2.44,11.84,9.21,0,4.89-3.34,7.99-8.08,8.79l9.31,15.27h-5.64l-8.46-14.8h-4.98v14.8h-4.65ZM236.77,149.1h5.36c4.37,0,7.8-1.36,7.8-5.36s-3.43-5.26-7.47-5.26h-5.69v10.62Z"/>
  <path class="st0" d="M275.83,134.53l14.29,33.27h-5.26l-3.38-8.18h-15.79l-3.34,8.18h-5.17l14.43-33.27h4.23ZM267.32,155.54h12.45l-6.2-15.56-6.25,15.56Z"/>
  <path class="st0" d="M296.69,167.8v-29.19h-10.67v-4.09h25.99v4.09h-10.67v29.19h-4.65Z"/>
  <path class="st0" d="M314.27,151.12c0-10.39,7.47-17.44,17.58-17.44s17.67,7.05,17.67,17.44-7.52,17.53-17.67,17.53-17.58-7.28-17.58-17.53ZM344.49,151.12c0-7.29-4.89-13.35-12.64-13.35s-12.55,6.06-12.55,13.35,4.93,13.35,12.55,13.35,12.64-5.92,12.64-13.35Z"/>
  <path class="st0" d="M355.87,167.8v-33.27h10.67c6.44,0,11.84,2.44,11.84,9.21,0,4.89-3.34,7.99-8.08,8.79l9.31,15.27h-5.64l-8.46-14.8h-4.98v14.8h-4.65ZM360.52,149.1h5.36c4.37,0,7.8-1.36,7.8-5.36s-3.43-5.26-7.47-5.26h-5.69v10.62Z"/>
  <path class="st0" d="M403.48,134.53h5.4l-12.45,18.89v14.38h-4.7v-14.38l-12.45-18.89h5.73l9.21,15.04,9.26-15.04Z"/>
  <path class="st0" d="M102.91,201.12c0-10.39,7.47-17.44,17.58-17.44s17.67,7.05,17.67,17.44-7.52,17.53-17.67,17.53-17.58-7.28-17.58-17.53ZM133.13,201.12c0-7.29-4.89-13.35-12.64-13.35s-12.55,6.06-12.55,13.35,4.94,13.35,12.55,13.35,12.64-5.92,12.64-13.35Z"/>
  <path class="st0" d="M144.51,217.8v-33.27h20.77v4.09h-16.12v10.34h15.09v3.99h-15.09v14.85h-4.65Z"/>
  <path class="st0" d="M192.59,217.8v-29.19h-10.67v-4.09h25.99v4.09h-10.67v29.19h-4.65Z"/>
  <path class="st0" d="M212.33,217.8v-33.27h4.65v13.91h16.83v-13.91h4.7v33.27h-4.7v-15.23h-16.83v15.23h-4.65Z"/>
  <path class="st0" d="M246.59,217.8v-33.27h21.34v4.09h-16.68v9.96h15.7v4h-15.7v11.09h17.39v4.14h-22.04Z"/>
  <path class="st0" d="M288.47,217.8v-33.27h10.67c6.44,0,11.84,2.44,11.84,9.21,0,4.89-3.34,7.99-8.08,8.79l9.31,15.27h-5.64l-8.46-14.8h-4.98v14.8h-4.65ZM293.12,199.1h5.36c4.37,0,7.8-1.36,7.8-5.36s-3.43-5.26-7.47-5.26h-5.69v10.62Z"/>
  <path class="st0" d="M315.63,201.12c0-10.39,7.47-17.44,17.58-17.44s17.67,7.05,17.67,17.44-7.52,17.53-17.67,17.53-17.58-7.28-17.58-17.53ZM345.85,201.12c0-7.29-4.89-13.35-12.64-13.35s-12.55,6.06-12.55,13.35,4.93,13.35,12.55,13.35,12.64-5.92,12.64-13.35Z"/>
  <path class="st0" d="M354.6,201.12c0-10.39,7.61-17.44,17.72-17.44,4.56,0,9.49,1.79,11.94,5.17l-3.67,2.82c-1.6-2.26-4.84-3.9-8.27-3.9-7.71,0-12.64,6.06-12.64,13.35s4.84,13.39,12.5,13.39c3.71,0,6.96-1.55,8.93-4.42l3.71,2.54c-2.58,3.53-6.86,6.02-12.69,6.02-10.2,0-17.53-7.28-17.53-17.53Z"/>
  <path class="st0" d="M389.57,217.8v-33.27h4.65v14.66h.09l14.85-14.66h6.44l-16.17,15.23,17.15,18.05h-6.67l-15.6-17.2h-.09v17.2h-4.65Z"/>
  <path class="st0" d="M420.54,217.8v-33.27h4.65v33.27h-4.65Z"/>
  <path class="st0" d="M433.28,217.8v-33.27h21.34v4.09h-16.68v9.96h15.7v4h-15.7v11.09h17.39v4.14h-22.04Z"/>
  <path class="st0" d="M460.16,213.81l3.62-3.05c1.55,2.3,4.37,3.9,7.43,3.9s6.67-1.74,6.67-5.69-3.67-5.12-7.9-6.44c-4.23-1.32-8.65-3.24-8.65-9.35,0-6.63,5.92-9.49,11.42-9.49,3.85,0,7.47,1.5,9.54,3.81l-3.29,3.2c-1.32-1.83-3.71-3.1-6.49-3.1-3.01,0-6.49,1.64-6.49,5.4s3.01,4.61,6.81,5.83c4.46,1.41,9.78,3.1,9.78,9.73s-5.59,10.1-11.51,10.1c-4.18,0-8.41-1.64-10.95-4.84Z"/>
</svg>