<?xml version="1.0" encoding="UTF-8"?>
<svg id="Layer_1" xmlns="http://www.w3.org/2000/svg" version="1.1" viewBox="0 0 487.68 117.36">
  <!-- Generator: Adobe Illustrator 29.8.1, SVG Export Plug-In . SVG Version: 2.1.1 Build 2)  -->
  <defs>
    <style>
      .st0 {
        fill: #047936;
      }

      .st1 {
        fill: #027935;
      }

      .st2 {
        fill: #067b38;
      }

      .st3 {
        fill: #057a37;
      }

      .st4 {
        fill: #037935;
      }

      .st5 {
        fill: #027834;
      }

      .st6 {
        fill: #047a36;
      }

      .st7 {
        fill: #027934;
      }
    </style>
  </defs>
  <path class="st5" d="M0,44.31c1.31-.54,5.74,2.83,6.48,2.15l-.96-2.87c.36-.32,8.03,1.03,9.12,1.31,2.55.67,8.12,3.68,10.4,2.49.87-.45,2.32-3,2.49-3.98.41-2.41-.61-3.75-2.36-5.19-5.47-4.49-13.26-5.22-19.89-6.96-1.23-.72-2.5-1.79-2.87-3.24.32-.31,6.21,4.04,5.76-1.32-.12-1.46-1.05-2.73-1.93-3.83-.6-.74-2.57-2.43-2.87-3.12-.22-.5.31-.32.54-.3,1.61.16,3.4.7,4.73,1.62.09-1.65-.78-3.07-1.32-4.55,1.69,1.05,3.54,1.88,5.23,2.91,1.53.93,4.69,3.96,6.4,3.18.18-.08,1.65-1.58,1.78-1.81,1.05-1.83-1.52-4.72-2.38-6.44-.6-1.21-2.34-4.52-2.52-5.63-.15-.98,1.84.87,2.4.6l-1.44-5.27c.79-.75,3.99,2.35,4.7,2.61.65.24.51-1.94,1.17-1.65.37.16,2.51,2.19,2.88,2.63,1.2,1.4,1.88,3.38,3.95,3.97,2.33.66.64-3.14.01-4.09,1.01-.11,2.09,1.55,2.85.46.93-1.32-1.69-5.96-1.3-7.76,1.68,1.15,3.55,5.07,5.28,5.74.75.29.09-2.09.47-2.39,1.89,1.86,2.34,4.76,2.29,7.31-.06,2.82-.12,5.78-.24,8.62-.13,3.3-1.25,5.5.43,8.89s3.53,2,5.03-.57c2.62-4.48,2.42-10.49,6.64-14.21.21-.18.27-.31.6-.23.24.25-1.04,2.74,0,3.11.31-1.18,1.65-1.71,2.41-2.5.96-1,1.87-2.4,2.86-3.37.58-.57,3.41-3.01,3.97-3.22.96-.37-.54,1.55-.64,1.75-.95,1.81-2.21,4.8-.08,6.15.77-.9,1.76-2.67,2.89-3.11.42-.16.33.11.36.36.19,1.46-1.39,5.57-2.12,6.99-.83,1.62-3.13,4.04-3.53,5.58-.65,2.49,3.81,3.7,5.71,3.3.65-.13,3.48-1.84,4.01-1.38.19.37-1.73,1.9-.6,1.68.81-.16,2.06-1.51,3.24-1.2.07,1.59-4.7,5.22-4.79,5.63-.23,1.04,3.22.52,3.11,1.79-8.74.36-16.05,7.69-17.64,16.04-.3,1.59-1.02,4.72.74,5.52,2.11.2,6.75-6.12,7.98-7.83,1.5-2.09,3.09-4.43,4.13-6.78l.61,2.86.35.38c.81.43,2.02-.67,2.72-1.13,1.58-1.05,2.96-2.41,4.48-3.55-.05,4.68-4.18,8.15-4.31,12.69,1.31-.6,2.4-1.36,3.78-1.85.87-.32,1.76-.6,2.69-.66-2.84,4.7-8.48,7.13-11.6,11.4-1.3,1.78-2.37,3.29-1.31,5.57,1.33,2.84,4.27,1.82,6.2.28,4.53-3.62,5.78-9.22,9-13.77.57-.1.29.26.35.6.11.67.36,2.82,1.12,2.96.53.1,4.03-2.1,5.13-1.64.08,1.74-.49,3.43-1.08,5.03-.25.66-1.32,2.08-.97,2.64.73,1.18,3.82-.28,4.93-.12-5.55,7.52-15.48,8.37-22.53,13.91s-5.78,10.39-.15,16.39c4.25,4.52,10.06,7.66,16.45,6.56,1.47,3.84-.89,3.17-3.61,2.66-15.27-2.85-15.78-16.4-26.87-20.84-8.62-3.45-16.48-.97-25.18.35.71-.91,2.06-1.03,3.05-1.63.17-.1.66-.27.44-.53-.61-.89-6.47-1.51-7.97-2.34-.27-.15-.41,0-.3-.53,2.24-1.23,4.76-1.68,7.19-2.4l-.72-3.11c3.37,1.13,7.36,1.49,10.91,1.19,2.53-.21,4.63-1.09,5.41-3.7.55-1.82.04-2.77-1.34-3.96-6.83-5.89-18.76.53-26.38,1.19-3.14.27-6.72-1.52-8.99-3.59,1.99.29,7.68-4.06,7.34-5.75-.45-2.21-8.34-6.23-10.45-7.43.58-.98,2.01-.17,2.88-.59-1.86-1.28-3.51-2.81-4.8-4.67v-.48Z"/>
  <path class="st1" d="M260.87,5.51c-.62-.19-.46-3.24.04-3.36,6.99.39,14.06.31,21.08.26.57,0,1.09-.25,1.66-.26,10.83-.11,22.76,3.81,21.45,16.87-.8,7.97-7.48,11.58-14.6,12.96,5.38,2.9,8.13,9.21,11.56,14.09,1.41,2.01,5.19,7.71,6.93,8.89.79.54,2.07.92,3.01,1.07,2.45.37,3.56-.64,2.71,3.11-3.87-.11-7.73-.31-11.62-.22-1.1.03-2.87.61-3.94.13-5.63-6.29-8.4-14.78-13.58-21.41-2.43-3.12-4.79-4.74-8.97-3.85.25,5.54-.34,11.38-.01,16.89.07,1.21.3,4.71,1.62,5.09,2.47.72,6.38-1.69,5.24,3.18h-22.82s-.07-2.86-.07-2.86c2.6-.92,5.76,1.15,6.2-2.79V8.49c.19-.84-1-2.98-1.8-2.98h-4.08ZM276.58,30.9c7.83,1.34,15.72-2.17,17.63-10.3,2.28-9.7-4.64-15.68-13.9-15.58-1.8.02-3.32.56-3.5,2.51-.34,3.72-.19,7.99-.24,11.74s.06,7.76,0,11.63Z"/>
  <path class="st7" d="M114.85,1.27c14.76-.72,27.53,8.36,30.64,22.92,4.67,21.87-13.13,39.39-34.95,35.38-35.7-6.56-29.23-56.67,4.32-58.3ZM112.93,4.86c-12.19,1.46-16.36,18.15-15.3,28.31,2.8,26.67,32.12,33.24,37.35,5.68,2.64-13.92-4.72-36.06-22.05-33.99Z"/>
  <path class="st4" d="M347.95,56.52c1.68-.3,1.71-2.09,1.81-3.46.15-2.16-.08-4.53-.02-6.73.25-8.93.9-19.67,0-28.49-.39-3.82-3.55-1.69-6.25-2.38l-.23-2.53c8.33.34,17.03-.45,25.32-.01,14.23.76,24.63,9.07,23.87,24.09-.43,8.51-5.32,16.71-13.38,19.93-9.31,3.72-21.84,1.71-31.86,1.96-1.22.03-2.5.45-3.79.26l-.36-2.25.32-.4c1.38-.17,3.25.23,4.56,0ZM361.93,15.16c-2.05.23-3.3.67-3.55,2.92-.62,5.49-.01,13.04.01,18.67.02,4.65-.51,10.89.02,15.31.71,5.93,8.92,4.96,12.99,3.44,14.48-5.42,16.17-29.37,3.13-37.26-3.46-2.09-8.55-3.53-12.6-3.09Z"/>
  <path class="st4" d="M213.97,12.93l-.22,2.53c-1.36.46-3.86-.7-4.28,1.23-.34,1.55.02,4.43-.04,6.19-.02.57-.24,1.09-.26,1.66-.09,3.27.09,6.55,0,9.81,2.04.56,3.3-.79,4.57-2.13,4.23-4.47,7.85-10.02,11.95-14.66,1.42-1.97-.71-2.35-2.36-2.23.09-.79-.3-1.83.36-2.4h13.67c1.62,3.56-1.78,2.27-3.95,3-2.51.85-7.52,6.55-9.49,8.73-.79.88-6.39,7.25-6.31,7.74l18.45,23.26c1.52,1.02,3.27.88,5.02.85l-.03,2.24-.36.36-18.09-.07-.12-2.31,1.96-.44c.48-.37.42-1.14.15-1.63-3.83-5.04-7.2-11.5-11.33-16.23-1.22-1.39-2.06-2.07-4.07-1.8l.25,18.8c.3,1.59,3.12.97,4.31,1.08v2.64h-17.27v-2.64c1.01-.1,3.68.39,4.2-.72.15-.32.34-2.65.37-3.22.64-11.59-.48-23.78-.03-35.44-.2-2.41-2.68-1.27-4.31-1.68l-.22-2.53h17.51Z"/>
  <path class="st4" d="M445.22,39.04l-.22,2.53c-1.44.44-3.8-.66-4.23,1.29l.02,12.23c-13.37,7.65-35.44,7.34-42.15-8.94-9-21.84,11.23-39.43,32.43-32.86,1.17.36,5.03,2.5,5.42,2.52,1.29.08,1.5-2.52,3.19-1.89l.72,14.54c-.58.25-1.77.53-2.25.04-.32-.32-1.47-3.5-1.91-4.32-9.83-18.47-31.35-7.91-30.59,11.86.47,12.19,6.09,21.82,19.54,20.72,1.93-.16,5.89-.97,6.65-2.94.65-1.66.62-7.91.44-9.88-.33-3.53-2.78-1.82-5.3-2.37l-.22-2.53h18.47Z"/>
  <path class="st4" d="M460.57,15.33v18.68c2.42-.35,6.37.24,8.49-.74,1.82-.85,2.81-4.03,2.82-5.93l2.61-.04.23,15.08-2.37.23c-.36-1.58-.86-4.08-2.19-5.11-2.25-1.74-6.87-.68-9.58-1.33l.23,15.94c.3,3.05,1.3,3.93,4.23,4.39,2.53.4,7.72.28,10.17-.33,4.65-1.16,7.07-5.52,10.06-8.88l.57-.31c.51.4,1.45.68,1.33,1.46l-3.21,9.99c-.96,1.45-5.97.5-7.65.48-9.95-.14-19.97-.03-29.88.25v-2.64h4.2c.82,0,1.89-.86,1.8-1.79-.23-11.24.4-22.59-.24-33.78-.3-5.23.68-5.54-5.53-5.49l-.22-2.53h34.9l3.23,10.69c.08.99-1.33,1.33-2.05.82-3.28-3.58-6.29-8.14-11.5-8.88l-10.43-.24Z"/>
  <path class="st4" d="M159.76,56.52c-.11.62.32,2.37-.39,2.6-4.14-.13-8.3-.34-12.45-.22-.8.02-3.15.71-3.43-.14l-.03-2.24c3.73.35,5.31-.5,6.92-3.75,1.86-3.75,3.47-8.51,5.01-12.48,2.56-6.56,6.06-14.64,7.98-21.25.18-.63.52-1.53.49-2.16-.03-.66-.71-1.3-.39-1.8,2.74-1.25,5.62-2.26,7.9-4.29l.81,1.12c5.17,12.83,7.88,28.29,13.68,40.71,1.59,3.39,3.24,4.09,7.01,4.01,1.15,3.65-1.84,2.33-3.96,2.28-5.25-.12-10.5.14-15.74.15l-.23-2.53c5.37.37,4.53-1.01,3.48-5.03-.89-3.42-2.13-6.85-3.23-10.19l-15.1-.08-4.09,13.06c-.38,1.03.89,2.24,1.78,2.24h3.96ZM159.28,38.56h13.19l-5.88-19.16c-.78,0-1.25,1.74-1.5,2.34-1.88,4.58-3.8,10.07-5.34,14.79-.22.67-.54,1.31-.48,2.04Z"/>
  <path class="st4" d="M338.47,12.93l-.22,2.53c-1.88.46-4.98-.85-5.3,1.9v36.89c.02,1.03.68,2.27,1.8,2.27h3.84c.61.52.34,1.51.33,2.24l-.19.29h-20.42c-.37-.26-.41-2.2.14-2.53h3.84c.27,0,1.22-.45,1.46-.7,1-1.06.52-6.55.57-8.29.25-8.32.32-16.57,0-24.89-.06-1.61.4-5.31-.5-6.44-1.03-1.29-4.21-.26-5.74-.74l-.22-2.53h20.63Z"/>
  <path class="st3" d="M97.99,74.01l20.27,22.75c-.15-4.42.2-8.89.01-13.3-.06-1.5-.18-4.6-.54-5.92-.54-1.98-2.63-1.59-4.23-1.64-.31-.37-.43-1.88.08-1.88h10.67l-.1,1.69-2.29.34c-.45.31-.57.72-.7,1.22-.55,2.19-.67,7.33-.75,9.79-.19,5.47.62,12.28.01,17.5-.06.48-.15,1.03-.63,1.28-1.25-.14-1.92-.94-2.74-1.76-6.99-7.01-13.21-15.22-20.02-22.4-.47-.5-1.04-1.19-1.68-1.44-.17,2.82-.19,5.69-.13,8.51.08,3.79.13,7.92.52,11.7.3,2.89,1,3.1,3.82,3.13l.23,1.81h-10.8s0-1.92,0-1.92l2.64-.12c1.9-.85,1.36-7.07,1.43-8.87.18-4.65.66-9.7.26-14.37-.29-3.32-2.08-4.43-5.3-4.29l-.22-1.81h10.19Z"/>
  <path class="st4" d="M323.6,80.6c-.26-2.13-1.24-2.89-3.36-3,0-.32-.08-.68.11-.97.24-.37,6.48-2.19,7.32-2.99l1.21-.11-.24,14.85c.17.19,1.56-.92,1.92-1.08,5.79-2.51,12.5.24,12.96,6.93.53,7.68-6.04,12.41-13.3,11.36-.88-.13-2.94-.93-3.39-.91-.63.03-2.04,1.51-3.23.94v-25.03ZM330.97,89.15c-.72.12-2.18.72-2.33,1.5.5,3.89-1.99,13.41,4.19,13.48,7.99.08,7.74-16.61-1.86-14.98Z"/>
  <path class="st3" d="M284.38,74.01c.45.14.44,1.21.33,1.64l-4.13.3c-.26.1-.63.89-.63,1.05v26.47h10.19c3.11,0,5.84-5.35,7.23-7.64l1.26.24-2.18,8.91-.35.37-26.72.03v-1.92c.88-.1,3.49.33,3.96-.48.31-.52.08-3.52.12-4.43.29-6.08.65-13.35.25-19.41-.24-3.59-.28-3.21-3.86-3.33l-.22-1.81h14.75Z"/>
  <path class="st2" d="M205.55,86.49l.51,2.6,3.51-2.12c3.64-1.55,9.42-.1,9.92,4.4.41,3.65-.35,7.96.05,11.69.3,1.02,2.01.56,2.83.65v1.68s-10.56,0-10.56,0v-1.68c1.01-.04,2.07.38,2.35-.89-.04-3.72.75-7.72,0-11.39s-7.3-3.1-7.85.44c-.5,3.25.34,7.62,0,11,.21,1.1,1.31.85,2.15.84v1.68s-9.97-.23-9.97-.23l-.11-1.45c.46,0,2.53.13,2.65-.4-.25-3.39.3-7.17,0-10.51-.22-2.47-2.99-2.09-2.67-3.56.08-.38,6.75-3.03,7.18-2.75Z"/>
  <path class="st0" d="M354.73,86.53c5.46-.74,11.36,1.56,12.7,7.31,2.49,10.74-13.78,16.52-19.7,7.46-3.87-5.92.24-13.85,7-14.77ZM355.92,88.2c-4.73.76-4.98,9.47-3.34,12.8,1.24,2.51,4.28,3.9,6.75,2.1,4.09-3,3.07-15.94-3.41-14.9Z"/>
  <path class="st6" d="M183.45,86.53c8.36-1.13,16.46,5.77,11.61,13.99-4.05,6.86-15.18,7.16-19.03,0-3.06-5.68,1.17-13.15,7.42-13.99ZM184.9,88.2c-2.45.27-4.04,3.09-4.26,5.33-.3,3.01-.22,8.64,3.18,9.99,8.5,3.36,8.98-16.18,1.08-15.32Z"/>
  <path class="st0" d="M430.29,86.53c16.34-2.21,16.81,19.2,1.86,19.29-13.23.08-13.72-17.69-1.86-19.29ZM431.49,88.2c-5.73.91-5.57,13.66-.9,15.4,5.13,1.9,6.94-4.48,6.71-8.38-.17-2.98-2.17-7.59-5.81-7.01Z"/>
  <path class="st3" d="M472.57,88.38c-.84-.08-2-.06-1.88,1.01,1.05,2.93,1.72,6.02,2.84,8.93.22.57.42,1.46.96,1.79l4.31-10.21c.3-1.5-.98-1.61-2.15-1.53l.11-1.45c.38-.55,2.18.01,2.88.03,1.54.03,3.04-.08,4.56-.26.86.1.58,1.03.61,1.68-1.83-.17-2.28.38-3.22,1.7-4.5,6.34-7.68,16.26-11.77,23.22-.92,1.57-2.13,3.54-4.1,3.81-5.02.66-4.75-4.99-.72-4.51.72.09,2.01.83,2.73.41.52-.3,3.44-6.38,3.42-7.24l-6.21-15.86c-.54-1.38-1.78-1.64-3.16-1.51.03-.4-.09-.91.04-1.29.27-.83,2.4-.16,3.19-.14,2.33.07,4.65-.07,6.97-.25.85.1.58,1.03.6,1.68Z"/>
  <path class="st3" d="M312.56,103.24c-.77-.18-1.02.58-1.59.91-3.08,1.8-9.2,3.2-9.35-2.03s6.88-5.85,10.19-8.38c.75-3.89-1.04-6.47-5.07-4.82-1.86.76-.66,1.51-.95,3.13-.41,2.33-4.02,2.45-4.45.96-.99-3.39,5.14-6.2,7.77-6.51,3.21-.37,7.36-.3,7.77,3.69.2,1.97-.54,11.94.72,12.7,1.36.82,2.11-1.65,3.26-.37.45.71-1.13,2.26-1.73,2.6-2.12,1.22-5.9.82-6.57-1.87ZM311.85,95.56c-2.62.87-6.96,3.76-4.67,6.94,1.23,1.71,4.67-.14,4.67-.83v-6.11Z"/>
  <path class="st6" d="M398.19,103.24c-.77-.18-1.02.58-1.59.91-3.21,1.87-9.71,3.12-9.42-2.44.26-5.01,7.08-5.55,10.26-7.97.62-3.65-.74-6.32-4.76-4.99-2.27.75-1.01,1.59-1.2,3.1-.42,3.23-6.5,2.84-4.03-1.38,2.03-3.46,11.39-5.74,14.12-2.67,1.96,2.2.39,10.53,1.06,13.79.63,3.05,2.53.46,3.09.5,2.05.17-.15,2.58-1.15,3.08-2.19,1.12-5.65.76-6.37-1.91ZM397.48,95.56c-1.67.96-4,1.51-4.84,3.43-1.75,3.99,2.27,5.72,4.84,2.68v-6.11Z"/>
  <path class="st6" d="M239.08,87.74c.72.77.95,2.12,1.04,3.15.26,3.13-.55,8.13.11,10.91.43,1.82,1.91,1.32,2.93.25l1.03.48c-1.09,3.98-6.86,4.32-8.74.69-2.26,1.98-8.42,4.23-10.16.81-1.46-2.88.24-5.57,2.77-6.99,1.27-.71,6.19-2.35,6.8-3.03.54-.61.22-3.56-.19-4.37-.92-1.8-4.33-1.16-5.77-.27,0,1.68.6,4-1.65,4.46-1.85.38-2.9.04-2.72-1.98.43-4.63,11.62-7.23,14.56-4.11ZM235.08,95.56c-2.14,1.01-5.23,2.1-5.3,4.91-.11,4.58,5.3,2.25,5.3.96v-5.87Z"/>
  <path class="st6" d="M131.03,89.39c-.18,1.78.57,4.15-1.87,4.49-1.37.19-2.78-.02-2.65-1.67.45-5.64,14.5-8.22,15.44-2.93.7,3.95-.29,8.71.35,12.34.52,2.91,2.44.53,2.98.44,1.31-.24.64,1.79-.14,2.51-2.24,2.03-6.18,1.43-7.58-1.33-2.51,2.22-9.56,4.56-10.56-.22-1.26-6.01,6.67-6.78,10.17-9.27.75-4.84-1.96-6.56-6.15-4.34ZM137.21,95.56c-2.67.84-6.77,3.32-4.9,6.69,1.25,2.24,4.9.05,4.9-.82v-5.87Z"/>
  <path class="st7" d="M245.43,105.35c-1.28-3.25,3.08-.12,3.55-2.97-.42-7.15.72-15.2-.25-22.24-.26-1.89-1.92-2.28-3.55-2.56v-1.03s8.7-3.01,8.7-3.01c.9.29.17,3.6.14,4.4-.22,8.05.17,16.13.03,24.18.33,2.38,1.86,1.29,3.59,1.68,1.14,2.53-2.31,1.36-3.72,1.32-2.85-.08-5.66.23-8.49.22Z"/>
  <path class="st6" d="M161.2,86.94l-.48,2.4h-6.24c-.11,3.26-.53,6.93-.25,10.19.35,4.11,2.35,4.07,5.85,3.21,1.27,1.23-1.08,2.09-2.11,2.42-2.56.83-5.82,1.07-7.82-1.08-.63-.68-.87-1.23-.96-2.15-.38-3.97.31-8.55.01-12.59-.71-.15-3.37.45-3.37-.6,0-.55,2.31-1.61,2.97-2.08.84-.6,2.09-1.53,2.81-2.23.52-.51,1.86-2.48,2.28-2.53,1.93-.23-.07,5.04.96,5.04h6.36Z"/>
  <path class="st4" d="M415,86.94h6.48l-.48,2.4h-6.24c.43,2.98-1.33,11.23.95,13.3.77.7,1.51.67,2.5.56.69-.07,2.45-1.03,2.56.15.08.8-1.49,1.42-2.18,1.67-2.49.92-6.23,1.27-8.16-.95-1.72-1.98-.75-5.54-.71-7.9s-.05-4.56,0-6.84c-.73-.16-3.61.47-3.61-.6,0-.58,1.86-1.25,2.44-1.64.86-.58,1.96-1.39,2.72-2.07.56-.5,2.58-2.9,2.76-2.99.36-.16.96-.08.96.24v4.67Z"/>
  <path class="st3" d="M453.43,103.41l3.32.4c.38.27.38,1.37-.17,1.54l-11.98-.19.12-1.35c1.25-.4,2.91.57,3.14-1.17.2-1.48.23-9.21-.06-10.5-.24-1.07-1.86-1.75-2.79-2.12-.09-.14-.1-.6-.05-.77.1-.36,6.41-2.87,6.84-2.8.83.13.75,1.99.86,2.76.05.34-.23.71.35.6,1.4-1.97,4.26-4.56,6.84-3.47s.99,4.42-1.32,4.43c-1.72,0-4.26-2.16-5.24,1.24-.42,1.47-.32,8.34-.17,10.15.04.44.04.88.31,1.25Z"/>
  <path class="st4" d="M385.17,86.78c1.53,1.67-.19,4-2.2,4-.83,0-1.47-.61-2.18-.71-1.83-.26-2.91,1.14-3.16,2.81-.22,1.54-.32,8.33-.01,9.71.39,1.75,2.47.98,3.79,1.13v1.68s-12.24,0-12.24,0v-1.68s2.96-.22,2.96-.22c.37-.24.38-.92.41-1.33.17-2.09.26-7.55-.12-9.48-.31-1.63-1.54-2.14-3-2.63-.07-.33,0-.59.21-.85.35-.42,6.87-3.1,7.22-2.73l.6,3.59c1.65-2.31,3.58-4.34,6.7-3.82.28.05.83.33,1.02.54Z"/>
  <path class="st3" d="M170.8,86.46v16.41c0,1.18,2.35.81,3.12.84v1.68s-11.65-.23-11.65-.23l-.11-1.45,3.25-.22.1-11.86c-.02-1.34-4.74-1.77-2.29-3.02.96-.49,5.02-1.81,6.12-2.03.49-.1.96-.15,1.45-.11Z"/>
  <path class="st2" d="M166.9,76.94c4.88-.77,4.62,5.92-.43,4.87-3.16-.66-2.59-4.39.43-4.87Z"/>
</svg>