<?xml version="1.0" encoding="UTF-8"?>
<svg id="Layer_1" xmlns="http://www.w3.org/2000/svg" version="1.1" viewBox="0 0 321.86 134.21">
  <!-- Generator: Adobe Illustrator 29.8.1, SVG Export Plug-In . SVG Version: 2.1.1 Build 2)  -->
  <defs>
    <style>
      .st0 {
        fill: #d57a29;
      }

      .st1 {
        fill: #636568;
      }

      .st2 {
        fill: #69696c;
      }

      .st3 {
        fill: #6d6d70;
      }

      .st4 {
        fill: #696a6d;
      }

      .st5 {
        fill: #68696c;
      }

      .st6 {
        fill: #68686b;
      }

      .st7 {
        fill: #6b6c6e;
      }

      .st8 {
        fill: #66676a;
      }

      .st9 {
        fill: #646568;
      }

      .st10 {
        fill: #6b6b6e;
      }

      .st11 {
        fill: #656669;
      }
    </style>
  </defs>
  <path class="st0" d="M254.52,37.44c-6.64,4.99-13.04,10.28-19.32,15.72,1.73,1.24,4.15,2.24,5.74,3.62.27.24.59.37.5.82-.29.28-6.11-3.19-7.3-3.11-.2.01-.38.08-.55.17-2.26,2.14-4.66,4.16-6.91,6.3-3.08,2.92-8.17,7.51-10.67,10.69-.29.37-.79.9-.69,1.37.09.45,2.63,3.91,3.13,4.82.39.71,1.05,1.75,1.04,2.56l-5.79-5.99c-.41-.07-1.94,2.42-3.2,2.75-3.37.89-4.64-1.72-3.08-4.52.41-.75,2.21-2.33,2.08-2.87-.35-1.44-5.86-5.72-6.93-7.27-.26-.19-.44-.11-.71,0-1.03.46-2.87,2.84-3.84,3.14-1.49.46-3.19.06-3.3-1.73-.12-2.06,2.86-3.62,4.24-4.77l-8.65-7.19c-1.87-.76-5.75,3.41-7.84,1.72-.91-.74-.47-1.92.16-2.69l3.84-2.03-8.33-5.47c-2.8-.54-6.44.51-9.08.19-2.29-.27-2.45-3.42-.61-3.98.93-.28,1.97.23,2.65-.47-1.96-1.17-3.98-2.29-5.99-3.37-1.13-.6-4.1-1.72-4.82-2.38-1.8-1.65-.04-5.97,3.07-4.98,2.29.73,6.69,3.63,8.93,4.99,3.16,1.93,6.18,4.08,9.32,6.04,3.76.51,7.63.61,11.43,1.05,3.04.35,9.79,2.07,12.24,1.87,2.28-.18,6.74-1.87,9.32-2.46,4.48-1.02,9.02-1.8,13.56-2.52,2.19-.35,5.33-.38,7.29-.87s6.26-3.06,8.47-4.01c2.81-1.21,5.65-2.4,8.5-3.5,4.38-1.68,9.93-2.93,13.98-4.74,1.83-.82,4-2.49,5.84-3.52,11.36-6.33,22.98-12.24,35.14-16.94,3.95-1.53,8.14-3.23,12.3-3.9-.67.74-1.88,1.2-2.79,1.64-12.48,6.06-25.19,11.62-37.04,18.88l-.24.35,8.04-1.43,2.03.23-15.89,4.64c-5.85,3.58-11.45,7.54-16.99,11.57,0,.57,2.69.32,3.23.36,1.49.13,3.68.31,5.09.68.42.11.66-.17.55.51h-11.16ZM244.56,36h4.44c.45,0,6.32-4.64,7.32-5.16.03-.19-.22-.14-.36-.12-1.78.26-7.46,3.1-9.4,4.04-.66.32-1.58.62-2,1.24ZM246,37.92c-.84.02-1.68-.05-2.52,0-5.16.28-9.1,2.94-13.48,5.48-2.3,1.33-4.61,2.72-6.79,4.24l6.48,2.9h.72s15.6-12.62,15.6-12.62ZM228.48,40.08c-5.3.89-10.7,1.91-15.84,3.48-.33.1-1.15.21-1.2.6l7.06,1.68,9.98-5.76ZM198.24,44.64l-11.04-.96c1.19,1.27,2.71,2.5,4.22,3.36l.64-.05,6.18-2.35ZM215.28,47.99c.25-.37-1.89-.78-2.16-.84-1.74-.42-5.96-1.44-7.56-1.33-1.18.08-3.99,1.24-5.29,1.68-1.98.68-3.94,1.49-5.87,2.28l7.56,7.02,13.32-8.83ZM228.48,51.84l-7.98-2.6c-5.28,3.48-10.53,7.01-15.53,10.88l6.8,7.78,16.71-16.06Z"/>
  <polygon class="st9" points="137.52 102.24 137.52 87.12 142.56 87.12 142.56 110.64 138.12 110.64 125.52 94.8 125.52 110.64 120.72 110.64 120.72 87.12 125.64 87.12 137.52 102.24"/>
  <path class="st9" d="M214.56,93.36l3.84,10.08,3.48-9.84,4.06-.25,3.98,10.09,3.6-10.08h4.56l-6.27,17.25-4.17-.2-3.83-10.09-3.46,10.18-.38.16c-.98-.21-3.37.39-3.95-.4l-6.26-16.9h4.8Z"/>
  <path class="st1" d="M11.64,87.12c5.62.52,8.78,4.14,7.25,9.89-.65,2.43-3.56,4.75-6.05,4.75h-7.8v8.88H0v-23.52c3.75.25,7.94-.34,11.64,0ZM5.04,97.2h6.36c.21,0,1.56-.44,1.8-.6,1.46-1.01.82-4.68-1.08-4.68h-7.08v5.28Z"/>
  <path class="st9" d="M37.2,110.64h-4.8l-.37-1.2c-4.54,2.87-13.61,2.51-12.83-4.68.56-5.17,8.96-6.03,12.96-6.36-.31-2.44-4.38-2.1-6.14-1.45-.55.2-.69.71-1.42.76-.51.03-3.87-.8-3.96-1.12,1.61-5.38,13.2-5.45,15.45-1.04,1.83,3.58-.41,11.06,1.1,15.1ZM32.16,102.24c-1.92.2-8.23.54-8.15,3.22.1,3.34,6.69,1.17,8.15-.26v-2.95Z"/>
  <path class="st9" d="M256.08,103.44h-13.44c.54,3.4,4.6,4.56,7.29,2.61.49-.36.41-.97,1.21-.93.38.02,3.81,1.91,3.73,2.27-5.01,6.54-16.37,4.41-17.24-4.33-.75-7.57,5.53-12.36,12.68-10.04,4.35,1.4,5.93,6.23,5.77,10.43ZM250.8,99.36c-.54-3.68-7.47-3.61-7.92,0h7.92Z"/>
  <path class="st9" d="M196.8,84.48v9.84c3.19-2.71,9.48-2.81,11.33,1.51.16.38.67,1.92.67,2.21v12.6h-4.56v-11.16c0-.28-.7-1.92-.95-2.17-1.04-1.02-3.43-.61-4.62-.05-.36.17-1.86,1.26-1.86,1.5v11.88h-4.56v-24.96l4.56-1.2Z"/>
  <path class="st9" d="M152.35,92.46c13.65-1.58,14.08,20.11-.06,18.65-10.37-1.07-10.63-17.41.06-18.65ZM156.64,105.75c2.73-2.52,1.67-8.52-2.46-9.02-6.84-.83-6.97,11.59.64,9.95.52-.11,1.43-.58,1.82-.94Z"/>
  <path class="st9" d="M273.08,95.73l-3.24,2.15c-2.05-1.35-5.77-2.48-7.23.12.1.75.76.81,1.39,1,3.32.97,9.53.38,10.46,4.9,1.58,7.7-9.63,8.72-14.37,5.73-.62-.39-2.49-1.79-1.97-2.6.1-.15,2.77-2.08,2.94-2.13.45-.12,1.8,1.28,2.62,1.62,1.73.71,6.44,1.18,6.06-1.62-4.65-1.48-12.51-.46-11.73-7.59.52-4.75,7.25-5.45,10.96-4.48.82.22,4.73,1.84,4.13,2.89Z"/>
  <path class="st9" d="M101.08,98.84c-.78-1.74-2.94-2.34-4.7-2.1-5.83.78-5.67,10.99,1.64,10.04,1.8-.23,2.27-1.25,3.63-2.15l3.94.98c-1.37,5.16-7.72,6.46-12.29,4.96-7-2.3-7.73-13.29-1.39-16.86,4.49-2.53,11.74-1.41,13.68,3.83l-4.51,1.3Z"/>
  <path class="st9" d="M56.4,97.92l-4.17.91c-4.27-5-11.31-.4-8.48,5.63,1.34,2.86,5.3,3.09,7.6,1.25.46-.37.52-.99,1.1-1.08l4.19.98c-1.85,4.89-6.92,6.37-11.76,5.16-7.81-1.95-8.66-13.75-1.69-17.29,4.4-2.23,12-1.01,13.21,4.45Z"/>
  <path class="st11" d="M282.96,87.6v5.28h5.28c-.03,1.55-.14,3.44-.84,4.8h-4.44v8.28c0,1.35,4.63.69,5.52.36v4.2l-.4.32c-3.09.35-8.02,1.14-9.45-2.47-.08-.2-.47-1.61-.47-1.69v-9h-2.64v-4.8h2.64v-3.72c1.34-.81,3.22-1.31,4.8-1.56Z"/>
  <path class="st9" d="M79.44,86.4l-1.2,4.32c-2.13-.51-5.78-.15-5.28,2.88h5.52l-1.32,4.32h-4.2v12.72h-4.56v-12.72h-2.88v-4.32h2.88c-.17-2.65.13-4.77,2.57-6.19.44-.26,1.96-1.01,2.35-1.01h6.12Z"/>
  <path class="st9" d="M183.84,87.6v5.28h5.28l-1.32,4.56h-3.96v8.28c0,1.73,4.47.95,5.52.6v4.2l-.4.32c-2.66.2-6.51.98-8.58-1.19-.35-.37-1.1-1.82-1.1-2.26v-9.96h-2.88v-4.56h2.88v-4.08l4.56-1.2Z"/>
  <path class="st11" d="M174.96,97.44c-.17.18-3.3-1.2-4.52.88-.15.24-.76,1.96-.76,2.12v10.2h-4.44l-.36-.36v-17.04l.36-.36h4.08l.36,1.44c.37.02.3-.47.59-.72,1.25-1.09,3.33-1.48,4.69-.35v4.2Z"/>
  <polygon class="st8" points="63.6 110.64 59.16 110.64 58.8 110.28 58.8 93.24 59.16 92.88 63.24 92.88 63.6 93.24 63.6 110.64"/>
  <path class="st2" d="M218.04,120c.63.06,2.12.38,2.69.67,1.73.88,2.14,3.46,1.03,4.97-.29.4-1.33.95-1.2,1.08.2.2.92.31,1.4.88,1.11,1.32,1.09,3.81-.19,5.02-.52.49-2.61,1.31-3.25,1.31h-8.28v-13.56l.36-.36c2.4.17,5.07-.22,7.44,0ZM211.92,126h6.12c1.75,0,3.55-1.84,2.29-3.49-.16-.21-1.4-.83-1.57-.83h-6.84v4.32ZM211.92,132.24h6.84c.22,0,1.45-.51,1.69-.71,1.45-1.26.27-4.09-1.69-4.09h-6.84v4.8Z"/>
  <rect class="st9" x="80.88" y="93.12" width="4.56" height="17.52"/>
  <path class="st4" d="M248.28,120c3.73.39,5.66,3.01,3.59,6.47l-2.76,1.57,3.6,5.88c-.67-.06-1.49.22-2.04-.24-.92-.77-2.93-5.16-3.72-5.64l-4.8-.12v6h-1.68v-13.56l.36-.36c2.38.18,5.1-.25,7.44,0ZM242.16,126.24h6.6c2.06,0,3.23-2.87,1.55-3.95-.24-.15-2.04-.61-2.27-.61h-5.88v4.56Z"/>
  <path class="st2" d="M302.76,120c2.33.22,4.63,1.27,4.63,3.96,0,2.23-1.44,3.27-3.43,3.73-.28.07-.44-.19-.36.35l3.84,5.88c-.68-.04-1.48.19-2.06-.22-.93-.67-2.61-4.65-3.7-5.66l-4.8-.12v6h-1.68v-13.56l.36-.36c2.33.16,4.91-.22,7.2,0ZM303.24,121.68c-1.91-.27-4.38.2-6.36,0v4.56h6.6c1.88,0,3.07-2.45,1.73-3.77-.18-.18-1.7-.75-1.97-.79Z"/>
  <path class="st10" d="M72,120.36c.18-.58,2.1-.46,2.57-.05l8.71,10.49v-10.44c.39-.54,1.1-.34,1.68-.36v13.92l-1.82-.22-9.46-11.54v11.76h-1.68v-13.56Z"/>
  <path class="st5" d="M230.1,119.82c3.63-.49,7.8,1.5,8.4,5.4,1.66,10.71-12.42,11.73-14.28,3.72-.99-4.28,1.34-8.5,5.88-9.11ZM229.86,121.49c-4.85.82-5.64,8.49-1.23,10.47,3.43,1.54,7.7.03,8.23-3.95.61-4.59-2.53-7.27-7-6.52Z"/>
  <path class="st6" d="M284.82,119.82c10.25-1.39,11.48,13.26,2.31,14.31-10.44,1.2-11.29-13.1-2.31-14.31ZM284.58,121.5c-5.66.9-5.64,10.18.2,10.96,3.27.44,6.25-1,6.76-4.48.66-4.55-2.58-7.18-6.96-6.48Z"/>
  <path class="st6" d="M122.11,119.82c11.29-1.3,11.28,16.09-.44,14.22-7.94-1.26-7.71-13.29.44-14.22ZM121.62,121.49c-5.38.9-5.59,10.37.67,10.98,8.36.81,8.37-10.16,2.14-11.02-.75-.1-2.05-.09-2.8.04Z"/>
  <polygon class="st9" points="143.76 131.04 143.76 120.24 145.2 120.24 145.2 133.92 143.93 133.87 133.92 121.92 133.92 133.92 132.48 133.92 132.48 120.24 134.88 120.36 143.76 131.04"/>
  <path class="st6" d="M100.8,133.92c-.6-.04-1.32.19-1.8-.24-.6-.53-1.64-4.22-2.25-5.13l-6.24-.12-2.3,5.26-1.81.23,6.23-13.81,2.05.13,6.12,13.68ZM91.2,126.96h4.8c-.75-1.48-1.34-3.05-2.05-4.56-.13-.28.03-.59-.46-.48l-2.28,5.04Z"/>
  <path class="st6" d="M209.04,133.92c-.47-.09-1.56.16-1.88-.04-.36-.22-1.86-4.7-2.43-5.37-.31-.19-4.76-.21-5.42-.13-.45.05-.51.03-.8.4-.72.93-1.74,4.94-2.78,5.14-.41.08-.9-.04-1.32,0,.72-1.66,5.77-13.46,6.48-13.8.51-.24,1.58-.29,1.9.26l6.26,13.53ZM204,126.96l-2.28-5.28-2.28,5.28h4.56Z"/>
  <path class="st6" d="M161.28,133.92c-.47-.09-1.56.16-1.88-.04-.35-.22-1.73-4.41-2.22-5.1-.27-.38-.39-.35-.81-.39-.66-.08-5.11-.06-5.42.13-.74.97-1.77,4.51-2.51,5.17-.48.43-1.21.19-1.8.24.77-1.65,5.76-13.45,6.48-13.8.51-.24,1.58-.29,1.9.26l6.26,13.53ZM156.24,126.96l-2.28-5.28-2.28,5.28h4.56Z"/>
  <path class="st6" d="M268.56,133.92c-.59-.04-1.32.19-1.8-.24-.64-.57-2.07-5.1-2.31-5.25l-6.23.12c-.28.67-2.16,5.18-2.41,5.33-.3.19-1.21-.04-1.64.04l6.24-13.8c.77-.26,1.74-.29,2.13.52l6.04,13.28ZM258.96,126.96h4.8l-2.28-5.04-1.04,1.6-1.47,3.45Z"/>
  <path class="st6" d="M314.16,128.28c-1.51-2.3-4.91-5.29-6.12-7.56-.13-.24-.15-.45-.12-.72l2.04.24,4.81,6.24c.3.07.53-.3.71-.48,1.11-1.06,3.91-5.77,5.04-6,.41-.08.89.02,1.31,0,.1.55-.26.87-.52,1.28-.67,1.04-5.48,6.56-5.48,7v5.64h-1.68v-5.64Z"/>
  <path class="st2" d="M184.08,132.24h9.6v1.68h-11.16l-.36-.36v-13.2c.46-.56,1.49-.54,1.92,0v11.88Z"/>
  <path class="st6" d="M278.88,121.68h-5.52v12.24h-1.68v-12.24h-5.28l.1-1.46,11.78-.22c.86.1.58,1.03.6,1.68Z"/>
  <path class="st3" d="M164.16,120v12.24h9.84c-.02.58.18,1.29-.36,1.68h-11.16v-13.56c.39-.54,1.1-.34,1.68-.36Z"/>
  <polygon class="st1" points="110.88 120.24 110.88 121.68 105.6 121.68 105.6 133.92 104.16 133.92 104.16 121.68 98.64 121.68 98.64 120.24 110.88 120.24"/>
  <path class="st7" d="M114,133.92h-1.68v-13.56c0-.49,1.68-.49,1.68,0v13.56Z"/>
  <rect class="st11" x="58.8" y="86.64" width="4.8" height="4.32"/>
  <rect class="st1" x="80.88" y="86.64" width="4.56" height="4.32"/>
</svg>