<?xml version="1.0" encoding="UTF-8"?>
<svg id="Layer_1" xmlns="http://www.w3.org/2000/svg" version="1.1" viewBox="0 0 486.96 268.56">
  <!-- Generator: Adobe Illustrator 29.8.1, SVG Export Plug-In . SVG Version: 2.1.1 Build 2)  -->
  <defs>
    <style>
      .st0 {
        fill: #070707;
      }

      .st1 {
        fill: #111;
      }

      .st2 {
        fill: #faaf57;
      }

      .st3 {
        fill: #fee625;
      }

      .st4 {
        fill: #fcbb5a;
      }

      .st5 {
        fill: #f4832a;
      }

      .st6 {
        fill: #fed943;
      }

      .st7 {
        fill: #f69441;
      }

      .st8 {
        fill: #0d0d0d;
      }

      .st9 {
        fill: #f69442;
      }

      .st10 {
        fill: #fdc558;
      }

      .st11 {
        fill: #fed24f;
      }

      .st12 {
        fill: #f58a35;
      }

      .st13 {
        fill: #f58731;
      }

      .st14 {
        fill: #f79f4d;
      }

      .st15 {
        fill: #f8a14e;
      }

      .st16 {
        fill: #f48027;
      }

      .st17 {
        fill: #0a0a0a;
      }

      .st18 {
        fill: #feeb14;
      }

      .st19 {
        fill: #fdcd54;
      }

      .st20 {
        fill: #fee232;
      }

      .st21 {
        fill: #f4842b;
      }

      .st22 {
        fill: #090909;
      }

      .st23 {
        fill: #f58d39;
      }

      .st24 {
        fill: #0e0e0e;
      }
    </style>
  </defs>
  <path class="st21" d="M23.27,40.28s-.07.5-.34.73c-3.62,3.18-7.02,6.63-9.73,10.66l5.16-4.67c2.04-1.72,4.3-3,6.59-4.32.39.15.56.46.77.79.77,1.24,1.95,3.14,2.55,4.4.21.44.35.77.28,1.28-5.72,2.15-10.61,5.63-15.11,9.71.17.33.63.01.85-.11,4.41-2.3,6.14-3.94,11.38-5.29.6,2.33,2.7,4.09,3.12,6.47-12.73.57-24.1,9.81-27.52,22.01l-1.27,6.29c.22-4.23-.29-8.75,0-12.95,1.1-15.72,7.78-31.84,17.51-44.12.61,0,.79.56,1.06.98,1.68,2.62,2.99,5.52,4.7,8.13Z"/>
  <path class="st22" d="M262.43,268.56h-6c-8.59-2.48-11.98-12.42-7.01-19.84,5.16-7.71,17.32-6.7,21.13,1.77,3.32,7.39-.36,15.79-8.12,18.07ZM258.06,245.37c-12.79,1.53-11.49,23.21,3.03,21.49,12.54-1.48,10.95-23.17-3.03-21.49Z"/>
  <path class="st22" d="M363.18,268.56h-5.76c-8.52-2.32-12.05-12.38-7.15-19.74s15.96-7.12,20.45.33c4.51,7.49.98,17.15-7.54,19.4ZM359.05,245.37c-12.05,1.44-11.46,20.37-.06,21.51,15.8,1.59,14.96-23.29.06-21.51Z"/>
  <path class="st16" d="M173.19,52.27h48.11c11.36.5,21.37,3.04,27.1,13.66l2.51,6.24v-19.9h48.11c11.42.51,21.82,3.26,27.35,14.14l2.27,6.01v-20.14h47.87c10.8.46,20.67,2.69,26.6,12.49l2.3,4.54v-17.02h18.71v58.4c.15,10.16,6.94,14.67,16.42,15.23h25.56s0,14.86,0,14.86h-26.76c-11.17-.37-19.53-1.77-27.1-10.55-8.82-10.22-6.52-24.18-6.84-36.69l-3.5,5.97c-6.39,8.2-16.71,10.02-26.6,10.34h-27.96s0,30.56,0,30.56l-.36.36h-18.35v-50.36l-2.27,5.76c-5.81,10.88-17.36,13.25-28.78,13.67h-27.96s0,30.56,0,30.56l-.36.36h-18.35v-50.36l-1.57,4.31c-5.14,11.79-17.64,14.9-29.49,15.12h-27.96s0,30.92,0,30.92h-18.35l-.36-.36V52.27ZM191.91,94h25.32c6.98-.47,13.25-3.38,13.79-11.14.73-10.35-4.16-14.13-14.03-14.77h-25.08v25.91ZM269.63,94h25.32c9.37-.72,14.44-4.95,13.79-14.76-.55-8.33-6.6-10.63-14.03-11.15h-25.08v25.91ZM347.35,94h25.32c9.02-.66,14.29-4.77,13.79-14.28-.45-8.62-6.26-11.07-14.03-11.63h-25.08v25.91Z"/>
  <path class="st5" d="M30.7,65.46l26.63,46.28c-8,6.84-17.28,9.2-27.65,5.45-24.16-8.74-23.85-43.64,1.02-51.73Z"/>
  <path class="st10" d="M96.91,1.68c.11,1.07.86,2.09,1.4,3.04,19.43,34.25,39.69,68.04,59.09,102.31l.92.64c-1.07,3.19-2.12,6.27-3.6,9.35l-.92-.64-20.27-35.13-.88-.44c-2.35-15.61-9.74-28.31-20.98-39.09-.83-.79-2.37-1.64-2.76-2.63-.25-.62-.3-1.11-.68-1.84-6.14-11.8-13.92-23.18-20.23-34.93-.31-.58-.69-1.15-.68-1.84,3.24.22,6.41.6,9.6,1.2Z"/>
  <path class="st13" d="M41.26,52.99c-.08.51.07.84.28,1.28,2.14,4.6,5.81,9.9,8.4,14.39,5.19,8.98,10.49,19.7,16.28,28.1.21.3.18.71.71.59-1.85,5.73-5.11,10.56-9.6,14.39l-26.63-46.28c4.02-1.31,7.07-1.78,11.39-1.43,1.65.13,3.27.81,4.92.84-5.32-3.58-11.83-5.2-18.23-4.92-.42-2.38-2.52-4.14-3.12-6.47,5.4-1.39,10.09-1.63,15.59-.48Z"/>
  <path class="st14" d="M97.87,97.35c-.52.11-.52-.28-.72-.59-2.72-4.22-4.93-9.34-7.71-13.4-.25-.36-.43-.63-.92-.64-1.28-7.2-5.38-15.61-10.19-21.1-1.07-1.22-6.38-5.88-6.6-6.47-2.02-5.47-6.66-10.87-9.09-16.21-.19-.43-.33-.81-.26-1.29,26.1,6.75,41.88,33.44,35.5,59.71Z"/>
  <path class="st19" d="M104.11,3.6l56.13,97.35c-.61,2.62-1.07,4.17-1.92,6.71l-.92-.64c-19.4-34.27-39.66-68.06-59.09-102.31-.54-.94-1.28-1.97-1.4-3.04,2.6.49,4.73,1.2,7.2,1.92Z"/>
  <path class="st6" d="M120.9,10.55l.04,1.04c13.77,23.6,27.3,47.34,41.07,70.94l.87.44c-.05,3.72-.61,7.38-1.2,11.03-1.09-.41-1.83-2.17-2.44-3.2-15.84-26.63-31.07-53.71-46.54-80.57-.83-1.44-1.75-2.92-2.36-4.48,4.14,1.57,6.67,2.62,10.55,4.8Z"/>
  <path class="st11" d="M110.35,5.75c.61,1.55,1.53,3.03,2.36,4.48,15.46,26.86,30.7,53.94,46.54,80.57.61,1.02,1.35,2.79,2.44,3.2-.39,2.42-.88,4.58-1.44,6.95L104.11,3.6c2.46.72,3.89,1.27,6.24,2.16Z"/>
  <path class="st23" d="M66.93,97.35c-.53.12-.51-.29-.71-.59-5.79-8.41-11.09-19.12-16.28-28.1-2.59-4.48-6.26-9.79-8.4-14.39-.2-.44-.36-.77-.28-1.28,20.06,4.19,32.01,24.75,25.67,44.36Z"/>
  <path class="st2" d="M75.8.48c-.04.45.15.82.35,1.21,4.41,8.84,10.86,17.41,15.22,26.27.15.3.5.84.03,1.05-5.38-2.14-11.74-3.74-17.51-4.32L61.65,2.64c4.87-1.2,9.15-1.85,14.15-2.16Z"/>
  <path class="st4" d="M87.32.48c-.01.69.37,1.26.68,1.84,6.31,11.75,14.09,23.13,20.23,34.93.38.73.43,1.22.68,1.84-.45-.02-.73-.24-1.08-.48-5.34-3.82-10.26-7.13-16.44-9.59.47-.21.12-.75-.03-1.05-4.35-8.86-10.81-17.43-15.22-26.27-.19-.39-.38-.75-.35-1.21,3.91-.24,7.57-.27,11.51,0Z"/>
  <path class="st15" d="M61.65,2.64l12.23,22.06c-6.04-.6-13.21-.32-19.19.72l-9.36-16.78c5.36-2.64,10.48-4.56,16.31-5.99Z"/>
  <path class="st4" d="M132.65,80.81l.88.44,20.27,35.13.92.64c-1.72,3.58-3.78,6.8-6,10.07l-15.83-26.38c.86-6.28.7-13.65-.24-19.9Z"/>
  <path class="st2" d="M132.89,100.71l15.83,26.38c-3.07,4.53-5.36,7.18-9.12,11.03l-11.75-19.9c2.36-5.3,4.25-11.75,5.04-17.5Z"/>
  <path class="st15" d="M139.61,138.12c-4.65,4.77-7.66,7.34-13.19,11.03l-8.64-14.63c3.59-4.89,7.56-10.66,10.08-16.31l11.75,19.9Z"/>
  <path class="st7" d="M45.34,8.63l9.36,16.78c-5.84,1.02-11.97,3.14-17.27,5.75l-7.2-12.71c5.06-4.11,9.22-6.93,15.11-9.83Z"/>
  <path class="st20" d="M128.1,15.11c-1.03-.21.09,1.39.2,1.6,10.44,19.46,22.69,38.02,33.18,57.47l.92.64c.25,2.66.52,5.43.48,8.15l-.87-.44c-13.77-23.59-27.3-47.34-41.07-70.94l-.04-1.04c2.7,1.51,4.69,2.8,7.2,4.56Z"/>
  <path class="st7" d="M117.78,134.52l8.64,14.63c-5.56,3.7-9.32,5.74-15.59,8.15l-6-11.27c4.46-3.07,8.68-7.09,12.23-11.17.24-.28.7-.31.72-.34Z"/>
  <path class="st9" d="M62.37,37.65c-.06.48.07.87.26,1.29,2.43,5.35,7.07,10.74,9.09,16.21-1.96-.95-3.68-2.35-5.6-3.4-5.42-2.98-12.19-5.11-18.39-5.47l-5.52-9.59c7.34-1.12,12.95-.9,20.15.96Z"/>
  <path class="st3" d="M128.1,15.11c2.76,1.93,5,3.78,7.44,5.99l25.43,43.88c.67,3.39,1.12,6.37,1.44,9.83l-.92-.64c-10.49-19.45-22.74-38.01-33.18-57.47-.11-.21-1.23-1.81-.2-1.6Z"/>
  <path class="st21" d="M90.92,153.46l4.8,8.15c-11.39,2-22.07,1.82-33.35-.84-6.07-1.43-11.89-3.71-17.51-6.36-.06-.42.54-.23.78-.18,1.89.41,3.94,1.28,5.93,1.75,12.78,2.98,27.11,2.17,39.34-2.52Z"/>
  <path class="st12" d="M30.23,18.46l7.2,12.71c-4.61,2.27-10.37,5.73-14.15,9.11-1.71-2.61-3.02-5.51-4.7-8.13-.27-.42-.45-.98-1.06-.98,3.92-4.95,7.87-8.78,12.71-12.71Z"/>
  <path class="st9" d="M88.52,82.73c.49,0,.67.27.92.64,2.78,4.06,4.99,9.18,7.71,13.4.2.31.2.7.72.59-1.58,6.49-3.87,11.35-7.68,16.78-.52.11-.52-.28-.72-.59-1.25-1.93-2.21-4.04-3.6-5.89,2.95-7.31,4.01-17.18,2.64-24.94Z"/>
  <path class="st12" d="M104.83,146.03l6,11.27c-5.38,2.07-9.39,3.31-15.11,4.32l-4.8-8.15c4.11-1.57,10.28-4.93,13.91-7.43Z"/>
  <path class="st12" d="M85.88,107.66c1.39,1.84,2.35,3.95,3.6,5.89.2.31.2.7.72.59-.91,1.3-1.72,2.61-2.76,3.84-9.67,11.43-24.91,18.07-39.94,17.26l6.48-1.07c13.9-2.88,26.58-13.33,31.9-26.5Z"/>
  <path class="st12" d="M42.22,36.69l5.52,9.59c-6.49-.38-13.13.6-19.19,2.88.07-.5-.07-.84-.28-1.28-.61-1.27-1.79-3.16-2.55-4.4-.21-.34-.37-.64-.77-.79,5.97-3.46,10.38-4.94,17.27-5.99Z"/>
  <path class="st17" d="M234.24,243.86c5.76.61,9.04,6.11,4.68,10.67l-1.92,1.31c6.28,1.14,7.18,8.96,1.36,11.56-.5.22-2.52.91-2.92.91h-12.59v-24.46c3.64.28,7.82-.38,11.39,0ZM224.77,255.13h9c.85,0,3.06-.94,3.73-1.55,1.69-1.53,1.86-4.61.24-6.25-.62-.63-2.66-1.55-3.49-1.55h-9.48v9.35ZM224.77,266.64h9.24c.45,0,2.22-.43,2.75-.61,4.65-1.52,4.68-7.36-.18-8.67-.67-.18-2.68-.55-3.29-.55h-8.52v9.83Z"/>
  <path class="st18" d="M135.53,21.1c13.48,12.23,21.87,25.93,25.43,43.88l-25.43-43.88Z"/>
  <path class="st17" d="M291.46,230.19h-1.92v-20.62l-9.69,13.42-9.5-13.42v20.62h-1.92v-24.1c.5-.6,1.56-.52,2.05.11l9.02,13.28.56.4,9.35-13.68c.49-.63,1.55-.71,2.05-.11v24.1Z"/>
  <path class="st0" d="M207.14,167.61c3.4.27,7.37,1.64,8.4,5.28,1.35,4.8-2.26,8.41-6.84,8.99l7.92,10.31h-2.4s-7.44-9.95-7.44-9.95h-7.92v9.71c-.48.56-1.68.56-2.16,0v-23.98l.36-.36h10.08ZM198.62,180.32h9.96c.26,0,1.92-.65,2.29-.83,3.3-1.64,4.1-6.26,1.07-8.52-.78-.58-2.91-1.44-3.84-1.44h-9.48v10.79Z"/>
  <path class="st0" d="M231.97,167.97c.16-.51,1.65-.5,2.06-.14l16.41,20.64v-20.5l.4-.32,1.52-.04v24.7l-1.61-.31-16.62-20.79v20.74c-.48.56-1.68.56-2.16,0v-23.98Z"/>
  <path class="st8" d="M289.66,243.86c9.77.99,10.08,12.61.6,14.27l7.67,10.19c-.88-.09-1.96.29-2.66-.34l-7.54-9.73h-7.56v10.07h-2.16v-24.46c3.73.28,7.97-.37,11.63,0ZM279.94,256.57h9.24c1.05,0,3.6-1.08,4.42-1.81,1.8-1.6,2.01-5.11.5-6.94-.59-.71-3.12-2.03-3.96-2.03h-10.19v10.79Z"/>
  <polygon class="st8" points="378.77 188.47 378.77 167.61 380.3 167.64 380.69 168.21 380.7 191.48 380.3 192.28 379.26 192.18 362.22 170.97 362.22 192.31 360.3 192.31 360.3 167.61 361.81 167.66 378.77 188.47"/>
  <path class="st17" d="M390.65,243.86c2.8.3,6.42,2.14,7.15,5.08,1.02,4.11-.97,7.19-4.74,8.6-.49.18-1.96.16-1.81.82l7.2,9.11.23.85c-.81-.07-1.78.26-2.41-.34l-7.54-9.73h-7.8v10.07h-1.92v-24.46c3.71.29,7.99-.39,11.63,0ZM390.65,245.78c-3.02-.34-6.63.25-9.72,0v10.79h8.76c.38,0,2.1-.4,2.57-.55,5.65-1.73,5.04-9.5-1.61-10.24Z"/>
  <path class="st22" d="M339.86,167.44c18.42-2.22,18.77,26.83.18,25.11-13.96-1.29-14.21-23.41-.18-25.11ZM340.82,169.12c-13.19,1.07-12.02,22.13,1.13,21.77,13.78-.39,12.78-22.89-1.13-21.77Z"/>
  <path class="st1" d="M363.18,217.01h15.11v-10.91c.48-.56,1.68-.56,2.16,0v24.1h-2.16v-11.27h-15.11v11.27h-2.16v-24.1c.48-.56,1.68-.56,2.16,0v10.91Z"/>
  <polygon class="st0" points="303.21 167.61 303.21 169.53 287.86 169.53 287.86 178.88 301.77 178.88 301.77 180.8 287.86 180.8 287.86 190.39 303.45 190.39 303.41 191.91 303.09 192.31 285.94 192.31 285.94 167.61 303.21 167.61"/>
  <path class="st24" d="M217.33,268.32l-2.12-.04-2.89-6.53-14.27-.16-2.9,6.5-2.05.23,11.27-24.58c.6-.2,1.52-.33,1.9.27l11.06,24.31ZM211.34,259.69l-6-13.43-6.23,13.43h12.23Z"/>
  <path class="st24" d="M325.76,268.32c-.65-.06-1.53.22-2.04-.24-.77-.69-1.87-4.92-2.78-6.09-.24-.31-.39-.43-.8-.4l-13.41.05-3.06,6.65-2.13.03,11.26-24.59c.87-.28,1.84-.26,2.22.68l10.56,22.78.19,1.13ZM319.76,259.69l-6.12-13.67-6.12,13.67h12.23Z"/>
  <path class="st22" d="M310.13,205.78l11.07,24.42-2.12-.04-2.89-6.53-14.02-.11c-.88.3-2.4,5.78-3.15,6.44-.51.45-1.39.18-2.04.24l11.01-24.31,2.15-.11ZM315.2,221.8l-6.12-13.91-6.36,13.91h12.47Z"/>
  <path class="st22" d="M229.77,205.78l11.07,24.42-2.13-.03-3.06-6.65-13.41-.05c-.42-.03-.56.09-.8.4-.87,1.12-2.01,5.4-2.78,6.09-.51.45-1.39.18-2.04.24l11.01-24.32,2.15-.1ZM234.84,221.8l-6.12-13.91-6.12,13.91h12.23Z"/>
  <path class="st22" d="M175.11,183.2v9.11l-1.52-.04-.4-.32v-23.98l.36-.36h8.64c5.71,0,10.61,4.27,8.58,10.26-.91,2.69-4.86,5.33-7.62,5.33h-8.04ZM175.11,181.28h8.28c.23,0,1.69-.47,2.04-.6,5.03-1.95,5.15-8.64,0-10.54-.44-.16-1.93-.6-2.27-.6h-8.04v11.75Z"/>
  <path class="st0" d="M339.43,221.32v8.87h-1.92v-24.1l.36-.36h9.6c5.6,0,9.86,5.67,7.36,10.95-1.2,2.52-5.13,4.63-7.84,4.63h-7.56ZM339.43,219.4h8.04c.33,0,2.33-.65,2.76-.84,4.22-1.92,4.54-8.12.24-10.07-.42-.19-2.43-.84-2.76-.84h-8.28v11.75Z"/>
  <path class="st0" d="M175.11,221.32v8.87h-1.92v-24.1l.36-.36h9.36c5.69,0,10.2,5.47,7.6,10.95-1.18,2.48-5.18,4.63-7.84,4.63h-7.56ZM175.11,219.4h8.04c.33,0,2.33-.65,2.76-.84,4.22-1.92,4.54-8.12.24-10.07-.42-.19-2.43-.84-2.76-.84h-8.28v11.75Z"/>
  <path class="st17" d="M485.71,208.18c.34.59-.4,1.54-1.03,1.64-2.82-1.96-5.93-3.03-9.39-2.2-3.66.89-5.13,5.47-1.84,7.67,4.13,2.75,14.07,1.42,13.27,9.27-.65,6.48-9.04,7.03-13.84,4.96-.81-.35-3.44-1.94-3.93-2.55-.52-.64.54-1.34,1.09-1.58,2.85,2.34,6.01,3.79,9.81,3.34,3.31-.39,5.95-3.25,4.52-6.63-1.71-4.06-13.45-2.13-14.59-8.68-1.53-8.82,10.89-9.8,15.92-5.25Z"/>
  <path class="st17" d="M426.51,210.05c-.19.13-1.75-1.11-2.15-1.32-2.25-1.2-4.45-1.66-7.02-1.26-4.26.66-5.83,5.98-1.78,8.14,3.63,1.94,11.7,1.62,12.58,6.85,1.39,8.23-8.66,9.66-14.41,6.73-.6-.31-3.3-2.02-3.25-2.67.03-.37.62-1.14,1.04-1.13.21,0,2.79,1.97,3.47,2.3,3.57,1.69,10.91,1.88,11.29-3.37s-7.37-5.06-10.8-6.47c-7.16-2.96-4.77-11.48,2.3-12.32,3.24-.38,7.58.61,9.67,3.18l-.95,1.35Z"/>
  <path class="st22" d="M260.71,209.77c-.62.36-2.21-1.09-2.91-1.43-3.68-1.79-10.87-1.48-10.49,4.01.32,4.48,7.26,4.38,10.56,5.75,1.76.73,4.02,2.29,4.3,4.33,1.38,10.07-13.06,10.14-17.7,4.1.92-2.41,2.76.23,4.21.99,3.47,1.81,11.11,2.18,11.59-2.95.69-7.32-11.87-3.91-14.51-9.95-1.97-4.5,1.55-8.56,6.02-9.09,3.25-.38,7.56.57,9.67,3.18l-.74,1.07Z"/>
  <path class="st22" d="M280.39,171c.3.5-.87,1.69-1.25,1.63-5.52-5.49-14.91-4.38-17.61,3.31-2.43,6.91,1.91,14.9,9.62,14.84,3.46-.03,5.57-1.55,8.2-3.51,2.28.94.18,2.27-1,3.08-7.03,4.83-16.91,1.63-19.1-6.73-2.62-10.02,5.82-18.75,15.95-15.7,2.07.62,3.49,1.86,5.19,3.08Z"/>
  <path class="st22" d="M464.89,209.1c-1.04,2.97-2.95.07-4.63-.77-5.55-2.75-12.52-.16-14.38,5.85-3.6,11.59,9.23,19.79,17.73,10.99l1.27,1.09c-5.85,7.51-18.44,5.1-21.08-4.12-3.04-10.61,6.53-20.16,16.94-15.73,1.6.68,2.71,1.83,4.15,2.68Z"/>
  <path class="st8" d="M411.4,258.61l-9.85-13.89-.22-.85c.86.07,1.92-.3,2.53.47l8.51,12.48,9.46-12.97c.35.14,2.31-.3,2.04.37l-10.31,14.39v9.71h-2.16v-9.71Z"/>
  <path class="st17" d="M395.57,220.48l-9.85-13.89-.22-.85c.79.08,1.81-.28,2.4.35l8.63,12.6,9.35-12.83c.34-.12,2.41-.41,2.15.23l-10.31,14.39v9.71h-2.16v-9.71Z"/>
  <path class="st17" d="M326.72,169.53h-8.4v22.42c-.48.56-1.68.56-2.16,0v-22.42h-8.4v-1.92h18.59l.32.4.04,1.52Z"/>
  <polygon class="st1" points="345.43 243.86 345.43 245.78 337.03 245.78 337.03 268.32 334.87 268.32 334.87 245.78 326.48 245.78 326.48 243.86 345.43 243.86"/>
  <path class="st22" d="M175.11,243.86v22.54h14.03c.56.46.54,1.49,0,1.92h-15.95v-24.46h1.92Z"/>
  <polygon class="st0" points="198.62 205.98 198.62 228.16 198.98 228.52 213.02 228.52 213.02 230.19 196.7 230.19 196.7 205.98 198.62 205.98"/>
  <path class="st1" d="M222.37,167.97c.16-.52,1.85-.56,2.16,0v23.98c-.48.56-1.68.56-2.16,0v-23.98Z"/>
  <polygon class="st0" points="436.58 230.19 434.67 230.19 434.67 205.74 436.19 205.77 436.58 206.1 436.58 230.19"/>
</svg>