<?xml version="1.0" encoding="UTF-8"?>
<svg xmlns="http://www.w3.org/2000/svg" version="1.1" viewBox="0 0 110.87 29.73">
  <!-- Generator: Adobe Illustrator 29.8.1, SVG Export Plug-In . SVG Version: 2.1.1 Build 2)  -->
  <defs>
    <style>
      .st0 {
        fill: none;
      }

      .st1 {
        fill: #e22b2a;
      }

      .st2 {
        fill: #231f20;
      }

      .st3 {
        fill: #85c441;
      }

      .st4 {
        fill: #008c4f;
      }

      .st5 {
        fill: #1d388b;
      }

      .st6 {
        fill: #0093d0;
      }

      .st7 {
        fill: #a12b2f;
      }
    </style>
  </defs>
  <g id="boundary">
    <rect class="st0" x="-6.98" y="-6.98" width="124.82" height="43.61"/>
  </g>
  <g id="delta">
    <g>
      <polygon class="st4" points="94.76 13.95 86.7 13.95 90.73 20.93 94.76 13.95"/>
      <path class="st6" d="M102.81,13.95h-8.06l-4.03,6.98h16.11l-4.03-6.98Z"/>
      <polygon class="st5" points="110.87 13.95 102.81 13.95 106.84 20.93 110.87 13.95"/>
      <polygon class="st0" points="102.81 13.95 94.76 13.95 98.78 6.98 102.81 13.95"/>
      <polygon class="st7" points="102.81 0 94.76 0 98.78 6.98 102.81 0"/>
      <polygon class="st1" points="102.81 0 98.78 6.98 102.81 13.95 102.81 13.95 110.87 13.95 102.81 0"/>
      <path class="st3" d="M94.76,13.95l4.03-6.98-4.03-6.98-8.06,13.95h8.06Z"/>
    </g>
  </g>
  <g id="text">
    <g>
      <g>
        <path class="st2" d="M38.23,29.66l-1.23-2.13c-.19-.32-.33-.63-.45-.91.03.36.04,1.02.04,1.53v1.51h-.78v-4.21h1.05l1.16,2.01c.19.32.36.67.51.99-.03-.42-.04-1.17-.04-1.69v-1.31h.78v4.21h-1.04Z"/>
        <path class="st2" d="M43.12,29.66l-.29-.86h-1.58l-.29.86h-.81l1.46-4.21h.91l1.49,4.21h-.89ZM42.23,27.05c-.08-.23-.14-.44-.19-.67h0c-.05.22-.12.46-.2.71l-.38,1.07h1.16l-.39-1.1Z"/>
        <path class="st2" d="M46.24,26.14v3.52h-.8v-3.52h-1.08v-.69h2.97v.69h-1.08Z"/>
        <path class="st2" d="M48.24,29.66v-4.21h.8v4.21h-.8Z"/>
        <path class="st2" d="M51.94,29.73c-1.28,0-1.9-.82-1.9-2.12,0-1.39.92-2.23,2.04-2.23s1.9.67,1.9,2.12-.91,2.24-2.04,2.24ZM52.01,26.1c-.58,0-1.11.46-1.11,1.41,0,.89.35,1.47,1.1,1.47.54,0,1.13-.42,1.13-1.44,0-.94-.4-1.45-1.11-1.45Z"/>
        <path class="st2" d="M57.22,29.66l-1.23-2.13c-.19-.32-.33-.63-.45-.91.03.36.04,1.02.04,1.53v1.51h-.78v-4.21h1.05l1.16,2.01c.19.32.36.67.51.99-.03-.42-.04-1.17-.04-1.69v-1.31h.78v4.21h-1.04Z"/>
        <path class="st2" d="M62.15,29.66l-.29-.86h-1.58l-.29.86h-.81l1.46-4.21h.91l1.49,4.21h-.89ZM61.26,27.05c-.08-.23-.14-.44-.19-.67h0c-.05.22-.12.46-.2.71l-.38,1.07h1.16l-.39-1.1Z"/>
        <path class="st2" d="M63.96,29.66v-4.21h.8v3.5h1.36v.71h-2.16Z"/>
      </g>
      <g>
        <path class="st2" d="M68.72,29.66v-4.21h.8v3.5h1.36v.71h-2.16Z"/>
        <path class="st2" d="M74.77,29.66l-.29-.86h-1.58l-.29.86h-.81l1.46-4.21h.91l1.49,4.21h-.89ZM73.88,27.05c-.08-.23-.14-.44-.19-.67h0c-.05.22-.12.46-.2.71l-.38,1.07h1.16l-.39-1.1Z"/>
        <path class="st2" d="M77.77,29.67c-.25,0-.69-.01-1.22-.01v-4.21c.35-.02.9-.03,1.41-.03.9,0,1.4.37,1.4,1.04,0,.42-.27.79-.66.94h0c.5.12.74.53.74.96,0,.61-.41,1.31-1.68,1.31ZM77.83,26.08c-.17,0-.33,0-.47.01v1.1c.1,0,.2,0,.33,0,.55,0,.83-.22.83-.6,0-.31-.19-.52-.69-.52ZM77.71,27.8c-.06,0-.27,0-.35,0v1.18c.1.01.25.02.44.02.53,0,.79-.25.79-.63,0-.41-.35-.58-.88-.58Z"/>
        <path class="st2" d="M82.2,29.73c-1.27,0-1.9-.82-1.9-2.12,0-1.39.92-2.23,2.04-2.23s1.9.67,1.9,2.12-.91,2.24-2.04,2.24ZM82.27,26.1c-.58,0-1.11.46-1.11,1.41,0,.89.35,1.47,1.1,1.47.54,0,1.13-.42,1.13-1.44,0-.94-.4-1.45-1.11-1.45Z"/>
        <path class="st2" d="M87.14,29.66l-1.16-1.74h-.03v1.74h-.8v-4.21c.33-.02.72-.03,1.2-.03.92,0,1.52.32,1.52,1.19,0,.62-.43,1.07-1.07,1.17.12.16.24.32.34.46l1,1.42h-1ZM86.26,26.08c-.12,0-.24,0-.32.02v1.22c.06,0,.17.01.29.01.48,0,.78-.25.78-.64s-.25-.61-.75-.61Z"/>
        <path class="st2" d="M98.15,29.73c-1.27,0-1.9-.82-1.9-2.12,0-1.39.92-2.23,2.04-2.23s1.9.67,1.9,2.12-.91,2.24-2.04,2.24ZM98.22,26.1c-.58,0-1.11.46-1.11,1.41,0,.89.35,1.47,1.1,1.47.54,0,1.13-.42,1.13-1.44,0-.94-.4-1.45-1.11-1.45Z"/>
        <path class="st2" d="M103.04,29.66l-1.16-1.74h-.03v1.74h-.8v-4.21c.33-.02.72-.03,1.2-.03.92,0,1.52.32,1.52,1.19,0,.62-.43,1.07-1.07,1.17.12.16.24.32.34.46l1,1.42h-1ZM102.16,26.08c-.12,0-.24,0-.32.02v1.22c.06,0,.17.01.29.01.48,0,.78-.25.78-.64s-.25-.61-.75-.61Z"/>
        <path class="st2" d="M91.72,29.66l-.29-.86h-1.58l-.29.86h-.81l1.46-4.21h.91l1.49,4.21h-.89ZM90.83,27.05c-.08-.23-.14-.44-.19-.67h0c-.05.22-.12.46-.2.71l-.38,1.07h1.16l-.39-1.1Z"/>
        <path class="st2" d="M94.68,26.14v3.52h-.8v-3.52h-1.08v-.69h2.97v.69h-1.08Z"/>
        <path class="st2" d="M106.7,28.17v1.49h-.8v-1.49l-1.31-2.73h.88l.55,1.21c.11.25.2.48.28.7h.01c.09-.24.21-.51.33-.78l.53-1.13h.85l-1.33,2.72Z"/>
      </g>
    </g>
    <g>
      <path class="st2" d="M12.24,20.73l-1.45-4.08H3.42l-1.47,4.08H0L6.17,4.14h2.04l6.17,16.6h-2.14ZM7.87,8.61c-.32-.84-.54-1.57-.74-2.43h-.05c-.2.81-.44,1.6-.74,2.41l-2.41,6.57h6.34l-2.41-6.54Z"/>
      <path class="st2" d="M21.81,10.11c-2.7-.44-3.98,1.62-3.98,5.73v4.89h-1.84v-12.22h1.82c0,.81-.1,2.02-.27,3.07l.02.02c.49-1.8,1.77-3.61,4.33-3.32l-.07,1.82Z"/>
      <path class="st2" d="M27.57,27.15c-3.1,0-5.09-1.25-5.09-3.59,0-1.52.96-2.66,2.11-3.25-.76-.34-1.23-.98-1.23-1.77,0-.84.49-1.6,1.35-1.99-1.23-.71-1.82-1.97-1.82-3.54,0-2.56,1.99-4.72,5.31-4.72.46,0,.84.03,1.23.1.2.03,1.82.12,2.1.12h2.66v1.45h-1.46c-.12,0-.83-.05-.83-.05,0,0-.01-.02.07.05.7.57,1.18,1.52,1.18,2.68,0,2.61-1.79,4.6-5.31,4.6-.57,0-1.23-.07-1.67-.17-.61.22-.91.66-.91,1.11,0,.71.69,1.03,2.21,1.03h2.39c2.66,0,4.11,1.3,4.11,3.44,0,2.58-2.66,4.5-6.42,4.5ZM29.37,20.81h-2.51c-.25,0-.57,0-.79-.02-1.06.54-1.75,1.43-1.75,2.46,0,1.57,1.52,2.41,3.57,2.41,2.68,0,4.25-1.13,4.25-2.75,0-1.3-.91-2.09-2.78-2.09ZM28.11,9.72c-2.11,0-3.37,1.3-3.37,3.1,0,1.99,1.2,3.05,3.27,3.05s3.32-1.08,3.32-3.05-1.21-3.1-3.22-3.1Z"/>
      <path class="st2" d="M40.03,20.95c-3.27,0-5.38-1.99-5.38-6.27,0-3.49,2.16-6.39,5.83-6.39,2.97,0,5.41,1.65,5.41,6.12,0,3.64-2.24,6.54-5.85,6.54ZM40.3,9.82c-1.92,0-3.74,1.45-3.74,4.72s1.35,4.84,3.74,4.84c1.92,0,3.66-1.47,3.66-4.84,0-2.95-1.23-4.72-3.66-4.72Z"/>
      <path class="st2" d="M55.47,20.73v-7.92c0-1.92-.52-3.02-2.29-3.02-2.19,0-3.74,2.16-3.74,5.06v5.88h-1.84v-12.22h1.82c0,.79-.07,1.97-.2,2.7l.05.02c.69-1.77,2.24-2.98,4.38-2.98,2.8,0,3.66,1.77,3.66,3.93v8.53h-1.84Z"/>
      <path class="st2" d="M68.25,20.73v-7.92c0-1.92-.52-3.02-2.29-3.02-2.19,0-3.74,2.16-3.74,5.06v5.88h-1.84v-12.22h1.82c0,.79-.07,1.97-.2,2.7l.05.02c.69-1.77,2.24-2.98,4.38-2.98,2.8,0,3.66,1.77,3.66,3.93v8.53h-1.84Z"/>
      <path class="st2" d="M81.93,14.24h-8.16c-.12,3.66,1.33,5.19,4.06,5.19,1.28,0,2.63-.32,3.54-.79l.17,1.57c-1.13.47-2.51.74-4.03.74-3.69,0-5.66-1.99-5.66-6.27,0-3.66,1.97-6.39,5.36-6.39s4.77,2.34,4.77,5.04c0,.22,0,.54-.05.91ZM77.11,9.69c-1.72,0-2.95,1.25-3.25,3.17h6.2c.05-1.89-1.08-3.17-2.95-3.17Z"/>
    </g>
  </g>
</svg>