<?xml version="1.0" encoding="UTF-8"?>
<svg id="Layer_1" xmlns="http://www.w3.org/2000/svg" version="1.1" viewBox="0 0 451.43 82.01">
  <!-- Generator: Adobe Illustrator 29.8.1, SVG Export Plug-In . SVG Version: 2.1.1 Build 2)  -->
  <defs>
    <style>
      .st0 {
        fill: #105398;
      }

      .st1 {
        fill: #105299;
      }

      .st2 {
        fill: #14549a;
      }

      .st3 {
        fill: #235ea2;
      }

      .st4 {
        fill: #12549a;
      }

      .st5 {
        fill: #115399;
      }
    </style>
  </defs>
  <path class="st2" d="M236,25.01h13.01s.49,5,.49,5c5.97-8.57,21.22-8.6,26,1,4.78-6.16,10.06-8.17,17.94-6.93,5.94.94,12.56,8.42,12.56,14.43v35.5h-14v-34.5c0-.8-2.23-3.29-3.23-3.76-5.38-2.56-11.77,2.49-11.77,7.76v30.5h-13v-34.5c0-6.09-15-6.15-15,2v32.5h-13V25.01Z"/>
  <path class="st5" d="M39,0v7s3.49,0,3.49,0l.5-7.01h13.01s0,8.01,0,8.01h14v13.01c-3.47.17-7.04-.26-10.51,0-1.49.11-2.9-.78-2.48,1.49,1.98,5.05,19.18,1.06,24.05,2.95l.94,13.56h-24.5c-4.62,0-11.79-7.14-13.55-11.45-1.17-2.84-.02-8.32-4.44-7.56-.47.08-1.12,4.81-1.73,6.28-1.8,4.35-8.32,12.72-13.27,12.72H0v-14h22.5c.43,0,3.37-3.24,2.49-3.99h-13s0-13.01,0-13.01h13.01s0-7.99,0-7.99h14Z"/>
  <path class="st5" d="M24.5,43.01c5.66.94,11.17,7.64,13.27,12.72.61,1.47,1.26,6.2,1.73,6.28,4.42.76,3.27-4.72,4.44-7.56,1.77-4.31,8.94-11.45,13.55-11.45h24.5l-.94,13.56c-4.87,1.89-22.08-2.09-24.05,2.95-.42,2.26.99,1.38,2.48,1.49,3.47.25,7.05-.18,10.52,0v13.01h-14.01v8.01s-13.01,0-13.01,0l-.5-7.01h-3.49s0,7.01,0,7.01h-14v-8.01s-13.01.01-13.01.01v-13.01s13,0,13,0c.88-.76-2.06-3.99-2.49-3.99H0v-14c7.45.87,17.39-1.18,24.5,0Z"/>
  <path class="st0" d="M417,8.01v22c8.95-9.96,25.25-7.57,31.18,4.32,10.83,21.72-6.97,55.16-30.68,34.68l-.49,5h-13.01V8.01h13ZM424.72,35.2c-10.68,2.37-10.95,27.09-.16,28.75,18.68,2.88,16.98-32.48.16-28.75Z"/>
  <path class="st4" d="M149,8.01v12h-33v14h27.5c2.93,2.9.98,8.14,1.5,12h-29v28h-14V8.01h47Z"/>
  <path class="st0" d="M397.41,70.66c.14.38,2.63.64,1.6,3.34l-14.56-.94-.93-4.05c-12.26,13-36.61,4.4-29.02-15.02,3.98-10.18,17.51-8.21,25.36-10.64,1.77-.55,2.87-.73,3.22-2.86,1.36-8.27-16.06-8.38-15.16.42l-12.9.1c-2.32-21.69,39.02-22.54,41.02-5.52,1.23,10.48-2.24,25.58,1.38,35.18ZM383.99,51.01c-5.75.42-24.34,3.95-16.45,12.96,6.55,7.48,19.34-4.12,16.45-12.96Z"/>
  <path class="st5" d="M196,53.01h-33c-.69,7.65,4.34,12.55,12.02,11.59,5.35-.67,5.12-4.2,6.95-5.11,2.89-1.42,8.64,0,12.03-.48-3.29,21.8-36.89,22.08-43.3.8-6.42-21.33,6.81-42.42,30.57-34.57,12.38,4.09,13.78,16.52,14.73,27.77ZM182,45.01c-.1-13.77-19.56-14.33-19,0h19Z"/>
  <rect class="st5" x="335" y="8.01" width="13" height="66"/>
  <path class="st1" d="M202,25.01h12.01s.49,7,.49,7c3.85-6.22,7.8-9.2,15.51-8v13.01c-4.62-.96-15,1.68-15,7.49v29.5h-13V25.01Z"/>
  <rect class="st0" x="313" y="25.01" width="13" height="49"/>
  <polygon class="st3" points="312.99 20.01 312.99 7 326.56 7.94 326.06 19.57 312.99 20.01"/>
</svg>