<?xml version="1.0" encoding="UTF-8"?>
<svg id="Layer_1" xmlns="http://www.w3.org/2000/svg" version="1.1" viewBox="0 0 560.46 361.36">
  <!-- Generator: Adobe Illustrator 29.8.1, SVG Export Plug-In . SVG Version: 2.1.1 Build 2)  -->
  <defs>
    <style>
      .st0 {
        fill: none;
      }

      .st1 {
        fill: #e14a4a;
      }

      .st2 {
        fill: #1b2652;
      }

      .st3 {
        fill: #45ade2;
      }

      .st4 {
        fill: #fff;
      }

      .st5 {
        fill: #cb202b;
      }

      .st6 {
        fill: #1c3c6e;
      }
    </style>
  </defs>
  <g id="Layer_11" data-name="Layer_1">
    <path class="st4" d="M537.38,231.64v29.51s-.93,25.2-16.09,41.13c-.71.94-1.43,1.86-2.16,2.76-1.47,1.81-3,3.56-4.58,5.25-2.37,2.53-4.87,4.91-7.49,7.14s-5.36,4.29-8.21,6.19c-.95.63-1.92,1.25-2.9,1.84-3.91,2.38-8.03,4.44-12.35,6.17-2.16.86-4.37,1.64-6.63,2.33-.69.21-1.55.46-2.53.74s-2.07.58-3.24.89c-.59.16-1.19.32-1.81.48-1.24.32-2.54.66-3.85.98-1.97.49-3.98.96-5.88,1.37-.63.14-1.25.27-1.86.39-1.81.37-3.47.66-4.84.84-.91.12-1.69.18-2.3.18h-160.04l-3.58-18.78-3.58-18.78s-8.05-23.25-16.09-41.13l-8.05-17.88-8.05-17.88s-11.33-22.85-31.29-41.13c-2.71-2.6-5.45-5.18-8.22-7.74-5.53-5.12-11.17-10.14-16.96-14.97-2.9-2.42-5.83-4.78-8.81-7.09-1.49-1.15-2.99-2.29-4.5-3.42-3.03-2.25-6.1-4.42-9.22-6.53s-6.3-4.13-9.54-6.06c-4.85-2.9-9.83-5.6-14.96-8.06.72-6.19,1.99-12.27,3.77-18.2.89-2.96,1.91-5.89,3.04-8.77,1.13-2.88,2.39-5.72,3.75-8.51s2.84-5.52,4.42-8.21c1.58-2.68,3.26-5.31,5.04-7.87,1.78-2.56,3.65-5.06,5.62-7.5,1.96-2.43,4.02-4.8,6.15-7.09,1.07-1.15,2.16-2.27,3.26-3.38,2.21-2.22,4.51-4.36,6.87-6.41,4.73-4.12,9.74-7.9,14.97-11.31,2.62-1.7,5.29-3.31,8.01-4.82,1.36-.75,2.73-1.48,4.12-2.19,2.77-1.41,5.58-2.71,8.43-3.91,5.7-2.39,11.55-4.35,17.5-5.82,21.84-5.42,44.42-5.22,65.62-.11,3.85.93,7.66,2.02,11.42,3.27,5.63,1.87,11.12,4.1,16.44,6.68,3.55,1.71,7.02,3.58,10.4,5.6,3.38,2.01,6.67,4.18,9.86,6.48,3.19,2.3,6.27,4.75,9.24,7.34s5.82,5.31,8.55,8.18c2.73,2.86,5.32,5.86,7.78,8.99s4.77,6.38,6.94,9.77c2.16,3.38,4.17,6.89,6.02,10.53,1.84,3.63,3.52,7.39,5.02,11.26.58,1.51,1.26,3.91,1.98,6.84.24.98.49,2.01.73,3.09.25,1.08.5,2.2.76,3.35.13.58.25,1.16.38,1.75.26,1.18.51,2.38.77,3.58.38,1.81.77,3.64,1.14,5.45.13.6.25,1.2.37,1.79.62,2.96,1.21,5.81,1.76,8.31.22,1,.43,1.95.63,2.82.2.88.39,1.68.57,2.41.54,2.17.97,3.6,1.26,3.9.36.38.87.68,1.52.93.43.17.91.31,1.45.42.54.12,1.12.21,1.75.29.63.07,1.3.13,2,.17s1.44.06,2.21.06c1.15,0,2.35,0,3.6-.06.83-.03,1.67-.07,2.52-.11s1.71-.1,2.57-.15c.86-.06,1.72-.11,2.57-.17,1.71-.12,3.38-.24,4.97-.34.79-.05,1.56-.09,2.31-.13,1.48-.07,2.84-.11,4.02-.09.59,0,1.14.03,1.63.07,3.27.27,6.57.71,9.87,1.31,3.3.6,6.61,1.37,9.89,2.3,3.28.93,6.54,2.01,9.74,3.24,3.21,1.23,6.36,2.62,9.45,4.14,1.54.76,3.06,1.56,4.56,2.4,3,1.67,5.91,3.48,8.71,5.42,6.99,4.85,13.27,10.53,18.44,16.92,0,0,16.08,13.98,23.25,41.13v6.26-.04Z"/>
    <g>
      <path class="st0" d="M219.98,184.26c-2.71-2.6-5.45-5.18-8.22-7.74,2.76,2.56,5.5,5.14,8.22,7.74Z"/>
      <path class="st0" d="M519.13,305.04c-1.47,1.81-3,3.56-4.58,5.25,1.58-1.69,3.11-3.44,4.58-5.25Z"/>
      <path class="st0" d="M45.13,332.97c-3.1-2.61-6.05-5.35-8.83-8.22,2.78,2.87,5.72,5.61,8.83,8.22Z"/>
      <path class="st5" d="M514.13,184.26H219.98c19.96,18.28,31.29,41.13,31.29,41.13h286.11c-7.16-27.14-23.25-41.13-23.25-41.13Z"/>
      <path class="st5" d="M267.36,261.15c8.05,17.88,16.09,41.13,16.09,41.13h237.83c15.17-15.93,16.09-41.13,16.09-41.13h-270.02,0Z"/>
      <path class="st2" d="M556.39,216.08c-.63-2.29-1.32-4.55-2.08-6.78-.49-1.43-1.01-2.84-1.55-4.25-.72-1.88-1.49-3.75-2.31-5.59-1.43-3.21-3-6.35-4.7-9.41-.57-1.02-1.15-2.03-1.75-3.03-1.79-3.01-3.71-5.93-5.76-8.77-.68-.95-1.38-1.88-2.09-2.81-1.42-1.85-2.89-3.67-4.41-5.44-1.52-1.77-3.1-3.5-4.72-5.19s-3.3-3.33-5.02-4.92c-2.58-2.39-5.26-4.69-8.05-6.87-4.64-3.64-9.55-6.97-14.7-9.97-2.06-1.2-4.16-2.34-6.29-3.43-3.2-1.63-6.48-3.14-9.83-4.52-2.23-.92-4.5-1.78-6.8-2.58s-4.62-1.54-6.98-2.21c-4.71-1.35-9.53-2.45-14.44-3.29-2.46-.42-4.94-.77-7.44-1.05-2.5-.28-5.02-.5-7.56-.64-1.27-.07-2.55-.13-3.82-.16-2.56-.07-5.13-.07-7.73,0-.85-4.89-1.89-9.64-3.12-14.25s-2.62-9.08-4.19-13.41c-1.57-4.33-3.3-8.52-5.19-12.56s-3.94-7.95-6.13-11.71c-5.48-9.4-11.88-17.92-19-25.54-2.85-3.05-5.82-5.95-8.89-8.71-3.72-3.34-7.61-6.43-11.62-9.35-1.96-1.42-3.95-2.8-5.98-4.12-2.39-1.56-4.81-3.08-7.28-4.5-5.3-3.05-10.78-5.77-16.4-8.16-3.74-1.59-7.55-3.04-11.4-4.34s-7.76-2.45-11.71-3.45-7.93-1.86-11.94-2.56c-6.02-1.06-12.1-1.78-18.2-2.17-4.07-.26-8.15-.37-12.23-.33s-8.16.23-12.23.57c-4.07.34-8.13.83-12.16,1.48-2.02.32-4.03.68-6.03,1.08-6.01,1.19-11.97,2.73-17.82,4.61-7.8,2.5-15.42,5.62-22.77,9.35-2.52,1.28-4.99,2.65-7.44,4.08-2.92,1.69-5.79,3.46-8.61,5.36-22.41,15.13-41.27,36.8-53.5,65.17-1.88,4.37-3.61,8.89-5.16,13.57-33.12-1.75-60.01,6.91-80.52,21.98-3.16,2.32-6.16,4.79-9.01,7.4-2.85,2.61-5.55,5.36-8.1,8.23-2.55,2.87-4.95,5.86-7.19,8.96-6.73,9.3-12.09,19.58-16.06,30.45-1.32,3.62-2.49,7.31-3.51,11.05-.51,1.87-.98,3.75-1.41,5.64-.86,3.78-1.56,7.61-2.11,11.47s-.94,7.74-1.18,11.64-.32,7.82-.24,11.73c.11,5.87.58,11.74,1.4,17.57.55,3.88,1.25,7.74,2.12,11.57,3.45,15.3,9.44,30.01,17.98,43.22,1.07,1.65,2.18,3.28,3.33,4.88,3.45,4.81,7.25,9.38,11.42,13.68,2.78,2.87,5.72,5.61,8.83,8.22,17.07,14.33,39.04,24.5,66,28.09l173.37.15,173.37.15c20.95-2.3,39.97-9.4,55.8-20.57,2.26-1.6,4.46-3.28,6.58-5.04,2.13-1.76,4.18-3.6,6.17-5.52s3.9-3.92,5.73-6c1.84-2.08,3.59-4.23,5.27-6.46,1.68-2.23,3.28-4.53,4.79-6.91,1.77-2.78,3.41-5.66,4.95-8.63,1.09-2.11,2.14-4.26,3.11-6.47,2.33-5.31,4.29-10.9,5.86-16.74,5.94-22.12,5.57-43.5.25-62.94h.03ZM163.89,300.54l-45.26-34.35-45.26,34.35,17.29-55.57-45.26-34.35h55.95l17.29-55.57,17.29,55.57h55.95l-45.26,34.35,17.29,55.57h-.02ZM537.38,231.64v29.51s-.93,25.2-16.09,41.13c-.71.94-1.43,1.86-2.16,2.76-1.47,1.81-3,3.56-4.58,5.25-2.37,2.53-4.87,4.91-7.49,7.14s-5.36,4.29-8.21,6.19c-.95.63-1.92,1.25-2.9,1.84-3.91,2.38-8.03,4.44-12.35,6.17-2.16.86-4.37,1.64-6.63,2.33-.69.21-1.55.46-2.53.74s-2.07.58-3.24.89c-.59.16-1.19.32-1.81.48-1.24.32-2.54.66-3.85.98-1.97.49-3.98.96-5.88,1.37-.63.14-1.25.27-1.86.39-1.81.37-3.47.66-4.84.84-.91.12-1.69.18-2.3.18h-160.04l-3.58-18.78-3.58-18.78s-8.05-23.25-16.09-41.13l-8.05-17.88-8.05-17.88s-11.33-22.85-31.29-41.13c-2.71-2.6-5.45-5.18-8.22-7.74-5.53-5.12-11.17-10.14-16.96-14.97-2.9-2.42-5.83-4.78-8.81-7.09-1.49-1.15-2.99-2.29-4.5-3.42-3.03-2.25-6.1-4.42-9.22-6.53s-6.3-4.13-9.54-6.06c-4.85-2.9-9.83-5.6-14.96-8.06.72-6.19,1.99-12.27,3.77-18.2.89-2.96,1.91-5.89,3.04-8.77,1.13-2.88,2.39-5.72,3.75-8.51s2.84-5.52,4.42-8.21c1.58-2.68,3.26-5.31,5.04-7.87,1.78-2.56,3.65-5.06,5.62-7.5,1.96-2.43,4.02-4.8,6.15-7.09,1.07-1.15,2.16-2.27,3.26-3.38,2.21-2.22,4.51-4.36,6.87-6.41,4.73-4.12,9.74-7.9,14.97-11.31,2.62-1.7,5.29-3.31,8.01-4.82,1.36-.75,2.73-1.48,4.12-2.19,2.77-1.41,5.58-2.71,8.43-3.91,5.7-2.39,11.55-4.35,17.5-5.82,21.84-5.42,44.42-5.22,65.62-.11,3.85.93,7.66,2.02,11.42,3.27,5.63,1.87,11.12,4.1,16.44,6.68,3.55,1.71,7.02,3.58,10.4,5.6,3.38,2.01,6.67,4.18,9.86,6.48,3.19,2.3,6.27,4.75,9.24,7.34s5.82,5.31,8.55,8.18c2.73,2.86,5.32,5.86,7.78,8.99s4.77,6.38,6.94,9.77c2.16,3.38,4.17,6.89,6.02,10.53,1.84,3.63,3.52,7.39,5.02,11.26.58,1.51,1.26,3.91,1.98,6.84.24.98.49,2.01.73,3.09.25,1.08.5,2.2.76,3.35.13.58.25,1.16.38,1.75.26,1.18.51,2.38.77,3.58.38,1.81.77,3.64,1.14,5.45.13.6.25,1.2.37,1.79.62,2.96,1.21,5.81,1.76,8.31.22,1,.43,1.95.63,2.82.2.88.39,1.68.57,2.41.54,2.17.97,3.6,1.26,3.9.36.38.87.68,1.52.93.43.17.91.31,1.45.42.54.12,1.12.21,1.75.29.63.07,1.3.13,2,.17s1.44.06,2.21.06c1.15,0,2.35,0,3.6-.06.83-.03,1.67-.07,2.52-.11s1.71-.1,2.57-.15c.86-.06,1.72-.11,2.57-.17,1.71-.12,3.38-.24,4.97-.34.79-.05,1.56-.09,2.31-.13,1.48-.07,2.84-.11,4.02-.09.59,0,1.14.03,1.63.07,3.27.27,6.57.71,9.87,1.31,3.3.6,6.61,1.37,9.89,2.3,3.28.93,6.54,2.01,9.74,3.24,3.21,1.23,6.36,2.62,9.45,4.14,1.54.76,3.06,1.56,4.56,2.4,3,1.67,5.91,3.48,8.71,5.42,6.99,4.85,13.27,10.53,18.44,16.92,0,0,16.08,13.98,23.25,41.13v6.26-.04Z"/>
    </g>
    <g>
      <g>
        <path class="st0" d="M246.78,114.36c.51-1.58,1.07-3.18,1.66-4.75.61-1.61,1.27-3.25,1.97-4.85.2-.47.44-.95.65-1.42-2.59-5.75-4.57-11.35-5.88-16.6-11.14,4.1-18.29,10.06-18.29,16.56s7.17,12.47,18.34,16.58c.07-.3.13-.59.21-.89.4-1.52.85-3.07,1.35-4.62h0Z"/>
        <path class="st0" d="M266.16,128.48c-6.62-.74-12.75-1.99-18.19-3.65-.22,1.16-.43,2.31-.57,3.41-.17,1.3-.3,2.58-.37,3.8-.07,1.21-.09,2.4-.06,3.52.03,1.11.12,2.19.25,3.2s.32,1.97.55,2.85c.23.88.51,1.71.84,2.47.32.75.7,1.44,1.11,2.06.41.61.87,1.17,1.36,1.65.5.48,1.04.91,1.62,1.25.58.35,1.21.64,1.87.85.65.21,1.36.36,2.09.44.74.08,1.53.08,2.34.02.82-.06,1.68-.2,2.57-.41s1.82-.49,2.78-.84c.94-.35,1.94-.77,2.95-1.27,1.01-.49,2.05-1.06,3.09-1.69,1.03-.62,2.11-1.33,3.19-2.1,1.08-.76,2.17-1.6,3.26-2.49.2-.16.41-.34.61-.51-3.9-3.62-7.71-7.87-11.33-12.57h.04Z"/>
        <path class="st0" d="M286.8,131.94c.85-.96,1.69-1.98,2.53-3-2.93.2-5.93.31-9,.31s-6.08-.11-9.01-.31c2.92,3.55,5.93,6.8,9,9.63,1.06-.97,2.12-2,3.17-3.08,1.11-1.13,2.21-2.31,3.3-3.55h.01Z"/>
        <path class="st0" d="M305.41,111.72c-.9,1.66-1.86,3.34-2.86,4.98-.99,1.64-2.02,3.27-3.07,4.85-.62.93-1.25,1.8-1.88,2.7,5.13-.76,9.93-1.83,14.25-3.17-1.05-4.28-2.54-8.74-4.42-13.28-.65,1.31-1.32,2.62-2.02,3.92Z"/>
        <path class="st0" d="M292.99,130.44c-1.11,1.39-2.24,2.72-3.38,4s-2.28,2.51-3.43,3.69c-1,1.02-2.01,1.99-3.01,2.93,1.29,1.07,2.58,2.09,3.87,3,8.52,6.05,16.13,7.87,20.89,5,4.76-2.87,6.7-10.46,5.32-20.81-.15-1.11-.36-2.26-.57-3.41-5.44,1.67-11.57,2.91-18.19,3.65-.5.65-.99,1.33-1.5,1.96h0Z"/>
        <path class="st0" d="M255.24,94.86c.91-1.67,1.87-3.35,2.86-4.98.99-1.64,2.02-3.27,3.07-4.85.62-.93,1.25-1.8,1.88-2.7-5.13.75-9.92,1.83-14.24,3.16,1.04,4.22,2.52,8.69,4.41,13.27.65-1.3,1.31-2.6,2.02-3.91h0Z"/>
        <path class="st0" d="M294.49,78.1c6.62.74,12.75,1.99,18.19,3.65.22-1.16.42-2.31.57-3.41.17-1.3.3-2.58.37-3.8s.09-2.4.06-3.52c-.03-1.12-.12-2.2-.25-3.21-.13-1-.32-1.96-.55-2.85-.23-.88-.51-1.71-.84-2.47-.32-.75-.7-1.44-1.11-2.06-.41-.61-.87-1.17-1.36-1.65-.49-.48-1.04-.9-1.62-1.25s-1.21-.64-1.87-.85-1.36-.36-2.09-.44c-.41-.04-.83-.06-1.26-.06-.35,0-.72,0-1.08.04-.82.06-1.69.2-2.58.41-.89.21-1.83.49-2.78.84s-1.95.78-2.96,1.27c-1.01.5-2.05,1.06-3.09,1.69-1.04.63-2.11,1.33-3.19,2.1-1.07.76-2.17,1.6-3.26,2.49-.2.16-.41.34-.61.51,3.9,3.62,7.71,7.87,11.33,12.57h-.02Z"/>
        <path class="st0" d="M302.56,89.88c1.77,2.94,3.39,5.91,4.88,8.88.43-1.04.87-2.08,1.26-3.11.58-1.54,1.12-3.07,1.6-4.58.48-1.49.91-2.98,1.29-4.43.1-.39.17-.76.27-1.14-4.32-1.34-9.12-2.41-14.25-3.17,1.71,2.43,3.37,4.93,4.95,7.55h0Z"/>
        <path class="st0" d="M268.14,81.7c-.24.33-.5.63-.74.96-1.05,1.44-2.09,2.92-3.1,4.45s-2.01,3.1-2.98,4.71c-.96,1.59-1.89,3.21-2.77,4.84-.88,1.61-1.71,3.22-2.49,4.82-.3.61-.56,1.22-.84,1.83,1.77,3.8,3.8,7.64,6.1,11.46,2.15,3.56,4.44,6.93,6.82,10.12,3.93.4,8.01.62,12.19.62s8.26-.22,12.19-.62c.25-.33.5-.63.74-.97,1.05-1.43,2.09-2.92,3.1-4.44,1.02-1.53,2.01-3.1,2.98-4.71.96-1.6,1.9-3.22,2.77-4.84.88-1.61,1.71-3.22,2.49-4.82.3-.61.55-1.21.84-1.82-1.79-3.82-3.81-7.67-6.1-11.46-2.15-3.56-4.44-6.93-6.82-10.12-3.93-.4-8.01-.62-12.19-.62s-8.26.22-12.19.62h0Z"/>
        <path class="st0" d="M273.85,74.64c-.85.96-1.69,1.98-2.53,3,2.93-.2,5.93-.31,9-.31s6.08.11,9.01.31c-2.92-3.55-5.94-6.8-9-9.63-1.06.97-2.12,2-3.17,3.08-1.11,1.13-2.21,2.31-3.3,3.55h-.01Z"/>
        <path class="st0" d="M313.87,92.23c-.5,1.56-1.06,3.16-1.66,4.75-.6,1.6-1.26,3.22-1.96,4.85-.21.48-.45.97-.67,1.45,2.54,5.65,4.52,11.24,5.85,16.59,11.17-4.1,18.34-10.07,18.34-16.58s-7.17-12.48-18.34-16.58c-.07.3-.13.59-.21.89-.4,1.52-.85,3.07-1.35,4.62h0Z"/>
        <path class="st0" d="M267.67,76.15c1.11-1.39,2.24-2.72,3.38-4,1.13-1.27,2.28-2.51,3.43-3.69,1-1.02,2.01-1.99,3.01-2.93-1.29-1.07-2.58-2.09-3.87-3-8.52-6.05-16.14-7.87-20.89-5-5.57,3.36-6.97,12.56-4.73,24.22,5.43-1.66,11.56-2.91,18.17-3.65.5-.65.99-1.33,1.5-1.96h0Z"/>
        <path class="st0" d="M258.1,116.7c-1.79-2.96-3.41-5.93-4.88-8.86-.43,1.03-.87,2.07-1.25,3.09-.58,1.54-1.12,3.07-1.6,4.58-.48,1.49-.91,2.98-1.29,4.43-.1.39-.17.76-.27,1.15,4.32,1.34,9.12,2.41,14.25,3.17-1.71-2.43-3.37-4.93-4.95-7.55h0Z"/>
        <path class="st3" d="M245.23,119.87c-11.17-4.1-18.34-10.07-18.34-16.58s7.15-12.46,18.29-16.56c-.32-1.27-.59-2.52-.84-3.75-13.01,4.72-21.21,12-21.21,20.32s8.22,15.61,21.24,20.33c.01-.06.02-.11.03-.16.24-1.18.53-2.38.83-3.58v-.02Z"/>
        <path class="st6" d="M297.61,82.33c5.13.76,9.93,1.83,14.25,3.17.26-1.05.52-2.1.72-3.11.04-.22.07-.42.11-.63-5.44-1.67-11.57-2.91-18.19-3.65,1.06,1.37,2.09,2.78,3.11,4.23h0Z"/>
        <path class="st3" d="M263.05,124.25c-5.13-.76-9.93-1.83-14.25-3.17-.26,1.04-.52,2.09-.72,3.11-.04.21-.07.42-.11.63,5.44,1.67,11.57,2.91,18.19,3.65-1.06-1.37-2.09-2.78-3.11-4.23h0Z"/>
        <path class="st6" d="M292.51,124.88c-3.93.4-8.01.62-12.19.62s-8.26-.22-12.19-.62c1.04,1.4,2.1,2.75,3.18,4.06,2.93.2,5.94.31,9.01.31s6.08-.11,9-.31c.24-.29.49-.56.73-.86.83-1.03,1.64-2.11,2.45-3.2h0Z"/>
        <path class="st1" d="M337.53,103.29c0-8.32-8.22-15.61-21.24-20.33-.01.06-.02.11-.03.16-.23,1.17-.53,2.38-.83,3.58,11.17,4.1,18.34,10.07,18.34,16.58s-7.17,12.48-18.34,16.58c.32,1.26.61,2.52.86,3.75,13.02-4.72,21.24-12.01,21.24-20.33h0Z"/>
        <path class="st6" d="M268.14,81.7c3.93-.4,8.01-.62,12.19-.62s8.26.22,12.19.62c-1.04-1.4-2.1-2.75-3.18-4.06-2.93-.2-5.94-.31-9.01-.31s-6.08.11-9,.31c-.24.29-.49.56-.73.86-.83,1.03-1.64,2.11-2.46,3.2Z"/>
        <path class="st3" d="M264.37,80.45c.59-.81,1.2-1.57,1.8-2.35-6.61.74-12.74,1.98-18.17,3.65.24,1.22.51,2.47.82,3.75,4.32-1.34,9.11-2.41,14.24-3.16.44-.62.87-1.28,1.31-1.88h0Z"/>
        <path class="st6" d="M296.29,126.14c-.59.81-1.2,1.57-1.8,2.35,6.62-.74,12.75-1.99,18.19-3.65-.23-1.23-.51-2.48-.82-3.74-4.32,1.34-9.12,2.41-14.25,3.17-.44.62-.87,1.28-1.31,1.88h-.01Z"/>
        <path class="st6" d="M276.88,141.56c-1.09.89-2.18,1.72-3.26,2.49-1.08.77-2.16,1.47-3.19,2.1-1.04.63-2.08,1.2-3.09,1.69-1.02.5-2.01.92-2.95,1.27-.96.35-1.9.63-2.78.84-.89.21-1.76.34-2.57.41-.82.06-1.6.06-2.34-.02s-1.44-.22-2.09-.44c-.66-.21-1.29-.5-1.87-.85s-1.13-.77-1.62-1.25-.95-1.03-1.36-1.65c-.41-.62-.79-1.31-1.11-2.06-.33-.76-.61-1.59-.84-2.47s-.42-1.84-.55-2.85c-.13-1.02-.22-2.09-.25-3.2-.03-1.12-.01-2.31.06-3.52.07-1.22.19-2.5.37-3.8.15-1.1.35-2.26.57-3.41-1.24-.38-2.44-.79-3.61-1.21-.28,1.4-.51,2.79-.69,4.12-.19,1.39-.32,2.76-.39,4.08-.08,1.32-.1,2.62-.06,3.85.04,1.24.13,2.45.28,3.59.16,1.16.37,2.28.64,3.31.28,1.06.62,2.07,1.03,3,.41.96.9,1.85,1.43,2.66.56.83,1.19,1.59,1.87,2.25.7.68,1.48,1.28,2.3,1.78.83.5,1.72.9,2.65,1.21.9.29,1.87.5,2.87.6.54.06,1.09.08,1.65.08.45,0,.91-.02,1.37-.05,1-.08,2.06-.24,3.13-.49,1.03-.24,2.12-.57,3.23-.97,1.06-.39,2.18-.87,3.31-1.42,1.11-.54,2.24-1.16,3.37-1.85,1.11-.67,2.27-1.43,3.43-2.25,1.14-.81,2.31-1.7,3.46-2.63.36-.29.73-.61,1.09-.92-.95-.81-1.91-1.63-2.86-2.51-.2.17-.41.35-.61.51l-.02-.02Z"/>
        <path class="st6" d="M250.36,115.51c.48-1.5,1.02-3.03,1.6-4.58.38-1.02.82-2.06,1.25-3.09-.76-1.51-1.48-3.01-2.15-4.51-.21.47-.45.95-.65,1.42-.7,1.61-1.36,3.24-1.97,4.85-.6,1.58-1.15,3.18-1.66,4.75-.5,1.55-.95,3.11-1.35,4.62-.08.3-.13.59-.21.89,1.15.42,2.34.83,3.57,1.21.09-.38.16-.76.27-1.15.38-1.45.82-2.94,1.29-4.43v.02Z"/>
        <path class="st3" d="M289.61,134.44c1.13-1.28,2.26-2.62,3.38-4,.51-.63,1-1.31,1.5-1.96-1.69.19-3.41.34-5.16.47-.84,1.02-1.68,2.04-2.53,3-1.1,1.24-2.2,2.42-3.3,3.55-1.05,1.07-2.12,2.11-3.17,3.08.95.87,1.9,1.69,2.85,2.48,1-.93,2.01-1.91,3.01-2.93,1.15-1.17,2.29-2.4,3.43-3.69h-.01Z"/>
        <path class="st6" d="M256.05,101.47c.78-1.6,1.61-3.21,2.49-4.82.88-1.62,1.82-3.25,2.77-4.84.97-1.61,1.97-3.18,2.98-4.71s2.05-3.01,3.1-4.45c.24-.33.49-.64.74-.96-1.73.17-3.42.39-5.09.63-.63.9-1.27,1.77-1.88,2.7-1.05,1.58-2.08,3.21-3.07,4.85-.99,1.63-1.95,3.31-2.86,4.98-.71,1.31-1.37,2.61-2.02,3.91.62,1.5,1.28,3.01,1.99,4.53.29-.61.54-1.22.84-1.83h.01Z"/>
        <path class="st1" d="M283.78,65.02c1.09-.89,2.19-1.72,3.26-2.49,1.08-.76,2.15-1.47,3.19-2.1,1.04-.63,2.08-1.2,3.09-1.69,1.01-.49,2-.92,2.96-1.27.95-.35,1.89-.63,2.78-.84.89-.21,1.76-.34,2.58-.41.37-.03.73-.04,1.08-.04.43,0,.85.02,1.26.06.73.08,1.44.22,2.09.44.66.21,1.29.5,1.87.85s1.13.77,1.62,1.25c.5.48.95,1.04,1.36,1.65.41.62.79,1.31,1.11,2.06.33.76.61,1.59.84,2.47.23.89.42,1.85.55,2.85.13,1.01.22,2.08.25,3.21.03,1.12.02,2.3-.06,3.52-.07,1.22-.19,2.5-.37,3.8-.15,1.11-.35,2.26-.57,3.41,1.24.38,2.44.79,3.6,1.21.28-1.4.51-2.79.69-4.12.19-1.39.32-2.76.39-4.08.08-1.33.1-2.62.06-3.85-.04-1.25-.13-2.46-.28-3.59-.15-1.15-.37-2.27-.64-3.31-.28-1.06-.62-2.07-1.03-3-.41-.96-.9-1.85-1.43-2.66-.55-.83-1.18-1.59-1.87-2.26-.7-.68-1.47-1.28-2.3-1.78s-1.72-.9-2.65-1.21c-.91-.29-1.87-.49-2.87-.6-.96-.1-1.98-.11-3.02-.03-1.01.08-2.06.24-3.14.49-1.05.24-2.13.57-3.23.97-1.07.39-2.19.87-3.31,1.42-1.11.54-2.24,1.16-3.38,1.85-1.12.67-2.27,1.43-3.43,2.25-1.14.81-2.3,1.7-3.46,2.64-.36.29-.73.61-1.09.92.95.81,1.91,1.63,2.85,2.51.2-.17.41-.35.61-.51h.04Z"/>
        <path class="st1" d="M271.04,72.15c-1.13,1.28-2.26,2.62-3.38,4-.51.63-1,1.31-1.5,1.96,1.69-.19,3.41-.34,5.16-.47.84-1.02,1.68-2.04,2.53-3,1.09-1.24,2.2-2.42,3.3-3.55,1.05-1.07,2.12-2.11,3.17-3.08-.95-.87-1.9-1.69-2.85-2.48-1,.93-2.01,1.91-3.01,2.93-1.15,1.17-2.3,2.41-3.43,3.69h.01Z"/>
        <path class="st1" d="M304.6,105.11c-.78,1.6-1.61,3.21-2.49,4.82s-1.81,3.24-2.77,4.84c-.97,1.61-1.97,3.18-2.98,4.71-1.02,1.53-2.05,3.01-3.1,4.44-.24.33-.5.64-.74.97,1.73-.17,3.42-.39,5.09-.63.63-.9,1.27-1.77,1.88-2.7,1.05-1.58,2.08-3.21,3.07-4.85.99-1.64,1.95-3.32,2.86-4.98.71-1.29,1.37-2.61,2.02-3.92-.62-1.5-1.29-3.01-2-4.52-.28.61-.54,1.21-.84,1.82h0Z"/>
        <path class="st1" d="M311.59,86.65c-.38,1.45-.82,2.94-1.29,4.43-.48,1.5-1.02,3.03-1.6,4.58-.39,1.03-.83,2.07-1.26,3.11.75,1.51,1.46,3.01,2.14,4.52.22-.48.46-.97.67-1.45.71-1.63,1.36-3.25,1.96-4.85s1.16-3.2,1.66-4.75.95-3.11,1.35-4.62c.08-.3.13-.59.21-.89-1.15-.42-2.34-.83-3.57-1.21-.09.39-.16.76-.27,1.14h0Z"/>
        <path class="st6" d="M290.06,128.08c-.24.3-.49.57-.73.86,1.75-.12,3.47-.28,5.16-.47.6-.78,1.21-1.54,1.8-2.35.45-.61.87-1.26,1.31-1.88-1.66.24-3.36.46-5.09.63-.81,1.09-1.63,2.17-2.45,3.2h0Z"/>
        <path class="st6" d="M248.08,124.19c.2-1.02.47-2.07.72-3.11-1.23-.38-2.42-.79-3.57-1.21-.3,1.2-.6,2.41-.83,3.58-.01.06-.02.11-.03.16,1.17.42,2.36.83,3.61,1.21.04-.21.06-.42.11-.63h0Z"/>
        <path class="st1" d="M312.57,82.39c-.2,1.01-.46,2.06-.72,3.11,1.23.38,2.42.79,3.57,1.21.3-1.21.6-2.41.83-3.58.01-.06.02-.11.03-.16-1.17-.42-2.36-.83-3.6-1.21-.04.21-.06.42-.11.63Z"/>
        <path class="st6" d="M270.59,78.5c.24-.3.49-.57.73-.86-1.75.12-3.47.28-5.16.47-.6.78-1.21,1.54-1.8,2.35-.45.61-.87,1.26-1.31,1.88,1.66-.24,3.36-.46,5.09-.63.81-1.09,1.63-2.17,2.46-3.2h-.01Z"/>
        <path class="st3" d="M313.25,128.24c1.38,10.36-.56,17.94-5.32,20.81s-12.37,1.05-20.89-5c-1.29-.92-2.58-1.93-3.87-3-.15.14-.3.29-.45.43-.79.73-1.59,1.42-2.38,2.08,1.5,1.27,3.01,2.48,4.52,3.55,6.57,4.67,12.68,7.05,17.85,7.05,2.65,0,5.06-.63,7.16-1.89,6.19-3.73,8.71-12.44,7.1-24.53-.18-1.35-.42-2.73-.69-4.12-1.17.42-2.36.83-3.61,1.21.22,1.15.43,2.3.57,3.41h0Z"/>
        <path class="st3" d="M261.31,114.76c-2.3-3.81-4.34-7.66-6.1-11.46-.46.98-.93,1.97-1.35,2.94-.23.54-.43,1.06-.65,1.6,1.47,2.94,3.1,5.9,4.88,8.86,1.58,2.62,3.24,5.12,4.95,7.55,1.66.25,3.36.46,5.09.63-2.38-3.18-4.67-6.56-6.82-10.12Z"/>
        <path class="st3" d="M271.32,128.95c-1.75-.12-3.47-.28-5.16-.47,3.62,4.7,7.43,8.95,11.33,12.57.89-.74,1.8-1.52,2.69-2.35.05-.04.1-.09.14-.13-3.07-2.82-6.09-6.07-9-9.63h0Z"/>
        <path class="st3" d="M307.98,106.76c-.17.35-.37.7-.54,1.05,1.88,4.54,3.37,8.99,4.42,13.28,1.23-.38,2.42-.79,3.57-1.21-1.34-5.34-3.31-10.93-5.85-16.59-.52,1.16-1.03,2.31-1.6,3.47Z"/>
        <path class="st3" d="M252.72,57.53c4.75-2.87,12.37-1.05,20.89,5,1.29.92,2.58,1.93,3.87,3,.15-.14.3-.29.45-.43.79-.72,1.58-1.41,2.38-2.09-1.5-1.27-3.01-2.48-4.52-3.55-9.94-7.06-18.82-8.89-25.01-5.15-7.12,4.3-9.12,15.08-6.44,28.66,1.18-.43,2.39-.84,3.65-1.22-2.24-11.66-.84-20.86,4.73-24.22h0Z"/>
        <path class="st3" d="M289.34,77.64c1.75.12,3.47.28,5.16.47-3.62-4.7-7.43-8.95-11.33-12.57-.9.75-1.8,1.53-2.69,2.35-.05.04-.09.09-.14.13,3.07,2.82,6.09,6.07,9,9.63h0Z"/>
        <path class="st3" d="M252.68,99.83c.17-.35.37-.71.55-1.06-1.89-4.58-3.37-9.05-4.41-13.27-1.25.39-2.46.8-3.63,1.23,1.32,5.26,3.29,10.86,5.88,16.6.52-1.17,1.04-2.33,1.61-3.51h0Z"/>
        <path class="st3" d="M297.61,82.33c-1.66-.25-3.36-.46-5.09-.63,2.38,3.18,4.67,6.56,6.82,10.12,2.29,3.8,4.31,7.64,6.1,11.46.46-.98.93-1.97,1.36-2.95.23-.53.42-1.05.64-1.58-1.49-2.97-3.1-5.94-4.88-8.88-1.58-2.62-3.24-5.12-4.95-7.55h0Z"/>
        <path class="st6" d="M311.85,121.08c.31,1.26.59,2.52.82,3.74,1.24-.38,2.44-.79,3.61-1.21-.24-1.23-.54-2.49-.86-3.75-1.15.42-2.34.83-3.57,1.21h0Z"/>
        <path class="st3" d="M248.81,85.5c-.32-1.27-.59-2.52-.82-3.75-1.26.38-2.47.79-3.65,1.22.24,1.23.52,2.48.84,3.75,1.17-.43,2.38-.84,3.63-1.23h0Z"/>
        <path class="st6" d="M263.05,124.25c1.02,1.45,2.06,2.86,3.11,4.23,1.69.19,3.41.34,5.16.47-1.08-1.31-2.14-2.67-3.18-4.06-1.73-.18-3.43-.39-5.09-.63h0Z"/>
        <path class="st6" d="M297.61,82.33c-1.02-1.45-2.06-2.86-3.11-4.23-1.69-.19-3.41-.34-5.16-.47,1.08,1.31,2.14,2.67,3.18,4.06,1.73.18,3.43.39,5.09.63h0Z"/>
        <path class="st3" d="M305.44,103.29c.71,1.51,1.37,3.02,2,4.52.18-.35.37-.7.54-1.05.57-1.16,1.08-2.32,1.6-3.47-.68-1.51-1.39-3.01-2.14-4.52-.22.53-.41,1.05-.64,1.58-.42.97-.9,1.96-1.36,2.95h0Z"/>
        <path class="st6" d="M255.21,103.31c-.71-1.52-1.37-3.03-1.99-4.53-.18.35-.37.71-.55,1.06-.57,1.18-1.09,2.34-1.61,3.51.67,1.49,1.39,3,2.15,4.51.22-.53.41-1.06.65-1.6.42-.97.89-1.96,1.35-2.94h0Z"/>
        <path class="st1" d="M277.48,65.53c.95.79,1.9,1.61,2.85,2.48.05-.04.1-.09.14-.13.9-.82,1.8-1.6,2.69-2.35-.95-.88-1.9-1.7-2.85-2.51-.79.67-1.59,1.36-2.38,2.09-.15.14-.3.29-.45.43h0Z"/>
        <path class="st3" d="M283.17,141.05c-.95-.79-1.9-1.61-2.85-2.48-.05.04-.1.09-.14.13-.9.82-1.8,1.6-2.69,2.35.95.88,1.9,1.7,2.86,2.51.79-.67,1.59-1.36,2.38-2.08.15-.14.3-.29.45-.43h0Z"/>
      </g>
      <ellipse class="st1" cx="327.65" cy="92.1" rx="5.84" ry="6.58" transform="translate(60.15 302.53) rotate(-53.89)"/>
      <circle class="st1" cx="276.57" cy="78.95" r="3.39"/>
    </g>
    <polygon class="st4" points="163.89 300.54 118.63 266.19 73.37 300.54 90.66 244.96 45.4 210.62 101.34 210.62 118.63 155.04 135.92 210.62 191.87 210.62 146.61 244.96 163.89 300.54"/>
  </g>
</svg>