<?xml version="1.0" encoding="UTF-8"?>
<svg id="Layer_1" xmlns="http://www.w3.org/2000/svg" version="1.1" viewBox="0 0 420.14 119.94">
  <!-- Generator: Adobe Illustrator 29.8.2, SVG Export Plug-In . SVG Version: 2.1.1 Build 3)  -->
  <defs>
    <style>
      .st0 {
        fill: none;
      }

      .st1 {
        fill: #ad2127;
      }

      .st2 {
        fill: #112a4d;
      }
    </style>
  </defs>
  <g>
    <path class="st2" d="M189.32,71.31h22.66l3.56,9.72h17.01l-23.27-60.77h-17.28l-23.27,60.77h17.02l3.56-9.72ZM200.66,40.32l6.16,16.84h-12.32l6.16-16.84Z"/>
    <path class="st2" d="M289.68,36.59c-2.84,0-5.4.74-7.68,2.21-2.29,1.48-4.12,3.63-5.51,6.47-1.1-2.95-2.81-5.14-5.12-6.55-2.32-1.42-5.27-2.13-8.85-2.13-2.43,0-4.66.54-6.69,1.61-2.03,1.07-3.73,2.65-5.12,4.73l-.61-5.3h-14.76v43.41h15.63v-23.09c0-2.37.55-4.11,1.65-5.21,1.1-1.1,2.75-1.59,4.95-1.48,1.1.06,2.01.38,2.73.96.72.58,1.27,1.4,1.65,2.47.38,1.07.56,2.45.56,4.12v22.22h15.63v-23.09c0-2.37.55-4.11,1.65-5.21s2.75-1.59,4.95-1.48c1.1.06,2.01.38,2.73.96.72.58,1.27,1.4,1.65,2.47.38,1.07.56,2.45.56,4.12v22.22h15.63v-24.83c0-6.71-1.27-11.66-3.82-14.84-2.55-3.18-6.48-4.78-11.81-4.78Z"/>
    <path class="st2" d="M328.96,34.33c1.07-.87,2.59-1.3,4.56-1.3s3.63.58,4.82,1.74c1.18,1.16,1.92,2.32,2.21,3.47l15.89-4.6c-1.39-3.41-3.14-6.18-5.25-8.29-2.11-2.11-4.63-3.66-7.55-4.64-2.92-.98-6.29-1.48-10.11-1.48-7.18,0-12.75,1.66-16.71,4.99-3.97,3.33-5.95,7.97-5.95,13.93,0,3.01.59,5.73,1.78,8.16,1.19,2.43,2.89,4.49,5.12,6.16,2.23,1.68,4.9,2.92,8.03,3.73l9.12,2.34c1.56.41,2.7,1.06,3.43,1.95.72.9,1.09,1.84,1.09,2.82,0,1.51-.62,2.72-1.87,3.65-1.24.93-2.68,1.36-4.3,1.3-2.03-.12-3.68-.68-4.95-1.69-1.27-1.01-2.17-2.24-2.69-3.69l-15.97,4.43c.29,1.97,1.16,3.83,2.6,5.6,1.45,1.77,3.28,3.34,5.51,4.73,2.23,1.39,4.7,2.47,7.42,3.26,2.72.78,5.5,1.17,8.33,1.17,4.75,0,8.83-.72,12.24-2.17,3.41-1.45,6.03-3.56,7.86-6.34,1.82-2.78,2.73-6.16,2.73-10.16,0-4.34-1.3-8.2-3.91-11.59-2.6-3.39-6.22-5.66-10.85-6.81l-9.2-2.34c-1.62-.4-2.87-1-3.73-1.78-.87-.78-1.3-1.69-1.3-2.73,0-1.68.53-2.95,1.61-3.82Z"/>
    <path class="st2" d="M374.54,78.04c4.66,2.69,10.03,4.04,16.1,4.04,4.69,0,8.94-.81,12.76-2.43,3.82-1.62,7.09-3.89,9.81-6.81,2.72-2.92,4.77-6.29,6.16-10.11l-15.28-4.86c-.87,1.91-1.9,3.57-3.08,4.99-1.19,1.42-2.6,2.52-4.25,3.3-1.65.78-3.6,1.17-5.86,1.17-2.89,0-5.46-.71-7.68-2.13-2.23-1.42-3.98-3.39-5.25-5.9-1.27-2.52-1.91-5.4-1.91-8.64s.62-6.19,1.87-8.68c1.24-2.49,2.96-4.44,5.17-5.86,2.2-1.42,4.72-2.13,7.55-2.13,2.14,0,4.07.38,5.77,1.13,1.71.75,3.2,1.84,4.47,3.26,1.27,1.42,2.31,3.08,3.12,4.99l15.28-4.86c-1.45-3.82-3.53-7.18-6.25-10.07-2.72-2.89-5.96-5.15-9.72-6.77-3.76-1.62-7.99-2.43-12.67-2.43-6.08,0-11.45,1.35-16.1,4.04-4.66,2.69-8.32,6.4-10.98,11.11-2.66,4.72-3.99,10.14-3.99,16.28s1.33,11.56,3.99,16.28c2.66,4.72,6.32,8.42,10.98,11.11Z"/>
    <path class="st1" d="M174.56,90.74h-2.63l-3.83,10.01h2.8l.59-1.6h3.73l.59,1.6h2.8l-3.83-10.01h-.21ZM172.34,96.82l1.01-2.77,1.01,2.77h-2.03Z"/>
    <polygon class="st1" points="187.63 94.31 185.22 90.74 182.28 90.74 182.28 100.75 184.93 100.75 184.93 94.83 187.65 98.75 190.33 94.83 190.33 100.75 192.98 100.75 192.98 90.74 190.05 90.74 187.63 94.31"/>
    <polygon class="st1" points="200.06 96.92 203.35 96.92 203.35 94.56 200.06 94.56 200.06 93.17 204.12 93.17 204.12 90.74 197.41 90.74 197.41 100.75 204.22 100.75 204.22 98.32 200.06 98.32 200.06 96.92"/>
    <path class="st1" d="M216.02,95.92c.33-.52.49-1.11.49-1.78s-.16-1.26-.49-1.77c-.33-.51-.78-.91-1.37-1.2-.58-.29-1.25-.44-2-.44h-4.15v10.01h2.65v-3.17h.93l1.8,3.17h3.03l-2.2-3.64c.55-.29.99-.68,1.31-1.18ZM213.57,94.66c-.11.15-.25.27-.43.36-.18.09-.39.13-.63.13h-1.36v-1.99h1.36c.36,0,.66.09.88.28.22.19.34.42.34.71,0,.19-.05.36-.16.51Z"/>
    <rect class="st1" x="220.7" y="90.74" width="2.65" height="10.01"/>
    <path class="st1" d="M234.11,97.75c-.2.23-.43.41-.7.54-.27.13-.59.19-.97.19-.48,0-.9-.12-1.26-.35-.37-.23-.66-.56-.87-.97-.21-.41-.31-.89-.31-1.42s.1-1.02.31-1.43c.2-.41.49-.73.85-.96.36-.23.78-.35,1.24-.35.35,0,.67.06.95.19.28.12.53.3.74.54.21.23.38.51.51.82l2.52-.8c-.24-.63-.58-1.18-1.03-1.66s-.98-.85-1.6-1.12c-.62-.27-1.32-.4-2.09-.4-1,0-1.89.22-2.65.67-.77.44-1.37,1.05-1.81,1.83-.44.78-.66,1.67-.66,2.68s.22,1.9.66,2.68,1.04,1.39,1.81,1.83c.77.44,1.65.67,2.65.67.77,0,1.47-.13,2.1-.4.63-.27,1.17-.64,1.62-1.12.45-.48.79-1.04,1.01-1.67l-2.52-.8c-.14.31-.31.59-.51.82Z"/>
    <path class="st1" d="M246.63,90.74h-2.63l-3.83,10.01h2.8l.59-1.6h3.73l.59,1.6h2.8l-3.83-10.01h-.21ZM244.4,96.82l1.01-2.77,1.01,2.77h-2.03Z"/>
    <polygon class="st1" points="261.04 96.25 257.13 90.74 254.35 90.74 254.35 100.75 256.99 100.75 256.99 95.04 261.04 100.75 263.68 100.75 263.68 90.74 261.04 90.74 261.04 96.25"/>
    <path class="st1" d="M277.62,92.84c.33,0,.6.1.79.29.2.19.32.38.36.57l2.62-.76c-.23-.56-.52-1.02-.86-1.37-.35-.35-.76-.6-1.24-.77-.48-.16-1.04-.24-1.67-.24-1.18,0-2.1.27-2.75.82-.65.55-.98,1.31-.98,2.29,0,.5.1.94.29,1.34.19.4.48.74.84,1.02.37.28.81.48,1.32.61l1.5.39c.26.07.44.17.56.32.12.15.18.3.18.46,0,.25-.1.45-.31.6-.2.15-.44.22-.71.21-.33-.02-.61-.11-.82-.28s-.36-.37-.44-.61l-2.63.73c.05.32.19.63.43.92s.54.55.91.78c.37.23.77.41,1.22.54.45.13.91.19,1.37.19.78,0,1.45-.12,2.02-.36.56-.24.99-.59,1.29-1.04.3-.46.45-1.02.45-1.67,0-.72-.22-1.35-.64-1.91-.43-.56-1.02-.93-1.79-1.12l-1.52-.39c-.27-.07-.47-.16-.61-.29-.14-.13-.22-.28-.22-.45,0-.28.09-.49.26-.63.18-.14.43-.21.75-.21Z"/>
    <path class="st1" d="M291.74,97.75c-.2.23-.43.41-.7.54-.27.13-.59.19-.97.19-.48,0-.9-.12-1.26-.35-.37-.23-.66-.56-.87-.97s-.31-.89-.31-1.42.1-1.02.31-1.43c.2-.41.49-.73.85-.96.36-.23.78-.35,1.24-.35.35,0,.67.06.95.19.28.12.53.3.74.54.21.23.38.51.51.82l2.52-.8c-.24-.63-.58-1.18-1.03-1.66s-.98-.85-1.6-1.12c-.62-.27-1.32-.4-2.09-.4-1,0-1.88.22-2.65.67-.77.44-1.37,1.05-1.81,1.83-.44.78-.66,1.67-.66,2.68s.22,1.9.66,2.68,1.04,1.39,1.81,1.83c.77.44,1.65.67,2.65.67.77,0,1.47-.13,2.1-.4.63-.27,1.17-.64,1.62-1.12.45-.48.79-1.04,1.01-1.67l-2.52-.8c-.14.31-.31.59-.51.82Z"/>
    <rect class="st1" x="298.55" y="90.74" width="2.65" height="10.01"/>
    <polygon class="st1" points="308.28 96.92 311.57 96.92 311.57 94.56 308.28 94.56 308.28 93.17 312.34 93.17 312.34 90.74 305.63 90.74 305.63 100.75 312.44 100.75 312.44 98.32 308.28 98.32 308.28 96.92"/>
    <polygon class="st1" points="323.42 96.25 319.52 90.74 316.73 90.74 316.73 100.75 319.37 100.75 319.37 95.04 323.42 100.75 326.06 100.75 326.06 90.74 323.42 90.74 323.42 96.25"/>
    <path class="st1" d="M336.82,97.75c-.2.23-.43.41-.7.54-.27.13-.59.19-.96.19-.48,0-.9-.12-1.27-.35-.37-.23-.66-.56-.86-.97-.21-.41-.31-.89-.31-1.42s.1-1.02.31-1.43c.2-.41.49-.73.85-.96s.78-.35,1.24-.35c.35,0,.67.06.95.19.28.12.53.3.74.54.21.23.38.51.51.82l2.52-.8c-.24-.63-.58-1.18-1.03-1.66-.45-.48-.98-.85-1.6-1.12-.62-.27-1.32-.4-2.09-.4-1,0-1.88.22-2.65.67-.77.44-1.37,1.05-1.81,1.83-.44.78-.66,1.67-.66,2.68s.22,1.9.66,2.68,1.04,1.39,1.81,1.83,1.65.67,2.65.67c.77,0,1.47-.13,2.1-.4.63-.27,1.17-.64,1.62-1.12s.79-1.04,1.02-1.67l-2.52-.8c-.14.31-.31.59-.51.82Z"/>
    <polygon class="st1" points="346.28 96.92 349.57 96.92 349.57 94.56 346.28 94.56 346.28 93.17 350.34 93.17 350.34 90.74 343.63 90.74 343.63 100.75 350.44 100.75 350.44 98.32 346.28 98.32 346.28 96.92"/>
    <path class="st1" d="M367.06,97.75c-.2.23-.43.41-.7.54-.27.13-.59.19-.96.19-.48,0-.9-.12-1.27-.35-.37-.23-.66-.56-.86-.97-.21-.41-.31-.89-.31-1.42s.1-1.02.31-1.43c.2-.41.49-.73.85-.96s.78-.35,1.24-.35c.35,0,.67.06.95.19.28.12.53.3.74.54.21.23.38.51.51.82l2.52-.8c-.24-.63-.58-1.18-1.03-1.66-.45-.48-.98-.85-1.6-1.12-.62-.27-1.32-.4-2.09-.4-1,0-1.88.22-2.65.67-.77.44-1.37,1.05-1.81,1.83-.44.78-.66,1.67-.66,2.68s.22,1.9.66,2.68,1.04,1.39,1.81,1.83,1.65.67,2.65.67c.77,0,1.47-.13,2.1-.4.63-.27,1.17-.64,1.62-1.12s.79-1.04,1.02-1.67l-2.52-.8c-.14.31-.31.59-.51.82Z"/>
    <polygon class="st1" points="376.52 90.74 373.87 90.74 373.87 100.75 380.64 100.75 380.64 98.32 376.52 98.32 376.52 90.74"/>
    <path class="st1" d="M391.96,91.25c-.8-.44-1.72-.66-2.77-.66s-1.96.22-2.76.66c-.8.44-1.43,1.05-1.89,1.83-.46.78-.69,1.67-.69,2.68s.23,1.89.69,2.67c.46.78,1.09,1.39,1.89,1.83.81.44,1.73.67,2.78.67s1.96-.22,2.76-.67,1.43-1.05,1.88-1.83c.45-.78.68-1.67.68-2.67s-.23-1.9-.69-2.68-1.09-1.39-1.89-1.83ZM391.49,97.17c-.22.41-.52.73-.91.96-.39.23-.84.35-1.36.35s-.97-.12-1.37-.35c-.4-.23-.71-.56-.94-.96-.23-.41-.34-.88-.34-1.42s.11-1.01.34-1.42c.22-.41.53-.74.93-.97.4-.23.85-.35,1.35-.35s.97.12,1.37.35c.4.23.71.56.93.97.22.41.34.89.34,1.42s-.11,1.01-.33,1.42Z"/>
    <path class="st1" d="M404.26,96.87c0,.33-.07.62-.19.86s-.32.42-.56.54c-.25.12-.54.19-.89.19s-.64-.06-.88-.19c-.24-.12-.43-.3-.56-.54-.13-.24-.2-.52-.2-.86v-6.13h-2.65v6.13c0,.84.17,1.56.51,2.17.34.61.83,1.07,1.47,1.39.64.32,1.4.49,2.29.49s1.68-.16,2.32-.49c.64-.32,1.14-.79,1.48-1.39.34-.61.51-1.33.51-2.17v-6.13h-2.64v6.13Z"/>
    <path class="st1" d="M419.43,93.15c-.48-.75-1.14-1.34-1.98-1.77-.84-.43-1.81-.64-2.91-.64h-3.35v10.01h3.35c1.1,0,2.07-.21,2.91-.64.84-.43,1.5-1.02,1.98-1.77s.71-1.62.71-2.59-.24-1.85-.71-2.6ZM417.21,96.76c-.14.3-.34.57-.6.79-.26.22-.56.39-.91.51-.35.12-.74.19-1.16.19h-.7v-5h.7c.42,0,.81.06,1.16.19.35.12.66.3.91.51.26.22.46.48.6.79.14.31.21.64.21,1.02s-.07.71-.21,1.02Z"/>
  </g>
  <g>
    <path class="st0" d="M108.28,60.01c-.17.16-.34.32-.51.48-.66.62-1.34,1.24-2.04,1.86-.61.54-1.23,1.07-1.86,1.6-.43.36-.86.71-1.29,1.07-.18.15-.36.3-.54.44-.07.06-.15.12-.22.18,0-.16,0-.33.02-.49,0-.05,0-.09,0-.14,0-.11,0-.21,0-.32.05-1.34.07-2.69.08-4.04,0-.23,0-.45,0-.67,0-.79-.01-1.57-.03-2.35-.02-1.11-.05-2.22-.09-3.32,1.05.84,2.07,1.69,3.07,2.55.09.08.19.16.29.24,1.05.91,2.06,1.84,3.04,2.76.04.04.08.08.12.12-.01.01-.03.03-.04.04ZM100.88,33.06c1.07-.23,2.12-.44,3.15-.6,1.19-.19,2.33-.32,3.42-.41,1.31-.11,2.56-.14,3.72-.11,2.54.08,4.69.49,6.35,1.21,1.38.6,2.41,1.41,3.07,2.43.05.08.11.16.16.24.4.71.62,1.54.69,2.47.01.17.02.34.03.52,0,1.45-.35,3.12-1.07,4.95-.27.7-.6,1.42-.98,2.17-.46.92-1,1.87-1.62,2.84-.74,1.17-1.59,2.37-2.54,3.6-.01.02-.02.03-.04.05-.59.76-1.22,1.52-1.87,2.28-.45.52-.9,1.04-1.38,1.55-.11-.1-.22-.21-.33-.31-.44-.42-.88-.83-1.33-1.24-.66-.6-1.33-1.21-2.02-1.8-.08-.07-.16-.14-.24-.2-.07-.06-.14-.12-.2-.17-.45-.39-.91-.77-1.37-1.15-.02-.02-.04-.04-.06-.05-.83-.69-1.69-1.37-2.56-2.05-.21-.16-.42-.32-.63-.48-.42-.32-.84-.64-1.26-.95-.2-.15-.41-.31-.61-.46-.27-2.93-.65-5.77-1.11-8.52-.13-.8-.27-1.58-.42-2.36-.2-1.03-.4-2.04-.63-3.04.57-.14,1.13-.27,1.69-.39ZM58.37,60.3c0,.96.02,1.92.04,2.87.02.82.04,1.65.08,2.47-.35-.28-.68-.55-1.02-.83-.57-.47-1.13-.94-1.68-1.4-.06-.05-.12-.1-.18-.15-.29-.25-.58-.5-.87-.75-.26-.23-.52-.46-.78-.7-.31-.28-.61-.56-.91-.83-.11-.11-.23-.21-.34-.32-.03-.03-.05-.05-.08-.08-.22-.2-.44-.41-.65-.61.13-.13.27-.25.41-.38.46-.43.92-.86,1.4-1.3.06-.05.12-.11.18-.16.56-.5,1.13-1,1.71-1.5.48-.41.97-.83,1.47-1.24.24-.2.49-.4.73-.6.09-.07.18-.15.27-.22.12-.09.22-.19.34-.28-.01.3-.02.61-.03.91,0,.22-.01.45-.02.67-.03,1.07-.05,2.14-.06,3.22,0,.02,0,.03,0,.04,0,.2,0,.4,0,.6,0,.07,0,.14,0,.21,0,.11,0,.22,0,.33ZM60.71,35.33c-.06.31-.12.63-.19.94-.01.07-.03.15-.04.22-.15.79-.29,1.59-.43,2.39-.17,1.04-.34,2.1-.49,3.17-.1.69-.18,1.39-.27,2.1-.08.64-.15,1.28-.22,1.93-.03.29-.06.58-.09.86-.01.14-.03.27-.04.41-.33.24-.66.49-.99.74-.23.17-.46.35-.69.52-.07.05-.13.1-.2.15-.83.64-1.65,1.28-2.46,1.93-.02.02-.04.04-.07.05-.57.46-1.13.93-1.68,1.39-.03.02-.06.05-.08.07-.62.53-1.24,1.06-1.84,1.6-.64.57-1.26,1.14-1.87,1.71-.25.24-.51.48-.76.72-1.24-1.36-2.37-2.69-3.37-3.99-.11-.14-.21-.28-.32-.42-.68-.9-1.31-1.79-1.87-2.65-.83-1.26-1.53-2.49-2.1-3.66-.46-.94-.83-1.84-1.12-2.7-.96-2.85-.98-5.26,0-7,.19-.33.41-.64.68-.93,1.01-1.13,2.58-1.94,4.61-2.43,1.49-.36,3.24-.54,5.2-.53.66,0,1.35.03,2.05.07.59.04,1.19.09,1.8.15.5.05,1.01.12,1.54.19.5.07,1.01.15,1.53.24.88.15,1.78.33,2.7.53.48.11.97.22,1.46.34-.14.62-.27,1.25-.4,1.88ZM87.57,37.26c.83-.34,1.65-.66,2.47-.97.65-.24,1.3-.48,1.94-.7.09-.03.18-.06.27-.1.66-.23,1.33-.45,1.98-.66.16.74.32,1.49.47,2.26.4,2.03.75,4.16,1.04,6.38-.57-.37-1.15-.74-1.73-1.11-.6-.38-1.2-.75-1.81-1.12-.39-.24-.77-.48-1.17-.71-.17-.1-.35-.2-.52-.3-.09-.05-.17-.1-.26-.15-.18-.1-.35-.21-.53-.31-.5-.29-1-.58-1.49-.85-.28-.16-.56-.31-.85-.47-.39-.22-.78-.44-1.17-.65.45-.19.91-.37,1.36-.56ZM65.2,39.21c.14-.79.28-1.57.43-2.33.14-.69.28-1.37.43-2.04,1.01.32,2.04.67,3.08,1.05.17.06.34.12.51.18.22.08.43.16.65.24.25.09.51.19.76.29,1,.38,2,.78,3.03,1.21-.34.18-.68.38-1.02.56-.17.09-.34.18-.5.28-.36.2-.71.39-1.07.6-.24.14-.49.28-.73.42-.11.06-.21.12-.32.19-.06.04-.13.07-.19.11-.33.19-.66.38-.99.57-.52.31-1.04.63-1.56.95-.89.55-1.77,1.1-2.64,1.66-.17.11-.34.21-.51.32.19-1.46.41-2.89.65-4.27ZM66.06,85.1c-.13-.61-.26-1.23-.39-1.86-.23-1.16-.44-2.35-.64-3.57-.15-.93-.3-1.88-.43-2.85-.02-.11-.03-.22-.05-.34,0,0,0-.01,0-.02.01,0,.02.02.04.02.06.04.12.07.17.11.74.48,1.48.95,2.23,1.42.24.15.49.3.73.45.07.04.14.08.21.13.44.27.88.54,1.32.81.67.4,1.35.79,2.03,1.17.24.14.48.28.73.41.69.39,1.38.77,2.07,1.14-.2.09-.4.16-.61.25-.36.15-.71.29-1.07.44-.75.3-1.49.59-2.23.86-1.4.52-2.77,1-4.11,1.42ZM92.76,90.78c-.04.13-.08.26-.12.39-.27.89-.56,1.75-.85,2.59-.29.82-.58,1.61-.89,2.37-.47,1.18-.97,2.28-1.48,3.3-1.14,2.29-2.36,4.18-3.62,5.61-1.85,2.11-3.78,3.24-5.66,3.24s-3.92-1.2-5.82-3.43c-1.2-1.41-2.37-3.23-3.46-5.42-.26-.52-.52-1.07-.77-1.64-.24-.53-.47-1.09-.7-1.66-.31-.76-.6-1.55-.89-2.37-.4-1.12-.78-2.3-1.13-3.54,1.96-.62,3.95-1.32,5.97-2.11.79-.31,1.58-.63,2.38-.96,1.21-.51,2.43-1.04,3.65-1.6.26-.12.52-.24.78-.36.44.21.88.41,1.33.61,1.33.6,2.65,1.17,3.96,1.71.32.13.64.26.96.39.5.2,1.01.39,1.51.58,1.7.64,3.38,1.23,5.03,1.75-.06.19-.11.37-.17.56ZM95.5,78.18c-.01.07-.02.14-.03.22-.35,2.35-.77,4.59-1.24,6.71-1.01-.32-2.03-.67-3.05-1.04-.62-.22-1.25-.46-1.88-.7-.12-.05-.24-.09-.36-.14-.38-.15-.76-.3-1.14-.45-.19-.08-.38-.16-.57-.23-.34-.14-.67-.27-1.01-.41.53-.28,1.05-.58,1.58-.87.55-.3,1.09-.61,1.64-.93.43-.25.85-.49,1.28-.74.07-.04.14-.08.21-.12.04-.02.07-.04.11-.06.56-.33,1.11-.67,1.66-1.01,1.03-.63,2.05-1.27,3.05-1.93-.08.58-.16,1.15-.24,1.71ZM96.78,61.04c0,.18,0,.37,0,.55-.01.99-.03,1.97-.06,2.94,0,.03,0,.06,0,.09-.06,1.72-.15,3.41-.27,5.05-.15.11-.31.21-.46.32-.89.62-1.8,1.24-2.73,1.84-.33.22-.67.44-1,.66-.19.12-.38.24-.58.36-.89.57-1.79,1.13-2.71,1.68-.16.1-.33.2-.49.3-.87.52-1.74,1.02-2.61,1.51-1.93,1.09-3.83,2.1-5.71,3.02-1.36-.67-2.72-1.38-4.08-2.12-1.06-.57-2.11-1.17-3.17-1.79-.36-.21-.72-.41-1.07-.62-.22-.13-.44-.27-.66-.4-.66-.4-1.3-.79-1.94-1.19-.11-.07-.22-.14-.34-.21-.51-.32-1.01-.64-1.51-.97-1.21-.79-2.38-1.58-3.52-2.38-.03-.35-.05-.72-.07-1.07-.06-.89-.11-1.78-.15-2.69-.03-.62-.05-1.24-.07-1.87,0-.31-.02-.63-.03-.94-.02-1.02-.04-2.04-.04-3.09,0,0,0-.02,0-.02,0-.99.01-1.97.04-2.94,0-.1,0-.21,0-.31,0-.38.02-.76.03-1.14.02-.51.04-1.02.06-1.52,0-.09,0-.18.01-.27,0-.06,0-.12,0-.18.01-.24.02-.49.03-.73.01-.24.03-.48.04-.72.04-.62.07-1.25.12-1.86.2-.14.4-.28.6-.42.53-.37,1.06-.73,1.6-1.1,1.42-.95,2.89-1.89,4.41-2.82.45-.27.89-.55,1.35-.82.14-.08.28-.16.43-.25.12-.07.24-.14.36-.21.46-.27.92-.54,1.38-.8.08-.05.16-.09.24-.13.44-.25.87-.49,1.31-.73.06-.03.12-.07.18-.1,1.48-.81,2.95-1.58,4.42-2.31,1.87.92,3.76,1.93,5.68,3.01.31.17.62.35.92.52.18.1.36.21.54.31.3.18.61.35.91.53.09.05.17.1.26.15.41.24.8.49,1.2.73,1.56.95,3.08,1.92,4.56,2.91.74.5,1.48,1,2.2,1.51.05.71.1,1.42.14,2.14.08,1.39.13,2.82.17,4.26.03,1.08.04,2.18.04,3.29,0,.36,0,.71,0,1.07Z"/>
    <path class="st0" d="M89.11,58.01c-.08-.39-.19-.78-.32-1.15-.47-1.38-1.24-2.62-2.23-3.62-.68-.69-1.47-1.26-2.34-1.71-.11-.06-.22-.11-.33-.16-1.14-.53-2.41-.83-3.75-.83-1.69,0-3.27.48-4.63,1.3-.4.24-.79.51-1.15.82-.72.61-1.35,1.33-1.87,2.13-.03.05-.06.11-.1.17-.16.26-.31.54-.45.82-.11.22-.21.44-.3.67-.32.82-.54,1.69-.62,2.61-.03.3-.05.61-.05.92,0,.52.05,1.02.13,1.52.09.6.24,1.18.44,1.73.28.8.67,1.54,1.14,2.22.75,1.09,1.72,2,2.84,2.67.53.32,1.09.58,1.67.79.92.32,1.91.51,2.94.51.87,0,1.72-.13,2.52-.37.04-.01.09-.02.13-.03,2.1-.65,3.87-2.06,5.04-3.91.5-.8.88-1.67,1.14-2.61.22-.8.34-1.64.34-2.52,0-.61-.06-1.21-.17-1.79-.01-.06-.02-.11-.03-.17Z"/>
    <path class="st0" d="M147.6,76.77h-15.05c.11.56.19,1.09.26,1.62.45,3.54-.02,6.46-.82,8.77-.1.28-.2.55-.3.81h14.44c3.17-3,5.51-6.85,6.64-11.2h-5.17Z"/>
    <polygon class="st0" points="19.17 59.41 19.1 59.2 18.87 59.92 16.54 67.3 16.14 67.31 14.47 67.32 10.4 67.36 8.04 67.38 10.22 68.94 14.4 71.91 14.96 72.32 14.56 73.58 12.4 80.42 15.53 78.11 16.61 77.31 19.24 75.37 26.16 80.3 23.46 72.24 30.3 67.18 21.79 67.26 19.17 59.41"/>
    <path class="st0" d="M146.47,54.02h-18.35c-.14.23-.27.45-.41.68-1.06,1.72-2.16,3.28-3.18,4.6.84.27,1.64.64,2.41,1.09.47.28.9.59,1.32.92.3.24.58.48.85.74.04.03.07.07.11.1.92.9,1.69,1.94,2.28,3.06h21.35c-.81-3.31-2.32-6.34-4.36-8.94-.63-.8-1.3-1.55-2.02-2.26Z"/>
    <path class="st2" d="M158.07,65.22c-.48-2.4-1.25-4.69-2.28-6.83-.4-.84-.85-1.65-1.32-2.44-.4-.66-.84-1.3-1.29-1.93-.09-.12-.17-.24-.25-.36-.55-.74-1.14-1.45-1.75-2.13-.93-1.02-1.93-1.97-2.99-2.85-.71-.58-1.45-1.14-2.21-1.65-1.15-.77-2.35-1.47-3.6-2.07-1.53-.74-3.14-1.34-4.81-1.8-.02-.07-.04-.13-.07-.2.02-.39.03-.78.03-1.17,0-13.91-11.28-25.18-25.18-25.18-2.73,0-5.35.44-7.81,1.24-.2-.2-.41-.39-.61-.58-1.78-2-3.8-3.78-6.03-5.27-3.77-6.18-9.51-12.01-17.74-12.01-3.43,0-8.32,1.1-13.14,5.96-5.53,1.02-9.76,5.82-10.02,11.65-.56.65-1.1,1.33-1.61,2.03-1.55-.3-3.16-.46-4.8-.46-4.49,0-8.7,1.18-12.35,3.24-4.76,2.07-7.35,5.22-8.71,7.65-.41.73-.75,1.47-1.04,2.21-1.76,3.21-2.84,6.83-3.05,10.7-9.7,1.05-17.93,6.99-22.17,15.31-2.08,3.83-3.27,8.23-3.27,12.9s1.28,9.39,3.52,13.33c4.77,8.92,14.18,14.99,25.01,14.99.51,0,1.03-.02,1.53-.04h6.88c.92.04,1.8.04,2.7,0h2.23c1.5,1.52,3.38,2.62,5.49,3.18,3.18.85,6.49.39,9.32-1.3.65-.39,1.26-.84,1.83-1.34,3.07,7.81,9.76,19.94,21.64,19.94s18.89-12.73,21.85-20.5h25.84c.7.05,1.39.09,2.09.09s1.45-.04,2.16-.09h.11c3.62-.29,7.05-1.24,10.17-2.74,1.25-.6,2.46-1.3,3.6-2.07.76-.52,1.5-1.07,2.21-1.65,1.06-.88,2.06-1.83,2.99-2.85.62-.68,1.2-1.39,1.75-2.13,0-.01.02-.02.02-.03.54-.73,1.05-1.48,1.52-2.26.48-.79.92-1.6,1.32-2.44.99-2.04,1.73-4.22,2.21-6.5.4-1.92.62-3.9.62-5.94,0-1.92-.19-3.8-.55-5.61ZM23.46,72.24l2.7,8.06-6.92-4.94-2.63,1.95-1.08.8-3.13,2.31,2.16-6.84.4-1.27-.56-.4-4.18-2.98-2.18-1.56,2.36-.02,4.07-.04h1.67s.4-.02.4-.02l2.33-7.39.23-.72.07.22,2.62,7.84,8.5-.07-6.83,5.06ZM126.03,76.88c.13.51.24,1.02.33,1.51.55,3.16.18,5.99-1.16,8.38-.07.13-.16.26-.24.39-.17.28-.36.55-.56.81-.86,1.13-1.94,2.09-3.24,2.87-.62.37-1.28.7-1.99.98-2.02.82-4.4,1.3-7.12,1.44-.57.03-1.14.05-1.74.05-1.51,0-3.11-.1-4.79-.3-.74-.09-1.49-.18-2.27-.31-1.74-.28-3.53-.65-5.37-1.1-.21.73-.43,1.44-.65,2.14-.08.26-.17.53-.25.78-.18.54-.36,1.06-.55,1.58-.1.28-.2.56-.3.83-.32.86-.66,1.68-1,2.47-.49,1.13-1,2.2-1.53,3.21-3.74,7.1-8.4,10.93-13.45,10.93s-9.97-4.05-13.75-11.52c-.42-.83-.83-1.71-1.23-2.62-.16-.38-.32-.76-.48-1.15-.18-.43-.35-.87-.52-1.32-.1-.27-.2-.55-.3-.83-.28-.77-.55-1.56-.8-2.37-.22-.7-.44-1.42-.65-2.14-1.65.41-3.26.74-4.83,1.01-.88,3.22-3.82,5.59-7.32,5.59s-6.56-2.47-7.37-5.8c-1-.29-1.94-.64-2.79-1.06-2.21-1.09-3.9-2.63-5.01-4.6-2.54-4.54-1.62-10.67,2.55-17.61.47-.78.97-1.56,1.52-2.36.59-.85,1.22-1.72,1.9-2.59.16-.21.33-.42.5-.63.19-.24.38-.48.58-.72.79-.95,1.62-1.91,2.49-2.86.01-.01.02-.02.03-.04-.01-.01-.02-.02-.03-.04-1.05-1.14-2.03-2.28-2.95-3.42-.21-.26-.42-.52-.62-.78-2.86-3.67-4.9-7.17-6.1-10.42-.2-.54-.38-1.08-.53-1.6-.03-.1-.06-.21-.09-.31-.15-.53-.27-1.05-.37-1.57-.2-1.07-.3-2.1-.29-3.09.02-2.04.48-3.91,1.41-5.56.59-1.05,1.35-1.98,2.26-2.79,2.99-2.63,7.64-3.91,13.63-3.75.19,0,.38.01.57.02,1.73.07,3.56.26,5.49.56.4.06.8.13,1.21.21.21.04.42.08.63.12.88.17,1.77.36,2.68.57.29.07.57.13.86.2.49-1.69,1.02-3.32,1.59-4.87-1.22-1.35-1.98-3.13-1.98-5.09,0-4.19,3.41-7.59,7.59-7.59.51,0,1,.05,1.48.15.24-.26.48-.51.73-.75,1.51-1.46,3.1-2.51,4.75-3.13,1.16-.44,2.36-.66,3.57-.66,1.08,0,2.14.18,3.18.52,1.3.43,2.56,1.12,3.77,2.07,2.26,1.76,4.36,4.4,6.24,7.85.95,1.74,1.83,3.69,2.66,5.83.04.11.09.22.13.34.64,1.69,1.22,3.48,1.76,5.34,1.83-.45,3.63-.83,5.37-1.1,2.27-.36,4.4-.56,6.39-.59.7-.01,1.38,0,2.05.02,4.59.19,8.26,1.33,10.82,3.37.08.07.16.14.24.21,1,.84,1.82,1.82,2.45,2.95.37.67.67,1.37.89,2.1.26.86.42,1.76.49,2.7.08,1.15,0,2.35-.22,3.61-.05.27-.1.53-.16.81-.25,1.14-.62,2.33-1.11,3.55-.26.66-.56,1.33-.89,2.01-.13.28-.27.55-.42.83-.89,1.7-1.97,3.45-3.27,5.25-.16.22-.33.45-.5.68-.26.34-.52.69-.79,1.04-1.1,1.41-2.31,2.83-3.6,4.24.67.73,1.31,1.46,1.93,2.19.46.54.9,1.08,1.33,1.63.73-.24,1.51-.37,2.32-.37,4.19,0,7.59,3.41,7.59,7.59,0,2.36-1.08,4.47-2.77,5.86ZM146.13,87.97h-14.44c.11-.26.21-.53.3-.81.8-2.3,1.26-5.22.82-8.77-.07-.53-.15-1.07-.26-1.62h20.22c-1.13,4.35-3.48,8.2-6.64,11.2ZM151.17,65.22h-19.67c-.59-1.12-1.36-2.15-2.28-3.06-.04-.04-.07-.07-.11-.1-.27-.26-.56-.51-.85-.74-.42-.33-.85-.64-1.32-.92-.76-.45-1.57-.82-2.41-1.09,1.01-1.32,2.12-2.88,3.18-4.6.14-.22.27-.45.41-.68h18.35c.72.71,1.4,1.47,2.02,2.26,2.04,2.6,3.55,5.63,4.36,8.94h-1.68Z"/>
    <path class="st2" d="M113.62,71.01c0-1.48.43-2.86,1.17-4.03-.03-.04-.06-.08-.09-.11-.64-.8-1.32-1.6-2.04-2.41-.23-.26-.46-.51-.69-.77-.52.49-1.05.99-1.58,1.48,0,0,0,0-.01.01-.56.51-1.13,1.02-1.71,1.53-.39.34-.78.67-1.17,1.01-.35.3-.7.59-1.06.88-.15.13-.31.26-.46.38-1.49,1.22-3.03,2.41-4.63,3.59,0,.05-.01.11-.02.16,0,.05,0,.09-.01.14-.11,1.11-.23,2.22-.36,3.31-.09.74-.19,1.47-.29,2.2,0,.06-.02.12-.03.18-.4,2.74-.88,5.39-1.44,7.93,1.02.25,2.02.47,3.01.66.62.12,1.23.23,1.84.33.96.15,1.89.27,2.79.35.61.06,1.21.11,1.79.14,1.82.09,3.48.04,4.97-.16.34-.04.66-.1.97-.15.72-.13,1.4-.3,2.02-.51,1.98-.65,3.42-1.67,4.18-3.03.8-1.42.91-3.31.4-5.52-4.16-.04-7.53-3.43-7.53-7.59Z"/>
    <path class="st2" d="M91.04,79.4s-.07.04-.11.06c-.07.04-.14.08-.21.12-.43.25-.85.5-1.28.74-.55.31-1.09.62-1.64.93-.53.29-1.05.59-1.58.87.34.14.67.28,1.01.41.19.08.38.16.57.23.38.15.76.3,1.14.45.12.05.24.09.36.14.63.24,1.26.47,1.88.7,1.03.37,2.04.72,3.05,1.04.47-2.12.88-4.36,1.24-6.71.01-.07.02-.14.03-.22.08-.57.17-1.13.24-1.71-1,.65-2.02,1.29-3.05,1.93-.55.34-1.1.68-1.66,1.01Z"/>
    <path class="st2" d="M86.39,87.89c-.32-.13-.64-.26-.96-.39-1.31-.54-2.63-1.1-3.96-1.71-.44-.2-.88-.4-1.33-.61-.26.12-.52.24-.78.36-1.22.56-2.44,1.1-3.65,1.6-.8.33-1.59.65-2.38.96-2.02.79-4.01,1.49-5.97,2.11.36,1.24.74,2.41,1.13,3.54.29.82.58,1.61.89,2.37.23.57.46,1.13.7,1.66.25.57.51,1.11.77,1.64,1.09,2.19,2.26,4.01,3.46,5.42,1.9,2.23,3.88,3.43,5.82,3.43s3.81-1.13,5.66-3.24c1.26-1.43,2.48-3.32,3.62-5.61.51-1.02,1-2.12,1.48-3.3.31-.76.6-1.55.89-2.37.29-.83.58-1.69.85-2.59.04-.13.08-.26.12-.39.06-.19.11-.37.17-.56-1.65-.52-3.33-1.11-5.03-1.75-.5-.19-1-.38-1.51-.58Z"/>
    <path class="st2" d="M72.4,82.81c.35-.14.71-.29,1.07-.44.2-.08.4-.16.61-.25-.69-.37-1.38-.75-2.07-1.14-.24-.14-.48-.27-.73-.41-.68-.38-1.35-.77-2.03-1.17-.44-.26-.88-.54-1.32-.81-.07-.04-.14-.08-.21-.13-.24-.15-.49-.3-.73-.45-.75-.47-1.5-.94-2.23-1.42-.06-.04-.12-.07-.17-.11-.01,0-.02-.02-.04-.02,0,0,0,.01,0,.02.02.11.03.22.05.34.13.97.27,1.91.43,2.85.2,1.22.41,2.42.64,3.57.13.63.25,1.25.39,1.86,1.34-.43,2.71-.9,4.11-1.42.73-.27,1.48-.56,2.23-.86Z"/>
    <path class="st2" d="M50.26,83.03c3.01,0,5.61,1.76,6.83,4.31,1.29-.22,2.62-.5,4.01-.84-.43-1.93-.81-3.93-1.14-5.98-.15-.91-.29-1.83-.42-2.77-.12-.88-.23-1.78-.33-2.68-.09-.83-.18-1.66-.26-2.5-.16-.12-.31-.23-.47-.35-.54-.4-1.08-.81-1.61-1.22-.77-.59-1.53-1.19-2.27-1.79-.17-.14-.35-.29-.52-.43-.04-.03-.07-.06-.11-.09,0,0,0,0,0,0-1.03-.85-2.03-1.7-3-2.56-.11-.1-.23-.2-.34-.31-.56-.5-1.1-1-1.63-1.5-.14-.14-.29-.27-.43-.41-.08-.07-.15-.14-.23-.22-.07.08-.14.15-.2.23-1.29,1.42-2.45,2.82-3.48,4.18-.15.2-.31.41-.45.61-2.97,4.05-4.75,7.75-5.23,10.76-.29,1.83-.11,3.4.59,4.64.62,1.11,1.67,1.98,3.09,2.63.29.13.59.25.91.36,1.27-2.42,3.81-4.07,6.72-4.07Z"/>
    <path class="st2" d="M96.57,52.42c-.04-.72-.09-1.43-.14-2.14-.72-.51-1.46-1.01-2.2-1.51-1.48-.99-3-1.97-4.56-2.91-.4-.24-.8-.49-1.2-.73-.09-.05-.17-.1-.26-.15-.3-.18-.61-.35-.91-.53-.18-.1-.36-.21-.54-.31-.31-.18-.62-.35-.92-.52-1.92-1.08-3.82-2.09-5.68-3.01-1.47.73-2.95,1.5-4.42,2.31-.06.03-.12.07-.18.1-.44.24-.87.48-1.31.73-.08.05-.16.09-.24.13-.46.26-.92.53-1.38.8-.12.07-.24.14-.36.21-.14.08-.28.16-.43.25-.46.27-.9.55-1.35.82-1.52.93-2.99,1.87-4.41,2.82-.54.36-1.07.73-1.6,1.1-.2.14-.41.28-.6.42-.05.61-.08,1.24-.12,1.86-.01.24-.03.48-.04.72-.01.24-.02.49-.03.73,0,.06,0,.12,0,.18,0,.09,0,.18-.01.27-.02.5-.04,1.01-.06,1.52-.01.38-.02.76-.03,1.14,0,.1,0,.21,0,.31-.02.97-.04,1.95-.04,2.94,0,0,0,.02,0,.02,0,1.04.02,2.07.04,3.09,0,.32.02.63.03.94.02.63.04,1.25.07,1.87.04.91.09,1.8.15,2.69.02.36.04.72.07,1.07,1.14.8,2.31,1.59,3.52,2.38.5.32,1,.65,1.51.97.11.07.22.14.34.21.64.4,1.29.8,1.94,1.19.22.13.44.27.66.4.36.21.72.42,1.07.62,1.06.61,2.11,1.21,3.17,1.79,1.36.74,2.72,1.45,4.08,2.12,1.88-.93,3.78-1.94,5.71-3.02.87-.49,1.74-.99,2.61-1.51.17-.1.33-.2.49-.3.92-.55,1.82-1.11,2.71-1.68.19-.12.39-.24.58-.36.34-.22.67-.44,1-.66.92-.61,1.83-1.22,2.73-1.84.15-.11.31-.21.46-.32.12-1.65.21-3.33.27-5.05,0-.03,0-.06,0-.09.03-.97.05-1.95.06-2.94,0-.18,0-.37,0-.55,0-.36,0-.71,0-1.07,0-1.11-.02-2.2-.04-3.29-.04-1.44-.09-2.87-.17-4.26ZM88.97,62.49c-.25.94-.63,1.81-1.14,2.61-1.17,1.85-2.94,3.26-5.04,3.91-.04.01-.09.02-.13.03-.8.24-1.64.37-2.52.37-1.03,0-2.02-.18-2.94-.51-.59-.21-1.15-.47-1.67-.79-1.12-.68-2.09-1.59-2.84-2.67-.47-.68-.85-1.43-1.14-2.22-.2-.55-.35-1.13-.44-1.73-.08-.5-.13-1-.13-1.52,0-.31.02-.62.05-.92.09-.91.3-1.79.62-2.61.09-.23.19-.45.3-.67.14-.28.28-.55.45-.82.03-.05.06-.11.1-.17.52-.81,1.14-1.53,1.87-2.13.36-.3.75-.57,1.15-.82,1.36-.82,2.94-1.3,4.63-1.3,1.34,0,2.6.3,3.75.83.11.05.22.11.33.16.86.44,1.65,1.02,2.34,1.71.99,1,1.76,2.24,2.23,3.62.13.37.24.76.32,1.15.01.06.02.11.03.17.11.58.17,1.18.17,1.79,0,.87-.12,1.71-.34,2.52Z"/>
    <path class="st2" d="M105.16,57.09c-.09-.08-.19-.16-.29-.24-.99-.86-2.01-1.7-3.07-2.55.04,1.1.07,2.21.09,3.32.01.78.03,1.56.03,2.35,0,.23,0,.45,0,.67,0,1.36-.04,2.7-.08,4.04,0,.11,0,.21,0,.32,0,.05,0,.09,0,.14,0,.16,0,.33-.02.49.07-.06.15-.12.22-.18.18-.15.36-.3.54-.44.44-.35.87-.71,1.29-1.07.63-.53,1.25-1.07,1.86-1.6.7-.62,1.38-1.23,2.04-1.86.17-.16.35-.32.51-.48.01-.01.03-.03.04-.04-.04-.04-.08-.08-.12-.12-.97-.93-1.99-1.85-3.04-2.76Z"/>
    <path class="st2" d="M100.24,38.84c.46,2.75.83,5.59,1.11,8.52.21.15.41.31.61.46.42.32.84.63,1.26.95.21.16.42.32.63.48.87.68,1.72,1.36,2.56,2.05.02.02.04.04.06.05.46.38.92.77,1.37,1.15.07.06.14.12.2.17.08.07.16.14.24.2.69.6,1.36,1.2,2.02,1.8.45.41.9.83,1.33,1.24.11.1.22.21.33.31.47-.52.93-1.04,1.38-1.55.65-.76,1.28-1.52,1.87-2.28.01-.02.02-.03.04-.05.95-1.23,1.8-2.43,2.54-3.6.62-.97,1.16-1.92,1.62-2.84.37-.74.7-1.47.98-2.17.71-1.83,1.08-3.5,1.07-4.95,0-.18-.01-.35-.03-.52-.07-.92-.29-1.76-.69-2.47-.05-.08-.11-.16-.16-.24-.65-1.02-1.69-1.83-3.07-2.43-1.66-.72-3.81-1.14-6.35-1.21-1.16-.03-2.4,0-3.72.11-1.09.09-2.23.22-3.42.41-1.03.16-2.08.37-3.15.6-.56.12-1.12.25-1.69.39.22.99.43,2.01.63,3.04.15.78.29,1.57.42,2.36Z"/>
    <path class="st2" d="M88.23,38.93c.5.28,1,.57,1.49.85.18.1.35.2.53.31.09.05.17.1.26.15.17.1.35.2.52.3.39.23.78.47,1.17.71.61.37,1.21.74,1.81,1.12.58.37,1.16.73,1.73,1.11-.29-2.22-.64-4.35-1.04-6.38-.15-.77-.31-1.52-.47-2.26-.66.21-1.32.43-1.98.66-.09.03-.18.06-.27.1-.64.22-1.29.46-1.94.7-.82.31-1.64.63-2.47.97-.45.18-.9.36-1.36.56.39.21.78.43,1.17.65.28.16.56.31.85.47Z"/>
    <path class="st2" d="M69.62,25.96c-.34,0-.67-.03-1-.07-.08.22-.16.43-.23.65-.25.72-.49,1.47-.73,2.24-.1.31-.19.62-.29.94.21.06.41.13.62.2.75.24,1.5.5,2.26.76.06.02.12.04.18.06.58.21,1.16.42,1.74.64.08.03.17.06.25.1.38.14.76.29,1.14.44,1,.39,2,.8,3.01,1.23,1.19.51,2.38,1.04,3.58,1.6,1.84-.86,3.68-1.66,5.49-2.4.74-.3,1.47-.59,2.21-.87.57-.21,1.13-.42,1.69-.62.05-.02.09-.03.14-.05.02,0,.04-.01.06-.02.42-.15.84-.29,1.26-.44.06-.02.12-.04.18-.06.59-.2,1.17-.39,1.76-.58-.28-.97-.58-1.91-.89-2.82-.03-.09-.06-.17-.09-.26-1.89-5.5-4.17-9.67-6.57-12.2-1.72-1.81-3.5-2.78-5.23-2.78-1.5,0-3.02.72-4.52,2.08.99,1.28,1.58,2.88,1.58,4.62,0,4.19-3.41,7.59-7.59,7.59Z"/>
    <path class="st2" d="M56.94,32.58c-.52-.09-1.03-.17-1.53-.24-.52-.07-1.03-.14-1.54-.19-.62-.07-1.22-.12-1.8-.15-.71-.04-1.39-.07-2.05-.07-1.96,0-3.71.17-5.2.53-2.03.49-3.59,1.3-4.61,2.43-.26.29-.49.6-.68.93-.98,1.74-.95,4.15,0,7,.29.86.66,1.77,1.12,2.7.57,1.17,1.27,2.39,2.1,3.66.57.87,1.19,1.75,1.87,2.65.1.14.21.28.32.42,1.01,1.3,2.13,2.64,3.37,3.99.25-.24.51-.48.76-.72.61-.57,1.23-1.14,1.87-1.71.6-.53,1.21-1.07,1.84-1.6.03-.02.06-.05.08-.07.55-.47,1.11-.93,1.68-1.39.02-.02.04-.04.07-.05.8-.65,1.62-1.29,2.46-1.93.07-.05.13-.1.2-.15.23-.17.46-.35.69-.52.33-.25.65-.49.99-.74.01-.14.03-.28.04-.41.03-.29.06-.58.09-.86.07-.65.14-1.29.22-1.93.08-.7.17-1.4.27-2.1.15-1.07.31-2.13.49-3.17.13-.81.28-1.61.43-2.39.01-.07.03-.15.04-.22.06-.32.12-.63.19-.94.13-.63.26-1.26.4-1.88-.49-.12-.98-.23-1.46-.34-.92-.2-1.83-.38-2.7-.53Z"/>
    <path class="st2" d="M67.7,41.49c.52-.32,1.03-.64,1.56-.95.33-.2.66-.38.99-.57.06-.04.13-.07.19-.11.11-.06.21-.12.32-.19.24-.14.49-.29.73-.42.36-.2.71-.4,1.07-.6.17-.09.34-.19.5-.28.34-.19.68-.38,1.02-.56-1.02-.43-2.03-.83-3.03-1.21-.25-.1-.51-.2-.76-.29-.22-.08-.43-.16-.65-.24-.17-.06-.34-.12-.51-.18-1.04-.37-2.07-.73-3.08-1.05-.15.67-.29,1.35-.43,2.04-.15.76-.29,1.54-.43,2.33-.24,1.38-.46,2.8-.65,4.27.17-.11.34-.22.51-.32.87-.56,1.75-1.12,2.64-1.66Z"/>
    <path class="st2" d="M58.38,59.16s0-.03,0-.04c0-1.08.03-2.15.06-3.22,0-.23.01-.45.02-.67.01-.3.02-.61.03-.91-.12.09-.23.19-.34.28-.09.07-.18.15-.27.22-.24.2-.49.4-.73.6-.5.41-.99.82-1.47,1.24-.58.5-1.15,1-1.71,1.5-.06.05-.12.11-.18.16-.48.43-.95.87-1.4,1.3-.13.13-.27.25-.41.38.21.2.43.4.65.61.03.03.05.05.08.08.11.11.23.21.34.32.3.28.6.55.91.83.26.23.52.46.78.7.29.25.58.5.87.75.06.05.12.1.18.15.55.47,1.11.94,1.68,1.4.34.28.67.55,1.02.83-.03-.82-.06-1.64-.08-2.47-.02-.95-.04-1.91-.04-2.87,0-.11,0-.22,0-.33,0-.07,0-.14,0-.21,0-.2,0-.4,0-.6Z"/>
    <path class="st1" d="M126.9,71.01c0-2.2-1.26-4.11-3.1-5.06,0,0,0,0,0,0-.78-.4-1.66-.63-2.59-.63-3.14,0-5.69,2.55-5.69,5.69s2.55,5.69,5.69,5.69c1.66,0,3.15-.72,4.19-1.86,0,0,0-.01,0-.02,0,0,0,.01,0,.02.93-1.01,1.5-2.35,1.5-3.83Z"/>
    <path class="st1" d="M45.08,92.97c.9,1.97,2.88,3.34,5.18,3.34,3.14,0,5.69-2.55,5.69-5.69s-2.55-5.69-5.69-5.69-5.69,2.55-5.69,5.69c0,.82.18,1.59.49,2.3,0,0,0,0,0,0,0,.02.01.03.02.05Z"/>
    <path class="st1" d="M45.06,92.92s0,0,0,0c0,.02.02.03.02.05,0-.02-.01-.03-.02-.05Z"/>
    <path class="st1" d="M74.29,15.14c-1.03-1.48-2.74-2.46-4.68-2.46-3.14,0-5.69,2.55-5.69,5.69s2.55,5.69,5.69,5.69c.76,0,1.48-.15,2.14-.42,2.08-.85,3.55-2.89,3.55-5.27,0-1.2-.38-2.31-1.01-3.23Z"/>
  </g>
</svg>