<?xml version="1.0" encoding="UTF-8"?>
<svg id="Layer_1" xmlns="http://www.w3.org/2000/svg" version="1.1" viewBox="0 0 625.13 718.53">
  <!-- Generator: Adobe Illustrator 29.8.1, SVG Export Plug-In . SVG Version: 2.1.1 Build 2)  -->
  <defs>
    <style>
      .st0 {
        fill: none;
      }

      .st1 {
        fill: #ca202a;
      }

      .st2 {
        fill: #fff;
      }
    </style>
  </defs>
  <g>
    <path class="st2" d="M109.6,513.16H43.75l-9.28,25.41H0l57.01-147.39h39.33l56.79,147.39h-34.25l-9.28-25.41ZM52.15,485.98h48.84l-24.31-67.62-24.53,67.62Z"/>
    <path class="st2" d="M302.96,471.17c0-9.94-4.42-17.01-15.91-17.01-9.94,0-18.12,6.63-22.1,12.37v72.04h-28.29v-67.4c0-9.94-4.42-17.01-15.91-17.01-9.72,0-17.9,6.63-22.1,12.6v71.82h-28.06v-106.73h28.06v13.92c4.42-6.41,18.56-16.57,34.91-16.57s25.63,7.29,29.61,19.45c6.19-9.72,20.33-19.45,36.68-19.45,19.67,0,31.38,10.39,31.38,32.26v77.12h-28.29v-67.4Z"/>
    <path class="st2" d="M366.59,493.93c10.39,10.83,26.52,19.89,46.85,19.89,17.24,0,25.63-8.18,25.63-16.57,0-11.05-12.82-14.8-29.83-18.78-24.09-5.53-55.02-12.15-55.02-45.08,0-24.53,21.21-44.42,55.91-44.42,23.42,0,42.87,7.07,57.45,20.55l-17.46,22.98c-11.93-11.05-27.84-16.13-42.21-16.13s-21.66,6.19-21.66,15.03c0,9.94,12.37,13.04,29.39,17.01,24.31,5.52,55.24,12.82,55.24,45.52,0,26.96-19.22,47.29-59,47.29-28.29,0-48.62-9.5-62.54-23.42l17.24-23.87Z"/>
    <path class="st2" d="M485.03,464.98c0-45.3,34.25-76.24,77.34-76.24,33.59,0,52.37,17.68,62.76,36.02l-26.96,13.26c-6.19-11.93-19.45-21.43-35.8-21.43-25.63,0-45.08,20.55-45.08,48.39s19.45,48.39,45.08,48.39c16.35,0,29.61-9.28,35.8-21.43l26.96,13.04c-10.61,18.34-29.17,36.24-62.76,36.24-43.09,0-77.34-30.94-77.34-76.24Z"/>
  </g>
  <g>
    <path class="st2" d="M59.32,629.02h-28.26l-3.98,10.91h-14.79l24.47-63.25h16.88l24.37,63.25h-14.7l-3.98-10.91ZM34.66,617.36h20.96l-10.43-29.02-10.53,29.02Z"/>
    <path class="st2" d="M152.16,594.41l-17.83,45.52h-5.88l-17.83-45.52v45.52h-13.47v-63.25h18.87l15.36,39.45,15.36-39.45h18.97v63.25h-13.56v-45.52Z"/>
    <path class="st2" d="M193.42,576.68h44.76v11.57h-31.3v13.75h30.63v11.57h-30.63v14.7h31.3v11.66h-44.76v-63.25Z"/>
    <path class="st2" d="M291,617.27h-9.86v22.67h-13.47v-63.25h29.59c13.18,0,21.24,8.63,21.24,20.39s-7.02,17.16-13.85,18.78l14.23,24.09h-15.46l-12.42-22.67ZM295.27,588.25h-14.13v17.45h14.13c5.41,0,9.48-3.41,9.48-8.73s-4.08-8.72-9.48-8.72Z"/>
    <path class="st2" d="M347.62,576.68h13.47v63.25h-13.47v-63.25Z"/>
    <path class="st2" d="M383.85,608.35c0-19.44,14.7-32.72,33.19-32.72,14.42,0,22.48,7.59,26.93,15.46l-11.57,5.69c-2.66-5.12-8.35-9.2-15.36-9.2-11,0-19.35,8.82-19.35,20.77s8.34,20.77,19.35,20.77c7.02,0,12.71-3.98,15.36-9.2l11.57,5.59c-4.55,7.87-12.52,15.55-26.93,15.55-18.49,0-33.19-13.28-33.19-32.72Z"/>
    <path class="st2" d="M510.64,629.02h-28.26l-3.98,10.91h-14.79l24.47-63.25h16.88l24.37,63.25h-14.7l-3.98-10.91ZM485.98,617.36h20.96l-10.43-29.02-10.53,29.02Z"/>
    <path class="st2" d="M567.64,597.45v42.49h-13.47v-63.25h13.85l29.3,40.97v-40.97h13.47v63.25h-12.99l-30.16-42.49Z"/>
  </g>
  <g>
    <path class="st2" d="M12.17,704.41c3.41,3.23,8.71,5.94,15.39,5.94,5.66,0,8.42-2.44,8.42-4.95,0-3.3-4.21-4.42-9.8-5.61-7.91-1.65-18.07-3.63-18.07-13.46,0-7.32,6.97-13.26,18.36-13.26,7.69,0,14.08,2.11,18.87,6.13l-5.73,6.86c-3.92-3.3-9.14-4.82-13.86-4.82s-7.11,1.85-7.11,4.49c0,2.97,4.06,3.89,9.65,5.08,7.98,1.65,18.14,3.83,18.14,13.59,0,8.05-6.31,14.12-19.38,14.12-9.29,0-15.97-2.84-20.54-6.99l5.66-7.12Z"/>
    <path class="st2" d="M53.97,695.77c0-13.52,11.25-22.76,25.4-22.76,11.03,0,17.2,5.28,20.61,10.75l-8.85,3.96c-2.03-3.56-6.39-6.4-11.76-6.4-8.42,0-14.8,6.13-14.8,14.45s6.39,14.45,14.8,14.45c5.37,0,9.72-2.77,11.76-6.4l8.85,3.89c-3.48,5.47-9.58,10.82-20.61,10.82-14.15,0-25.4-9.24-25.4-22.76Z"/>
    <path class="st2" d="M109.04,673.74h10.31v44h-10.31v-44Z"/>
    <path class="st2" d="M137.64,673.74h34.25v8.05h-23.95v9.56h23.44v8.05h-23.44v10.22h23.95v8.11h-34.25v-44Z"/>
    <path class="st2" d="M194.6,688.18v29.55h-10.31v-44h10.6l22.42,28.5v-28.5h10.3v44h-9.94l-23.08-29.55Z"/>
    <path class="st2" d="M237.78,695.77c0-13.52,11.25-22.76,25.4-22.76,11.03,0,17.2,5.28,20.61,10.75l-8.85,3.96c-2.03-3.56-6.39-6.4-11.76-6.4-8.42,0-14.8,6.13-14.8,14.45s6.39,14.45,14.8,14.45c5.37,0,9.72-2.77,11.76-6.4l8.85,3.89c-3.48,5.47-9.58,10.82-20.61,10.82-14.15,0-25.4-9.24-25.4-22.76Z"/>
    <path class="st2" d="M294.31,673.74h34.25v8.05h-23.95v9.56h23.44v8.05h-23.44v10.22h23.95v8.11h-34.25v-44Z"/>
    <path class="st2" d="M360.13,695.77c0-13.52,11.25-22.76,25.4-22.76,11.03,0,17.2,5.28,20.61,10.75l-8.85,3.96c-2.03-3.56-6.39-6.4-11.76-6.4-8.42,0-14.8,6.13-14.8,14.45s6.39,14.45,14.8,14.45c5.37,0,9.72-2.77,11.76-6.4l8.85,3.89c-3.48,5.47-9.58,10.82-20.61,10.82-14.15,0-25.4-9.24-25.4-22.76Z"/>
    <path class="st2" d="M419.56,673.74h10.3v35.75h20.46v8.25h-30.77v-44Z"/>
    <path class="st2" d="M481.39,673.01c14.66,0,25.33,9.5,25.33,22.76s-10.67,22.76-25.33,22.76-25.25-9.5-25.25-22.76,10.67-22.76,25.25-22.76ZM481.39,681.32c-8.93,0-14.66,6.2-14.66,14.45s5.73,14.45,14.66,14.45,14.73-6.27,14.73-14.45-5.81-14.45-14.73-14.45Z"/>
    <path class="st2" d="M518.33,673.74h10.45v26.12c0,6.13,3.7,10.36,11.25,10.36s11.1-4.22,11.1-10.36v-26.12h10.45v26.39c0,10.95-6.89,18.4-21.55,18.4s-21.7-7.52-21.7-18.34v-26.45Z"/>
    <path class="st2" d="M576.96,673.74h19.09c15.17,0,25.69,8.77,25.69,22.03s-10.52,21.97-25.69,21.97h-19.09v-44ZM596.05,709.49c9.58,0,15.17-6.27,15.17-13.72s-5.22-13.79-15.17-13.79h-8.78v27.51h8.78Z"/>
  </g>
  <g>
    <path class="st0" d="M254.39,184.26c-2.71-2.6-5.45-5.18-8.22-7.74,2.76,2.56,5.5,5.14,8.22,7.74Z"/>
    <path class="st0" d="M553.54,305.04c-1.47,1.81-3,3.56-4.58,5.25,1.58-1.69,3.11-3.44,4.58-5.25Z"/>
    <path class="st0" d="M79.54,332.97c-3.1-2.61-6.05-5.35-8.83-8.22,2.78,2.87,5.72,5.61,8.83,8.22Z"/>
    <path class="st1" d="M548.54,184.26H254.39c19.96,18.28,31.29,41.13,31.29,41.13h286.11c-7.16-27.14-23.25-41.13-23.25-41.13Z"/>
    <path class="st1" d="M301.77,261.15c8.05,17.88,16.09,41.13,16.09,41.13h237.83c15.17-15.93,16.09-41.13,16.09-41.13h-270.02Z"/>
    <path class="st2" d="M590.8,216.08c-.63-2.29-1.32-4.55-2.08-6.78-.49-1.43-1.01-2.84-1.55-4.25-.72-1.88-1.49-3.75-2.31-5.59-1.43-3.21-3-6.35-4.7-9.41-.57-1.02-1.15-2.03-1.75-3.03-1.79-3.01-3.71-5.93-5.76-8.77-.68-.95-1.38-1.88-2.09-2.81-1.42-1.85-2.89-3.67-4.41-5.44-1.52-1.77-3.1-3.5-4.72-5.19-1.62-1.69-3.3-3.33-5.02-4.92-2.58-2.39-5.26-4.69-8.05-6.87-4.64-3.64-9.55-6.97-14.7-9.97-2.06-1.2-4.16-2.34-6.29-3.43-3.2-1.63-6.48-3.14-9.83-4.52-2.23-.92-4.5-1.78-6.8-2.58s-4.62-1.54-6.98-2.21c-4.71-1.35-9.53-2.45-14.44-3.29-2.46-.42-4.94-.77-7.44-1.05-2.5-.28-5.02-.5-7.56-.64-1.27-.07-2.55-.13-3.82-.16-2.56-.07-5.13-.07-7.73,0-.85-4.89-1.89-9.64-3.12-14.25s-2.62-9.08-4.19-13.41c-1.57-4.33-3.3-8.52-5.19-12.56s-3.94-7.95-6.13-11.71c-5.48-9.4-11.88-17.92-19-25.54-2.85-3.05-5.82-5.95-8.89-8.71-3.72-3.34-7.61-6.43-11.62-9.35-1.96-1.42-3.95-2.8-5.98-4.12-2.39-1.56-4.81-3.08-7.28-4.5-5.3-3.05-10.78-5.77-16.4-8.16-3.74-1.59-7.55-3.04-11.4-4.34s-7.76-2.45-11.71-3.45-7.93-1.86-11.94-2.56c-6.02-1.06-12.1-1.78-18.2-2.17-4.07-.26-8.15-.37-12.23-.33s-8.16.23-12.23.57c-4.07.34-8.13.83-12.16,1.48-2.02.32-4.03.68-6.03,1.08-6.01,1.19-11.97,2.73-17.82,4.61-7.8,2.5-15.42,5.62-22.77,9.35-2.52,1.28-4.99,2.65-7.44,4.08-2.92,1.69-5.79,3.46-8.61,5.36-22.41,15.13-41.27,36.8-53.5,65.17-1.88,4.37-3.61,8.89-5.16,13.57-33.12-1.75-60.01,6.91-80.52,21.98-3.16,2.32-6.16,4.79-9.01,7.4-2.85,2.61-5.55,5.36-8.1,8.23-2.55,2.87-4.95,5.86-7.19,8.96-6.73,9.3-12.09,19.58-16.06,30.45-1.32,3.62-2.49,7.31-3.51,11.05-.51,1.87-.98,3.75-1.41,5.64-.86,3.78-1.56,7.61-2.11,11.47-.55,3.86-.94,7.74-1.18,11.64-.24,3.9-.32,7.82-.24,11.73.11,5.87.58,11.74,1.4,17.57.55,3.88,1.25,7.74,2.12,11.57,3.45,15.3,9.44,30.01,17.98,43.22,1.07,1.65,2.18,3.28,3.33,4.88,3.45,4.81,7.25,9.38,11.42,13.68,2.78,2.87,5.72,5.61,8.83,8.22,17.07,14.33,39.04,24.5,66,28.09l173.37.15,173.37.15c20.95-2.3,39.97-9.4,55.8-20.57,2.26-1.6,4.46-3.28,6.58-5.04,2.13-1.76,4.18-3.6,6.17-5.52,1.98-1.92,3.9-3.92,5.73-6,1.84-2.08,3.59-4.23,5.27-6.46,1.68-2.23,3.28-4.53,4.79-6.91,1.77-2.78,3.41-5.66,4.95-8.63,1.09-2.11,2.14-4.26,3.11-6.47,2.33-5.31,4.29-10.9,5.86-16.74,5.94-22.12,5.57-43.5.25-62.94ZM198.3,300.54l-45.26-34.35-45.26,34.35,17.29-55.57-45.26-34.35h55.95l17.29-55.57,17.29,55.57h55.95l-45.26,34.35,17.29,55.57ZM571.79,231.64v29.51s-.93,25.2-16.09,41.13c-.71.94-1.43,1.86-2.16,2.76-1.47,1.81-3,3.56-4.58,5.25-2.37,2.53-4.87,4.91-7.49,7.14s-5.36,4.29-8.21,6.19c-.95.63-1.92,1.25-2.9,1.84-3.91,2.38-8.03,4.44-12.35,6.17-2.16.86-4.37,1.64-6.63,2.33-.69.21-1.55.46-2.53.74s-2.07.58-3.24.89c-.59.16-1.19.32-1.81.48-1.24.32-2.54.66-3.85.98-1.97.49-3.98.96-5.88,1.37-.63.14-1.25.27-1.86.39-1.81.37-3.47.66-4.84.84-.91.12-1.69.18-2.3.18h-160.04l-3.58-18.78-3.58-18.78s-8.05-23.25-16.09-41.13l-8.05-17.88-8.05-17.88s-11.33-22.85-31.29-41.13c-2.71-2.6-5.45-5.18-8.22-7.74-5.53-5.12-11.17-10.14-16.96-14.97-2.9-2.42-5.83-4.78-8.81-7.09-1.49-1.15-2.99-2.29-4.5-3.42-3.03-2.25-6.1-4.42-9.22-6.53s-6.3-4.13-9.54-6.06c-4.85-2.9-9.83-5.6-14.96-8.06.72-6.19,1.99-12.27,3.77-18.2.89-2.96,1.91-5.89,3.04-8.77,1.13-2.88,2.39-5.72,3.75-8.51,1.36-2.79,2.84-5.52,4.42-8.21,1.58-2.68,3.26-5.31,5.04-7.87,1.78-2.56,3.65-5.06,5.62-7.5,1.96-2.43,4.02-4.8,6.15-7.09,1.07-1.15,2.16-2.27,3.26-3.38,2.21-2.22,4.51-4.36,6.87-6.41,4.73-4.12,9.74-7.9,14.97-11.31,2.62-1.7,5.29-3.31,8.01-4.82,1.36-.75,2.73-1.48,4.12-2.19,2.77-1.41,5.58-2.71,8.43-3.91,5.7-2.39,11.55-4.35,17.5-5.82,21.84-5.42,44.42-5.22,65.62-.11,3.85.93,7.66,2.02,11.42,3.27,5.63,1.87,11.12,4.1,16.44,6.68,3.55,1.71,7.02,3.58,10.4,5.6,3.38,2.01,6.67,4.18,9.86,6.48,3.19,2.3,6.27,4.75,9.24,7.34,2.97,2.59,5.82,5.31,8.55,8.18,2.73,2.86,5.32,5.86,7.78,8.99s4.77,6.38,6.94,9.77c2.16,3.38,4.17,6.89,6.02,10.53,1.84,3.63,3.52,7.39,5.02,11.26.58,1.51,1.26,3.91,1.98,6.84.24.98.49,2.01.73,3.09.25,1.08.5,2.2.76,3.35.13.58.25,1.16.38,1.75.26,1.18.51,2.38.77,3.58.38,1.81.77,3.64,1.14,5.45.13.6.25,1.2.37,1.79.62,2.96,1.21,5.81,1.76,8.31.22,1,.43,1.95.63,2.82.2.88.39,1.68.57,2.41.54,2.17.97,3.6,1.26,3.9.36.38.87.68,1.52.93.43.17.91.31,1.45.42.54.12,1.12.21,1.75.29.63.07,1.3.13,2,.17.7.04,1.44.06,2.21.06,1.15,0,2.35-.01,3.6-.06.83-.03,1.67-.07,2.52-.11s1.71-.1,2.57-.15c.86-.06,1.72-.11,2.57-.17,1.71-.12,3.38-.24,4.97-.34.79-.05,1.56-.09,2.31-.13,1.48-.07,2.84-.11,4.02-.09.59,0,1.14.03,1.63.07,3.27.27,6.57.71,9.87,1.31,3.3.6,6.61,1.37,9.89,2.3,3.28.93,6.54,2.01,9.74,3.24,3.21,1.23,6.36,2.62,9.45,4.14,1.54.76,3.06,1.56,4.56,2.4,3,1.67,5.91,3.48,8.71,5.42,6.99,4.85,13.27,10.53,18.44,16.92,0,0,16.08,13.98,23.25,41.13v6.26Z"/>
  </g>
</svg>