<?xml version="1.0" encoding="UTF-8"?>
<svg xmlns="http://www.w3.org/2000/svg" version="1.1" viewBox="0 0 113.42 113.42">
  <!-- Generator: Adobe Illustrator 29.8.1, SVG Export Plug-In . SVG Version: 2.1.1 Build 2)  -->
  <defs>
    <style>
      .st0 {
        fill: #2c2c2c;
      }

      .st1 {
        display: none;
      }
    </style>
  </defs>
  <g id="Layer_1" class="st1">
    <path class="st0" d="M106.26,43.96c-1.91-2-3.88-4.05-4.63-5.86-.69-1.66-.73-4.4-.77-7.06-.08-4.94-.16-10.54-4.05-14.44-3.89-3.89-9.49-3.97-14.44-4.05-2.66-.04-5.4-.08-7.06-.77-1.8-.74-3.86-2.72-5.86-4.63-3.49-3.36-7.46-7.16-12.75-7.16s-9.25,3.8-12.75,7.16c-2,1.91-4.05,3.88-5.86,4.63-1.65.69-4.4.73-7.06.77-4.94.08-10.54.16-14.44,4.05-3.89,3.89-3.95,9.49-4.05,14.44-.04,2.66-.08,5.4-.77,7.06-.74,1.8-2.72,3.86-4.63,5.86-3.36,3.49-7.16,7.46-7.16,12.75s3.8,9.25,7.16,12.75c1.91,2,3.88,4.05,4.63,5.86.69,1.66.73,4.4.77,7.06.08,4.94.16,10.54,4.05,14.44,3.89,3.89,9.49,3.97,14.44,4.05,2.66.04,5.4.08,7.06.77,1.8.74,3.86,2.72,5.86,4.63,3.49,3.36,7.46,7.16,12.75,7.16s9.25-3.8,12.75-7.16c2-1.91,4.05-3.88,5.86-4.63,1.66-.69,4.4-.73,7.06-.77,4.94-.08,10.54-.16,14.44-4.05,3.89-3.89,3.97-9.49,4.05-14.44.04-2.66.08-5.4.77-7.06.74-1.8,2.72-3.86,4.63-5.86,3.36-3.49,7.16-7.46,7.16-12.75s-3.8-9.25-7.16-12.75ZM100.41,63.86c-2.43,2.53-4.94,5.15-6.27,8.37-1.28,3.09-1.33,6.62-1.38,10.04-.05,3.54-.11,7.26-1.68,8.83-1.57,1.57-5.26,1.63-8.83,1.68-3.42.05-6.95.11-10.04,1.38-3.22,1.33-5.83,3.84-8.37,6.27-2.53,2.43-5.12,4.91-7.14,4.91s-4.63-2.49-7.14-4.91c-2.51-2.42-5.15-4.94-8.37-6.27-3.09-1.28-6.62-1.33-10.04-1.38-3.54-.05-7.26-.11-8.83-1.68-1.57-1.57-1.63-5.26-1.68-8.83-.05-3.42-.11-6.95-1.38-10.04-1.33-3.22-3.84-5.83-6.27-8.37-2.43-2.53-4.91-5.12-4.91-7.14s2.49-4.63,4.91-7.14,4.94-5.15,6.27-8.37c1.28-3.09,1.33-6.62,1.38-10.04.05-3.54.11-7.26,1.68-8.83,1.57-1.57,5.26-1.63,8.83-1.68,3.42-.05,6.95-.11,10.04-1.38,3.22-1.33,5.83-3.84,8.37-6.27,2.53-2.43,5.12-4.91,7.14-4.91s4.63,2.49,7.14,4.91,5.15,4.94,8.37,6.27c3.09,1.28,6.62,1.33,10.04,1.38,3.54.05,7.26.11,8.83,1.68,1.57,1.57,1.63,5.26,1.68,8.83.05,3.42.11,6.95,1.38,10.04,1.33,3.22,3.84,5.83,6.27,8.37,2.43,2.53,4.91,5.12,4.91,7.14s-2.49,4.63-4.91,7.14ZM79.83,41.69c.38.38.68.82.88,1.31.2.49.31,1.02.31,1.55s-.1,1.06-.31,1.55c-.2.49-.5.94-.88,1.31l-28.36,28.36c-.38.38-.82.68-1.31.88-.49.2-1.02.31-1.55.31s-1.06-.1-1.55-.31c-.49-.2-.94-.5-1.31-.88l-12.15-12.15c-.76-.76-1.19-1.79-1.19-2.87s.43-2.11,1.19-2.87c.76-.76,1.79-1.19,2.87-1.19s2.11.43,2.87,1.19l9.29,9.29,25.49-25.49c.38-.38.82-.68,1.31-.88.49-.2,1.02-.31,1.55-.31s1.06.1,1.55.31c.49.2.94.5,1.31.88Z"/>
  </g>
  <g id="Layer_2">
    <path class="st0" d="M9.31,49.42h10.94v29.17h-7.29c-.97,0-1.89.38-2.58,1.07-.68.68-1.07,1.61-1.07,2.58s.38,1.89,1.07,2.58c.68.68,1.61,1.07,2.58,1.07h87.52c.97,0,1.89-.38,2.58-1.07.68-.68,1.07-1.61,1.07-2.58s-.38-1.89-1.07-2.58-1.61-1.07-2.58-1.07h-7.29v-29.17h10.94c.79,0,1.56-.26,2.2-.74.63-.48,1.09-1.15,1.31-1.91.22-.76.18-1.58-.11-2.32-.29-.74-.81-1.36-1.48-1.78L58.62,13.49c-.57-.35-1.24-.54-1.91-.54s-1.34.19-1.91.54L7.4,42.67c-.68.42-1.2,1.04-1.48,1.78-.29.74-.33,1.55-.11,2.32.22.76.68,1.44,1.31,1.91.63.48,1.4.74,2.2.74ZM27.54,49.42h14.59v29.17h-14.59v-29.17ZM64,49.42v29.17h-14.59v-29.17h14.59ZM85.88,78.59h-14.59v-29.17h14.59v29.17ZM56.71,20.88l34.52,21.25H22.19l34.52-21.25ZM111.41,96.82c0,.97-.38,1.89-1.07,2.58-.68.68-1.61,1.07-2.58,1.07H5.66c-.97,0-1.89-.38-2.58-1.07-.68-.68-1.07-1.61-1.07-2.58s.38-1.89,1.07-2.58c.68-.68,1.61-1.07,2.58-1.07h102.1c.97,0,1.89.38,2.58,1.07s1.07,1.61,1.07,2.58Z"/>
  </g>
  <g id="Layer_3" class="st1">
    <path class="st0" d="M112,44.42l-11.19-22.39c-.41-.82-.98-1.56-1.68-2.16-.7-.6-1.5-1.06-2.38-1.35-.87-.29-1.8-.41-2.72-.34-.92.07-1.82.31-2.64.72l-10.9,5.45-22.97-6.08c-.59-.15-1.21-.15-1.8,0l-22.97,6.08-10.9-5.45c-.82-.41-1.72-.66-2.64-.72-.92-.07-1.84.05-2.72.34-.87.29-1.68.75-2.38,1.35-.7.6-1.27,1.34-1.68,2.16L1.25,44.42c-.41.82-.66,1.72-.72,2.64-.07.92.05,1.84.34,2.72.29.87.75,1.68,1.35,2.38.6.7,1.34,1.27,2.16,1.68l11.84,5.92,24.33,17.37c.36.26.76.44,1.19.55l28.06,7.01c.59.15,1.2.14,1.79-.02.58-.16,1.12-.47,1.54-.9l24.14-24.15,11.58-5.79c1.66-.83,2.93-2.29,3.51-4.06.59-1.76.45-3.69-.38-5.35h0ZM87.93,59.05l-15.09-12.08c-.68-.54-1.53-.81-2.39-.76-.86.05-1.68.42-2.29,1.03-7.81,7.87-16.51,6.87-22.06,3.36l18.96-18.41h13.95l11.93,23.85-3,3.01ZM18.71,25.17l8.97,4.48-11.21,22.38-8.96-4.48,11.19-22.39ZM69.57,77.4l-25.48-6.37-21.57-15.41,12.28-24.55,21.82-5.78,4.3,1.14-19.73,19.15-.03.04c-.74.74-1.31,1.64-1.66,2.63-.35.99-.47,2.05-.36,3.09.11,1.04.46,2.05,1.02,2.94.55.89,1.3,1.65,2.19,2.21,9.01,5.76,19.89,4.82,28.46-2.19l12.12,9.74-13.36,13.36ZM96.75,52.03l-11.19-22.36,8.97-4.5,11.19,22.39-8.97,4.47ZM58.28,92.65c-.19.76-.63,1.43-1.24,1.91-.62.48-1.37.74-2.16.74-.29,0-.58-.04-.85-.11l-18.27-4.57c-.43-.11-.83-.29-1.19-.55l-11.55-8.25c-.71-.56-1.18-1.37-1.31-2.26-.13-.89.09-1.8.62-2.54.53-.73,1.31-1.24,2.2-1.41.89-.17,1.81.01,2.56.51l11.01,7.87,17.64,4.4c.9.23,1.68.8,2.16,1.6s.62,1.75.4,2.65h-.02Z"/>
  </g>
</svg>