<?xml version="1.0" encoding="UTF-8"?>
<svg id="Layer_1" xmlns="http://www.w3.org/2000/svg" version="1.1" viewBox="0 0 113.42 113.42">
  <!-- Generator: Adobe Illustrator 29.8.1, SVG Export Plug-In . SVG Version: 2.1.1 Build 2)  -->
  <defs>
    <style>
      .st0 {
        fill: #2c2c2c;
      }
    </style>
  </defs>
  <path class="st0" d="M106.26,43.96c-1.91-2-3.88-4.05-4.63-5.86-.69-1.66-.73-4.4-.77-7.06-.08-4.94-.16-10.54-4.05-14.44-3.89-3.89-9.49-3.97-14.44-4.05-2.66-.04-5.4-.08-7.06-.77-1.8-.74-3.86-2.72-5.86-4.63-3.49-3.36-7.46-7.16-12.75-7.16s-9.25,3.8-12.75,7.16c-2,1.91-4.05,3.88-5.86,4.63-1.65.69-4.4.73-7.06.77-4.94.08-10.54.16-14.44,4.05-3.89,3.89-3.95,9.49-4.05,14.44-.04,2.66-.08,5.4-.77,7.06-.74,1.8-2.72,3.86-4.63,5.86-3.36,3.49-7.16,7.46-7.16,12.75s3.8,9.25,7.16,12.75c1.91,2,3.88,4.05,4.63,5.86.69,1.66.73,4.4.77,7.06.08,4.94.16,10.54,4.05,14.44,3.89,3.89,9.49,3.97,14.44,4.05,2.66.04,5.4.08,7.06.77,1.8.74,3.86,2.72,5.86,4.63,3.49,3.36,7.46,7.16,12.75,7.16s9.25-3.8,12.75-7.16c2-1.91,4.05-3.88,5.86-4.63,1.66-.69,4.4-.73,7.06-.77,4.94-.08,10.54-.16,14.44-4.05,3.89-3.89,3.97-9.49,4.05-14.44.04-2.66.08-5.4.77-7.06.74-1.8,2.72-3.86,4.63-5.86,3.36-3.49,7.16-7.46,7.16-12.75s-3.8-9.25-7.16-12.75ZM100.41,63.86c-2.43,2.53-4.94,5.15-6.27,8.37-1.28,3.09-1.33,6.62-1.38,10.04-.05,3.54-.11,7.26-1.68,8.83-1.57,1.57-5.26,1.63-8.83,1.68-3.42.05-6.95.11-10.04,1.38-3.22,1.33-5.83,3.84-8.37,6.27-2.53,2.43-5.12,4.91-7.14,4.91s-4.63-2.49-7.14-4.91c-2.51-2.42-5.15-4.94-8.37-6.27-3.09-1.28-6.62-1.33-10.04-1.38-3.54-.05-7.26-.11-8.83-1.68-1.57-1.57-1.63-5.26-1.68-8.83-.05-3.42-.11-6.95-1.38-10.04-1.33-3.22-3.84-5.83-6.27-8.37-2.43-2.53-4.91-5.12-4.91-7.14s2.49-4.63,4.91-7.14,4.94-5.15,6.27-8.37c1.28-3.09,1.33-6.62,1.38-10.04.05-3.54.11-7.26,1.68-8.83,1.57-1.57,5.26-1.63,8.83-1.68,3.42-.05,6.95-.11,10.04-1.38,3.22-1.33,5.83-3.84,8.37-6.27,2.53-2.43,5.12-4.91,7.14-4.91s4.63,2.49,7.14,4.91,5.15,4.94,8.37,6.27c3.09,1.28,6.62,1.33,10.04,1.38,3.54.05,7.26.11,8.83,1.68,1.57,1.57,1.63,5.26,1.68,8.83.05,3.42.11,6.95,1.38,10.04,1.33,3.22,3.84,5.83,6.27,8.37,2.43,2.53,4.91,5.12,4.91,7.14s-2.49,4.63-4.91,7.14ZM79.83,41.69c.38.38.68.82.88,1.31.2.49.31,1.02.31,1.55s-.1,1.06-.31,1.55c-.2.49-.5.94-.88,1.31l-28.36,28.36c-.38.38-.82.68-1.31.88-.49.2-1.02.31-1.55.31s-1.06-.1-1.55-.31c-.49-.2-.94-.5-1.31-.88l-12.15-12.15c-.76-.76-1.19-1.79-1.19-2.87s.43-2.11,1.19-2.87c.76-.76,1.79-1.19,2.87-1.19s2.11.43,2.87,1.19l9.29,9.29,25.49-25.49c.38-.38.82-.68,1.31-.88.49-.2,1.02-.31,1.55-.31s1.06.1,1.55.31c.49.2.94.5,1.31.88Z"/>
</svg>