<?xml version="1.0" encoding="UTF-8"?>
<svg id="Layer_1" xmlns="http://www.w3.org/2000/svg" version="1.1" viewBox="0 0 1296.55 1061.11">
  <!-- Generator: Adobe Illustrator 30.0.0, SVG Export Plug-In . SVG Version: 2.1.1 Build 123)  -->
  <defs>
    <style>
      .st0 {
        fill: #ed7d5b;
      }

      .st0, .st1, .st2, .st3, .st4, .st5, .st6, .st7, .st8, .st9, .st10, .st11, .st12, .st13, .st14, .st15, .st16, .st17, .st18, .st19, .st20, .st21, .st22, .st23, .st24, .st25, .st26, .st27 {
        fill-rule: evenodd;
      }

      .st1 {
        fill: #c7232c;
      }

      .st2 {
        fill: #ebf4fb;
      }

      .st3, .st28 {
        fill: #e77c82;
      }

      .st4, .st29 {
        fill: #fff;
      }

      .st5 {
        fill: #9c1d23;
      }

      .st6 {
        fill: #1a3167;
      }

      .st7 {
        fill: #87b7e2;
      }

      .st8, .st30 {
        fill: #86bae4;
      }

      .st9 {
        fill: #0053a1;
      }

      .st31, .st15 {
        fill: #09378c;
      }

      .st10, .st32 {
        fill: #5d9cd4;
      }

      .st33, .st27 {
        fill: #498ac9;
      }

      .st11 {
        fill: #f29f65;
      }

      .st12 {
        fill: #3e62ac;
      }

      .st13 {
        fill: #f19651;
      }

      .st14 {
        fill: #73acdd;
      }

      .st16 {
        fill: #f4ae7c;
      }

      .st17 {
        fill: #dd6b73;
      }

      .st34 {
        fill: #e2bfc2;
      }

      .st18 {
        fill: #3156a4;
      }

      .st19 {
        fill: #bad9f2;
      }

      .st35, .st25 {
        fill: #df4950;
      }

      .st36, .st21 {
        fill: #f09171;
      }

      .st20 {
        fill: #ad1f26;
      }

      .st22 {
        fill: #f6bca5;
      }

      .st23 {
        fill: #c1dff4;
      }

      .st24 {
        fill: #f1f8fc;
      }

      .st26 {
        fill: #deedf9;
      }
    </style>
  </defs>
  <g>
    <g>
      <path class="st26" d="M1254.14,861.08l-244.95-84.92-2.25-692.9c95.49,66.76,161.48,170.43,161.48,299.35,0,26.08-3.38,51.36-9.71,75.45,82.84,52.49,137.85,144.96,137.85,250.28,0,55.89-15.5,108.14-42.41,152.73Z"/>
      <path class="st23" d="M30.36,791.65h951.36V66.89c-143.43-86.27-340.84-94.94-485.78,8.48-31.23,22.26-17.27,12.69-56.94-5.72-37.83-17.56-79.99-27.37-124.45-27.37C151.02,42.29,18.45,174.85,18.45,338.38c0,57.36,16.32,110.91,44.56,156.25,23.03,36.99,24.8,18.59,1.83,54.54-29.37,45.96-46.4,100.58-46.4,159.17,0,28.93,4.17,56.88,11.9,83.31Z"/>
      <path class="st26" d="M30.36,791.65h951.36l254.62,95.67c-38.09,50.12-91.78,87.73-153.84,105.59-87.51-12.19-239.81-20.25-413.08-20.25-183.91,0-344.21,9.09-428.46,22.56-101.13-25.87-181.39-103.81-210.59-203.56Z"/>
      <path class="st24" d="M1254.14,861.08l-231.56-80.27-2.23-687.79c88.21,66.9,148.07,166.81,148.07,289.6,0,26.08-3.38,51.36-9.71,75.45,82.84,52.49,137.85,144.96,137.85,250.28,0,55.89-15.5,108.14-42.41,152.73Z"/>
      <path class="st26" d="M1037.45,106.72v700.98l-31.36-12.05V82.68c10.85,7.55,21.32,15.56,31.36,24.04Z"/>
      <path class="st26" d="M1262.22,569.87v276.95c-4.2,7.93-8.75,15.63-13.63,23.11l-29.6-8.25v-353.09c16.86,18.45,31.43,39.02,43.23,61.29Z"/>
      <path class="st8" d="M1009.19,84.83v717.34l-27.47-10.52-2.85-726.5c10.4,6.16,20.52,12.72,30.33,19.67Z"/>
      <path class="st8" d="M1225.16,515.54v353.28l-31.36-12.06v-372.65c11.22,9.68,21.7,20.18,31.36,31.42Z"/>
      <path class="st8" d="M981.71,755.02l278.26,95.96c-7,12.7-14.89,24.83-23.61,36.31l-255.09-95.86.45-36.41Z"/>
    </g>
    <path class="st26" d="M669.41,972.66c271.41,0,491.44,19.8,491.44,44.22s-220.02,44.23-491.44,44.23-491.43-19.8-491.43-44.23,220.02-44.22,491.43-44.22Z"/>
  </g>
  <g>
    <path class="st2" d="M1192.94,933.32c-31.72,27.16-69.23,47.73-110.44,59.59-87.51-12.19-239.82-20.25-413.09-20.25-183.91,0-344.21,9.09-428.46,22.56-66.29-16.95-123.61-56.28-163.46-109.46,384.63,139.04,662.89-55.15,1115.45,47.57Z"/>
    <path class="st2" d="M669.41,972.66c271.41,0,491.44,19.8,491.44,44.22s-220.02,44.23-491.44,44.23-491.43-19.8-491.43-44.23,220.02-44.22,491.43-44.22Z"/>
  </g>
  <g>
    <rect class="st34" y="202.02" width="996.66" height="598.27"/>
    <rect class="st35" y="202.02" width="996.66" height="36.58"/>
    <rect class="st28" y="238.61" width="996.66" height="54.19"/>
    <path class="st29" d="M32.32,312.11h124.5c5.64,0,10.22,4.58,10.22,10.22v439.29c0,5.64-4.58,10.22-10.22,10.22H32.32c-5.64,0-10.22-4.58-10.22-10.22v-439.29c0-5.64,4.58-10.22,10.22-10.22Z"/>
    <g>
      <g>
        <path class="st25" d="M242.43,325.41h511.8c10.47,0,19.02,8.54,19.02,19.02v180.1c0,10.47-8.54,19.01-19.02,19.01H242.43c-10.47,0-19.02-8.54-19.02-19.01v-180.1c0-10.47,8.55-19.02,19.02-19.02Z"/>
        <path class="st4" d="M242.43,331.1h511.8c7.34,0,13.33,5.99,13.33,13.32v180.1c0,7.34-5.99,13.33-13.33,13.33H242.43c-7.34,0-13.33-5.99-13.33-13.33v-180.1c0-7.34,5.99-13.32,13.33-13.32Z"/>
      </g>
      <path class="st17" d="M592.81,592.07v15.44h-190.9v-15.44h190.9ZM231.14,754.85h76.87v15.43h-76.87v-15.43h0ZM657.82,754.85v15.43h-324.84v-15.43h324.84ZM231.14,727.72h145.8v15.43h-145.8v-15.43h0ZM493.64,727.72v15.43h-91.72v-15.43h91.72ZM765.52,743.15h-246.21v-15.43h246.21v15.43h0ZM231.14,700.6h76.87v15.43h-76.87v-15.43h0ZM592.81,700.6v15.43h-259.83v-15.43h259.83ZM765.52,716.03h-147.04v-15.43h147.04v15.43h0ZM231.14,673.47h336.72v15.43H231.14v-15.43h0ZM698.83,688.9h-106.02v-15.43h106.02v15.43h0ZM567.16,646.34v15.43h-234.17v-15.43h234.17ZM765.52,661.76h-172.71v-15.43h172.71v15.43h0ZM231.14,555.54h93.56v15.43h-93.56v-15.43h0ZM231.14,619.2h76.87v15.43h-76.87v-15.43h0ZM412.54,619.2v15.43h-79.55v-15.43h79.55ZM676.48,570.97h-327.31v-15.43h327.31v15.43h0ZM765.52,634.63h-327.32v-15.43h327.32v15.43h0ZM231.14,592.07h145.8v15.44h-145.8v-15.44Z"/>
    </g>
    <path class="st25" d="M44.9,326.68c7.59,0,13.74,6.15,13.74,13.74s-6.15,13.74-13.74,13.74-13.74-6.15-13.74-13.74,6.15-13.74,13.74-13.74h0ZM44.9,729.78c7.59,0,13.74,6.15,13.74,13.74s-6.15,13.74-13.74,13.74-13.74-6.15-13.74-13.74,6.15-13.74,13.74-13.74h0ZM71.51,734.28h86.48v18.47h-86.48v-18.47h0ZM44.9,684.99c7.59,0,13.74,6.15,13.74,13.74s-6.15,13.75-13.74,13.75-13.74-6.16-13.74-13.75,6.15-13.74,13.74-13.74h0ZM71.51,689.5h86.48v18.47h-86.48v-18.47h0ZM44.9,640.2c7.59,0,13.74,6.16,13.74,13.75s-6.15,13.73-13.74,13.73-13.74-6.15-13.74-13.73,6.15-13.75,13.74-13.75h0ZM71.51,644.71h86.48v18.48h-86.48v-18.48h0ZM44.9,595.41c7.59,0,13.74,6.16,13.74,13.74s-6.15,13.74-13.74,13.74-13.74-6.16-13.74-13.74,6.15-13.74,13.74-13.74h0ZM71.51,599.92h86.48v18.47h-86.48v-18.47h0ZM44.9,550.63c7.59,0,13.74,6.15,13.74,13.75s-6.15,13.73-13.74,13.73-13.74-6.15-13.74-13.73,6.15-13.75,13.74-13.75h0ZM71.51,555.13h86.48v18.47h-86.48v-18.47h0ZM44.9,505.84c7.59,0,13.74,6.15,13.74,13.74s-6.15,13.75-13.74,13.75-13.74-6.16-13.74-13.75,6.15-13.74,13.74-13.74h0ZM71.51,510.34h86.48v18.47h-86.48v-18.47h0ZM44.9,461.05c7.59,0,13.74,6.15,13.74,13.74s-6.15,13.74-13.74,13.74-13.74-6.16-13.74-13.74,6.15-13.74,13.74-13.74h0ZM71.51,465.56h86.48v18.47h-86.48v-18.47h0ZM44.9,416.27c7.59,0,13.74,6.14,13.74,13.73s-6.15,13.75-13.74,13.75-13.74-6.16-13.74-13.75,6.15-13.73,13.74-13.73h0ZM71.51,420.76h86.48v18.47h-86.48v-18.47h0ZM44.9,371.47c7.59,0,13.74,6.15,13.74,13.75s-6.15,13.73-13.74,13.73-13.74-6.15-13.74-13.73,6.15-13.75,13.74-13.75h0ZM71.51,375.98h86.48v18.46h-86.48v-18.46h0ZM71.51,331.18h86.48v18.47h-86.48v-18.47Z"/>
    <path class="st29" d="M809.95,326.34h152.06c4.42,0,8,3.59,8,8v248.99c0,4.42-3.59,8-8,8h-152.06c-4.42,0-8-3.58-8-8v-248.99c0-4.42,3.58-8,8-8Z"/>
    <path class="st29" d="M808.38,622.01h155.2c3.55,0,6.43,2.88,6.43,6.43v122.3c0,3.55-2.88,6.43-6.43,6.43h-155.2c-3.55,0-6.43-2.88-6.43-6.43v-122.3c0-3.55,2.88-6.43,6.43-6.43Z"/>
    <path class="st25" d="M832.06,531.49c10.9,0,19.73,8.84,19.73,19.73s-8.83,19.73-19.73,19.73-19.73-8.83-19.73-19.73,8.83-19.73,19.73-19.73h0ZM832.06,346.73c10.9,0,19.73,8.84,19.73,19.73s-8.83,19.73-19.73,19.73-19.73-8.83-19.73-19.73,8.83-19.73,19.73-19.73h0ZM854.22,375.64h105.39v9.19h-105.39v-9.19h0ZM854.22,348.08h105.39v9.19h-105.39v-9.19h0ZM854.22,361.86h105.39v9.19h-105.39v-9.19h0ZM832.06,392.92c10.9,0,19.73,8.84,19.73,19.73s-8.83,19.73-19.73,19.73-19.73-8.83-19.73-19.73,8.83-19.73,19.73-19.73h0ZM854.22,421.84h105.39v9.19h-105.39v-9.19h0ZM854.22,394.27h105.39v9.18h-105.39v-9.18h0ZM854.22,408.05h105.39v9.2h-105.39v-9.2h0ZM832.06,439.11c10.9,0,19.73,8.83,19.73,19.72s-8.83,19.73-19.73,19.73-19.73-8.83-19.73-19.73,8.83-19.72,19.73-19.72h0ZM854.22,468.02h105.39v9.19h-105.39v-9.19h0ZM854.22,440.46h105.39v9.19h-105.39v-9.19h0ZM854.22,454.24h105.39v9.19h-105.39v-9.19h0ZM832.06,485.3c10.9,0,19.73,8.84,19.73,19.73s-8.83,19.73-19.73,19.73-19.73-8.83-19.73-19.73,8.83-19.73,19.73-19.73h0ZM854.22,514.21h105.39v9.19h-105.39v-9.19h0ZM854.22,486.65h105.39v9.19h-105.39v-9.19h0ZM854.22,500.43h105.39v9.19h-105.39v-9.19h0ZM854.22,560.41h105.39v9.19h-105.39v-9.19h0ZM854.22,532.84h105.39v9.19h-105.39v-9.19h0ZM854.22,546.62h105.39v9.2h-105.39v-9.2Z"/>
    <path class="st25" d="M832.47,645.07c10.81,0,19.57,8.77,19.57,19.58s-8.76,19.57-19.57,19.57-19.58-8.77-19.58-19.57,8.77-19.58,19.58-19.58h0ZM832.47,694.95c10.81,0,19.57,8.77,19.57,19.58s-8.76,19.58-19.57,19.58-19.58-8.77-19.58-19.58,8.77-19.58,19.58-19.58h0ZM854.46,723.65h104.59v9.12h-104.59v-9.12h0ZM854.46,696.3h104.59v9.12h-104.59v-9.12h0ZM854.46,709.97h104.59v9.13h-104.59v-9.13h0ZM854.46,673.77h104.59v9.12h-104.59v-9.12h0ZM854.46,646.42h104.59v9.12h-104.59v-9.12h0ZM854.46,660.09h104.59v9.12h-104.59v-9.12Z"/>
    <path class="st4" d="M18.64,209.72c5.35,0,9.68,4.34,9.68,9.68s-4.33,9.68-9.68,9.68-9.68-4.34-9.68-9.68,4.34-9.68,9.68-9.68h0ZM79.56,209.72c5.34,0,9.67,4.34,9.67,9.68s-4.34,9.68-9.67,9.68-9.68-4.34-9.68-9.68,4.34-9.68,9.68-9.68h0ZM49.1,209.72c5.34,0,9.67,4.34,9.67,9.68s-4.33,9.68-9.67,9.68-9.68-4.34-9.68-9.68,4.33-9.68,9.68-9.68Z"/>
    <path class="st20" d="M149.34,259.19h239.2v14.22h-239.2v-14.22h0ZM109.77,250.74h31.12v31.12h-31.12v-31.12Z"/>
    <g>
      <rect class="st34" x="249.86" y="340.31" width="100.9" height="84.8" rx="4.67" ry="4.67"/>
      <path class="st22" d="M306.52,386.65l-12.33-22.75-12.33,22.75-12.33,22.75h60.6l-8.63-15.92-8.63-15.92-5.64,10.41-.72-1.32h0ZM303.51,362.81c0-3.23,2.62-5.84,5.84-5.84s5.84,2.62,5.84,5.84-2.62,5.84-5.84,5.84-5.84-2.62-5.84-5.84Z"/>
      <path class="st25" d="M306.99,386.16l-12.33-22.75-12.33,22.75-12.33,22.76h60.6l-8.63-15.93-8.63-15.92-5.64,10.41-.72-1.33h0ZM303.98,362.34c0-3.23,2.62-5.84,5.84-5.84s5.84,2.62,5.84,5.84-2.62,5.84-5.84,5.84-5.84-2.62-5.84-5.84Z"/>
    </g>
    <g>
      <rect class="st34" x="381.23" y="340.31" width="100.9" height="84.8" rx="4.67" ry="4.67"/>
      <path class="st22" d="M437.89,386.65l-12.33-22.75-12.33,22.75-12.33,22.75h60.61l-8.63-15.92-8.63-15.92-5.65,10.41-.72-1.32h0ZM434.87,362.81c0-3.23,2.62-5.84,5.85-5.84s5.84,2.62,5.84,5.84-2.62,5.84-5.84,5.84-5.85-2.62-5.85-5.84Z"/>
      <path class="st25" d="M438.37,386.16l-12.33-22.75-12.33,22.75-12.33,22.76h60.61l-8.63-15.93-8.63-15.92-5.64,10.41-.72-1.33h0ZM435.35,362.34c0-3.23,2.62-5.84,5.85-5.84s5.84,2.62,5.84,5.84-2.62,5.84-5.84,5.84-5.85-2.62-5.85-5.84Z"/>
    </g>
    <g>
      <path class="st34" d="M517.26,340.31h91.56c2.58,0,4.67,2.09,4.67,4.67v75.46c0,2.58-2.09,4.67-4.67,4.67h-91.56c-2.58,0-4.67-2.09-4.67-4.67v-75.46c0-2.58,2.09-4.67,4.67-4.67Z"/>
      <path class="st22" d="M569.25,386.65l-12.33-22.75-12.33,22.75-12.33,22.75h60.6l-8.63-15.92-8.63-15.92-5.64,10.41-.72-1.32h0ZM566.24,362.81c0-3.23,2.62-5.84,5.84-5.84s5.84,2.62,5.84,5.84-2.62,5.84-5.84,5.84-5.84-2.62-5.84-5.84Z"/>
      <path class="st25" d="M569.73,386.16l-12.33-22.75-12.33,22.75-12.33,22.76h60.6l-8.63-15.93-8.63-15.92-5.64,10.41-.72-1.33h0ZM566.72,362.34c0-3.23,2.62-5.84,5.84-5.84s5.84,2.62,5.84,5.84-2.62,5.84-5.84,5.84-5.84-2.62-5.84-5.84Z"/>
    </g>
    <g>
      <rect class="st34" x="643.96" y="340.31" width="100.9" height="84.8" rx="4.67" ry="4.67"/>
      <path class="st22" d="M700.63,386.65l-12.33-22.75-12.33,22.75-12.33,22.75h60.61l-8.63-15.92-8.63-15.92-5.64,10.41-.72-1.32h0ZM697.61,362.81c0-3.23,2.62-5.84,5.85-5.84s5.84,2.62,5.84,5.84-2.62,5.84-5.84,5.84-5.85-2.62-5.85-5.84Z"/>
      <path class="st25" d="M701.1,386.16l-12.33-22.75-12.33,22.75-12.33,22.76h60.61l-8.63-15.93-8.63-15.92-5.64,10.41-.72-1.33h0ZM698.09,362.34c0-3.23,2.62-5.84,5.85-5.84s5.84,2.62,5.84,5.84-2.62,5.84-5.84,5.84-5.85-2.62-5.85-5.84Z"/>
    </g>
    <g>
      <rect class="st34" x="249.86" y="436.35" width="100.9" height="84.79" rx="4.67" ry="4.67"/>
      <path class="st22" d="M306.52,482.68l-12.33-22.75-12.33,22.75-12.33,22.75h60.6l-8.63-15.92-8.63-15.92-5.64,10.41-.72-1.33h0ZM303.51,458.85c0-3.23,2.62-5.84,5.84-5.84s5.84,2.62,5.84,5.84-2.62,5.85-5.84,5.85-5.84-2.62-5.84-5.85Z"/>
      <path class="st25" d="M306.99,482.2l-12.33-22.75-12.33,22.75-12.33,22.76h60.6l-8.63-15.92-8.63-15.92-5.64,10.41-.72-1.33h0ZM303.98,458.37c0-3.23,2.62-5.84,5.84-5.84s5.84,2.62,5.84,5.84-2.62,5.85-5.84,5.85-5.84-2.62-5.84-5.85Z"/>
    </g>
    <g>
      <rect class="st34" x="381.23" y="436.35" width="100.9" height="84.79" rx="4.67" ry="4.67"/>
      <path class="st22" d="M437.89,482.68l-12.33-22.75-12.33,22.75-12.33,22.75h60.61l-8.63-15.92-8.63-15.92-5.65,10.41-.72-1.33h0ZM434.87,458.85c0-3.23,2.62-5.84,5.85-5.84s5.84,2.62,5.84,5.84-2.62,5.85-5.84,5.85-5.85-2.62-5.85-5.85Z"/>
      <path class="st25" d="M438.37,482.2l-12.33-22.75-12.33,22.75-12.33,22.76h60.61l-8.63-15.92-8.63-15.92-5.64,10.41-.72-1.33h0ZM435.35,458.37c0-3.23,2.62-5.84,5.85-5.84s5.84,2.62,5.84,5.84-2.62,5.85-5.84,5.85-5.85-2.62-5.85-5.85Z"/>
    </g>
    <g>
      <rect class="st34" x="512.59" y="436.35" width="100.9" height="84.79" rx="4.67" ry="4.67"/>
      <path class="st22" d="M569.25,482.68l-12.33-22.75-12.33,22.75-12.33,22.75h60.6l-8.63-15.92-8.63-15.92-5.64,10.41-.72-1.33h0ZM566.24,458.85c0-3.23,2.62-5.84,5.84-5.84s5.84,2.62,5.84,5.84-2.62,5.85-5.84,5.85-5.84-2.62-5.84-5.85Z"/>
      <path class="st25" d="M569.73,482.2l-12.33-22.75-12.33,22.75-12.33,22.76h60.6l-8.63-15.92-8.63-15.92-5.64,10.41-.72-1.33h0ZM566.72,458.37c0-3.23,2.62-5.84,5.84-5.84s5.84,2.62,5.84,5.84-2.62,5.85-5.84,5.85-5.84-2.62-5.84-5.85Z"/>
    </g>
    <g>
      <rect class="st34" x="643.96" y="436.35" width="100.9" height="84.79" rx="4.67" ry="4.67"/>
      <path class="st22" d="M700.63,482.68l-12.33-22.75-12.33,22.75-12.33,22.75h60.61l-8.63-15.92-8.63-15.92-5.64,10.41-.72-1.33h0ZM697.61,458.85c0-3.23,2.62-5.84,5.85-5.84s5.84,2.62,5.84,5.84-2.62,5.85-5.84,5.85-5.85-2.62-5.85-5.85Z"/>
      <path class="st25" d="M701.1,482.2l-12.33-22.75-12.33,22.75-12.33,22.76h60.61l-8.63-15.92-8.63-15.92-5.64,10.41-.72-1.33h0ZM698.09,458.37c0-3.23,2.62-5.84,5.85-5.84s5.84,2.62,5.84,5.84-2.62,5.85-5.84,5.85-5.85-2.62-5.85-5.85Z"/>
    </g>
  </g>
  <g>
    <path class="st30" d="M742.69,69.54h208.38c8.06,0,14.6,6.54,14.6,14.6v56.93c0,8.06-6.54,14.6-14.6,14.6h-208.38c-8.06,0-14.6-6.54-14.6-14.6v-56.93c0-8.06,6.54-14.6,14.6-14.6Z"/>
    <path class="st4" d="M944.64,98.28h-27.86c-1.68,0-3.04-1.37-3.04-3.05s1.36-3.04,3.04-3.04h27.86c1.69,0,3.04,1.36,3.04,3.04s-1.36,3.05-3.04,3.05h0ZM826.57,133.02h-77.31c-1.68,0-3.04-1.36-3.04-3.04s1.36-3.04,3.04-3.04h77.31c1.68,0,3.04,1.36,3.04,3.04s-1.36,3.04-3.04,3.04h0ZM914.34,133.02h-75.3c-1.68,0-3.04-1.36-3.04-3.04s1.36-3.04,3.04-3.04h75.3c1.68,0,3.04,1.36,3.04,3.04s-1.36,3.04-3.04,3.04h0ZM797.14,115.65h-47.87c-1.68,0-3.04-1.37-3.04-3.05s1.36-3.04,3.04-3.04h47.87c1.68,0,3.04,1.36,3.04,3.04s-1.36,3.05-3.04,3.05h0ZM944.64,115.65h-134.12c-1.68,0-3.04-1.37-3.04-3.05s1.36-3.04,3.04-3.04h134.12c1.69,0,3.04,1.36,3.04,3.04s-1.36,3.05-3.04,3.05h0ZM903.88,98.28h-154.61c-1.68,0-3.04-1.37-3.04-3.05s1.36-3.04,3.04-3.04h154.61c1.68,0,3.04,1.36,3.04,3.04s-1.36,3.05-3.04,3.05Z"/>
  </g>
  <path class="st4" d="M944.64,98.28h-27.86c-1.68,0-3.04-1.37-3.04-3.05s1.36-3.04,3.04-3.04h27.86c1.69,0,3.04,1.36,3.04,3.04s-1.36,3.05-3.04,3.05h0ZM826.57,133.02h-77.31c-1.68,0-3.04-1.36-3.04-3.04s1.36-3.04,3.04-3.04h77.31c1.68,0,3.04,1.36,3.04,3.04s-1.36,3.04-3.04,3.04h0ZM914.34,133.02h-75.3c-1.68,0-3.04-1.36-3.04-3.04s1.36-3.04,3.04-3.04h75.3c1.68,0,3.04,1.36,3.04,3.04s-1.36,3.04-3.04,3.04h0ZM797.14,115.65h-47.87c-1.68,0-3.04-1.37-3.04-3.05s1.36-3.04,3.04-3.04h47.87c1.68,0,3.04,1.36,3.04,3.04s-1.36,3.05-3.04,3.05h0ZM944.64,115.65h-134.12c-1.68,0-3.04-1.37-3.04-3.05s1.36-3.04,3.04-3.04h134.12c1.69,0,3.04,1.36,3.04,3.04s-1.36,3.05-3.04,3.05h0ZM903.88,98.28h-154.61c-1.68,0-3.04-1.37-3.04-3.05s1.36-3.04,3.04-3.04h154.61c1.68,0,3.04,1.36,3.04,3.04s-1.36,3.05-3.04,3.05Z"/>
  <g>
    <path class="st8" d="M635.48,177.1h-208.38c-8.07,0-14.6-6.54-14.6-14.6v-56.93c0-8.06,6.54-14.6,14.6-14.6h208.38c8.07,0,14.6,6.54,14.6,14.6v56.93c0,8.06-6.54,14.6-14.6,14.6Z"/>
    <path class="st4" d="M629.05,119.71h-27.86c-1.69,0-3.05-1.36-3.05-3.05s1.36-3.04,3.05-3.04h27.86c1.68,0,3.04,1.36,3.04,3.04s-1.36,3.05-3.04,3.05h0ZM510.98,154.45h-77.31c-1.68,0-3.04-1.37-3.04-3.05s1.36-3.04,3.04-3.04h77.31c1.68,0,3.04,1.36,3.04,3.04s-1.36,3.05-3.04,3.05h0ZM598.75,154.45h-75.3c-1.67,0-3.04-1.37-3.04-3.05s1.37-3.04,3.04-3.04h75.3c1.68,0,3.04,1.36,3.04,3.04s-1.36,3.05-3.04,3.05h0ZM481.54,137.08h-47.87c-1.68,0-3.04-1.37-3.04-3.05s1.36-3.04,3.04-3.04h47.87c1.68,0,3.04,1.36,3.04,3.04,0,1.68-1.36,3.05-3.04,3.05h0ZM629.05,137.08h-134.13c-1.68,0-3.04-1.37-3.04-3.05s1.36-3.04,3.04-3.04h134.13c1.68,0,3.04,1.36,3.04,3.04s-1.36,3.05-3.04,3.05h0ZM588.29,119.71h-154.61c-1.68,0-3.04-1.36-3.04-3.05s1.36-3.04,3.04-3.04h154.61c1.68,0,3.04,1.36,3.04,3.04s-1.37,3.05-3.04,3.05Z"/>
  </g>
  <g>
    <path class="st8" d="M321.02,159.62H112.64c-8.06,0-14.6-6.54-14.6-14.6v-56.93c0-8.06,6.54-14.6,14.6-14.6h208.38c8.07,0,14.6,6.54,14.6,14.6v56.93c0,8.06-6.54,14.6-14.6,14.6Z"/>
    <path class="st4" d="M314.59,102.23h-27.86c-1.68,0-3.04-1.36-3.04-3.04s1.36-3.04,3.04-3.04h27.86c1.68,0,3.04,1.36,3.04,3.04s-1.36,3.04-3.04,3.04h0ZM196.52,136.97h-77.3c-1.68,0-3.04-1.37-3.04-3.05s1.36-3.04,3.04-3.04h77.3c1.68,0,3.05,1.36,3.05,3.04s-1.37,3.05-3.05,3.05h0ZM284.29,136.97h-75.3c-1.68,0-3.04-1.37-3.04-3.05s1.36-3.04,3.04-3.04h75.3c1.68,0,3.04,1.36,3.04,3.04s-1.36,3.05-3.04,3.05h0ZM167.08,119.6h-47.87c-1.68,0-3.04-1.37-3.04-3.04s1.36-3.04,3.04-3.04h47.87c1.68,0,3.04,1.36,3.04,3.04,0,1.68-1.36,3.04-3.04,3.04h0ZM314.59,119.6h-134.13c-1.68,0-3.04-1.37-3.04-3.04s1.36-3.04,3.04-3.04h134.13c1.68,0,3.04,1.36,3.04,3.04s-1.36,3.04-3.04,3.04h0ZM273.83,102.23H119.22c-1.68,0-3.04-1.36-3.04-3.04s1.36-3.04,3.04-3.04h154.61c1.68,0,3.04,1.36,3.04,3.04s-1.36,3.04-3.04,3.04Z"/>
  </g>
  <g>
    <path class="st4" d="M341.42,195.58c22.11,0,40.14-18.03,40.14-40.13s-18.03-40.13-40.14-40.13-40.13,18.03-40.13,40.13,18.02,40.13,40.13,40.13Z"/>
    <g>
      <path class="st7" d="M333.75,180.83c8.4,2.58,11.96,4.07,20.77,3.99,5.67-.05,8.25-1.44,10.29-5.57.23-.48.38-1.02.47-3.59.07-1.96,2.82-1.79,2.18-8.39-.27-.31-.05-.7.23-1.09,1.28-1.73,1.64-4.19,1.06-6.26-.5-1.79-.22-1.2.57-2.41.5-.78.75-1.51.98-2.48,1.01-4.25-1.53-7.73-4.35-8.8-.37-.06-.24.02-.55-.09-.84-.32-.16-.02-.48-.32-3.99-.17-8.19,0-12.25-.13.04-.9.39-1.25.63-1.94,1.59-3.16,3.16-7.37,2.51-11.01-.69-3.8-3.48-6.18-7.26-6.59-1.72-.18-2.53-.04-3.32.98-2.05,2.67-2.28,7.3-3.71,10.87-1.26,1.65-1.95,2.21-3.16,3.64l-.86,1.22c-1.7,1.99-3.33,4.13-5.13,6.06-2.18,2.35-3.2,1.22-4.27,2.77-.81,1.18-.41,11.62-.41,13.89,0,16.61-1.24,13.01,6.06,15.26h0ZM325.96,176.55v-22.37c0-1.25-1.03-2.27-2.27-2.27h-9.1c-1.25,0-2.27,1.03-2.27,2.27v22.37c0,1.25,1.02,2.27,2.27,2.27h9.1c1.25,0,2.27-1.02,2.27-2.27Z"/>
      <path class="st16" d="M333.75,180.83c8.4,2.58,11.96,4.07,20.77,3.99,5.67-.05,8.25-1.44,10.29-5.57.23-.48.38-1.02.47-3.59.07-1.96,2.82-1.79,2.18-8.39-.27-.31-.05-.7.23-1.09,1.28-1.73,1.63-4.19,1.05-6.26-.5-1.78-.22-1.2.57-2.41.5-.78.75-1.51.98-2.48,1.01-4.25-1.52-7.73-4.35-8.8-.37-.06-.24.02-.55-.09-.84-.32-.16-.02-.48-.32-3.99-.17-8.19,0-12.25-.13.04-.9.39-1.25.63-1.94,1.58-3.16,3.16-7.38,2.51-11.01-.68-3.8-3.48-6.18-7.26-6.59-1.72-.18-2.53-.04-3.32.98-2.05,2.67-2.28,7.3-3.72,10.87-1.25,1.65-1.94,2.21-3.16,3.64l-.86,1.22c-1.7,1.99-3.33,4.13-5.13,6.06-2.18,2.35-3.2,1.22-4.27,2.77-.81,1.18-.41,11.62-.41,13.89,0,16.61-1.24,13.01,6.06,15.26Z"/>
    </g>
  </g>
  <g>
    <path class="st4" d="M662.35,120.02c22.11,0,40.14-18.03,40.14-40.13s-18.03-40.14-40.14-40.14-40.13,18.03-40.13,40.14,18.03,40.13,40.13,40.13Z"/>
    <g>
      <path class="st7" d="M654.68,105.26c8.39,2.59,11.96,4.08,20.77,4,5.67-.05,8.26-1.44,10.3-5.57.23-.48.37-1.02.47-3.59.07-1.96,2.82-1.79,2.18-8.39-.27-.31-.06-.7.23-1.09,1.28-1.73,1.63-4.19,1.05-6.26-.49-1.79-.21-1.2.58-2.41.5-.78.74-1.51.98-2.48,1.02-4.25-1.52-7.73-4.35-8.8-.36-.05-.24.02-.54-.09-.85-.32-.16-.02-.48-.32-3.99-.17-8.19,0-12.25-.13.04-.9.39-1.25.63-1.94,1.59-3.16,3.16-7.38,2.51-11.02-.69-3.8-3.49-6.18-7.26-6.58-1.73-.18-2.53-.04-3.32.98-2.06,2.67-2.28,7.3-3.72,10.87-1.26,1.65-1.94,2.21-3.16,3.64l-.86,1.23c-1.7,1.99-3.33,4.13-5.13,6.05-2.19,2.35-3.2,1.22-4.27,2.77-.82,1.18-.42,11.62-.42,13.89,0,16.61-1.24,13.01,6.06,15.25h0ZM646.89,100.99v-22.37c0-1.25-1.03-2.27-2.28-2.27h-9.1c-1.25,0-2.27,1.02-2.27,2.27v22.37c0,1.25,1.03,2.27,2.27,2.27h9.1c1.25,0,2.28-1.02,2.28-2.27Z"/>
      <path class="st16" d="M654.68,105.26c8.39,2.59,11.96,4.08,20.77,4,5.67-.05,8.26-1.44,10.3-5.57.23-.48.37-1.02.47-3.59.07-1.96,2.82-1.79,2.18-8.39-.27-.31-.06-.7.23-1.09,1.28-1.73,1.63-4.19,1.05-6.26-.49-1.79-.21-1.2.58-2.41.5-.78.74-1.51.98-2.48,1.02-4.25-1.52-7.73-4.35-8.8-.36-.05-.24.02-.54-.09-.85-.32-.16-.02-.48-.32-3.99-.17-8.19,0-12.25-.13.04-.9.39-1.25.63-1.94,1.59-3.16,3.16-7.38,2.51-11.01-.69-3.8-3.48-6.18-7.26-6.59-1.73-.18-2.53-.04-3.32.98-2.05,2.67-2.28,7.3-3.72,10.87-1.26,1.64-1.94,2.21-3.16,3.64l-.86,1.23c-1.7,1.99-3.33,4.13-5.13,6.05-2.18,2.35-3.19,1.22-4.26,2.76-.82,1.19-.42,11.62-.42,13.89,0,16.61-1.24,13.01,6.06,15.25Z"/>
    </g>
  </g>
  <g>
    <path class="st4" d="M955.21,192.97c18.74,0,34.02-15.28,34.02-34.02s-15.29-34.02-34.02-34.02-34.02,15.28-34.02,34.02,15.28,34.02,34.02,34.02Z"/>
    <g>
      <path class="st7" d="M948.71,180.46c7.11,2.19,10.13,3.46,17.6,3.39,4.8-.05,7-1.22,8.73-4.72.2-.4.32-.87.4-3.05.06-1.66,2.39-1.52,1.85-7.11-.23-.26-.05-.59.2-.93,1.08-1.47,1.38-3.55.89-5.31-.42-1.51-.18-1.02.48-2.04.43-.66.63-1.28.83-2.1.86-3.61-1.29-6.56-3.68-7.46-.31-.05-.21.02-.47-.08-.71-.27-.13-.02-.41-.27-3.38-.14-6.94,0-10.38-.12.04-.76.33-1.06.53-1.64,1.35-2.68,2.68-6.25,2.13-9.34-.58-3.22-2.96-5.23-6.16-5.58-1.46-.16-2.14-.04-2.81.83-1.74,2.26-1.93,6.18-3.15,9.22-1.07,1.39-1.65,1.88-2.68,3.08l-.73,1.04c-1.44,1.68-2.83,3.49-4.35,5.13-1.85,1.99-2.71,1.04-3.62,2.35-.69,1-.35,9.85-.35,11.78,0,14.08-1.05,11.02,5.14,12.93h0ZM942.1,176.84v-18.96c0-1.06-.87-1.93-1.93-1.93h-7.71c-1.06,0-1.92.87-1.92,1.93v18.96c0,1.06.86,1.93,1.92,1.93h7.71c1.06,0,1.93-.87,1.93-1.93Z"/>
      <path class="st16" d="M948.71,180.46c7.11,2.19,10.13,3.46,17.6,3.39,4.8-.05,7-1.22,8.73-4.72.2-.4.32-.87.4-3.05.06-1.66,2.39-1.51,1.85-7.11-.23-.26-.05-.6.2-.93,1.08-1.46,1.38-3.55.89-5.31-.42-1.51-.18-1.02.48-2.04.43-.66.64-1.28.83-2.1.86-3.61-1.29-6.56-3.68-7.46-.31-.05-.21.02-.47-.08-.71-.27-.13-.02-.41-.27-3.38-.14-6.94,0-10.38-.11.04-.77.33-1.06.53-1.65,1.35-2.68,2.68-6.25,2.13-9.34-.58-3.22-2.96-5.23-6.16-5.58-1.46-.16-2.14-.04-2.81.83-1.74,2.26-1.93,6.18-3.15,9.22-1.07,1.39-1.65,1.88-2.68,3.08l-.73,1.04c-1.44,1.68-2.83,3.49-4.35,5.13-1.85,1.99-2.71,1.04-3.62,2.35-.69,1-.35,9.85-.35,11.78,0,14.08-1.05,11.02,5.14,12.93Z"/>
    </g>
  </g>
  <g>
    <g>
      <g>
        <path class="st27" d="M1024.33,761.69v44.58h5.48v58.59l58.06,3.99c2.48.17,4.53,2.05,4.53,4.52v4.54h-149.2v-5.27c0-2.09,1.71-3.65,3.79-3.79l58.8-3.99v-58.59h5.48v-44.58h13.06ZM1091.77,903.52c5.36,0,9.7-4.34,9.7-9.7s-4.34-9.69-9.7-9.69-9.69,4.34-9.69,9.69,4.34,9.7,9.69,9.7h0ZM991.77,884.13c5.35,0,9.69,4.34,9.69,9.69s-4.34,9.7-9.69,9.7-9.69-4.34-9.69-9.7,4.34-9.69,9.69-9.69h0ZM1046.57,884.13c5.36,0,9.7,4.34,9.7,9.69s-4.34,9.7-9.7,9.7-9.69-4.34-9.69-9.7,4.34-9.69,9.69-9.69h0ZM946.57,884.13c5.35,0,9.69,4.34,9.69,9.69s-4.34,9.7-9.69,9.7-9.69-4.34-9.69-9.7,4.34-9.69,9.69-9.69Z"/>
        <path class="st33" d="M1091.76,904.26c-5.75,0-10.43-4.68-10.43-10.43s4.68-10.43,10.43-10.43,10.45,4.68,10.45,10.43-4.7,10.43-10.45,10.43ZM1091.76,884.87c-4.93,0-8.94,4.02-8.94,8.96s4.01,8.96,8.94,8.96,8.96-4.02,8.96-8.96-4.01-8.96-8.96-8.96ZM1046.56,904.26c-5.75,0-10.43-4.68-10.43-10.43s4.68-10.43,10.43-10.43,10.45,4.68,10.45,10.43-4.7,10.43-10.45,10.43ZM1046.56,884.87c-4.93,0-8.94,4.02-8.94,8.96s4.01,8.96,8.94,8.96,8.96-4.02,8.96-8.96-4.01-8.96-8.96-8.96ZM991.78,904.26c-5.75,0-10.45-4.68-10.45-10.43s4.7-10.43,10.45-10.43,10.43,4.68,10.43,10.43-4.68,10.43-10.43,10.43ZM991.78,884.87c-4.95,0-8.96,4.02-8.96,8.96s4.01,8.96,8.96,8.96,8.94-4.02,8.94-8.96-4.01-8.96-8.94-8.96ZM946.56,904.26c-5.75,0-10.43-4.68-10.43-10.43s4.68-10.43,10.43-10.43,10.45,4.68,10.45,10.43-4.7,10.43-10.45,10.43ZM946.56,884.87c-4.93,0-8.94,4.02-8.94,8.96s4.01,8.96,8.94,8.96,8.96-4.02,8.96-8.96-4.01-8.96-8.96-8.96ZM1093.15,878.63h-150.7v-6.01c0-2.41,1.93-4.36,4.47-4.53l58.11-3.94v-58.63h5.48v-44.58h14.56v44.58h5.48v58.63l57.36,3.94c2.98.21,5.23,2.46,5.23,5.26v5.27ZM943.95,877.16h147.72v-3.8c0-2.01-1.64-3.64-3.86-3.79l-58.74-4.03v-58.54h-5.48v-44.58h-11.58v44.58h-5.48v58.54l-.69.05-58.8,3.98c-1.78.12-3.09,1.43-3.09,3.06v4.54Z"/>
      </g>
      <g>
        <path class="st14" d="M1000.16,506.64h161.56l-54.14,233.48-169.79.17,54.7-225.98c.99-4.1,3.45-7.67,7.67-7.67Z"/>
        <path class="st33" d="M936.86,741.02l.21-.91,54.69-225.98c1.28-5.23,4.34-8.23,8.4-8.23h162.5l-.21.9-54.29,234.06h-.59l-170.72.16ZM1000.16,507.38c-4.74,0-6.44,4.97-6.95,7.11l-54.48,225.07,168.25-.16,53.81-232.01h-160.63Z"/>
      </g>
      <g>
        <path class="st10" d="M893.3,740.29h146.74v31.19h-159.77v-18.16c0-7.17,5.86-13.03,13.03-13.03Z"/>
        <path class="st33" d="M1040.78,772.22h-161.26v-18.9c0-7.59,6.19-13.76,13.79-13.76h147.47v32.66ZM881.01,770.75h158.28v-29.72h-145.98c-6.78,0-12.3,5.51-12.3,12.29v17.43Z"/>
      </g>
      <g>
        <path class="st27" d="M1161.72,506.64h25.05l-57.71,249.5c-3.62,15.65-12.73,14.96-12.73,15.34h-76.3v-.43l-85.58.51.03-.15,85.54-.51v-30.61h67.64l54.04-233.65Z"/>
        <path class="st33" d="M954.45,772.29c-.23,0-.44-.11-.57-.28-.15-.18-.19-.42-.13-.64.08-.32.4-.71.74-.71l84.81-.5v-29.89c0-.4.32-.74.73-.74h67.05l53.94-233.07c.08-.33.36-.57.71-.57h25.04c.23,0,.44.11.57.28s.19.4.13.62l-57.71,249.5c-2.14,9.27-6.46,14.57-12.82,15.76-.1,0-.15.03-.23.04-.1.08-.23.11-.38.11h-76.31c-.31,0-.55-.18-.67-.44l-84.91.52h0ZM1040.76,770.75h75.42c.17-.07.34-.1.52-.12,5.73-1.07,9.67-6,11.67-14.64l57.5-248.6h-23.53l-53.94,233.07c-.08.33-.36.57-.71.57h-66.91v29.72Z"/>
      </g>
    </g>
    <path class="st16" d="M906.72,659.27c-3.88,1.72-20.82,1.77-26.87.43-6.04-1.33-1.51-9.82.77-12.23.59-.62,14.54-7.17,19.07-8.46,1.72.63,9.63,3.34,15.68,2.46.19,3.8-.3,8.98,1.73,14.8-2.37.93-8.77,2.28-10.38,3Z"/>
    <path class="st1" d="M988.13,532.34c11.74,37.53.21,38.69,7.75,61.85,5.51,16.89-1.77,52.13-14.57,56.55-22.85,7.89-62.26,9.4-65.65,6.5-3.98-3.4-4.58-15.25-4.01-16.96.57-1.71,52.47-21.03,52.47-21.03,4.85-104.57,37.19-104.74,24.01-86.91Z"/>
    <path class="st15" d="M1010.04,455.32s5.89,38.41,6.96,53.47c.53,7.57,1.3,13.66-3.46,18.74,0,0,11.85,1.16,15.87-2.12,0,0-.79,1.61-1.51,2.32,0,0,13.25.49,18.73-3.66,14.95-7.67,18.58-122.19-37.06-108.16,0,0-36.77-3.13-33.86,32.95-.61,42.85-4.37,94.91-7.24,102.37,4.14,2.37,14.12-5.42,15.36-8.83,1.09-3.03,1.7-6.54,2.01-7.44,0,0-1.3,10.35-1.9,10.99,0,0,15.17-16.77,21.52-21.57,6.34-4.8,6.39-61.62,4.58-69.06Z"/>
    <path class="st15" d="M1018.66,470.04s7.82-12.37,9.71-22.96c1.34-7.55-2.51-35.54-30.64-31.52,0,0-8.18.81-15.86,6-6.11,4.13-14.92,13.04-5.06,37.46l2.56,8.26,39.3,2.77Z"/>
    <path class="st5" d="M974.29,551.07c6.54-17.07,15.09-34.14,22.28-35.99,0,0,.25,12.12.67,29.11-2.76,37.6-9.19,99.54-10.38,113.47-59.02,18.5-10.05,2.74-12.58-106.59Z"/>
    <path class="st1" d="M1038.8,507.99s13.94,7,26.14,14.51c6.81,4.19,13.85,16.92,11.89,19.17-1.34,1.54-5.13-1.09-4.1-.57,8.53,4.35-12.68,123.77-19.9,129.25-7.21,5.47-70.75.94-77.98-5.96-7.24-6.9,5.55-28.06-.71-70.43-6.26-42.38,19.09-78.96,22.35-78.88,3.25.08,24.51-7.09,24.51-7.09h17.81Z"/>
    <path class="st5" d="M1052.81,670.34c-7.21,5.47-52.67,5.59-72.03-.43-2.18-.68-12.1-4.63-12.33-8.35,2.33-.43,11.61.68,15.37-.19,13.09-3,20.3-19.22,20.3-19.22,0,0,7.21-2.59,23.33-9.42,16.13-6.83,9.48-27.51,9.86-36.61.38-9.11,10.3-31.89,39.51-54.46l2.73,5.37c2.08,20.75-20.06,118.24-26.74,123.3Z"/>
    <path class="st16" d="M1025.39,458.98l14.2,51.93s-24,37.48-30.61,34.15c-6.6-3.33,3.69-30.46,3.69-34.15s-10.3-41.73-10.3-41.73l23.01-10.2Z"/>
    <path class="st0" d="M1012.18,513.55c.31-1.23.5-2.16.5-2.65,0-3.69-10.3-41.73-10.3-41.73l23.01-10.2,4.7,17.19c-4.11,17.75-11.52,29.57-17.91,37.39Z"/>
    <path class="st16" d="M978.09,463.15c.1,7.99,3.29,20,10.49,30.4,7.06,10.19,12.27,10.93,21.41,4.85,7.89-5.26,17.29-17.3,16.42-29.84,2.36-18.13-7.22-34.32-21.41-36.17-14.18-1.85-27.94,12.51-26.92,30.77Z"/>
    <path class="st16" d="M912.04,664.66c-27.56-4.19-36.93-2.87-53.81,28.53-16.87,31.39-39.32,87.93-52.24,95.23-19.45,10.99-25.89,37.95-33.88,36.74-7.98-1.21-13.13,2.32-4.44,9.54,8.69,7.22,22.72,13.37,27.52,12.09,4.8-1.28,8.52-22.01,21.05-28.74,12.53-6.73,8.76-12.26,7.94-18.21-.82-5.96,36.58-33.37,64.78-67.46,17.23-20.84,26.11-34.58,27.42-47.05,1.31-12.47-4.35-20.67-4.35-20.67Z"/>
    <path class="st11" d="M843.7,778.51c6.4-16.24,12.83-43.05,18.86-67.62,8.58-34.96,17.58-43.25,23.28-46.98,6.89-1.73,15.05-.94,26.19.76,0,0,5.67,8.2,4.35,20.67-1.31,12.46-10.19,26.21-27.42,47.05-14.84,17.95-32.24,34.05-45.27,46.14Z"/>
    <path class="st18" d="M903.65,692.29s7.34,55.35,14.17,60.97c4.88,4.03,8.34,4.29,11.76-12.22,3.42-16.51-5.31-78.11-5.31-78.11l-20.61,29.35Z"/>
    <polygon class="st13" points="909.49 722.25 977.37 733.65 939.05 678.7 909.88 672.76 892.4 676.78 909.49 722.25"/>
    <path class="st11" d="M1050.6,666.88c24.08,43.22,7.63,70.68-21.64,73.49-29.27,2.8-75.48-2.54-102.42-24.93-26.94-22.38-49.05-46.05-45.96-49.58,3.09-3.53,170.02,1.03,170.02,1.03Z"/>
    <path class="st16" d="M914.01,699.13c-4.93-14.8-10.61-26.15-21.62-26.36-11.58-.21-18.7,5.81-19.19,24.74-.59,22.55-1.38,97.22-.34,130.42.79,25.14-6.54,33.17-5.92,59.38.46,19.73-20.58,9.76-12.45,20,5.59,7.04,22.22,4.73,32.44,3.43,9.1-1.15-4.71-28.44,7.89-35.74,10.81-6.25,11.02-16.42,4.2-24.11-6.83-7.7-.76-30.46,3.79-46.39,4.55-15.93,11.62-33.17,16.25-70.84,1.32-10.74-2.04-25.49-5.06-34.52Z"/>
    <path class="st5" d="M1008.62,511.97c-3.88,14.22-4.62,22.96-3.95,28.47.31,2.55,1.11,4.34,2.37,5.35,1.44,1.14,3.25,1.25,5.4.31,2.97-1.29,6.89-4.86,11.68-10.74h0c3.86-4.6,9.12-12.54,15.23-21.79l2.08-3.15-3.21-1.42-1.76,2.66c-6.06,9.16-11.27,17.03-15,21.49l-.02.02c-4.43,5.46-7.92,8.7-10.39,9.78-.88.39-1.51.43-1.87.15-.53-.42-.89-1.44-1.09-3.05-.55-4.56.73-13.14,3.64-24.79.34-1.39.72-2.86.93-4.54l-4.05,1.26Z"/>
    <path class="st15" d="M861.7,899.25c3.49,1.06,7.78,2.23,11.53,2.36,7.59.25,9.86-8.1,10.37-19.44.44-9.9,7.63-25.49,15.01-31.81.13.18.27.35.42.52,6.83,7.69,6.62,17.86-4.2,24.11-12.6,7.3,1.21,34.58-7.89,35.74-10.21,1.3-26.85,3.6-32.44-3.43-5.28-6.65,1.27-7.18,7.2-8.06Z"/>
    <path class="st15" d="M772.93,825.16c2.94,2.62,6.65,5.73,10.38,7.66,7.57,3.9,14.59-2.3,21.49-11.97,6.03-8.45,12.6-20.77,23.66-22.72.04.22.08.44.13.66,2.61,10.04,6.18,20.99-8.34,21.22-16.92.28-18.24,30.84-28.15,27.44-11.12-3.81-29.33-9.86-31.04-18.73-1.62-8.38,5.33-5.67,11.86-3.56Z"/>
    <path class="st15" d="M897.32,848.07s11.07,11.55,10.05,16.36c-1.01,4.81-4.42,16.94-4.99,26.3-.57,9.36-1.08,20.1-1.08,20.1,0,0-3.98,0-4.3-1.13-.32-1.13-2.53-38.04-2.53-38.04l2.85-23.6Z"/>
    <path class="st15" d="M828.48,798.13s4.74,15.47,1,19.18c-3.74,3.71-4.54,12.21-10.39,20.12-5.85,7.91-12.42,17.06-12.42,17.06,0,0-4.05-1.93-3.73-3.08.31-1.14,18.85-34.5,18.85-34.5l6.69-18.79Z"/>
    <path class="st12" d="M1062.2,662.94s11.17,45.86,1.8,68.74c-4.75,11.58-11.88,12.93-41.04,12.23-28.32-.69-64-1.34-73.58-1.79-11.96-.68-25.12,12.84-25.12,12.84,0,0,8.35-33.82,2.66-61.13-5.69-27.32-14.88-29.15-14.88-29.15l12.22-1.73h137.94Z"/>
    <path class="st1" d="M1065.43,647.09c-6.1,12.96,6.58,35.35,2.13,41.8-4.45,6.45-29.9.9-46.58-12.52-16.68-13.42-48.24-16.37-48.24-16.37l92.68-12.9Z"/>
    <path class="st16" d="M1001.58,659.27c-3.87,1.72-20.82,1.77-26.87.43-6.04-1.33-1.51-9.82.77-12.23.59-.62,14.54-7.17,19.08-8.46,1.72.63,9.63,3.34,15.68,2.46.19,3.8-.3,8.98,1.73,14.8-2.37.93-8.76,2.28-10.38,3Z"/>
    <path class="st1" d="M1064.42,649.55c-.17,1.06-.79,3.49-.63,4.35-.67.08-2.05.12-2.72.2-2.62.32-5.24.63-7.82.92-1.42.17-2.83.32-4.22.48-17.69,1.96-32.83,3.2-34.53,1.75,13.42-2.05,13.95-2.49,15.03-2.57,12.99-.89,23.97-3.81,34.89-5.12Z"/>
    <path class="st15" d="M988.91,429.51c-17.48,10.25-11.98,17.23-16.5,26.54,0,0-5.25-18.01,2.96-27.93,8.69-10.54,13.54,1.4,13.54,1.4Z"/>
    <path class="st15" d="M986.57,428.64s6.9,27.05,25.64,35.71c0,0-18.74-16.62-20.33-34.48-1.6-17.85-5.3-1.23-5.3-1.23Z"/>
    <path class="st15" d="M982.06,428.55c2.32-1.09,3.93-.86,4.82.68-.6,3.67-2.32,6.37-5.15,8.14.94-1.59,1.05-4.53.33-8.81Z"/>
    <path class="st15" d="M1008.03,421.51c-3.06-.86-4.39-2.37-3.98-4.55,3.53-2.95,7.34-4.1,11.43-3.46-2.17.73-4.66,3.4-7.45,8.01Z"/>
    <g>
      <path class="st15" d="M985.51,425.66s9.68,25.84,24.53,29.65c14.85,3.83,21.31-.15,21.31-.15,0,0-11.39-9.05-13.76-24.85,0,0-24.78-16.95-32.08-4.65Z"/>
      <path class="st31" d="M1021.88,459.09c-3.3,0-7.41-.44-12.38-1.73-15.72-4.04-25.56-29.86-25.98-30.95l-.34-.96.52-.87c1.62-2.72,4.05-4.46,7.2-5.17,11.02-2.45,27.18,8.68,27.87,9.15l.76.53.13.91c2.22,14.73,12.89,23.42,13.01,23.51l2.33,1.87-2.54,1.58c-.19.12-3.55,2.13-10.58,2.13ZM987.88,425.92c1.93,4.68,10.66,24.26,22.69,27.34,8.29,2.15,13.79,1.71,16.79,1.05-3.61-3.73-9.76-11.54-11.71-22.75-4.89-3.18-16.79-9.62-23.84-8.02-1.66.37-2.96,1.16-3.94,2.38Z"/>
    </g>
    <path class="st15" d="M1025.11,483.07c-.13-.43-.24-.84-.33-1.26,1.14-3.74,1.53-8.01.99-12.69,3.59-3.16,11.36-.47,17.94,1.54,7.72,26.93,6.69,76.75,1.25,78.37-3.31,4.14-11.32,3.66-11.32,3.66.44-.71.92-2.32.92-2.32-2.44,3.28-9.59,2.13-9.59,2.13,2.88-5.09,2.41-11.18,2.08-18.75-.27-6.49-1.1-40.45-1.93-50.67Z"/>
    <path class="st16" d="M1021.38,468.15c.24,4.56,3.17,8.12,6.54,7.95,3.37-.18,5.91-4.03,5.66-8.59-.24-4.57-3.17-8.12-6.54-7.95-3.37.18-5.91,4.03-5.66,8.59Z"/>
    <path class="st15" d="M1028.13,454.49c-4.05-2.94-7.22-3.11-9.5-.48-.2,7.25,2.1,13.08,6.89,17.5-1.22-3.41-.35-9.08,2.61-17.03Z"/>
    <path class="st15" d="M980.93,441.31c-1.9-7.07-3.87-9.15-5.91-6.24-1.76,11.54-1.64,22.24.39,32.11,0-6.18,1.84-14.8,5.51-25.87Z"/>
    <path class="st15" d="M998.09,430.55c2.25-6.96,1.73-9.78-1.56-8.45-7.76,8.72-13.46,17.78-17.13,27.16,5.97-5.51,19.54-12.66,18.69-18.72Z"/>
    <path class="st15" d="M1007.44,420.81c1.19-.86,1.71-2.37,1.55-4.54-1.37-2.95-2.86-4.11-4.45-3.46.85.73,1.81,3.4,2.9,8.01Z"/>
    <path class="st5" d="M1009.28,542.14c-1.9-.32-3.81,1.64-4.29,4.39-.47,2.75.68,5.25,2.58,5.57,1.89.33,3.81-1.64,4.29-4.39.47-2.74-.68-5.24-2.58-5.57Z"/>
    <path class="st5" d="M1007.14,550.56c-1.16-.2-2.35,1.01-2.64,2.71-.29,1.7.42,3.23,1.59,3.43,1.17.2,2.35-1.01,2.64-2.71.29-1.69-.42-3.23-1.59-3.43Z"/>
    <path class="st5" d="M1006.01,555.84c-1.02-.18-2.06.89-2.32,2.37-.25,1.49.37,2.84,1.4,3.02,1.02.18,2.06-.89,2.32-2.38.26-1.49-.37-2.83-1.39-3.01Z"/>
    <path class="st1" d="M1076.25,536.9c11.74,37.53,9.91,34.13,17.46,57.29,5.5,16.89,14.22,42.6,1.41,47.02-22.85,7.89-78.24,18.93-81.63,16.02-3.99-3.41-4.58-15.25-4.01-16.96.57-1.71,57.39-22.87,57.39-22.87,0,0-7.51-14.63-10.36-43.23-2.84-28.59,16.91-40.96,19.74-37.28Z"/>
    <path class="st9" d="M998.24,462.49c9.14-4.03,7.94-3.5,16.45-1.63-3.63-3.22-8.55-3.51-13.42-1.61-2.27.89-2.71.9-3.03,3.24Z"/>
    <path class="st9" d="M992.92,461.63c-8.24-4.04-7.16-3.51-14.85-1.63,3.28-3.22,7.72-3.51,12.11-1.61,2.06.89,2.45.9,2.74,3.24Z"/>
    <g>
      <path class="st9" d="M987.56,467.52c-1.38,0-2.76-1.52-3.09-3.41-.34-1.88.51-3.41,1.89-3.41s2.76,1.53,3.09,3.41c.34,1.89-.51,3.41-1.89,3.41Z"/>
      <path class="st19" d="M987.17,465.32c-.49,0-.98-.54-1.1-1.21-.12-.66.18-1.2.67-1.2s.98.54,1.1,1.2c.12.67-.18,1.21-.66,1.21Z"/>
      <path class="st19" d="M986.89,462.31c-.13,0-.27-.14-.3-.33-.03-.18.05-.33.18-.33.85,0,1.71.95,1.92,2.11.03.18-.05.33-.18.33s-.27-.15-.3-.33c-.14-.8-.74-1.45-1.32-1.45Z"/>
    </g>
    <g>
      <path class="st9" d="M1005.4,468.37c-1.38,0-2.76-1.53-3.09-3.41-.34-1.88.51-3.41,1.89-3.41s2.76,1.53,3.1,3.41c.33,1.89-.52,3.41-1.89,3.41Z"/>
      <path class="st19" d="M1005.01,466.17c-.49,0-.98-.54-1.1-1.21-.12-.67.18-1.2.67-1.2s.98.54,1.09,1.2c.12.67-.18,1.21-.66,1.21Z"/>
      <path class="st19" d="M1004.73,463.17c-.13,0-.27-.14-.3-.33-.03-.18.05-.33.18-.33.85,0,1.71.95,1.92,2.12.03.18-.05.33-.18.33s-.27-.15-.3-.33c-.14-.8-.74-1.46-1.32-1.46Z"/>
    </g>
    <path class="st0" d="M993.36,464.01c.05-.31.33-.52.63-.48.31.04.52.32.48.63-.52,3.65-1.11,6.68-1.77,9.1-.55,2.01-1.16,3.6-1.82,4.76l4.65.96c.3.06.49.36.43.66-.06.31-.35.5-.66.44l-5.43-1.13-.83-.17.48-.69c.76-1.08,1.47-2.79,2.1-5.12.64-2.35,1.22-5.34,1.73-8.95Z"/>
    <path class="st4" d="M1007.28,485.63c-5.16,8.17-10.26,8.98-15.31,2.42,7.88-.13,12.98-.94,15.31-2.42Z"/>
    <g>
      <path class="st8" d="M686.84,656.3h300.65v10.16h-296.9c-2.06,0-3.75-1.69-3.75-3.75v-6.41Z"/>
      <path class="st14" d="M701.34,678.43h278.42v-12.17h-283.61v6.98c0,2.86,2.34,5.19,5.19,5.19Z"/>
      <path class="st14" d="M1100.77,656.3h-113.27v10.16h108.39c2.68,0,4.88-2.19,4.88-4.88v-5.29Z"/>
      <path class="st10" d="M1085.83,678.43h-106.07v-12.17h110.84v7.4c0,2.62-2.15,4.77-4.77,4.77Z"/>
      <polygon class="st14" points="704.78 678.43 737.39 678.43 737.39 903.69 726.8 903.69 704.78 678.43"/>
      <rect class="st36" x="731.56" y="678.43" width="5.82" height="225.27"/>
      <polygon class="st14" points="765.34 678.43 797.94 678.43 797.94 903.69 787.36 903.69 765.34 678.43"/>
      <rect class="st33" x="792.12" y="678.43" width="5.82" height="225.27"/>
      <polygon class="st14" points="1020.79 678.43 988.18 678.43 988.18 903.69 998.77 903.69 1020.79 678.43"/>
      <rect class="st33" x="988.18" y="678.43" width="5.82" height="225.27"/>
      <polygon class="st14" points="1079.65 678.43 1047.04 678.43 1047.04 903.69 1057.63 903.69 1079.65 678.43"/>
      <rect class="st32" x="1047.04" y="678.43" width="5.82" height="225.27"/>
    </g>
    <g>
      <path class="st14" d="M808.22,520.1h147.78c1.05,0,1.57.91,1.91,1.9l27.53,80.45c.34.99-.86,1.91-1.9,1.91h-147.89c-1.05,0-1.57-.91-1.91-1.91l-27.42-80.45c-.34-.99.85-1.9,1.91-1.9Z"/>
      <path class="st10" d="M947.05,520.1h8.95c1.05,0,1.57.91,1.91,1.9l27.53,80.45c.34.99-.86,1.91-1.9,1.91h-6.18l-30.3-84.26Z"/>
      <path class="st10" d="M870.08,579.74h35.09c.25,0,.37.22.45.46l6.54,19.11c.08.23-.2.45-.45.45h-35.12c-.25,0-.38-.22-.45-.45l-6.51-19.11c-.08-.24.2-.46.45-.46Z"/>
      <path class="st27" d="M870.08,579.74h5.66l7.98,20.01h-7.13c-.25,0-.38-.22-.45-.45l-6.51-19.11c-.08-.24.2-.46.45-.46Z"/>
      <path class="st10" d="M838.23,595.65h16c.12,0,.16.07.19.15l2.29,6.11c.03.07-.11.14-.22.14h-16.01c-.12,0-.17-.07-.19-.14l-2.28-6.11c-.03-.08.11-.15.22-.15Z"/>
      <path class="st27" d="M838.23,595.65h2.58l2.92,6.41h-3.25c-.12,0-.17-.07-.19-.14l-2.28-6.12c-.03-.07.11-.14.22-.14Z"/>
      <path class="st10" d="M951.05,595.65h16c.12,0,.17.07.19.15l2.29,6.11c.03.07-.11.14-.23.14h-16.01c-.12,0-.16-.07-.19-.14l-2.28-6.11c-.03-.08.11-.15.22-.15Z"/>
      <path class="st27" d="M951.05,595.65h2.58l2.92,6.41h-3.25c-.11,0-.16-.07-.19-.14l-2.28-6.12c-.03-.07.11-.14.22-.14Z"/>
      <path class="st10" d="M908.64,596.01h-26.69c-.19,0-.36.57-.5,1.19l-11.66,50.43c-.14.62,0,1.2.18,1.2h26.71c.19,0,.36-.58.5-1.2l11.64-50.43c.14-.62,0-1.19-.19-1.19Z"/>
      <path class="st27" d="M908.64,596.01h-4.3l-13.08,52.82h5.42c.19,0,.36-.58.5-1.2l11.64-50.43c.14-.62,0-1.19-.19-1.19Z"/>
      <path class="st14" d="M859.64,648.83h58.54v7.41h-62.25v-3.71c0-2.04,1.66-3.7,3.7-3.7Z"/>
      <path class="st27" d="M926.24,648.83h-8.05v7.41h10.91v-4.56c0-1.57-1.28-2.86-2.86-2.86Z"/>
    </g>
  </g>
  <g>
    <g>
      <g>
        <path class="st27" d="M248.38,790.46v48.92h-6.01v64.28l-63.71,4.37c-2.72.19-4.97,2.25-4.97,4.97v4.97h163.71v-5.78c0-2.29-1.87-4.01-4.16-4.16l-64.51-4.37v-64.28h-6.01v-48.92h-14.33ZM174.38,946.08c-5.87,0-10.64-4.76-10.64-10.63s4.76-10.64,10.64-10.64,10.64,4.76,10.64,10.64-4.76,10.63-10.64,10.63h0ZM284.1,924.81c-5.87,0-10.63,4.76-10.63,10.64s4.76,10.63,10.63,10.63,10.63-4.76,10.63-10.63-4.76-10.64-10.63-10.64h0ZM223.98,924.81c-5.88,0-10.64,4.76-10.64,10.64s4.76,10.63,10.64,10.63,10.63-4.76,10.63-10.63-4.76-10.64-10.63-10.64h0ZM333.7,924.81c-5.88,0-10.64,4.76-10.64,10.64s4.76,10.63,10.64,10.63,10.63-4.76,10.63-10.63-4.76-10.64-10.63-10.64Z"/>
        <path class="st33" d="M333.69,946.89c-6.3,0-11.44-5.13-11.44-11.43s5.14-11.44,11.44-11.44,11.44,5.13,11.44,11.44-5.14,11.43-11.44,11.43ZM333.69,925.62c-5.43,0-9.84,4.41-9.84,9.84s4.41,9.83,9.84,9.83,9.84-4.41,9.84-9.83-4.41-9.84-9.84-9.84ZM284.1,946.89c-6.3,0-11.44-5.13-11.44-11.43s5.14-11.44,11.44-11.44,11.44,5.13,11.44,11.44-5.14,11.43-11.44,11.43ZM284.1,925.62c-5.43,0-9.84,4.41-9.84,9.84s4.41,9.83,9.84,9.83,9.84-4.41,9.84-9.83-4.41-9.84-9.84-9.84ZM223.99,946.89c-6.3,0-11.44-5.13-11.44-11.43s5.14-11.44,11.44-11.44,11.42,5.13,11.42,11.44-5.12,11.43-11.42,11.43ZM223.99,925.62c-5.43,0-9.84,4.41-9.84,9.84s4.41,9.83,9.84,9.83,9.82-4.41,9.82-9.83-4.41-9.84-9.82-9.84ZM174.38,946.89c-6.3,0-11.44-5.13-11.44-11.43s5.14-11.44,11.44-11.44,11.44,5.13,11.44,11.44-5.14,11.43-11.44,11.43ZM174.38,925.62c-5.42,0-9.84,4.41-9.84,9.84s4.41,9.83,9.84,9.83,9.84-4.41,9.84-9.83-4.41-9.84-9.84-9.84ZM338.2,918.77h-165.31v-5.77c0-3.07,2.45-5.55,5.71-5.78l62.96-4.32v-64.33h6.02v-48.92h15.93v48.92h6.02v64.33l63.76,4.32c2.81.18,4.91,2.32,4.91,4.97v6.58ZM174.5,917.16h162.1v-4.98c0-1.79-1.47-3.23-3.42-3.36l-65.25-4.41v-64.23h-6.02v-48.92h-12.72v48.92h-6.02v64.23l-.74.05-63.71,4.36c-2.41.17-4.22,1.97-4.22,4.17v4.16Z"/>
      </g>
      <g>
        <path class="st14" d="M274.9,510.61H97.63l59.41,256.18,186.3.18-60.03-247.95c-1.09-4.5-3.79-8.42-8.41-8.42Z"/>
        <path class="st33" d="M344.37,767.79h-1.03s-186.95-.19-186.95-.19l-.13-.62-59.64-257.17h178.28c4.45,0,7.79,3.29,9.19,9.03l60.29,248.96ZM157.69,766l184.62.17-59.79-246.95c-.57-2.35-2.45-7.8-7.62-7.8H98.64l59.04,254.58Z"/>
      </g>
      <g>
        <path class="st14" d="M392.15,766.98h-161.01v34.22h175.31v-19.92c0-7.87-6.43-14.3-14.3-14.3Z"/>
        <path class="st33" d="M407.25,802.01h-176.92v-35.83h161.81c8.33,0,15.11,6.77,15.11,15.1v20.73ZM231.94,800.4h173.71v-19.12c0-7.44-6.06-13.5-13.51-13.5h-160.21v32.62Z"/>
      </g>
      <g>
        <path class="st27" d="M97.63,510.61h-27.49l63.32,273.76c3.97,17.17,13.97,16.41,13.97,16.83h83.71v-.47l93.91.56-.05-.17-93.86-.56v-33.58h-74.21l-59.3-256.37Z"/>
        <path class="st33" d="M325.04,802.09h0l-93.18-.55c-.11.28-.4.47-.73.47h-83.71c-.15,0-.31-.04-.44-.12-.06,0-.13-.02-.23-.04-6.99-1.31-11.73-7.13-14.08-17.29l-63.32-273.76c-.06-.24,0-.49.15-.69.15-.19.38-.3.63-.3h27.49c.38,0,.71.26.78.62l59.16,255.75h73.56c.44,0,.8.35.8.8v32.78l93.07.56c.38,0,.71.26.78.62.06.24.02.57-.13.76-.15.19-.36.38-.61.38ZM147.62,800.4h82.71v-32.62h-73.41c-.38,0-.71-.26-.78-.62l-59.16-255.75h-25.83l63.09,272.78c2.2,9.48,6.49,14.89,12.8,16.06.19.03.38.07.57.14Z"/>
      </g>
    </g>
    <path class="st15" d="M441.13,946.19c-21.78-.35-38.06-.61-45.58-2.98-8.11-2.56-6.44-7.51-1.77-15.43,20.53,9.44,15.05-1.94,24.66-.5,6.75,5.43,16.74,9.07,29.97,10.92,5.59,4.13,3.32,7.8-7.27,7.98Z"/>
    <path class="st18" d="M395.4,920.61c-20.02-72.59-27.17-123.58-21.48-152.97-11.37,1.63-22.79,2.13-34.27,1.53,1.74-7.85,3.5-15.73,5.28-23.71-.15-7.98-78.46-28.3-105.77-37.57-9.73-3.31,22.69-11.96,33.25-10.62,50.07-.9,108.48-7.11,133.13,28.09,6.72,9.6,8.7,16.48,8.94,27.8.57,26.99-3.63,64.06.86,167.67-6.29.65-12.93.58-19.95-.22Z"/>
    <path class="st12" d="M410.61,739.64c8.07,37.16,3.81,159.99,4.74,181.18-3.75.39-7.63.52-11.64.39-15.62-61.06-35.74-128.15-2.7-182.16,5.71-9.32,6.76-12.45,9.6.58Z"/>
    <path class="st12" d="M198.48,763.52c-23.48-8.43-26.67-31.82-16.34-67.15,8.48,6.95,29.93,9.85,64.35,8.73-1.86,7.1,61.57,12.84,73.1,15.75,19.61,5.77,25.15,13.79,25.35,24.62-12.42,55.49-23.47,106.38-38.52,176.69-5.07,2.84-12.01,2.62-20.82-.66-7.06-68.18-5.12-117.77,5.81-148.75-29.03.11-60.01-3.84-92.92-9.22Z"/>
    <path class="st18" d="M198.48,763.52c-23.48-8.43-26.67-31.82-16.34-67.15,1.8,1.47,4.19,2.77,7.17,3.88-8.56,36.31.75,56.21,28.34,58.11,32.19,4.77,58.88,7.07,80.06,6.89-9.34,60.54-10.94,113.32-4.8,158.35-2.27-.44-4.71-1.14-7.31-2.11-7.06-68.18-5.12-117.77,5.81-148.75-29.03.11-60.01-3.84-92.92-9.22Z"/>
    <path class="st16" d="M413.24,921.02c.58,2.18,1.53,4.24,2.85,6.17-6.28.59-3.86,8.68-20.83,1.26.72-2.14,1.12-4.71,1.21-7.72,5.84.61,11.43.7,16.77.29Z"/>
    <path class="st15" d="M306.36,958.93c-11.56-4.77-13.29-12.54-19.65-15.5-6.4-2.99-7.14-8.32-.88-14.1,4.62,3.69,10.36,8.23,13.39,5.83,2.03-1.6,8.91-1.5,10.28.84,5.99,13.93,14.33,9.52,15.98,15.86.19,8.44-11.84,10.08-19.12,7.08Z"/>
    <path class="st16" d="M304.39,923.08c-.1,3.7.4,7.43,1.52,11.16-2.48-.39-5.46-.05-6.68.92-2.82,2.23-7.95-1.5-12.36-5,.72-2,1.2-4.58,1.45-7.73,6.46,2.02,11.81,2.24,16.07.65Z"/>
    <path class="st10" d="M284.03,535.75c-10.05-3.06-19.07-4.91-27.06-5.57-1.44,23.17-12.96,23.01-34.54-.48-20.78,1.83-24.85,2.11-36.38,6.04-24.95,25.02-27.25,53.89-40.29,86.88,14.44.68,20.92,2.5,30.74,6.18,2.11-7.91,3.87-14.27,5.29-19.09-.4,43.5-.55,73.31-.46,89.42,47.76,19.86,87.1,13.06,103.17-2.42.22-38.67.53-69.28.92-91.84,5.71,7.06,11.01,12.54,15.89,16.43,11.7-14.1,19.64-19.77,26.28-28.07-14.7-25.33-35.76-48.9-43.55-57.49Z"/>
    <path class="st27" d="M188.68,654.94c-2.56.4-4.98.75-7.25,1.07-.12,19.19-.15,33.57-.1,43.12,2.26,1.06,5.43,2.28,7.91,2.59-.02-1.23-.38-4.08-.39-5.29-.16-14.68-.22-28.51-.16-41.49h0ZM305.44,616.49c-7.03-6.15-13.72-16.14-20.08-29.95.71,4.81,1,11.26.85,19.32,5.41,6.59,10.44,11.74,15.09,15.45,1.43-1.73,2.81-3.33,4.14-4.82h0ZM190.66,579.07c-3.09,10.46-6.06,20.68-8.88,30.63-.08,8.41-.14,16.3-.21,23.69,2.05-.2,4.45-.34,7.29-.41.29-20.42.89-38.4,1.79-53.91Z"/>
    <path class="st27" d="M249.55,548.86c1.02.08,1.8,1,1.75,2.07-.06,1.06-.92,1.86-1.94,1.79-1.02-.08-1.81-1.01-1.75-2.08.05-1.06.92-1.86,1.94-1.78Z"/>
    <path class="st27" d="M236.33,564.9c-9.69-10.46-16.41-20.69-20.17-30.71,2.11-3.99,5.44-8.01,7.77-9.14,11.27,11.76,18.44,18.33,25.31,22.33.04.02.08.05.12.07.09-.31.18-.63.27-.94,1.81-6.21,4.44-13.41,5.58-20.57,3.24,2.29,4.4,5.79,6.17,9.29,2.88,7.76,3.88,16.98,3.01,27.66-2.13-2.98-4.26-5.62-6.39-7.92-2.89-3.13-5.77-5.63-8.65-7.52-2.54,2.16-4.99,4.87-7.33,8.11-1.97,2.73-3.88,5.84-5.71,9.34Z"/>
    <path class="st16" d="M224.05,525.12c1.75-2.17,3.22-5.06,4.42-8.68-.64-1.93-1.29-4.37-1.96-7.32-12.33-8.77-13.9-15.09-4.72-18.98,1.81,1.07,4.02,4.28,6.62,9.64,2.17-.05.13-5.71,1.29-7.81-2.39-9.01-.2-11.72-.86-17.32,6.36-9.03,21.8-11.45,40.84-8.57,1.61,17.55,7.03,58.95-14.19,57.62l-.15,2.31c-1.14,7.17-3.77,14.37-5.58,20.57l-.39.88c-6.88-4-14.04-10.57-25.31-22.33Z"/>
    <path class="st15" d="M268.69,467.5c-19.04-2.88-33.49-1.89-39.85,7.15.66,5.6-.89,9.02,1.5,18.03-1.16,2.11.25,7.06-1.92,7.11-2.6-5.36-4.81-8.58-6.62-9.64-9.18,3.88-7.6,10.2,4.72,18.98.68,2.94,1.33,5.39,1.96,7.32-21.66-12.72-31.15-43.56-11.41-58.02,4-25.56,40.74-2.1,59.65-14.06,7.19,10.4-2.25,23.04-8.03,23.15Z"/>
    <path class="st0" d="M241.08,521.91c3.49.96,10.37,1.91,14.4,1.79l-.15,2.31c-.22,1.38-.5,2.78-.81,4.16-.05-.02-.08-.03-.13-.04-6.23-2.18-10.67-4.92-13.31-8.22Z"/>
    <path class="st15" d="M215.01,467.21c1.8-2.58,1.94-4.83.4-6.75-4.3-.9-7.8.13-10.5,3.09,2.04-.52,5.4.7,10.09,3.66Z"/>
    <path class="st15" d="M219.47,459.21c-1.77,1.99-3.41,2.43-4.89,1.32-.92-3.75-.38-7.05,1.61-9.89-.25,1.91.84,4.76,3.28,8.57Z"/>
    <path class="st15" d="M255.28,466.14c.16-5.53,2.31-8.84,6.46-9.93,7.01,3.22,10.87,8.32,11.58,15.3-2.34-2.86-8.36-4.64-18.05-5.37Z"/>
    <path class="st15" d="M242.55,446.67c.84,2.35-.26,5.43,3.07,6.15,2.2,10.13,10.2-3.54,10.04-7.33-1.42,1.06-5.79,1.46-13.11,1.18Z"/>
    <path class="st27" d="M250.42,562.29c1.02.08,1.81,1,1.75,2.07-.05,1.06-.92,1.86-1.94,1.79-1.02-.08-1.8-1.01-1.75-2.07.05-1.06.92-1.86,1.94-1.78Z"/>
    <path class="st27" d="M251.3,575.73c1.02.08,1.8,1,1.75,2.07-.06,1.06-.92,1.86-1.94,1.78-1.02-.08-1.81-1.01-1.75-2.07.05-1.06.92-1.86,1.94-1.78Z"/>
    <path class="st16" d="M150.6,622.91c-2.28,9.68-3.22,18.53-1.36,30.27,6.16,4.73,31.02,20.78,89.2,16.63,2.12,2.03,6.49,4.04,13.13,3.14,6.17-1.61,6.46-3.3,13.38-10.15,1.67-5.33,1.33-9.4-1.04-12.2-15.47,9.55-91.46-15.1-92.05-14.77.67-3.07,1.26-5.76,1.78-8.08-7.24-2.59-13.12-4.09-23.05-4.84Z"/>
    <g>
      <g>
        <path class="st19" d="M247.59,481.93c-1.16-.15-2.19.93-2.31,2.43-.12,1.5.72,2.83,1.88,2.98,1.16.15,2.2-.93,2.32-2.42.12-1.5-.73-2.83-1.89-2.99Z"/>
        <path class="st9" d="M247.16,487.35c-1.16-.16-2-1.49-1.88-2.99.12-1.5,1.15-2.58,2.31-2.43.49.07.92.34,1.24.74l-.15-.04c-.38-.05-.72.31-.75.79-.04.48.23.92.61.97.37.05.71-.31.75-.79v-.11c.16.43.23.92.19,1.43-.12,1.49-1.16,2.58-2.32,2.43Z"/>
      </g>
      <path class="st9" d="M251.25,480.13c.06.05.11.09.16.15-.07-.25-.37-.58-.48-.78.12.09.19.13.31.29.1.14.17.28.24.45.01-.19-.05-.31-.07-.49.09.13.15.38.17.53,0-.55-.03-.51-.24-1.03.23.15.4.65.43.94.05-.12.06-.27.06-.43.09.19.09.28.09.47l.15-.21c-.03.13-.07.16-.08.26.27-.21.76-.9.7-1.27-.04.15-.15.44-.24.53.03-.26.13-.55.08-.85-.08.19-.05.45-.11.66-.05.21-.14.45-.24.58.08-.44.22-.8.09-1.29l-.02.12c0,.23,0,.48-.04.7-.06-.41-.02-.79-.36-1.1.08.17.16.27.21.47-.18-.19-.25-.53-.55-.58.13.16.26.27.4.48.11.17.27.47.19.69-.19-.75-.62-1.15-1.12-1.29.14.07.57.39.61.57v.03c-.04.2-.03-.18-.02.04.1.08.22.24.28.37.04.08.08.18.11.27.01.04.03.12.03.16,0,.05,0,.04,0,.08v.05c-.15-.5-.32-.78-.66-1.06-.21-.17-.69-.47-.98-.51.01,0,.02,0,.02,0l.23.12c.57.29,1.11.64,1.28,1.36-.03-.03,0,0-.05-.06-.01-.02-.01-.02-.02-.04-.12-.21-.25-.43-.41-.6-.18-.19-.4-.38-.6-.49-.26-.14-1.08-.46-1.49-.41.13,0,.9.23,1.03.28.28.12.66.29.87.57-.12-.03-.24-.12-.36-.17-.71-.32-1.96-.8-2.7-.76.45.09,1.11.31,1.46.5l-.28-.06c.08.04.14.08.23.12.08.04.14.07.23.12.38.23.97.61,1.19,1.04-.1-.1-.24-.2-.36-.3-.13-.11-.24-.19-.37-.28-.25-.17-.52-.37-.79-.5-.57-.28-1.12-.51-1.76-.66.09.04.18.07.25.16-.53-.03-1.38-.46-2.7-.52.28.1.75.14,1.07.23l.29.12c-.18,0-.74-.15-.96-.19-1.13-.22-1.82-.37-3.05-.36-.77,0-1.51,0-2.29.33-.51.22-.99.47-1.4.82-.15.12-.22.21-.34.33.31-.16,1.01-.85,1.7-.99-1.06.62-1.91,1.18-2.66,2,.2-.13.49-.4.71-.57.25-.19.5-.37.77-.54.47-.31,1.24-.74,1.83-.89-.14.12-.51.3-.69.4-1.32.74-2.58,1.6-3.74,2.57-.14.12-.41.4-.51.47.13-.05.61-.43.78-.55.85-.58,1.66-1.12,2.7-1.41-.27.21-2.16.97-2.75,1.51l1.62-.82c.49-.23,1.32-.59,1.87-.66-.62.12-3.02,1.21-3.5,1.62.25-.09.62-.3.9-.42.32-.14.64-.27.98-.39.67-.24,1.39-.45,2.1-.55.96-.13,1.87-.11,2.81-.02.27.03.63.1.89.1-.15-.1-.62-.13-.79-.16-.53-.08-1.08-.12-1.62-.13-.22,0-.67.05-.84.02.65-.16,1.16-.1,1.72-.17-.05,0-.02,0-.07,0-.06-.02-.03-.01-.07-.03.34-.03,1.01.09,1.33.17.38.09,1.14.39,1.18.39-.09-.07-.18-.11-.25-.18l.92.22-1.13-.42c.22.03.53.15.75.21.27.07.83.21,1.08.31.29.11.84.19,1.15.19-.11-.07-.48-.17-.64-.23l-.62-.22c-.11-.05-.21-.07-.31-.12-.28-.15-.58-.26-.88-.38-.53-.22-2.09-.68-2.66-.52.73-.23,2.24.23,2.77.44l1.23.51c.12.04.19.09.31.13.29.12.61.25.92.34l-.02-.07h0v-.02s0-.01,0-.02c.11.07.43.19.58.21-.29-.28-1.04-.51-1.29-.88.26.09.56.31.79.46.08.05.17.09.25.14-.2-.35-.6-.66-.92-.89l-.36-.22c.31.02.66.31.89.52.23.2.43.44.62.68.02.03.02.03.04.05.04.04.02.02.06.03l-.28-.48c.05.09.43.48.45.61-.04-.25-.21-.44-.31-.64l.18.13c-.28-.49-.96-.83-1.38-1.13.41.04,1.18.64,1.45,1.03.13.18.22.42.34.57l-.13-.38s.02.01.02.01l.2.24c-.15-.47-.39-.73-.67-1.02.13.03.22.12.32.2.09.08.18.19.25.3.16.23.3.48.4.76.02-.11-.06-.32-.1-.46.08.03,0,0,.09.04.13.09.22.28.29.4l-.05-.28.19.28c-.05-.26-.13-.4-.19-.63.16.11.23.31.31.51.03-.09,0-.23-.04-.34l.22.23c.05.07.11.17.17.24-.06-.25-.18-.38-.28-.58.24.15.32.38.49.63-.05-.29-.26-.72-.42-.9.26.05.42.73.54.87v-.3s0,0,.04.05l.15.29-.02-.38c.11.11.12.23.19.38,0-.02,0-.32-.05-.49.05.03,0,0,.07.06.12.11.16.27.26.38l-.12-.3s.02,0,.06.03l.14.12Z"/>
      <g>
        <path class="st19" d="M266.16,481.33c1.07.15,1.85,1.49,1.74,2.98-.11,1.5-1.07,2.58-2.15,2.43-1.07-.15-1.85-1.49-1.74-2.99.11-1.49,1.07-2.58,2.14-2.42Z"/>
        <path class="st9" d="M265.76,486.74c1.08.15,2.04-.93,2.15-2.43.11-1.5-.67-2.83-1.74-2.99-.45-.07-.88.09-1.24.4h.15c.35.04.6.48.57.96-.03.48-.34.84-.69.79-.35-.05-.6-.48-.57-.97v-.1c-.2.38-.33.84-.37,1.35-.11,1.5.67,2.84,1.74,2.99Z"/>
      </g>
      <path class="st9" d="M261.64,480.47c-.04.05-.08.09-.12.15.05-.25.27-.58.35-.78-.08.09-.14.13-.23.29-.07.14-.12.28-.18.45,0-.19.05-.31.06-.48-.07.13-.12.38-.13.53.01-.55.03-.51.18-1.03-.17.15-.29.65-.32.93-.04-.11-.04-.27-.04-.43-.07.19-.07.28-.07.47l-.1-.2c.02.12.04.15.05.25-.19-.2-.53-.9-.48-1.27.03.16.1.44.17.53-.02-.26-.08-.55-.05-.85.05.19.03.45.07.66.03.21.09.45.16.58-.05-.44-.14-.8-.04-1.29v.12c.01.23,0,.48.03.7.05-.4.03-.79.28-1.09-.05.17-.12.27-.16.47.13-.19.19-.53.41-.57-.1.16-.19.26-.29.48-.08.17-.2.47-.16.68.16-.75.47-1.14.83-1.28-.1.07-.41.39-.44.57v.03c.02.2.02-.18,0,.05-.07.08-.15.24-.2.37-.03.08-.06.17-.08.27,0,.04-.02.12-.03.16v.13c.12-.5.24-.78.49-1.06.15-.17.5-.47.7-.5,0,0-.01,0-.02,0l-.17.12c-.41.29-.81.64-.94,1.35.02-.03,0,0,.04-.06,0-.02,0-.02.02-.04.09-.21.18-.43.31-.6.13-.2.29-.38.43-.48.18-.14.78-.46,1.08-.41-.09,0-.65.23-.74.28-.21.12-.47.28-.63.57.08-.04.18-.12.25-.17.52-.32,1.42-.8,1.95-.76-.33.09-.8.3-1.05.5l.2-.06c-.05.04-.1.09-.17.13-.05.03-.11.07-.16.11-.28.22-.71.61-.87,1.03.07-.1.17-.2.26-.3.09-.11.17-.2.27-.28.18-.17.38-.37.57-.5.42-.28.81-.5,1.28-.64-.06.03-.13.07-.18.15.38-.02,1-.44,1.93-.5-.2.1-.54.14-.76.23l-.21.11c.12,0,.53-.14.69-.19.81-.21,1.31-.36,2.18-.34.56,0,1.08.01,1.63.34.36.22.7.48.99.82.11.13.16.22.24.33-.22-.15-.71-.85-1.2-.99.75.63,1.35,1.18,1.86,2-.14-.13-.34-.4-.5-.57-.18-.19-.35-.37-.54-.54-.33-.32-.87-.74-1.3-.9.1.11.37.3.49.4.93.75,1.82,1.6,2.63,2.58.09.11.28.4.35.47-.09-.05-.43-.44-.54-.55-.6-.59-1.16-1.12-1.91-1.42.2.21,1.53.98,1.94,1.52l-1.14-.82c-.35-.23-.94-.59-1.33-.67.44.12,2.14,1.22,2.48,1.63-.18-.09-.44-.3-.64-.42-.23-.14-.45-.27-.69-.39-.48-.24-.99-.45-1.5-.55-.68-.14-1.34-.12-2.01-.03-.19.03-.45.09-.63.09.11-.09.44-.12.56-.15.39-.08.78-.12,1.17-.12.16,0,.48.05.6.02-.47-.17-.83-.1-1.23-.17.04,0,.02,0,.05-.02.04-.02.02-.01.05-.03-.25-.03-.73.09-.96.17-.27.09-.82.39-.85.39.07-.07.13-.11.18-.19l-.67.22.82-.41c-.16.03-.38.14-.54.21-.19.07-.59.2-.78.29-.21.12-.6.19-.83.19.08-.07.34-.17.46-.22l.44-.22c.08-.04.15-.07.23-.12.21-.15.42-.26.64-.38.39-.21,1.51-.67,1.91-.5-.51-.24-1.6.22-1.99.43l-.89.5c-.08.04-.14.09-.22.13-.22.12-.44.25-.67.34l.02-.07h0v-.02s0-.01,0-.02c-.08.07-.31.2-.42.21.22-.28.76-.51.94-.87-.18.08-.4.31-.57.45-.06.06-.12.09-.18.14.15-.35.44-.65.68-.88l.26-.22c-.22.02-.48.31-.64.51-.17.2-.31.44-.46.68-.02.03-.02.02-.03.05-.03.04,0,.02-.04.03l.21-.48c-.04.1-.32.48-.33.61.04-.25.16-.45.23-.65l-.13.13c.21-.48.7-.82,1.01-1.12-.3.05-.85.63-1.06,1.02-.09.18-.17.41-.26.57l.1-.38s0,.01,0,.02l-.15.24c.12-.48.29-.73.5-1.03-.09.03-.16.11-.23.21-.07.08-.13.19-.19.29-.12.23-.22.48-.3.76-.01-.11.04-.32.08-.46-.06.02,0,0-.06.04-.09.09-.16.28-.22.4l.04-.28-.14.28c.03-.26.1-.4.14-.63-.11.11-.17.31-.23.51-.02-.09.02-.23.04-.34l-.16.23c-.05.08-.08.17-.12.24.04-.25.13-.38.21-.57-.18.15-.24.38-.37.63.04-.29.2-.72.32-.89-.19.04-.31.72-.4.86v-.29s0,0-.02.05l-.12.29.02-.38c-.07.11-.09.23-.14.38,0-.02,0-.32.05-.49-.04.03,0,0-.05.06-.08.11-.12.27-.19.38l.09-.3s0,0-.04.03l-.1.12Z"/>
      <path class="st21" d="M258.85,485.75c-.18-.18-.48-.17-.67.01-.18.18-.17.48.01.66.34.33,1.21,2.6,2.06,5.04,1.01,2.93,1.96,6.07,1.91,6.49-.19,1.89-1.73,1.95-2.78,2-.52.02-.95.04-1.25.24-.22.14-.27.43-.13.65.14.22.43.27.65.13.08-.05.4-.06.76-.08,1.37-.05,3.39-.14,3.67-2.84.05-.55-.92-3.87-1.96-6.9-.88-2.55-1.83-4.96-2.29-5.4Z"/>
      <path class="st4" d="M246.12,505.72c9.87,6.75,15.62,7.19,17.25,1.31-7.17.71-12.92.28-17.25-1.31Z"/>
    </g>
    <g>
      <path class="st8" d="M573.71,681.46H243.83v11.16h325.76c2.27,0,4.13-1.86,4.13-4.13v-7.03Z"/>
      <path class="st14" d="M557.8,705.73H252.31v-13.35h311.18v7.66c0,3.13-2.56,5.69-5.69,5.69Z"/>
      <path class="st14" d="M119.54,681.46h124.29v11.16h-118.94c-2.94,0-5.36-2.41-5.36-5.36v-5.8Z"/>
      <path class="st10" d="M135.92,705.73h116.38v-13.35h-121.62v8.12c0,2.88,2.36,5.23,5.23,5.23Z"/>
      <polygon class="st14" points="554.02 705.73 518.25 705.73 518.25 952.9 529.86 952.9 554.02 705.73"/>
      <rect class="st32" x="518.25" y="705.73" width="6.39" height="247.17"/>
      <polygon class="st10" points="487.58 705.73 451.81 705.73 451.81 952.9 463.42 952.9 487.58 705.73"/>
      <rect class="st33" x="451.81" y="705.73" width="6.39" height="247.17"/>
      <polygon class="st14" points="207.29 705.73 243.07 705.73 243.07 952.9 231.45 952.9 207.29 705.73"/>
      <rect class="st32" x="236.68" y="705.73" width="6.39" height="247.17"/>
      <polygon class="st10" points="142.71 705.73 178.48 705.73 178.48 952.9 166.87 952.9 142.71 705.73"/>
      <rect class="st33" x="172.1" y="705.73" width="6.39" height="247.17"/>
    </g>
    <g>
      <path class="st3" d="M430.5,572.89h-138.42c-2.73,0-5.55,2.23-6.26,4.96l-24.63,93.78c-.72,2.73.93,4.96,3.65,4.96h138.43c2.73,0,5.54-2.23,6.26-4.96l24.63-93.78c.72-2.73-.93-4.96-3.66-4.96Z"/>
      <path class="st25" d="M266.13,639.27l16.72-63.67c.71-2.73,3.53-4.96,6.26-4.96h138.42c2.73,0,7.59,3.53,6.78,6.23.13-2.26-1.43-3.97-3.82-3.97h-138.42c-2.73,0-5.55,2.23-6.26,4.96l-24.63,93.78c-.43,1.64-.01,3.09.98,4-2.28-1.47-4.45-4.32-3.94-6.26l7.91-30.11Z"/>
      <path class="st25" d="M264.84,676.59h138.43c.5,0,1.01-.08,1.52-.22-2.75,7.14-10.24,6.08-13.16,6.06h-164.12c-8.89-.38-8.67-6.62-8.78-12.63h39.43c-.13,1.91,1.9,4.46,4.01,5.82.67.6,1.58.96,2.67.96Z"/>
      <path class="st25" d="M284.22,611.46c76.23,38.56,76.09-1.73,128.92,18.94l-10.3,39.21h-133.89l15.26-58.15Z"/>
    </g>
  </g>
  <g>
    <g>
      <path class="st10" d="M643.9,544.36c-6.65-7.74-6.72-18.78-.18-33.12,6.77,3.44,9.08,8.62,12.75,15.58,39.99-12.84,29.87-53.18,13.26-53.65,40.65-7.73,65.22-3.32,83.79,18.27,6.25,19.92-1.2,66.75-5.98,84.41-5.06,20.4-11.92,31.8-7.28,62.37-21.6,15.55-27.68,31.72-85.03,14.49,1.28-17.64,5.61-21.94,5.38-63.94,1.47-13.85-9.35-30.12-16.69-44.41Z"/>
      <path class="st18" d="M655.22,652.71c39.32,3.78,57.17-5.67,85.03-14.49,36.64,54.35,5.05,82.38,20.79,153.7-25.99,26.09-64.84,30.71-116.54,13.86-1.22-42.13,3.19-104.08,10.71-153.08Z"/>
      <path class="st16" d="M739.88,807.11c.54,8.45.7,15.93,1.83,21.19,12.78,34.28,2.51,67.87-.53,163.67.45,1.21.93,2.36,1.45,3.46-6.41,2.82-5.62,9.01-9.43,10.39-17.82,6.44-10.44-4.94-13.37-8.11.8-1.99,1.5-3.91,2.1-5.79-.47-88.32-14.9-132.05-14.94-159.53-.18-4.19-1.29-12.89-1.64-16.84h.11c12.75-.67,24.22-3.49,34.41-8.44Z"/>
      <path class="st15" d="M750.81,1012.74c-4.01-9.5-2.08-18.17-6.4-17.95-8.36,2.38-7.08,9.53-11.21,11.03-20.19,7.29-8.03-8.28-15.17-8.88-15.59,6.42-23.43-1.22-25.28,10.56,1.39,3,11.77,14.08,47.71,16.18,8.11-3.17,11.56-6.82,10.35-10.94Z"/>
      <path class="st16" d="M697.71,815.69c-.99,9.83-2.24,17.41-3.05,23.17,14.56,29.64-.67,67.91-8.19,163.48.39,1.22.83,2.4,1.29,3.52-6.54,2.52-6.03,8.74-9.9,9.94-18.1,5.59-10.2-5.41-12.97-8.72.89-1.94,1.69-3.84,2.37-5.68-1.25-90.99-3.35-145.9-6.3-164.73.05-8.85-1.02-18.05-2.04-26.64,13.96,3.62,26.89,5.51,38.79,5.68Z"/>
      <path class="st15" d="M698.43,1023.69c-3.56-9.68-4.54-18.41-8.86-18.4-8.46,1.99-7.51,9.19-11.71,10.49-20.51,6.34-7.63-8.64-14.74-9.58-22.04,7.69-37.45,3.07-37.47,14.63,4.6,7.14,25.24,11.58,61.93,13.31,8.25-2.79,11.87-6.27,10.85-10.45Z"/>
      <path class="st27" d="M656.47,526.82c39.99-12.84,29.87-53.18,13.26-53.65-16.18-2.04-19.98-.7-44.6-3.52-8.95,9.79-9.38,22.17-1.3,37.12,24.26,2.02,26.63,8.66,32.63,20.05Z"/>
      <path class="st16" d="M621.63,474.32c-10.13.37-21.68-.17-34.64-1.61-10.18-8.98-37.84-27.46-83.01-55.42-10.39-15.86-20.99-26.08-34.48-32.39-3.31,1.41-1.37,3.68,9.38,14-7.2,15.36-1.3,24.4,17.74,24.83,42.48,39.52,69.59,62.79,81.33,69.81,16.06,5.32,30.55,8.08,43.48,8.28-4.53-10.56-4.46-19.73.2-27.5Z"/>
      <path class="st16" d="M744.67,586.28c15.47-2.47,20.34-9.35,18.98-31.8-2.91,1.15-7.69,2.58-12.26,3.42-1.28,7.24-2.65,13.52-3.85,17.96-.51,2.07-2.33,8.52-2.87,10.43Z"/>
      <path class="st27" d="M751.39,557.89c4.58-.84,8.32-1.83,11.22-2.98.74-.29,1.43-.59,2.06-.91,2.17-31.69-1.55-52.54-11.16-62.56,4.68,14.91,1.68,44.91-2.13,66.45Z"/>
      <path class="st15" d="M706.11,455.54c20.87,1.17,31.1-10.38,30.71-34.64.64-2.45,1.07-4.79,1.28-7.01,1.26-13.57-5.57-23.2-20.49-28.89-34.92-12.1-49.93-6.84-45.04,11.02,3.3,7.32,8.28,12.89,14.96,16.69-1.92,3.45-2.55,7.34-1.89,11.65-.06,1.19.31,2.81,1.1,4.88,1.07-8.71,3.96-14.22,8.66-16.53,3.07,5.36,2.12,12.39-2.83,21.1-2.15,12.57,2.36,19.81,13.54,21.73Z"/>
      <path class="st15" d="M748.61,451.12c4.44-.8,5.16,6.29,6.39,8.98,3.34-12.57.4-26.36-5.26-31.02,1.81.25,3.75,1.25,5.83,2.99.77-14.21-16.05-18.3-20.47-18.76-2.25-.23-3.88,1.03-4.89,3.79-6.36,18.49-3.01,34.55,10.08,48.2-2.48-3.59-3.42-7.85-2.83-12.76,4.49,14.24,12.53,17.65,24.1,10.23-9.57,2.9-11.28-1.63-12.95-11.67Z"/>
      <path class="st27" d="M734.78,413.34c-1.57-2.27-3.93-4.04-7.24-3.47-5.23,1.64-5.97,8.58-2.17,10.75,1.07.78,2.31,1.04,3.43,1.15.4-1.54.87-3.09,1.41-4.66.96-2.6,2.48-3.86,4.56-3.78Z"/>
      <path class="st16" d="M720.14,471.36c-1.72-5.26-1.44-11.19.86-17.77-4.15,1.62-9.11,2.28-14.89,1.95-11.18-1.92-15.69-9.16-13.54-21.73,4.96-8.71,5.91-15.74,2.83-21.1-4.7,2.31-7.59,7.82-8.66,16.53-.79-2.07-1.16-3.69-1.1-4.88-.67-4.31-.03-8.2,1.89-11.65-4.08-2.32-7.53-5.31-10.35-8.94-4.48,4.66-5.99,9.64-4.54,14.92-5.62,8.2-7.25,15.44-4.88,21.73-.39,6.65.14,11.23,1.57,13.74,2.28,4,14.02,2.11,18.11,1.86,1.73,4.34,2.04,9.12.95,14.36,12.12-1.23,22.57-.97,31.74.98Z"/>
      <path class="st6" d="M723.11,446.29c-.44-7.72.69-16.06,3.39-25.05.76.31,1.55.45,2.3.53-2.44,9.36-2.27,18.07.5,26.13-2.26,2.5-5.02,4.4-8.3,5.68-4.15,1.62-9.11,2.28-14.89,1.96-7.32-1.26-11.79-4.81-13.39-10.64,7.7,9.86,17.83,10.32,30.39,1.38Z"/>
    </g>
    <path class="st15" d="M671.85,410.25c.89-3.34,2.1-3.23,2.1-3.23,4.22,6.28,4.4,7.29,4.17,8.25-4.88-3.91-6.27-5.02-6.27-5.02Z"/>
  </g>
</svg>